<?xml version="1.0" encoding="UTF-8" standalone="no"?>
<svg
   width="1200"
   height="180"
   viewBox="0 0 1200 180.00034"
   fill="none"
   version="1.1"
   id="svg7"
   sodipodi:docname="gefyra_horizontal_logo.svg"
   inkscape:version="1.3 (0e150ed6c4, 2023-07-21)"
   xmlns:inkscape="http://www.inkscape.org/namespaces/inkscape"
   xmlns:sodipodi="http://sodipodi.sourceforge.net/DTD/sodipodi-0.dtd"
   xmlns="http://www.w3.org/2000/svg"
   xmlns:svg="http://www.w3.org/2000/svg">
  <defs
     id="defs7" />
  <sodipodi:namedview
     id="namedview7"
     pagecolor="#ffffff"
     bordercolor="#000000"
     borderopacity="0.25"
     inkscape:showpageshadow="2"
     inkscape:pageopacity="0.0"
     inkscape:pagecheckerboard="0"
     inkscape:deskcolor="#d1d1d1"
     inkscape:zoom="0.705"
     inkscape:cx="368.79433"
     inkscape:cy="53.191489"
     inkscape:window-width="1920"
     inkscape:window-height="1129"
     inkscape:window-x="-8"
     inkscape:window-y="-5"
     inkscape:window-maximized="1"
     inkscape:current-layer="svg7" />
  <path
     d="m 732.31331,92.9254 c 2.52409,-0.0685 5.03614,0.36562 7.39031,1.27692 1.872,0.77711 3.58753,1.88637 5.06375,3.27395 1.32683,1.24731 2.43417,2.70803 3.27743,4.32154 0.74908,1.452 1.34806,2.97701 1.78632,4.55086 0.35614,1.25709 0.59262,2.54512 0.70449,3.84688 0.0821,1.11315 0.1147,1.88256 0.1147,2.29179 v 4.04335 H 720.711 c 0.0673,0.83724 0.27825,1.65677 0.62305,2.42278 0.48146,1.15534 1.15125,2.2229 1.98246,3.15939 1.01105,1.13602 2.22884,2.06933 3.58895,2.75009 1.68367,0.81288 3.53868,1.20611 5.40785,1.14593 1.97325,0.0275 3.94296,-0.18132 5.86665,-0.62207 1.55128,-0.34856 3.07422,-0.81372 4.5554,-1.39153 1.41958,-0.52713 2.77685,-1.20782 4.04774,-2.02983 v 8.67628 c -0.65279,0.63085 -1.43586,1.1116 -2.29468,1.40755 -1.24612,0.51827 -2.53401,0.92892 -3.85092,1.2277 -1.45781,0.32782 -2.93332,0.62235 -4.4407,0.85104 -1.28293,0.22303 -2.58144,0.34339 -3.88349,0.36038 -0.89918,-0.029 -1.79624,-0.10549 -2.68764,-0.22939 -1.39267,-0.20604 -2.76057,-0.55722 -4.08032,-1.04717 -1.60578,-0.60181 -3.1436,-1.36931 -4.58867,-2.29185 -1.63198,-1.05849 -3.08201,-2.37456 -4.29343,-3.89623 -1.39409,-1.78308 -2.46957,-3.79336 -3.179,-5.94227 -0.8914,-2.74711 -1.31267,-5.62507 -1.24541,-8.5123 0.012,-2.37321 0.47367,-4.72264 1.36011,-6.92443 0.9013,-2.32989 2.23592,-4.46838 3.93305,-6.30244 1.78137,-1.91972 3.91817,-3.4763 6.29287,-4.5835 2.65436,-1.24456 5.55653,-1.87143 8.48844,-1.83342 z m 9.83227,16.6318 c -0.16143,-1.64069 -0.66413,-3.2297 -1.47481,-4.66549 -0.74342,-1.27543 -1.73535,-2.38878 -2.91703,-3.27395 -1.5626,-1.06734 -3.43603,-1.58547 -5.32573,-1.47318 -1.95555,-0.0652 -3.90047,0.31542 -5.68681,1.11308 -1.35586,0.63693 -2.57011,1.53866 -3.57195,2.65196 -0.8206,0.90442 -1.45569,1.96114 -1.86847,3.11018 -0.32073,0.80474 -0.50836,1.65613 -0.55721,2.52105 z"
     fill="#2d3b41"
     id="path1"
     style="stroke-width:0.708021" />
  <path
     d="m 788.86497,95.15191 10.55371,24.55475 10.38882,-24.55475 c 0.10264,-0.24144 0.27396,-0.44754 0.49203,-0.59297 0.21881,-0.14549 0.47511,-0.22394 0.73709,-0.2255 h 8.96423 l -23.49922,57.0653 h -9.83224 l 7.94755,-19.43088 -15.64939,-37.6507 h 8.83258 c 0.23505,0.0342 0.45664,0.12907 0.64359,0.27556 0.18688,0.14648 0.33201,0.33928 0.42125,0.55919 z"
     fill="#2d3b41"
     id="path2"
     style="stroke-width:0.708021" />
  <path
     d="m 823.90061,94.3173 h 8.47145 v 3.8141 c 0.8687,-1.04277 1.92508,-1.91434 3.11388,-2.57011 1.44287,-0.73457 2.95874,-1.31614 4.52284,-1.73515 2.28192,-0.60266 4.63743,-0.87822 6.99733,-0.81853 v 8.52872 c -1.5648,0.0141 -3.1259,0.14536 -4.67014,0.39288 -1.63833,0.24271 -3.24412,0.67113 -4.7855,1.27685 -1.37494,0.53823 -2.62815,1.34509 -3.68663,2.37356 -0.48993,0.47444 -0.87512,1.04546 -1.13216,1.67673 -0.2563,0.63134 -0.37877,1.30913 -0.35962,1.99025 v 25.19295 h -8.47145 z"
     fill="#2d3b41"
     id="path3"
     style="stroke-width:0.708021" />
  <path
     d="m 890.07141,94.3173 v 40.12225 h -8.4884 v -5.59831 c -1.7757,2.29752 -4.0074,4.20351 -6.5549,5.59831 -2.4596,1.30629 -5.1905,2.0214 -7.9751,2.09007 -2.7847,0.068 -5.5474,-0.5126 -8.0679,-1.69711 -2.3691,-1.13638 -4.4945,-2.72092 -6.2596,-4.66515 -2.8115,-3.18771 -4.6978,-7.08225 -5.4546,-11.26275 -0.7562,-4.1805 -0.3554,-8.48809 1.1611,-12.45731 0.9892,-2.52805 2.4271,-4.85709 4.2439,-6.87537 1.7566,-1.95427 3.8842,-3.54016 6.2603,-4.66535 2.3882,-1.11598 4.9994,-1.67574 7.636,-1.63694 2.9298,-0.0169 5.8178,0.69181 8.4063,2.0626 2.5673,1.38178 4.8033,3.30299 6.5549,5.63124 V 94.4155 Z m -21.3029,33.50899 c 1.6894,0.005 3.3624,-0.33467 4.9158,-0.99851 1.5152,-0.65252 2.8902,-1.59198 4.0477,-2.76652 1.1534,-1.18034 2.0809,-2.56183 2.7365,-4.07607 1.3319,-3.22389 1.3319,-6.84357 0,-10.06746 -0.6463,-1.53358 -1.5746,-2.93269 -2.7365,-4.12528 -1.1575,-1.17447 -2.5325,-2.11393 -4.0477,-2.76645 -1.5753,-0.65873 -3.2661,-0.99788 -4.9731,-0.99788 -1.7078,0 -3.3986,0.33915 -4.9739,0.99788 -1.5258,0.66002 -2.9149,1.59822 -4.0967,2.76645 -1.1774,1.18324 -2.1127,2.58448 -2.7534,4.12528 -0.6698,1.59375 -1.0153,3.30503 -1.0153,5.03373 0,1.72863 0.3455,3.43998 1.0153,5.03373 0.6499,1.52146 1.5839,2.90501 2.7534,4.07607 1.1818,1.1683 2.5709,2.10643 4.0967,2.76652 1.6044,0.68656 3.3355,1.02677 5.0801,0.99851 z"
     fill="#2d3b41"
     id="path4"
     style="stroke-width:0.708021" />
  <path
     d="m 772.55996,94.31723 h -4.80178 v -4.10885 c -0.0177,-0.86506 0.0757,-1.72884 0.27896,-2.57004 0.0814,-0.34027 0.23081,-0.66065 0.43897,-0.94188 0.20887,-0.2813 0.47154,-0.5177 0.77387,-0.69514 0.84821,-0.46643 1.787,-0.74553 2.75279,-0.81847 1.6702,-0.18033 3.35035,-0.25686 5.03044,-0.22918 v -7.97209 c -1.63834,0 -3.5231,0 -5.57139,0.24554 -2.00369,0.13368 -3.96773,0.62143 -5.8008,1.44061 -1.85713,0.83264 -3.44522,2.16449 -4.58867,3.84681 -1.37993,2.25951 -2.03273,4.88817 -1.86776,7.53014 v 4.27255 h -6.55484 v 8.47959 h 6.71839 v 31.64273 h 8.47217 v -31.64273 h 9.24249 l -3.17903,-7.62842 c -0.10833,-0.26337 -0.29595,-0.48669 -0.53669,-0.63912 -0.24067,-0.15251 -0.52248,-0.22657 -0.80712,-0.21205 z"
     fill="#2d3b41"
     id="path5"
     style="stroke-width:0.708021" />
  <path
     d="m 687.00291,106.52907 h -4.65381 l 2.98217,7.1864 c 0.0991,0.24398 0.26905,0.45257 0.48783,0.59856 0.21948,0.14599 0.47791,0.22267 0.7413,0.21991 h 12.42148 v 8.8724 c -1.18238,0.81344 -2.50426,1.40174 -3.90047,1.73522 -1.54065,0.436 -3.1337,0.66179 -4.73594,0.6712 -2.70535,-0.008 -5.38166,-0.56521 -7.86539,-1.63694 -2.38532,-0.99208 -4.55115,-2.44395 -6.37501,-4.27262 -1.82739,-1.83349 -3.2845,-4.00087 -4.29343,-6.38421 -1.04432,-2.48153 -1.57392,-5.14907 -1.55622,-7.84109 -0.0156,-2.67066 0.51402,-5.31645 1.55622,-7.77569 2.01786,-4.75704 5.7909,-8.55578 10.53746,-10.60769 2.70746,-1.18472 5.64858,-1.74427 8.60314,-1.63701 1.19372,0.0406 2.37965,0.20512 3.53939,0.49108 1.33037,0.31465 2.63029,0.74746 3.88349,1.29327 1.15407,0.47515 2.25291,1.07336 3.27742,1.78429 0.86237,0.5841 1.65889,1.25921 2.3761,2.01353 l 4.21202,-8.3159 c -0.93459,-0.67113 -1.99945,-1.3914 -3.196,-2.14445 -1.28577,-0.791 -2.64021,-1.46482 -4.04704,-2.01339 -1.59517,-0.6271 -3.23919,-1.11995 -4.91649,-1.47332 -1.99449,-0.41072 -4.02722,-0.60826 -6.06348,-0.58936 -3.86791,-0.0261 -7.69971,0.74279 -11.25751,2.25908 -3.42114,1.46057 -6.53501,3.55447 -9.17663,6.17138 -2.63454,2.63694 -4.73736,5.75457 -6.19446,9.18351 -1.48189,3.55879 -2.24513,7.37522 -2.24513,11.22968 0,3.85445 0.76324,7.67089 2.24513,11.22968 2.92978,6.92018 8.44383,12.42787 15.37109,15.35482 3.5578,1.51657 7.3896,2.28548 11.25751,2.25929 3.33123,0.0163 6.64618,-0.46942 9.83227,-1.44082 3.0813,-0.93388 5.94099,-2.48232 8.40702,-4.55073 v -21.87008 h -21.30359 z"
     fill="#2d3b41"
     id="path6"
     style="stroke-width:0.708021" />
  <path
     d="m 633.41364,115.39589 -8.40773,-36.24706 c -0.20958,-0.91512 -0.62731,-1.77153 -1.22205,-2.50468 -0.59473,-0.73309 -1.35019,-1.32386 -2.20973,-1.72772 L 587.56648,58.777354 c -0.85635,-0.40882 -1.79561,-0.62123 -2.74733,-0.62123 -0.95165,0 -1.89098,0.21241 -2.74733,0.62123 L 548.04873,74.91643 c -0.85996,0.40386 -1.61563,0.99463 -2.21015,1.72772 -0.59452,0.73315 -1.01233,1.58956 -1.22204,2.50468 l -8.39163,36.24706 c -0.21501,0.91171 -0.21764,1.85961 -0.008,2.77245 0.20996,0.91292 0.62705,1.76715 1.22,2.49867 l 23.6162,29.0693 c 0.59133,0.73209 1.34319,1.32257 2.19932,1.72827 0.85614,0.40499 1.79434,0.61457 2.74429,0.61244 h 37.78593 c 0.95264,0.004 1.89387,-0.20391 2.75291,-0.6089 0.85876,-0.40569 1.61351,-0.9983 2.20683,-1.73181 l 23.53739,-29.0693 c 0.57917,-0.73804 0.98203,-1.5953 1.17815,-2.50794 0.19612,-0.91271 0.18125,-1.85721 -0.0446,-2.76318 z m -9.95051,0.26359 c -0.14019,0.76792 -0.54943,1.46312 -1.15619,1.96454 -0.60678,0.50142 -1.37356,0.77733 -2.16584,0.77953 -0.3087,-0.003 -0.61527,-0.0449 -0.91334,-0.12405 l -10.69039,-2.96115 -9.77682,12.1082 4.72327,10.29396 c 0.34975,0.70873 0.44208,1.51375 0.26154,2.28124 -0.18055,0.7675 -0.62299,1.45073 -1.25341,1.93573 -0.40322,0.29453 -0.86796,0.49631 -1.36039,0.59048 -0.49243,0.0949 -1.00015,0.08 -1.48592,-0.0439 -0.48584,-0.12319 -0.93762,-0.35189 -1.32223,-0.66907 -0.38466,-0.3172 -0.69251,-0.7144 -0.90109,-1.16399 l -4.83343,-10.37177 h -15.63392 l -4.81772,10.37177 c -0.21035,0.44959 -0.51983,0.8475 -0.90591,1.16469 -0.38608,0.3172 -0.83915,0.54588 -1.32612,0.66908 -0.48697,0.1232 -0.99576,0.13807 -1.48932,0.0432 -0.49356,-0.0942 -0.95951,-0.29596 -1.364,-0.59049 -0.62794,-0.47933 -1.06925,-1.15762 -1.2498,-1.91944 -0.18061,-0.76183 -0.0896,-1.5626 0.25794,-2.26637 l 4.72319,-10.32512 -9.80855,-12.10819 -10.64308,2.96114 c -0.30318,0.0793 -0.6152,0.121 -0.92885,0.12405 -0.79235,-0.002 -1.55878,-0.27811 -2.16576,-0.77953 -0.60706,-0.50142 -1.01622,-1.19662 -1.15627,-1.96454 -0.12029,-0.84112 0.078,-1.69635 0.55721,-2.40259 0.47912,-0.70633 1.20548,-1.21419 2.04058,-1.4268 l 10.67453,-2.97666 3.44799,-15.14687 -8.20277,-6.1393 c -0.38105,-0.27599 -0.69895,-0.62781 -0.93281,-1.03272 -0.23386,-0.40492 -0.37851,-0.8538 -0.42453,-1.31741 -0.0461,-0.46362 0.008,-0.93154 0.15732,-1.37335 0.14982,-0.44188 0.39239,-0.84771 0.71199,-1.1911 0.6062,-0.62249 1.42672,-0.99945 2.30057,-1.05679 0.8739,-0.0573 1.73797,0.20893 2.4227,0.74667 l 8.39158,6.10837 14.37435,-6.75953 V 71.47468 c -2.8e-4,-0.46665 0.099,-0.92821 0.29135,-1.35472 0.1923,-0.42652 0.47346,-0.80849 0.82513,-1.12122 0.35174,-0.312726 0.76629,-0.549286 1.21673,-0.694286 0.45044,-0.145 0.9268,-0.19527 1.3982,-0.14755 0.85245,0.1176 1.63127,0.53952 2.18855,1.185436 0.55736,0.64593 0.85423,1.47098 0.83433,2.31834 V 81.6914 l 14.34292,6.75953 8.59635,-6.2014 c 0.3802,-0.27698 0.81563,-0.4721 1.27726,-0.5725 0.46163,-0.1004 0.94025,-0.10394 1.4033,-0.0104 0.46375,0.0936 0.90201,0.28222 1.28647,0.5536 0.38445,0.27139 0.7066,0.61938 0.9452,1.02147 0.41136,0.74193 0.53173,1.60713 0.33702,2.43062 -0.19471,0.82351 -0.68962,1.54767 -1.39197,2.03436 l -10.07631,7.31766 h -0.0787 c -0.25928,0.18649 -0.54596,0.33291 -0.85019,0.43409 h -0.12597 c -0.27074,0.0801 -0.55168,0.12192 -0.83439,0.12405 h -0.17319 c -0.19385,0.016 -0.3887,0.016 -0.58256,0 h -0.14167 c -0.23457,-0.0497 -0.46198,-0.12773 -0.67701,-0.23259 v 0 l -9.7456,-4.65098 c -2.14126,-1.00645 -4.48389,-1.52883 -6.8566,-1.52883 -2.37265,0 -4.71527,0.52238 -6.85653,1.52883 l -1.40124,0.6666 c -2.16569,1.01459 -4.06736,2.50299 -5.55987,4.35148 -1.49257,1.84858 -2.53648,4.00853 -3.05212,6.3149 l -0.31493,1.33327 c -0.51324,2.28846 -0.49668,4.66125 0.0484,6.94256 0.5451,2.28124 1.60472,4.41244 3.10041,6.23538 l 0.97615,1.19373 c 1.48486,1.83759 3.37151,3.3216 5.5195,4.34164 2.14807,1.02004 4.50209,1.54971 6.88684,1.54971 h 1.46418 c 2.37293,0.002 4.71569,-0.52365 6.85313,-1.53846 2.13752,-1.0148 4.01433,-2.49222 5.49027,-4.32188 l 3.54243,-4.38746 -17.5547,-4.80604 c -0.45575,-0.12404 -0.87993,-0.34112 -1.24492,-0.63714 -0.36498,-0.29609 -0.66256,-0.66448 -0.8734,-1.08122 -0.21093,-0.41674 -0.33029,-0.87256 -0.35054,-1.33773 -0.0201,-0.46524 0.0593,-0.92942 0.23322,-1.36237 0.33872,-0.77705 0.95611,-1.40407 1.73436,-1.76148 0.77819,-0.35748 1.66279,-0.42028 2.48508,-0.17651 l 21.99434,6.07735 12.59566,3.51929 c 0.86095,0.1833 1.62136,0.67884 2.1283,1.38821 0.50765,0.70943 0.72573,1.5808 0.61103,2.44118 z"
     fill="#f6bc00"
     id="path7"
     style="stroke-width:0.708021" />
</svg>
