<?xml version="1.0" encoding="UTF-8" standalone="no"?>
<svg
   version="1.1"
   width="512"
   height="397"
   x="0"
   y="0"
   viewBox="0 0 512 397"
   xml:space="preserve"
   class=""
   id="svg19"
   sodipodi:docname="monster (2).svg"
   inkscape:version="1.3 (0e150ed6c4, 2023-07-21)"
   xmlns:inkscape="http://www.inkscape.org/namespaces/inkscape"
   xmlns:sodipodi="http://sodipodi.sourceforge.net/DTD/sodipodi-0.dtd"
   xmlns="http://www.w3.org/2000/svg"
   xmlns:svg="http://www.w3.org/2000/svg"><defs
     id="defs19" /><sodipodi:namedview
     id="namedview19"
     pagecolor="#ffffff"
     bordercolor="#000000"
     borderopacity="0.25"
     inkscape:showpageshadow="2"
     inkscape:pageopacity="0.0"
     inkscape:pagecheckerboard="0"
     inkscape:deskcolor="#d1d1d1"
     inkscape:zoom="1.7402344"
     inkscape:cx="255.71268"
     inkscape:cy="256"
     inkscape:window-width="1920"
     inkscape:window-height="1129"
     inkscape:window-x="-8"
     inkscape:window-y="-5"
     inkscape:window-maximized="1"
     inkscape:current-layer="svg19" /><g
     transform="matrix(0.68,0,0,0.68,81.920161,16.919975)"
     id="g19"><path
       d="m 94.166,157.008 c 27.425,-5.669 31.432,-26.39 24.384,-53.46 h -6.593 c -12.959,0 -20.718,-7.172 -20.718,-17.036 V 36.254 c 2.359,-37.955 -46.295,-38.721 -46.295,0 v 81.126 c 0,21.798 17.876,39.628 39.73,39.628 z m 299.256,-53.461 c -9.35,24.519 3.95,40.506 24.412,53.46 h 9.464 c 21.854,0 39.759,-17.83 39.759,-39.628 V 36.254 c 0,-38.721 -48.682,-37.955 -46.295,0 v 50.257 c 0,9.864 -7.787,17.036 -20.746,17.036 z"
       style="clip-rule:evenodd;fill-rule:evenodd"
       fill="#feb237"
       data-original="#feb237"
       class=""
       id="path1" /><path
       d="m 451.426,105.928 c 0,20.891 -16.398,38.125 -37.002,39.543 -0.909,0.057 -1.819,0.085 -2.728,0.085 h -8.782 c 4.234,4.11 9.293,7.908 14.892,11.452 h 9.492 c 21.854,0 39.759,-17.83 39.759,-39.628 V 36.254 c 0,-16.979 -9.35,-26.362 -19.638,-28.346 2.501,4.394 4.007,10.006 4.007,16.866 z M 91.239,86.511 V 36.254 C 92.802,10.913 71.63,2.154 57.392,10.658 65.321,14.456 71.346,23.385 70.465,37.303 V 87.56 c 0,9.864 1.336,36.084 32.682,36.084 h 18.444 c -0.085,-6.151 -1.165,-12.897 -3.041,-20.069 v -0.028 h -6.593 c -12.96,0 -20.718,-7.171 -20.718,-17.036 z"
       style="clip-rule:evenodd;fill-rule:evenodd"
       fill="#e09932"
       data-original="#eca026"
       class=""
       opacity="1"
       id="path2" /><path
       d="m 255.986,31.265 c -91.794,0 -166.907,74.918 -166.907,166.475 v 56.522 c 0,97.793 -10.856,147.087 -33.563,202.248 -18.984,46.119 27.425,55.983 50.501,35.603 8.27,-8.277 19.126,-12.416 29.982,-12.416 10.856,0 21.712,4.138 30.011,12.416 16.568,16.497 43.425,16.497 59.993,0 16.568,-16.526 43.425,-16.526 59.993,0 8.27,8.249 19.126,12.387 29.982,12.387 10.856,0 21.712,-4.138 29.982,-12.387 16.568,-16.526 43.425,-16.526 59.993,0 23.076,20.381 69.485,10.516 50.501,-35.603 C 433.747,401.349 422.891,352.055 422.891,254.262 V 197.74 C 422.893,106.183 347.78,31.265 255.986,31.265 Z"
       style="clip-rule:evenodd;fill-rule:evenodd"
       fill="#63d9b6"
       data-original="#00f2a6"
       class=""
       opacity="1"
       id="path3" /><path
       d="m 224.383,35.517 c 91.823,0 166.935,74.918 166.935,166.475 v 56.522 c 0,97.793 10.828,147.087 33.535,202.22 8.043,19.53 4.377,32.541 -4.263,39.514 23.361,7.37 51.354,-6.151 35.865,-43.738 C 433.748,401.349 422.892,352.055 422.892,254.262 V 197.74 c 0,-91.557 -75.112,-166.475 -166.907,-166.475 -13.044,0 -25.748,1.502 -37.94,4.365 2.104,-0.085 4.235,-0.113 6.338,-0.113 z"
       style="clip-rule:evenodd;fill-rule:evenodd"
       fill="#0ed290"
       data-original="#0ed290"
       class=""
       id="path4" /><path
       d="m 345.961,382.868 c 0,-26.815 -21.997,-48.755 -48.881,-48.755 h -82.189 c -26.885,0 -48.881,21.94 -48.881,48.755 v 30.075 c 0,10.29 8.441,18.68 18.757,18.68 h 15.574 l 62.039,-27.354 49.251,27.354 h 15.602 c 10.288,0 18.728,-8.39 18.728,-18.68 z"
       style="clip-rule:evenodd;fill-rule:evenodd"
       fill="#2470a9"
       data-original="#025f80"
       class=""
       opacity="1"
       id="path5" /><path
       d="m 304.924,431.623 c 0,-21.571 -17.705,-39.231 -39.332,-39.231 H 246.38 c -21.627,0 -39.332,17.659 -39.332,39.231 z"
       style="clip-rule:evenodd;fill-rule:evenodd"
       fill="#e38082"
       data-original="#fe3d97"
       class=""
       opacity="1"
       id="path6" /><path
       d="m 214.891,357.753 h 82.189 c 26.885,0 48.881,21.94 48.881,48.755 v -23.641 c 0,-26.815 -21.997,-48.755 -48.881,-48.755 h -82.189 c -26.885,0 -48.881,21.94 -48.881,48.755 v 23.641 c 0,-26.815 21.997,-48.755 48.881,-48.755 z"
       style="clip-rule:evenodd;fill-rule:evenodd"
       fill="#024c67"
       data-original="#024c67"
       class=""
       id="path7" /><path
       d="m 243.794,392.477 c 20.433,1.361 36.746,18.453 36.746,39.146 h 24.384 c 0,-21.571 -17.705,-39.231 -39.332,-39.231 H 246.38 c -0.853,0 -1.734,0.028 -2.586,0.085 z"
       style="clip-rule:evenodd;fill-rule:evenodd"
       fill="#e41e7f"
       data-original="#e41e7f"
       class=""
       id="path8" /><path
       d="m 184.767,431.623 h 142.466 c 10.288,0 18.728,-8.419 18.728,-18.68 v -30.075 c 0,-26.815 -21.997,-48.755 -48.881,-48.755 h -82.189 c -26.885,0 -48.881,21.94 -48.881,48.755 v 30.075 c 0,10.261 8.441,18.68 18.757,18.68 z"
       style="stroke-width:15;stroke-linecap:round;stroke-linejoin:round;stroke-miterlimit:10"
       fill="none"
       stroke="#000000"
       stroke-width="15"
       stroke-linecap="round"
       stroke-linejoin="round"
       stroke-miterlimit="10"
       data-original="#000000"
       class=""
       id="path9" /><path
       d="m 304.924,431.623 c 0,-21.571 -17.705,-39.231 -39.332,-39.231 H 246.38 c -21.627,0 -39.332,17.659 -39.332,39.231"
       style="stroke-width:15;stroke-linecap:round;stroke-linejoin:round;stroke-miterlimit:10"
       fill="none"
       stroke="#000000"
       stroke-width="15"
       stroke-linecap="round"
       stroke-linejoin="round"
       stroke-miterlimit="10"
       data-original="#000000"
       class=""
       id="path10" /><path
       d="m 223.929,334.113 h 63.972 v 14.995 c 0,8.249 -6.764,15.023 -15.034,15.023 h -33.904 c -8.27,0 -15.034,-6.775 -15.034,-15.023 z"
       style="clip-rule:evenodd;fill-rule:evenodd"
       fill="#dff6fd"
       data-original="#dff6fd"
       class=""
       id="path11" /><path
       d="m 223.929,334.113 h 63.972 v 14.995 c 0,8.249 -6.764,15.023 -15.034,15.023 h -33.904 c -8.27,0 -15.034,-6.775 -15.034,-15.023 z M 417.806,157.008 h 9.492 c 21.854,0 39.759,-17.83 39.759,-39.628 V 36.254 c 0,-38.721 -48.682,-37.955 -46.295,0 v 50.257 c 0,9.864 -7.787,17.036 -20.746,17.036 h -6.622 c 11.111,16.044 19.495,34.1 24.412,53.461 z m -323.64,0 v 0 h -9.492 c -21.854,0 -39.73,-17.83 -39.73,-39.628 V 36.254 c 0,-38.721 48.654,-37.955 46.295,0 v 50.257 c 0,9.864 7.758,17.036 20.718,17.036 h 6.622"
       style="stroke-width:15;stroke-linecap:round;stroke-linejoin:round;stroke-miterlimit:10"
       fill="none"
       stroke="#000000"
       stroke-width="15"
       stroke-linecap="round"
       stroke-linejoin="round"
       stroke-miterlimit="10"
       data-original="#000000"
       class=""
       id="path12" /><path
       d="m 255.986,289.978 c 49.705,0 89.976,-40.166 89.976,-89.743 0,-49.549 -40.27,-89.743 -89.976,-89.743 -49.677,0 -89.976,40.194 -89.976,89.743 0,49.577 40.299,89.743 89.976,89.743 z"
       style="clip-rule:evenodd;fill-rule:evenodd"
       fill="#dff6fd"
       data-original="#dff6fd"
       class=""
       id="path13" /><path
       d="m 325.983,198.336 c 0,49.095 -39.56,88.978 -88.612,89.715 5.996,1.276 12.22,1.928 18.615,1.928 49.705,0 89.976,-40.166 89.976,-89.743 0,-49.549 -40.27,-89.743 -89.976,-89.743 -0.455,0 -0.909,0 -1.364,0.028 40.753,8.531 71.361,44.616 71.361,87.815 z"
       style="clip-rule:evenodd;fill-rule:evenodd"
       fill="#c8effe"
       data-original="#c8effe"
       id="path14" /><path
       d="m 255.986,289.978 c 49.563,0 89.976,-40.308 89.976,-89.743 0,-49.435 -40.412,-89.743 -89.976,-89.743 -49.564,0 -89.976,40.308 -89.976,89.743 0,49.435 40.412,89.743 89.976,89.743 z"
       style="stroke-width:15;stroke-linecap:round;stroke-linejoin:round;stroke-miterlimit:10"
       fill="none"
       stroke="#000000"
       stroke-width="15"
       stroke-linecap="round"
       stroke-linejoin="round"
       stroke-miterlimit="10"
       data-original="#000000"
       class=""
       id="path15" /><path
       d="m 255.986,148.419 c 28.704,0 51.979,23.187 51.979,51.816 0,28.629 -23.275,51.845 -51.979,51.845 -28.704,0 -51.951,-23.215 -51.951,-51.845 0,-5.386 0.796,-10.573 2.33,-15.449 0.369,-1.134 1.222,-4.195 5.314,-1.304 2.87,2.069 6.366,3.26 10.174,3.26 9.663,0 17.506,-7.823 17.506,-17.461 a 17.41,17.41 0 0 0 -4.405,-11.593 c -3.297,-3.685 -0.483,-4.677 1.08,-5.329 6.14,-2.551 12.875,-3.94 19.952,-3.94 z"
       style="clip-rule:evenodd;fill-rule:evenodd"
       fill="#2470a9"
       data-original="#025f80"
       class=""
       opacity="1"
       id="path16" /><path
       d="m 254.849,148.419 c 19.553,7.427 33.478,26.333 33.478,48.471 0,28.232 -22.65,51.193 -50.814,51.816 a 51.853,51.853 0 0 0 18.473,3.373 c 28.704,0 51.979,-23.215 51.979,-51.845 0,-28.629 -23.275,-51.816 -51.979,-51.816 z"
       style="clip-rule:evenodd;fill-rule:evenodd"
       fill="#024c67"
       data-original="#024c67"
       class=""
       id="path17" /><path
       d="m 255.986,148.419 c 28.704,0 51.979,23.187 51.979,51.816 0,28.629 -23.275,51.845 -51.979,51.845 -28.704,0 -51.951,-23.215 -51.951,-51.845 0,-5.386 0.796,-10.573 2.33,-15.449 0.369,-1.134 1.222,-4.195 5.314,-1.304 2.87,2.069 6.366,3.26 10.174,3.26 9.663,0 17.506,-7.823 17.506,-17.461 a 17.41,17.41 0 0 0 -4.405,-11.593 c -3.297,-3.685 -0.483,-4.677 1.08,-5.329 6.14,-2.551 12.875,-3.94 19.952,-3.94 z"
       style="stroke-width:15;stroke-linecap:round;stroke-linejoin:round;stroke-miterlimit:10"
       fill="none"
       stroke="#000000"
       stroke-width="15"
       stroke-linecap="round"
       stroke-linejoin="round"
       stroke-miterlimit="10"
       data-original="#000000"
       class=""
       id="path18" /><path
       d="m 423.433,288.986 c 2.387,75.57 13.158,119.308 33.023,167.524 18.984,46.119 -27.425,55.983 -50.501,35.603 -16.568,-16.526 -43.425,-16.526 -59.993,0 -8.27,8.249 -19.126,12.387 -29.982,12.387 -10.856,0 -21.712,-4.138 -29.982,-12.387 -16.568,-16.526 -43.425,-16.526 -59.993,0 -16.568,16.497 -43.425,16.497 -59.993,0 -8.298,-8.277 -19.155,-12.416 -30.011,-12.416 -10.856,0 -21.712,4.138 -29.982,12.416 C 82.942,512.494 36.534,502.629 55.518,456.51 75.355,408.322 86.154,364.613 88.541,289.127 m 0.538,-34.865 V 197.74 c 0,-91.557 75.112,-166.475 166.907,-166.475 91.795,0 166.907,74.918 166.907,166.475 v 56.522"
       style="stroke-width:15;stroke-linecap:round;stroke-linejoin:round;stroke-miterlimit:10"
       fill="none"
       stroke="#000000"
       stroke-width="15"
       stroke-linecap="round"
       stroke-linejoin="round"
       stroke-miterlimit="10"
       data-original="#000000"
       class=""
       id="path19" /></g></svg>
