<svg id="Layer_1" data-name="Layer 1" xmlns="http://www.w3.org/2000/svg" viewBox="0 0 251 251"><defs><style>.cls-1,.cls-3{fill:#fff;}.cls-1,.cls-2{stroke:#f7931e;}.cls-1,.cls-2,.cls-3,.cls-4{stroke-linecap:round;stroke-linejoin:round;stroke-width:2px;}.cls-2{fill:none;}.cls-3,.cls-4{stroke:#97a2a6;}.cls-4{fill:#edeff0;}</style></defs><path class="cls-1" d="M100,157h51a36.55,36.55,0,0,1,9.19-19.1,47.06,47.06,0,1,0-69.6-.24A37.71,37.71,0,0,1,100,157Z"/><path class="cls-2" d="M101.75,110.18c4,0,4,10,7.91,10s4-10,7.92-10,4,10,7.91,10,4-10,7.92-10,4,10,7.92,10,4-10,7.92-10c-4,0-4,10-7.92,10s-4-10-7.92-10-4,10-7.92,10-3.95-10-7.91-10-4,10-7.92,10-4-10-7.91-10L115.16,157H135.7l13.41-46.86"/><path class="cls-3" d="M100,157h51a0,0,0,0,1,0,0v38.1a4.49,4.49,0,0,1-4.49,4.49h-42a4.49,4.49,0,0,1-4.49-4.49V157A0,0,0,0,1,100,157Z"/><path class="cls-4" d="M141,199.63a15.51,15.51,0,0,1-31,0Z"/><rect class="cls-3" x="96.45" y="162.73" width="58.09" height="6.28" rx="3.14"/><rect class="cls-3" x="96.45" y="175.19" width="58.09" height="6.28" rx="3.14"/><rect class="cls-3" x="96.45" y="187.65" width="58.09" height="6.28" rx="3.14"/><line class="cls-1" x1="125.5" y1="50.09" x2="125.5" y2="35.87"/><line class="cls-1" x1="85.86" y1="66.51" x2="75.81" y2="56.45"/><line class="cls-1" x1="69.44" y1="106.14" x2="55.22" y2="106.14"/><line class="cls-1" x1="85.85" y1="145.78" x2="75.8" y2="155.83"/><line class="cls-1" x1="165.14" y1="66.51" x2="175.19" y2="56.45"/><line class="cls-1" x1="181.56" y1="106.14" x2="195.78" y2="106.14"/><line class="cls-1" x1="165.15" y1="145.78" x2="175.2" y2="155.83"/></svg>