<svg id="Layer_1" data-name="Layer 1" xmlns="http://www.w3.org/2000/svg" viewBox="0 0 251 251"><defs><style>.cls-1{fill:#edeff0;}.cls-2{fill:none;stroke:#0f4486;}.cls-2,.cls-3{stroke-linecap:round;stroke-linejoin:round;stroke-width:2px;}.cls-3{fill:#fff;stroke:#63d9b6;}</style></defs><path class="cls-1" d="M73.92,110.81s-.58,16.42,2.23,21.71,43.56,43.58,47.6,45.9a19.39,19.39,0,0,0,9.22,2.11V184l-6.78,1.71-9.29-2.12-10.58-7.18-26.11-23-17.09-15Z"/><polygon class="cls-1" points="71.93 115.9 38.23 115.9 38.23 144.26 60.83 144.26 71.93 115.9"/><polygon class="cls-1" points="178.61 110.81 212.77 110.81 212.77 148.56 192.41 148.56 178.61 110.81"/><path class="cls-1" d="M90.71,109.52a49.8,49.8,0,0,0,20.61-13.15,72.91,72.91,0,0,1,9.34-8.61,9,9,0,0,1,12.09,1.14c11,12.19,36.57,40.08,41,41.57,5.73,1.91,11.76,0,11.76,0l4.59,12.18L177,145.87,126.81,94.48l-22.58,18-6.44.74Z"/><path class="cls-2" d="M172.18,92.61l-5.11-12h45.7v68H192.41l-5.76-15-14.47-41a21,21,0,0,0-10.69-11.94L133.87,67.38a21,21,0,0,0-24.58,4.73L90.52,92.56a12.39,12.39,0,0,0,.19,17h0a12.4,12.4,0,0,0,16.87,1l19.23-16L177,145.87a9,9,0,0,1-.15,12.65h0a9,9,0,0,1-12.56,0l-24.07-23.77"/><path class="cls-2" d="M129.93,152.83l23.39,22.79a9.88,9.88,0,0,0,14-.23h0a9.88,9.88,0,0,0-.18-13.88l-23.4-23.11"/><path class="cls-2" d="M114.65,163.43l21,19.59a8.92,8.92,0,0,0,12.4-.19h0c3.51-3.52,4.62-7.85,1.07-11.31"/><path class="cls-2" d="M63.12,138.4l39.2,34.36c7.59,6.82,16.72,17.07,33.32,10.26"/><line class="cls-2" x1="102.69" y1="79.03" x2="86.36" y2="79.03"/><polygon class="cls-2" points="87.01 77.37 38.23 77.37 38.23 144.26 60.83 144.26 87.01 77.37"/><line class="cls-2" x1="176.96" y1="145.87" x2="190.14" y2="142.65"/><circle class="cls-3" cx="195.69" cy="100.46" r="6.27"/><circle class="cls-3" cx="56.35" cy="100.46" r="6.27"/></svg>