<svg id="Layer_1" data-name="Layer 1" xmlns="http://www.w3.org/2000/svg" viewBox="0 0 251 251"><defs><style>.cls-1{fill:#edeff0;}.cls-2,.cls-5{fill:none;stroke-miterlimit:10;stroke-width:2px;}.cls-2{stroke:#f7931e;}.cls-3{fill:#97a2a6;}.cls-4{fill:#fff;}.cls-5{stroke:#2470a9;}.cls-6{fill:#2470a9;}</style></defs><path class="cls-1" d="M186.65,147.49V145a40,40,0,0,0-2.47-13.3,25,25,0,0,0,5.51.76A23,23,0,0,0,206,93.57a4.35,4.35,0,0,0-5.51,0,4,4,0,0,0,0,5.5,15,15,0,0,1-21.26,21.27l-.57-.38A64.85,64.85,0,0,0,172,111.7c-.08.36-21.42,96.21-112.16,58.15-7.45-3.12-17.13-3.42-15.22-3l12,2.28q.2,0,.57.57A55.22,55.22,0,0,0,66.26,183c0,.19.19.57,0,.57a20.52,20.52,0,0,0,5.32,25.07,23.92,23.92,0,0,0,31.52-1.33l3.61-3.42h.57a83.82,83.82,0,0,0,30-.95h.57l4.75,4.94a23.14,23.14,0,0,0,16,6.45h.76a22.76,22.76,0,0,0,16.33-7.4,20.89,20.89,0,0,0,1-27.15c-.19-.38-.57-.57-.38-.76A50.31,50.31,0,0,0,186.65,147.49Z"/><path class="cls-2" d="M206,93.57a4.35,4.35,0,0,0-5.51,0,4,4,0,0,0,0,5.5,15,15,0,0,1-21.26,21.27l-.57-.38A64.41,64.41,0,0,0,157,100L89.62,85.21a33.41,33.41,0,0,0-12.91-2.85,3.24,3.24,0,0,0-3.61,2.81v0a57.12,57.12,0,0,0,.76,10.45l1,8.73a.75.75,0,0,1-.19.57,60.9,60.9,0,0,0-17.47,20.89l-.57.38-12,2.28a7.78,7.78,0,0,0-6.08,7.4v23.55a7.78,7.78,0,0,0,6.08,7.4l12,2.28q.2,0,.57.57A55.22,55.22,0,0,0,66.26,183c0,.19.19.57,0,.57a20.52,20.52,0,0,0,5.32,25.07,23.92,23.92,0,0,0,31.52-1.33l3.61-3.42h.57a83.82,83.82,0,0,0,30-.95h.57l4.75,4.94a23.14,23.14,0,0,0,16,6.45h.76a22.76,22.76,0,0,0,16.33-7.4,20.89,20.89,0,0,0,1-27.15c-.19-.38-.57-.57-.38-.76a50.31,50.31,0,0,0,10.44-31.53V145a40,40,0,0,0-2.47-13.3,25,25,0,0,0,5.51.76A23,23,0,0,0,206,93.57Z"/><circle class="cls-2" cx="85.44" cy="138.95" r="5.7"/><rect class="cls-3" x="85.86" y="107.97" width="79.24" height="12.81" rx="6.4"/><circle class="cls-4" cx="125.5" cy="76.31" r="39.64"/><path class="cls-1" d="M149.26,44.58a39.64,39.64,0,0,1-55.49,55.49,39.64,39.64,0,1,0,55.49-55.49Z"/><circle class="cls-5" cx="125.5" cy="76.31" r="39.64"/><path class="cls-6" d="M103.53,84.92a3.2,3.2,0,0,1-3.2-3.21,3.24,3.24,0,0,1,3.2-3.26h1.19a15.05,15.05,0,0,1-.1-2.12V75.15h-1.09a3.21,3.21,0,0,1,0-6.42H106a21.74,21.74,0,0,1,35-8.58,3.21,3.21,0,1,1-4.29,4.78A15.47,15.47,0,0,0,126.38,61a15.25,15.25,0,0,0-13.28,7.74h14.36a3.21,3.21,0,1,1,0,6.42H111.08v1.18a15.11,15.11,0,0,0,.15,2.12h16.23a3.24,3.24,0,0,1,3.21,3.26,3.2,3.2,0,0,1-3.21,3.21H113.7A15.35,15.35,0,0,0,138,86.35a3.22,3.22,0,1,1,4.88,4.19,21.75,21.75,0,0,1-36.46-5.62Z"/></svg>