<svg id="Layer_1" data-name="Layer 1" xmlns="http://www.w3.org/2000/svg" viewBox="0 0 251 251"><defs><style>.cls-1{fill:#edeff0;}.cls-2,.cls-3,.cls-5,.cls-6,.cls-7,.cls-8{fill:none;}.cls-2{stroke:#97a2a6;}.cls-2,.cls-6{stroke-miterlimit:10;}.cls-2,.cls-3,.cls-4,.cls-5,.cls-6,.cls-7,.cls-8{stroke-width:2px;}.cls-3{stroke:#ff7680;}.cls-3,.cls-4,.cls-5,.cls-7,.cls-8{stroke-linecap:round;stroke-linejoin:round;}.cls-4{fill:#fff;}.cls-4,.cls-5{stroke:#f7931e;}.cls-6,.cls-7{stroke:#2470a9;}.cls-8{stroke:#edeff0;}</style></defs><path class="cls-1" d="M114.26,113.11l-5.57-8a18.84,18.84,0,0,1-3.38-9.58l-3.83-56H94l3.82,56a18.84,18.84,0,0,0,3.38,9.58l5.58,8a14.59,14.59,0,0,1,2.64,8.38v88.32a7.44,7.44,0,0,1-7.45,7.45h7.46a7.45,7.45,0,0,0,7.45-7.45V121.49A14.6,14.6,0,0,0,114.26,113.11Z"/><path class="cls-2" d="M114.26,113.11l-5.57-8a18.84,18.84,0,0,1-3.38-9.58l-3.83-56H82.18l-3.82,56A19,19,0,0,1,75,105.16l-5.57,8a14.6,14.6,0,0,0-2.65,8.38v88.32a7.45,7.45,0,0,0,7.45,7.45h35.26a7.45,7.45,0,0,0,7.45-7.45V121.49a14.6,14.6,0,0,0-2.65-8.38Zm0,0"/><rect class="cls-3" x="66.75" y="127.07" width="50.15" height="68.61"/><path class="cls-4" d="M84.35,33.74h15A3.28,3.28,0,0,1,102.6,37v1.23a1.35,1.35,0,0,1-1.35,1.35H82.42a1.35,1.35,0,0,1-1.35-1.35V37A3.28,3.28,0,0,1,84.35,33.74Z"/><path class="cls-5" d="M66.75,154.35s7.17-11.41,16.71-8.23S94.63,158.74,102.6,161c10.22,2.85,14.31-3.59,14.31-3.59"/><path class="cls-3" d="M66.75,168.68s7.17-11.41,16.71-8.23,11.17,12.61,19.14,14.83c10.22,2.85,14.31-3.59,14.31-3.59"/><path class="cls-6" d="M66.75,183s7.17-11.41,16.71-8.23,11.17,12.61,19.14,14.83c10.22,2.85,14.31-3.59,14.31-3.59"/><g id="Coffee"><path class="cls-7" d="M171,204a13.3,13.3,0,0,0,0-26.6m0,4.87a8.43,8.43,0,0,1,0,16.86"/><path class="cls-1" d="M133.54,205.17V172.54h-7.31v32.63a12.09,12.09,0,0,0,12.1,12.09h7.31A12.09,12.09,0,0,1,133.54,205.17Z"/><path class="cls-7" d="M126.23,172.54h44.72a0,0,0,0,1,0,0v32.62a12.1,12.1,0,0,1-12.1,12.1H138.33a12.1,12.1,0,0,1-12.1-12.1V172.54A0,0,0,0,1,126.23,172.54Z"/><path class="cls-8" d="M137.25,165.12c0-9.38,6.38-9.38,6.38-18.76s-6.38-9.38-6.38-18.77"/><path class="cls-8" d="M154.46,165.12c0-7.78,6.38-7.78,6.38-15.55"/><path class="cls-8" d="M145.4,165.12c0-12.65,6.38-12.65,6.38-25.31s-6.38-12.65-6.38-25.3"/></g></svg>