<svg xmlns="http://www.w3.org/2000/svg" version="1.1" xmlns:xlink="http://www.w3.org/1999/xlink" width="512" height="512" x="0" y="0" viewBox="0 0 512 512" style="enable-background:new 0 0 512 512" xml:space="preserve" class=""><g><path d="M219.982 371.154v-77.535H92.825v-77.535H7.5v225.342a7.264 7.264 0 0 0 7.264 7.264h332.375v-77.535H219.982z" style="" fill="#2470a9" data-original="#eb9c8d" class="" opacity="1"></path><path d="M56.5 216.08h36.32v77.54H66.354c-5.442 0-9.854-4.412-9.854-9.854V216.08zM183.66 293.62h36.32v77.53h-26.466c-5.442 0-9.854-4.412-9.854-9.854V293.62zM310.82 371.15h36.32v77.54h-36.32z" style="" fill="#2470a9" data-original="#d78878" class="" opacity="1"></path><path d="M482.778 418.485 107.47 189.637a25.7 25.7 0 0 0-13.381-3.758H14.764a7.264 7.264 0 0 0-7.264 7.264v22.941h85.325l381.471 232.605h22.941a7.264 7.264 0 0 0 7.264-7.264v-15.677a7.264 7.264 0 0 0-7.264-7.264h-14.459z" style="" fill="#edeff0" data-original="#faf8f8" class="" opacity="1"></path><path d="M504.5 425.744v15.683a7.264 7.264 0 0 1-7.264 7.264H477v-23.632a6.578 6.578 0 0 0-6.578-6.578h-9.1a21.508 21.508 0 0 1-11.201-3.146L79.97 189.64c-4.03-2.46-9.92-3.76-14.65-3.76h27.5c4.73 0 10.62 1.3 14.65 3.76l375.31 228.84h14.456a7.264 7.264 0 0 1 7.264 7.264z" style="" fill="#edeff0" data-original="#e1dee2" class="" opacity="1"></path><path d="M92.825 241.405v-25.322H7.5v225.342a7.264 7.264 0 0 0 7.264 7.264h142.973" style="stroke-width:15;stroke-linecap:round;stroke-linejoin:round;stroke-miterlimit:10;" fill="none" stroke="#000000" stroke-width="15" stroke-linecap="round" stroke-linejoin="round" stroke-miterlimit="10" data-original="#000000" class=""></path><path d="M194.527 448.689h152.612v-77.535H219.982v-77.535H92.825v-17.3M347.139 448.689h127.157M92.825 185.879V76.625M221.32 259.058V154.976M347.139 335.777V231.695M482.778 418.485V314.402" style="stroke-width:15;stroke-linecap:round;stroke-linejoin:round;stroke-miterlimit:10;" fill="none" stroke="#000000" stroke-width="15" stroke-linecap="round" stroke-linejoin="round" stroke-miterlimit="10" data-original="#000000" class=""></path><path d="M407.073 372.322 107.47 189.637a25.7 25.7 0 0 0-13.381-3.758H14.764a7.264 7.264 0 0 0-7.264 7.264v22.941h85.325l381.471 232.605h22.941a7.264 7.264 0 0 0 7.264-7.264v-15.677a7.264 7.264 0 0 0-7.264-7.264h-14.458l-45.392-27.678M70.99 63.311 504.5 327.648" style="stroke-width:15;stroke-linecap:round;stroke-linejoin:round;stroke-miterlimit:10;" fill="none" stroke="#000000" stroke-width="15" stroke-linecap="round" stroke-linejoin="round" stroke-miterlimit="10" data-original="#000000" class=""></path></g></svg>