<svg xmlns="http://www.w3.org/2000/svg" version="1.1" xmlns:xlink="http://www.w3.org/1999/xlink" width="512" height="512" x="0" y="0" viewBox="0 0 512 512" style="enable-background:new 0 0 512 512" xml:space="preserve" class=""><g transform="matrix(0.8000000000000004,0,0,0.8000000000000004,51.19990539550781,51.19995594024647)"><path d="m214.919 502.088-35.248-60.445c-1.677-2.875-4.726-3.955-7.838-2.774l-65.425 24.81c-4.717 1.789-8.206-3.386-6.167-9.145l65.321-184.541 125.226 44.326-65.321 184.541c-2.04 5.759-8.007 7.585-10.548 3.228z" style="" fill="#63d9b6" data-original="#75cdd5" opacity="1" class=""></path><path d="m165.56 269.993-3.34 9.437 98.566 34.889-58.684 165.791 12.816 21.978c2.541 4.358 8.509 2.531 10.547-3.229l65.321-184.541-125.226-44.325z" style="" fill="#63d9b6" data-original="#2abcc8" class="" opacity="1"></path><path d="m297.081 502.088 35.248-60.445c1.677-2.875 4.726-3.955 7.838-2.774l65.425 24.81c4.717 1.789 8.206-3.386 6.167-9.145L346.44 269.993l-125.226 44.326 65.321 184.541c2.038 5.759 8.005 7.585 10.546 3.228z" style="" fill="#63d9b6" data-original="#75cdd5" opacity="1" class=""></path><path d="m411.76 455.287-65.32-184.54-26.66 9.437 61.98 175.104c.014.041.022.08.036.121l23.797 9.024c4.717 1.788 8.206-3.386 6.167-9.146z" style="" fill="#63d9b6" data-original="#2abcc8" class="" opacity="1"></path><path d="m443.462 210.152-17.924 26.795a20.96 20.96 0 0 0-3.492 13.044l2.14 32.143a20.955 20.955 0 0 1-11.678 20.205l-28.905 14.185a20.96 20.96 0 0 0-9.581 9.581l-14.185 28.905a20.958 20.958 0 0 1-20.205 11.678l-32.142-2.14c-4.614-.307-9.2.92-13.044 3.492l-26.795 17.924a20.957 20.957 0 0 1-23.304 0l-26.795-17.924a20.96 20.96 0 0 0-13.044-3.492l-32.143 2.14a20.955 20.955 0 0 1-20.205-11.678l-14.185-28.905a20.96 20.96 0 0 0-9.581-9.581l-28.905-14.185a20.958 20.958 0 0 1-11.678-20.205l2.14-32.142c.307-4.614-.92-9.2-3.492-13.044l-17.924-26.795a20.957 20.957 0 0 1 0-23.304l17.924-26.795a20.96 20.96 0 0 0 3.492-13.044l-2.14-32.143a20.955 20.955 0 0 1 11.678-20.205l28.905-14.185a20.96 20.96 0 0 0 9.581-9.581l14.185-28.905a20.958 20.958 0 0 1 20.205-11.678l32.142 2.14c4.614.307 9.2-.92 13.044-3.492l26.795-17.924a20.957 20.957 0 0 1 23.304 0l26.795 17.924a20.96 20.96 0 0 0 13.044 3.492l32.143-2.14a20.955 20.955 0 0 1 20.205 11.678l14.185 28.905a20.96 20.96 0 0 0 9.581 9.581l28.905 14.185a20.958 20.958 0 0 1 11.678 20.205l-2.14 32.142c-.307 4.614.92 9.2 3.492 13.044l17.924 26.795a20.957 20.957 0 0 1 0 23.304z" style="" fill="#2470a9" data-original="#fedba6" class="" opacity="1"></path><circle cx="256" cy="198.5" r="140" style="" fill="#e09932" data-original="#f9f3f1" class="" opacity="1"></circle><path d="M256 58.5c-5.068 0-10.071.276-15 .801 70.266 7.485 125 66.947 125 139.199s-54.734 131.713-125 139.199c4.929.525 9.932.801 15 .801 77.32 0 140-62.68 140-140s-62.68-140-140-140z" style="" fill="#e09932" data-original="#f3eae6" class="" opacity="1"></path><circle cx="256" cy="198.5" r="100" style="" fill="#63d9b6" data-original="#75cdd5" opacity="1" class=""></circle><path d="M256 98.5c-5.097 0-10.106.386-15 1.125 48.05 7.259 85 48.832 85 98.875s-36.95 91.616-85 98.875c4.894.739 9.903 1.125 15 1.125 55.14 0 100-44.86 100-100s-44.86-100-100-100z" style="" fill="#63d9b6" data-original="#2abcc8" class="" opacity="1"></path><path d="m123.259 389.5 18.796-53.102M255.342 414.455l-29.876 84.404c-2.039 5.759-8.006 7.586-10.547 3.229l-35.248-60.445c-1.677-2.875-4.726-3.955-7.838-2.774l-65.425 24.81c-4.717 1.789-8.206-3.386-6.167-9.145l11.145-31.486M247.825 389.5l38.709 109.359c2.039 5.759 8.006 7.586 10.547 3.229l35.248-60.445c1.677-2.875 4.726-3.955 7.838-2.774l65.425 24.81c4.717 1.789 8.206-3.386 6.167-9.145L370.689 338.5" style="stroke-width:15;stroke-linecap:round;stroke-linejoin:round;stroke-miterlimit:10;" fill="none" stroke="#000000" stroke-width="15" stroke-linecap="round" stroke-linejoin="round" stroke-miterlimit="10" data-original="#000000"></path><circle cx="256" cy="198.5" r="140" style="stroke-width:15;stroke-linecap:round;stroke-linejoin:round;stroke-miterlimit:10;" fill="none" stroke="#000000" stroke-width="15" stroke-linecap="round" stroke-linejoin="round" stroke-miterlimit="10" data-original="#000000"></circle><circle cx="256" cy="198.5" r="100" style="stroke-width:15;stroke-linecap:round;stroke-linejoin:round;stroke-miterlimit:10;" fill="none" stroke="#000000" stroke-width="15" stroke-linecap="round" stroke-linejoin="round" stroke-miterlimit="10" data-original="#000000"></circle><path d="m390.221 83.724 22.289 10.938a20.958 20.958 0 0 1 11.678 20.205l-2.14 32.142c-.307 4.614.92 9.2 3.492 13.044l17.924 26.795a20.957 20.957 0 0 1 0 23.304l-17.924 26.795a20.96 20.96 0 0 0-3.492 13.044l2.14 32.143a20.955 20.955 0 0 1-11.678 20.205l-28.905 14.185a20.96 20.96 0 0 0-9.581 9.581l-14.185 28.905a20.958 20.958 0 0 1-20.205 11.678l-32.142-2.14c-4.614-.307-9.2.92-13.044 3.492l-26.795 17.924a20.957 20.957 0 0 1-23.304 0l-26.795-17.924a20.96 20.96 0 0 0-13.044-3.492l-32.143 2.14a20.955 20.955 0 0 1-20.205-11.678l-14.185-28.905a20.96 20.96 0 0 0-9.581-9.581l-28.905-14.185a20.958 20.958 0 0 1-11.678-20.205l2.14-32.142c.307-4.614-.92-9.2-3.492-13.044l-17.924-26.795a20.957 20.957 0 0 1 0-23.304l17.924-26.795a20.96 20.96 0 0 0 3.492-13.044l-2.14-32.143a20.955 20.955 0 0 1 11.678-20.205l28.905-14.185a20.96 20.96 0 0 0 9.581-9.581l14.185-28.905a20.958 20.958 0 0 1 20.205-11.678l32.142 2.14c4.614.307 9.2-.92 13.044-3.492l26.795-17.924a20.957 20.957 0 0 1 23.304 0l26.795 17.924a20.96 20.96 0 0 0 13.044 3.492l32.143-2.14a20.955 20.955 0 0 1 20.205 11.678L367.94 58.5" style="stroke-width:15;stroke-linecap:round;stroke-linejoin:round;stroke-miterlimit:10;" fill="none" stroke="#000000" stroke-width="15" stroke-linecap="round" stroke-linejoin="round" stroke-miterlimit="10" data-original="#000000"></path><path d="m214.37 202.333 34.786 27.111 54-54.222M256 84.778V98.5M256 298.5v13.722M199.139 100.014 206 111.898M306 285.103l6.861 11.883M157.514 141.639l11.883 6.861M342.603 248.5l11.883 6.861M142.278 198.5H156M356 198.5h13.722M157.514 255.361l11.883-6.861M342.603 148.5l11.883-6.861M199.139 296.986 206 285.103M306 111.898l6.861-11.884" style="stroke-width:15;stroke-linecap:round;stroke-linejoin:round;stroke-miterlimit:10;" fill="none" stroke="#000000" stroke-width="15" stroke-linecap="round" stroke-linejoin="round" stroke-miterlimit="10" data-original="#000000"></path></g></svg>