<svg id="Layer_1" data-name="Layer 1" xmlns="http://www.w3.org/2000/svg" viewBox="0 0 1956.65 399.1"><defs><style>.cls-1,.cls-11,.cls-16,.cls-17,.cls-19,.cls-2,.cls-20,.cls-4,.cls-5,.cls-6,.cls-7,.cls-8{fill:none;}.cls-1,.cls-2{stroke:#979797;}.cls-1,.cls-18,.cls-19,.cls-4,.cls-5,.cls-6,.cls-8,.cls-9{stroke-linecap:round;}.cls-1,.cls-18,.cls-9{stroke-linejoin:round;}.cls-1,.cls-2,.cls-4,.cls-5,.cls-6,.cls-7,.cls-8{stroke-width:2px;}.cls-3{fill:#37a9ef;fill-opacity:0.1;}.cls-18,.cls-4,.cls-7,.cls-8{stroke:#63d9b6;}.cls-19,.cls-5,.cls-6{stroke:#2470a9;}.cls-5,.cls-8{stroke-dasharray:10;}.cls-10,.cls-18,.cls-21,.cls-9{fill:#fff;}.cls-16,.cls-9{stroke:#ff7680;}.cls-11,.cls-16,.cls-17,.cls-18,.cls-19,.cls-20,.cls-21,.cls-9{stroke-width:3px;}.cls-11,.cls-21{stroke:#97a2a6;}.cls-11,.cls-16,.cls-17,.cls-19,.cls-20,.cls-21{stroke-miterlimit:10;}.cls-12{fill:#ff7680;}.cls-13{fill:#63d9b6;}.cls-14{fill:#f7931e;}.cls-15{fill:#edeff0;}.cls-17{stroke:#f7931e;}.cls-20{stroke:#edeff0;}.cls-22{fill:#2470a9;}</style></defs><path id="Shape" class="cls-1" d="M-20,321H867.58q103.13,1.16,103.12-85t92-80.18l112.4.24m319,.73,161.64.37h68.94q82.1,0,82.09,48.22t54.47,64.66h101.93"/><path id="Path-6" class="cls-1" d="M831.08,322.15q6.33,56.64-50.68,56.65H678.88"/><circle id="Oval-2" class="cls-2" cx="658.91" cy="378.66" r="19.44"/><ellipse id="Oval" class="cls-3" cx="1296.27" cy="199.05" rx="202.25" ry="199.05"/><g id="Icon-_-Plus-grey" data-name="Icon-/-Plus-grey"><line id="Line" class="cls-1" x1="1085.12" y1="99.87" x2="1085.12" y2="117.3"/><line id="Line-Copy" class="cls-1" x1="1075.74" y1="108.58" x2="1094.51" y2="108.58"/></g><g id="Icon-_-Plus-grey-2" data-name="Icon-/-Plus-grey"><line id="Line-2" data-name="Line" class="cls-4" x1="1239.43" y1="339.71" x2="1239.43" y2="377.05"/><line id="Line-Copy-2" data-name="Line-Copy" class="cls-4" x1="1219.32" y1="358.38" x2="1259.53" y2="358.38"/></g><g id="Icon-_-Line-grey" data-name="Icon-/-Line-grey"><line id="Line-3" data-name="Line" class="cls-5" x1="1052.95" y1="228.81" x2="1160.55" y2="228.81"/></g><g id="Icon-_-Line-grey-2" data-name="Icon-/-Line-grey"><line id="Line-4" data-name="Line" class="cls-5" x1="1197.03" y1="53.26" x2="1304.64" y2="53.26"/></g><g id="Icon-_-Plus-blue" data-name="Icon-/-Plus-blue"><line id="Line-5" data-name="Line" class="cls-1" x1="1090.33" y1="296.48" x2="1090.33" y2="313.91"/><line id="Line-Copy-3" data-name="Line-Copy" class="cls-1" x1="1080.95" y1="305.19" x2="1099.71" y2="305.19"/></g><g id="Icon-_-Plus-blue-2" data-name="Icon-/-Plus-blue"><line id="Line-6" data-name="Line" class="cls-6" x1="1508.41" y1="105.68" x2="1508.41" y2="123.1"/><line id="Line-Copy-4" data-name="Line-Copy" class="cls-6" x1="1499.03" y1="114.39" x2="1517.79" y2="114.39"/></g><g id="Icon-_-Circle-green" data-name="Icon-/-Circle-green"><circle id="Oval-9" class="cls-7" cx="1498.51" cy="303.48" r="12.73"/></g><g id="Icon-_-Circle-grey" data-name="Icon-/-Circle-grey"><circle id="Oval-9-2" data-name="Oval-9" class="cls-8" cx="1142.03" cy="53.26" r="15.93"/></g><polygon class="cls-1" points="1529.74 44.53 1505.84 30.73 1505.84 58.34 1529.74 44.53"/><g id="Icon-_-Circle-grey-2" data-name="Icon-/-Circle-grey"><circle id="Oval-9-3" data-name="Oval-9" class="cls-9" cx="1481.7" cy="321.04" r="19.55"/></g><line class="cls-1" x1="1494.14" y1="156.84" x2="1436.73" y2="156.84"/><path id="Path-6-2" data-name="Path-6" class="cls-1" d="M1571.9,157.45q-6.32-56.65,50.69-56.65h101.52"/><circle id="Oval-2-2" data-name="Oval-2" class="cls-2" cx="1744.08" cy="100.94" r="19.44"/><path id="Path-6-3" data-name="Path-6" class="cls-1" d="M1679.76,57.27h42.72q24,0,21.33,23.84"/><rect class="cls-1" x="1654.11" y="46.68" width="21.18" height="21.18" transform="translate(447.08 1193.9) rotate(-45)"/><path id="Path-6-4" data-name="Path-6" class="cls-1" d="M1701.34,213.49H1599.82q-57,0-50.68-56.65"/><circle id="Oval-2-3" data-name="Oval-2" class="cls-2" cx="1721.31" cy="213.36" r="19.44"/><rect class="cls-10" x="1155.01" y="76.42" width="292.28" height="191.5" rx="8.52" transform="translate(2602.31 344.33) rotate(-180)"/><rect class="cls-11" x="1155.01" y="76.42" width="292.28" height="191.5" rx="8.52" transform="translate(2602.31 344.33) rotate(-180)"/><line class="cls-11" x1="1155.01" y1="98.14" x2="1447.3" y2="98.14"/><circle class="cls-12" cx="1190.4" cy="87.79" r="2.24"/><circle class="cls-13" cx="1179.68" cy="87.79" r="2.24"/><circle class="cls-14" cx="1168.96" cy="87.79" r="2.24"/><rect class="cls-15" x="1165.09" y="108.83" width="270.25" height="147.69" rx="4.9" transform="translate(2600.44 365.36) rotate(-180)"/><rect class="cls-10" x="1301.16" y="22.81" width="162.1" height="165.46" rx="8.52" transform="translate(2764.41 211.08) rotate(-180)"/><rect class="cls-16" x="1301.16" y="22.81" width="162.1" height="165.46" rx="8.52" transform="translate(2764.41 211.08) rotate(-180)"/><line class="cls-16" x1="1301.16" y1="44.54" x2="1463.26" y2="44.54"/><circle class="cls-12" cx="1336.54" cy="34.18" r="2.24"/><circle class="cls-13" cx="1325.82" cy="34.18" r="2.24"/><circle class="cls-14" cx="1315.1" cy="34.18" r="2.24"/><rect class="cls-15" x="1311.23" y="55.23" width="140.07" height="121.66" rx="4.9" transform="translate(2762.54 232.11) rotate(-180)"/><rect class="cls-10" x="1123.77" y="154.58" width="162.1" height="165.46" rx="8.52" transform="translate(2409.64 474.61) rotate(-180)"/><rect class="cls-17" x="1123.77" y="154.58" width="162.1" height="165.46" rx="8.52" transform="translate(2409.64 474.61) rotate(-180)"/><line class="cls-17" x1="1123.77" y1="176.3" x2="1285.87" y2="176.3"/><circle class="cls-12" cx="1159.16" cy="165.95" r="2.24"/><circle class="cls-13" cx="1148.44" cy="165.95" r="2.24"/><circle class="cls-14" cx="1137.71" cy="165.95" r="2.24"/><rect class="cls-15" x="1133.85" y="187" width="140.07" height="121.66" rx="4.9" transform="translate(2407.77 495.65) rotate(-180)"/><line class="cls-18" x1="1277.19" y1="123.49" x2="1181.92" y2="123.49"/><line class="cls-18" x1="1277.19" y1="134.6" x2="1181.92" y2="134.6"/><line class="cls-19" x1="1381.27" y1="205.33" x2="1311.39" y2="205.33"/><line class="cls-19" x1="1381.27" y1="216.45" x2="1311.39" y2="216.45"/><path class="cls-10" d="M1421.89,298.47V278.34a5,5,0,0,0-5-5h-5.56a5,5,0,0,1-4.62-3.09l0-.06a5,5,0,0,1,1.07-5.46l3.94-3.93a5,5,0,0,0,0-7.08l-14.24-14.23a5,5,0,0,0-7.07,0l-3.94,3.93a5,5,0,0,1-5.45,1.08l-.07,0a5,5,0,0,1-3.08-4.61v-5.57a5,5,0,0,0-5-5H1352.7a5,5,0,0,0-5,5v5.57a5,5,0,0,1-3.09,4.61l-.06,0a5,5,0,0,1-5.46-1.08l-3.93-3.93a5,5,0,0,0-7.08,0l-14.24,14.23a5,5,0,0,0,0,7.08l3.94,3.93a5,5,0,0,1,1.08,5.46l0,.06a5,5,0,0,1-4.62,3.09h-5.56a5,5,0,0,0-5,5v20.13a5,5,0,0,0,5,5h5.56a5,5,0,0,1,4.62,3.08l0,.07a5,5,0,0,1-1.08,5.45l-3.94,3.94a5,5,0,0,0,0,7.07l14.24,14.24a5,5,0,0,0,7.08,0l3.93-3.94a5,5,0,0,1,5.46-1.07l.06,0a5,5,0,0,1,3.09,4.62v5.56a5,5,0,0,0,5,5h20.13a5,5,0,0,0,5-5V337a5,5,0,0,1,3.08-4.62l.07,0a5,5,0,0,1,5.45,1.07l3.94,3.94a5,5,0,0,0,7.07,0l14.24-14.24a5,5,0,0,0,0-7.07l-3.94-3.94a5,5,0,0,1-1.07-5.45l0-.07a5,5,0,0,1,4.62-3.08h5.56A5,5,0,0,0,1421.89,298.47Z"/><path class="cls-15" d="M1371.12,233.14a5,5,0,0,0,3.09,4.62l.06,0a5,5,0,0,0,3.57.1v-3.59a5,5,0,0,0-5-5h-1.71Z"/><path class="cls-15" d="M1312.24,303.48a5,5,0,0,0-.1-3.57l0-.06a5,5,0,0,0-4.61-3.09h-3.85v1.71a5,5,0,0,0,5,5Z"/><path class="cls-15" d="M1405,247a5,5,0,0,1,0,7.08L1401,258a5,5,0,0,0-1.08,5.46l0,.06a5,5,0,0,0,4.62,3.09h2a5,5,0,0,1,1.18-1.89l3.94-3.93a5,5,0,0,0,0-7.08l-14.24-14.23h0Z"/><path class="cls-15" d="M1416.88,273.34h-1.71v18.41a5,5,0,0,1-5,5h-5.57a5,5,0,0,0-4.62,3.09l0,.06a5,5,0,0,0,1.08,5.45l3.93,3.94a5,5,0,0,1,0,7.08l-14.23,14.23a5,5,0,0,1-7.08,0l-3.94-3.93a5,5,0,0,0-5.45-1.08l-.06,0a5,5,0,0,0-3.09,4.62v5.57a5,5,0,0,1-5,5H1347.7v1.71a5,5,0,0,0,5,5h20.13a5,5,0,0,0,5-5V337a5,5,0,0,1,3.08-4.62l.07,0a5,5,0,0,1,5.45,1.07l3.94,3.94a5,5,0,0,0,7.07,0l14.24-14.24a5,5,0,0,0,0-7.07l-3.94-3.94a5,5,0,0,1-1.07-5.45l0-.07a5,5,0,0,1,4.62-3.08h5.56a5,5,0,0,0,5-5V278.34A5,5,0,0,0,1416.88,273.34Z"/><path class="cls-15" d="M1341,330.24a5,5,0,0,0-3.09-4.62l-.06,0a5,5,0,0,0-5.46,1.08l-3.93,3.93a5,5,0,0,1-7.08,0l6.72,6.72a5,5,0,0,0,7.08,0l3.93-3.94a5,5,0,0,1,1.89-1.18Z"/><path class="cls-11" d="M1421.89,298.47V278.34a5,5,0,0,0-5-5h-5.56a5,5,0,0,1-4.62-3.09l0-.06a5,5,0,0,1,1.07-5.46l3.94-3.93a5,5,0,0,0,0-7.08l-14.24-14.23a5,5,0,0,0-7.07,0l-3.94,3.93a5,5,0,0,1-5.45,1.08l-.07,0a5,5,0,0,1-3.08-4.61v-5.57a5,5,0,0,0-5-5H1352.7a5,5,0,0,0-5,5v5.57a5,5,0,0,1-3.09,4.61l-.06,0a5,5,0,0,1-5.46-1.08l-3.93-3.93a5,5,0,0,0-7.08,0l-14.24,14.23a5,5,0,0,0,0,7.08l3.94,3.93a5,5,0,0,1,1.08,5.46l0,.06a5,5,0,0,1-4.62,3.09h-5.56a5,5,0,0,0-5,5v20.13a5,5,0,0,0,5,5h5.56a5,5,0,0,1,4.62,3.08l0,.07a5,5,0,0,1-1.08,5.45l-3.94,3.94a5,5,0,0,0,0,7.07l14.24,14.24a5,5,0,0,0,7.08,0l3.93-3.94a5,5,0,0,1,5.46-1.07l.06,0a5,5,0,0,1,3.09,4.62v5.56a5,5,0,0,0,5,5h20.13a5,5,0,0,0,5-5V337a5,5,0,0,1,3.08-4.62l.07,0a5,5,0,0,1,5.45,1.07l3.94,3.94a5,5,0,0,0,7.07,0l14.24-14.24a5,5,0,0,0,0-7.07l-3.94-3.94a5,5,0,0,1-1.07-5.45l0-.07a5,5,0,0,1,4.62-3.08h5.56A5,5,0,0,0,1421.89,298.47Z"/><circle class="cls-20" cx="1362.77" cy="288.41" r="36.7"/><circle class="cls-15" cx="1358.83" cy="284.47" r="15.65"/><circle class="cls-21" cx="1362.77" cy="288.41" r="15.65"/><path class="cls-10" d="M1481.7,234.79v-11a2.74,2.74,0,0,0-2.74-2.73h-3a2.72,2.72,0,0,1-2.52-1.69l0,0a2.76,2.76,0,0,1,.59-3l2.15-2.15a2.73,2.73,0,0,0,0-3.87l-7.78-7.78a2.73,2.73,0,0,0-3.87,0l-2.15,2.15a2.73,2.73,0,0,1-3,.59h0a2.75,2.75,0,0,1-1.69-2.53v-3a2.74,2.74,0,0,0-2.73-2.74h-11a2.74,2.74,0,0,0-2.73,2.74v3a2.75,2.75,0,0,1-1.69,2.53h0a2.73,2.73,0,0,1-3-.59l-2.15-2.15a2.73,2.73,0,0,0-3.87,0l-7.78,7.78a2.73,2.73,0,0,0,0,3.87l2.15,2.15a2.74,2.74,0,0,1,.59,3v0a2.75,2.75,0,0,1-2.53,1.69h-3a2.74,2.74,0,0,0-2.74,2.73v11a2.74,2.74,0,0,0,2.74,2.74h3a2.74,2.74,0,0,1,2.53,1.68v0a2.73,2.73,0,0,1-.59,3l-2.15,2.15a2.73,2.73,0,0,0,0,3.87l7.78,7.78a2.73,2.73,0,0,0,3.87,0l2.15-2.15a2.75,2.75,0,0,1,3-.59l0,0a2.72,2.72,0,0,1,1.69,2.52v3a2.74,2.74,0,0,0,2.73,2.74h11a2.74,2.74,0,0,0,2.73-2.74v-3a2.72,2.72,0,0,1,1.69-2.52l0,0a2.74,2.74,0,0,1,3,.59l2.15,2.15a2.73,2.73,0,0,0,3.87,0l7.78-7.78a2.73,2.73,0,0,0,0-3.87l-2.15-2.15a2.74,2.74,0,0,1-.59-3l0,0a2.71,2.71,0,0,1,2.52-1.68h3A2.74,2.74,0,0,0,1481.7,234.79Z"/><path class="cls-15" d="M1453.94,199.07a2.72,2.72,0,0,0,1.69,2.52l0,0a2.74,2.74,0,0,0,1.95,0v-2a2.74,2.74,0,0,0-2.73-2.74h-.94Z"/><path class="cls-15" d="M1421.75,237.53a2.76,2.76,0,0,0,0-2l0,0a2.73,2.73,0,0,0-2.52-1.69h-2.11v.94a2.74,2.74,0,0,0,2.74,2.74Z"/><path class="cls-15" d="M1472.45,206.65a2.73,2.73,0,0,1,0,3.87l-2.15,2.15a2.73,2.73,0,0,0-.59,3v0a2.74,2.74,0,0,0,2.53,1.68h1.07a2.81,2.81,0,0,1,.65-1l2.15-2.15a2.73,2.73,0,0,0,0-3.87l-7.78-7.78h0Z"/><path class="cls-15" d="M1479,221.05H1478v10.07a2.74,2.74,0,0,1-2.74,2.73h-3a2.75,2.75,0,0,0-2.53,1.69v0a2.74,2.74,0,0,0,.59,3l2.15,2.15a2.73,2.73,0,0,1,0,3.87l-7.78,7.78a2.73,2.73,0,0,1-3.87,0l-2.15-2.15a2.74,2.74,0,0,0-3-.59h0a2.75,2.75,0,0,0-1.69,2.53v3a2.74,2.74,0,0,1-2.73,2.74h-10.07v.93a2.74,2.74,0,0,0,2.73,2.74h11a2.74,2.74,0,0,0,2.73-2.74v-3a2.72,2.72,0,0,1,1.69-2.52l0,0a2.74,2.74,0,0,1,3,.59l2.15,2.15a2.73,2.73,0,0,0,3.87,0l7.78-7.78a2.73,2.73,0,0,0,0-3.87l-2.15-2.15a2.74,2.74,0,0,1-.59-3l0,0a2.71,2.71,0,0,1,2.52-1.68h3a2.74,2.74,0,0,0,2.74-2.74v-11A2.74,2.74,0,0,0,1479,221.05Z"/><path class="cls-15" d="M1437.46,252.16a2.74,2.74,0,0,0-1.68-2.53h0a2.73,2.73,0,0,0-3,.59l-2.15,2.15a2.73,2.73,0,0,1-3.87,0l3.67,3.67a2.73,2.73,0,0,0,3.87,0l2.15-2.15a2.66,2.66,0,0,1,1-.64Z"/><path class="cls-11" d="M1481.7,234.79v-11a2.74,2.74,0,0,0-2.74-2.73h-3a2.72,2.72,0,0,1-2.52-1.69l0,0a2.76,2.76,0,0,1,.59-3l2.15-2.15a2.73,2.73,0,0,0,0-3.87l-7.78-7.78a2.73,2.73,0,0,0-3.87,0l-2.15,2.15a2.73,2.73,0,0,1-3,.59h0a2.75,2.75,0,0,1-1.69-2.53v-3a2.74,2.74,0,0,0-2.73-2.74h-11a2.74,2.74,0,0,0-2.73,2.74v3a2.75,2.75,0,0,1-1.69,2.53h0a2.73,2.73,0,0,1-3-.59l-2.15-2.15a2.73,2.73,0,0,0-3.87,0l-7.78,7.78a2.73,2.73,0,0,0,0,3.87l2.15,2.15a2.74,2.74,0,0,1,.59,3v0a2.75,2.75,0,0,1-2.53,1.69h-3a2.74,2.74,0,0,0-2.74,2.73v11a2.74,2.74,0,0,0,2.74,2.74h3a2.74,2.74,0,0,1,2.53,1.68v0a2.73,2.73,0,0,1-.59,3l-2.15,2.15a2.73,2.73,0,0,0,0,3.87l7.78,7.78a2.73,2.73,0,0,0,3.87,0l2.15-2.15a2.75,2.75,0,0,1,3-.59l0,0a2.72,2.72,0,0,1,1.69,2.52v3a2.74,2.74,0,0,0,2.73,2.74h11a2.74,2.74,0,0,0,2.73-2.74v-3a2.72,2.72,0,0,1,1.69-2.52l0,0a2.74,2.74,0,0,1,3,.59l2.15,2.15a2.73,2.73,0,0,0,3.87,0l7.78-7.78a2.73,2.73,0,0,0,0-3.87l-2.15-2.15a2.74,2.74,0,0,1-.59-3l0,0a2.71,2.71,0,0,1,2.52-1.68h3A2.74,2.74,0,0,0,1481.7,234.79Z"/><circle class="cls-20" cx="1449.38" cy="229.29" r="20.06"/><circle class="cls-15" cx="1447.22" cy="227.13" r="8.56"/><circle class="cls-21" cx="1449.38" cy="229.29" r="8.56"/><rect class="cls-22" x="1377.99" y="78.16" width="10.71" height="10.71"/><rect class="cls-22" x="1377.99" y="91.62" width="10.71" height="10.71"/><rect class="cls-22" x="1377.99" y="105.08" width="10.71" height="10.71"/><rect class="cls-22" x="1364.99" y="91.62" width="10.71" height="10.71"/><rect class="cls-22" x="1364.99" y="105.08" width="10.71" height="10.71"/><rect class="cls-22" x="1351.99" y="91.62" width="10.71" height="10.71"/><rect class="cls-22" x="1351.99" y="105.08" width="10.71" height="10.71"/><rect class="cls-22" x="1339.14" y="105.08" width="10.71" height="10.71"/><rect class="cls-22" x="1390.99" y="105.08" width="10.71" height="10.71"/><path class="cls-22" d="M1368.1,154c-39.44,0-34.85-34.72-34.85-34.72h65.84c11.1,0,14.77-3.52,14.77-3.52s-6.27-8.11,1.07-17.89c8.26,4.74,8,11.77,8,11.77s8.41-2.75,13.61,2c-2.9,9.48-15.75,8.87-15.75,8.87S1408.81,154,1368.1,154Z"/><path class="cls-13" d="M1205.44,258.27a1.59,1.59,0,0,0-1.93.42l-4.76,8.62a20.51,20.51,0,0,0,6.08,1,19.78,19.78,0,0,0,4.22-.48c.6-.18,1.2-.3,1.75-.48l-4.64-8.37A2.45,2.45,0,0,0,1205.44,258.27Z"/><path class="cls-13" d="M1196.64,254.18l-9.57,1.62a19,19,0,0,0,7.52,9.46l3.68-8.85a1.76,1.76,0,0,0,.06-1A1.62,1.62,0,0,0,1196.64,254.18Z"/><path class="cls-13" d="M1196,248.09a1.6,1.6,0,0,0-.18-2.22l-7.17-6.39a19.4,19.4,0,0,0-2.71,11.81l9.34-2.71A1.17,1.17,0,0,0,1196,248.09Z"/><path class="cls-13" d="M1212.06,254.3a1.62,1.62,0,0,0-.84,1.86l3.79,9.1a19.06,19.06,0,0,0,5.78-5.84,12,12,0,0,0,1.75-3.68l-9.64-1.62A1.92,1.92,0,0,0,1212.06,254.3Z"/><polygon class="cls-13" points="1202.18 251.47 1204.83 252.73 1207.48 251.47 1208.09 248.64 1206.28 246.35 1203.33 246.35 1201.52 248.64 1202.18 251.47"/><path class="cls-13" d="M1248.44,257l-7.53-32.71a5.86,5.86,0,0,0-3.13-3.91l-30.48-14.52a5.88,5.88,0,0,0-2.47-.54,7.33,7.33,0,0,0-2.53.48l-30.47,14.58a5.73,5.73,0,0,0-3.13,3.91L1161.17,257a6.06,6.06,0,0,0,1.14,4.94l21.08,26.2a5.76,5.76,0,0,0,4.52,2.16h33.79a5.74,5.74,0,0,0,4.51-2.16l21.08-26.2A5.63,5.63,0,0,0,1248.44,257Zm-13.25.78a1.32,1.32,0,0,1-.48-.06.22.22,0,0,0-.18-.06c-.12,0-.24-.06-.37-.06a5.77,5.77,0,0,1-1.08-.42c-.18-.06-.36-.18-.54-.24h-.06a15.06,15.06,0,0,0-3.13-.91h-.12a1.53,1.53,0,0,0-.79.31c-.06,0-.06.06-.12.06l-.72-.12a23.9,23.9,0,0,1-10.48,13.19l.3.72c0,.06-.06.06-.06.12a1.67,1.67,0,0,0-.06,1,12.92,12.92,0,0,0,1.57,2.83v.06c.12.18.24.3.36.48a5.92,5.92,0,0,1,.66,1,1.31,1.31,0,0,1,.18.3c0,.06.06.06.06.12a2.19,2.19,0,0,1,.12,1.51,1.79,1.79,0,0,1-.9,1.08,1.6,1.6,0,0,1-.72.18,2,2,0,0,1-1.81-1.14.21.21,0,0,1-.06-.12c-.06-.12-.12-.18-.18-.31a7.6,7.6,0,0,1-.36-1.08l-.18-.54v-.06a21.31,21.31,0,0,0-1.27-3,1.16,1.16,0,0,0-.78-.55c-.06-.06-.06-.06-.12-.06l-.36-.66a29.14,29.14,0,0,1-3.14.91,21.89,21.89,0,0,1-5.24.6,23.4,23.4,0,0,1-8.43-1.57l-.42.78c-.06.07-.06.07-.12.07a1.54,1.54,0,0,0-.78.54,14,14,0,0,0-1.27,3l-.18.54a11.36,11.36,0,0,1-.36,1.08,1.41,1.41,0,0,0-.18.31.21.21,0,0,0-.06.12,2.16,2.16,0,0,1-1.81,1.14,1.6,1.6,0,0,1-.72-.18A1.91,1.91,0,0,1,1190,276a.21.21,0,0,0,.06-.12,1.31,1.31,0,0,1,.18-.3c.24-.36.42-.66.66-1s.24-.3.36-.48v-.06a16.69,16.69,0,0,0,1.57-2.83,1.23,1.23,0,0,0-.12-1c0-.06-.06-.06-.06-.12l.36-.78a26.13,26.13,0,0,1-2.59-1.75,23.83,23.83,0,0,1-7.89-11.32l-.84.12c-.06,0-.06-.06-.12-.06a1.37,1.37,0,0,0-.79-.31h-.12a15.51,15.51,0,0,0-3.13.91h-.06c-.18.06-.36.18-.54.24a5.62,5.62,0,0,1-1.09.42c-.12,0-.24.06-.36.06s-.06.06-.12.06a1.32,1.32,0,0,1-.48.06,1.86,1.86,0,0,1-1.93-1.38,2,2,0,0,1,1.57-2.23.22.22,0,0,1,.18-.06c.12,0,.24-.06.36-.06a8.18,8.18,0,0,1,1.15-.12,2,2,0,0,1,.6-.06h.06a14.61,14.61,0,0,0,3.25-.55,1.4,1.4,0,0,0,.66-.66c0-.06.06-.06.06-.12l.79-.24a23.43,23.43,0,0,1,3.37-15.9,2.1,2.1,0,0,1,.3-.48l-.6-.54v-.12a1.11,1.11,0,0,0-.3-.91,18.14,18.14,0,0,0-2.71-1.86,2.55,2.55,0,0,0-.55-.31,9,9,0,0,1-1-.6c-.12-.06-.18-.18-.3-.24s-.06-.06-.12-.06a2,2,0,0,1-.42-2.71,1.71,1.71,0,0,1,1.38-.66,2.12,2.12,0,0,1,1.33.48c0,.06.06.06.12.12s.24.18.3.24a10,10,0,0,1,.78.84,3.35,3.35,0,0,1,.42.43,16.43,16.43,0,0,0,2.41,2.22.91.91,0,0,0,.54.19c.13,0,.25-.06.37-.06h.12l.6.42a23.15,23.15,0,0,1,11.92-6.75,30.51,30.51,0,0,1,3.26-.48l.06-.78.12-.12a1.28,1.28,0,0,0,.48-.79,15.63,15.63,0,0,0-.18-3.25v-.06c-.06-.24-.06-.42-.12-.6a3.51,3.51,0,0,1-.18-1.15v-.48a1.9,1.9,0,0,1,.54-1.38,1.83,1.83,0,0,1,3.19,1.38v.54c-.06.43-.12.79-.18,1.15a2.13,2.13,0,0,0-.12.6v.06a21.24,21.24,0,0,0-.18,3.25,1.28,1.28,0,0,0,.48.79l.12.12.06.78a24,24,0,0,1,12.59,5A27.8,27.8,0,0,1,1222,233l.72-.48h.12a.76.76,0,0,0,.36.06,1,1,0,0,0,.55-.19,15.25,15.25,0,0,0,2.4-2.16,2.46,2.46,0,0,0,.43-.42,8.71,8.71,0,0,1,.78-.85c.12-.06.18-.18.3-.24l.12-.12a2.23,2.23,0,0,1,1.33-.48,1.71,1.71,0,0,1,1.38.66,2,2,0,0,1-.42,2.71c0,.06-.06.06-.12.12s-.24.18-.3.24a9.94,9.94,0,0,1-1,.61c-.18.12-.36.18-.54.3a17.64,17.64,0,0,0-2.71,1.86,1.38,1.38,0,0,0-.3.91v.12l-.6.54a24.9,24.9,0,0,1,3.37,7.89,23.9,23.9,0,0,1,.42,8.49l.79.24c0,.06.06.06.06.12a1.21,1.21,0,0,0,.66.67,15.94,15.94,0,0,0,3.25.54h.06a2.25,2.25,0,0,0,.6.06,8.33,8.33,0,0,1,1.15.12c.12,0,.24.06.36.06s.06.06.12.06h.06a2.32,2.32,0,0,1,1.75,2A2,2,0,0,1,1235.19,257.79Z"/><path class="cls-13" d="M1220.91,239.48l-7.28,6.57a1.43,1.43,0,0,0-.36.66,1.63,1.63,0,0,0,1.14,1.93l9.21,2.65a18.55,18.55,0,0,0-.42-6.09A19.2,19.2,0,0,0,1220.91,239.48Z"/><path class="cls-13" d="M1208,241.11a1.6,1.6,0,0,0,2.1.36l7.89-5.6a18.26,18.26,0,0,0-10.84-5.24l.54,9.82A1.35,1.35,0,0,0,1208,241.11Z"/><path class="cls-13" d="M1200.32,241.77a1.64,1.64,0,0,0,1.62-1.57l.54-9.63-1.92.36a18.34,18.34,0,0,0-9,4.94l8,5.72A1.46,1.46,0,0,0,1200.32,241.77Z"/></svg>