<svg xmlns="http://www.w3.org/2000/svg" version="1.1" xmlns:xlink="http://www.w3.org/1999/xlink" width="512" height="512" x="0" y="0" viewBox="0 0 682.667 682.667" style="enable-background:new 0 0 512 512" xml:space="preserve" class=""><g><defs><clipPath id="a" clipPathUnits="userSpaceOnUse"><path d="M0 512h512V0H0Z" fill="#000000" opacity="1" data-original="#000000"></path></clipPath></defs><g clip-path="url(#a)" transform="matrix(1.33333 0 0 -1.33333 0 682.667)"><path d="M0 0c0-22.232 7.949-42.402 20.84-57.167h-314.122c-3.215 0-6.248 1.53-8.111 4.15-5.286 7.431-15.001 24.913-15.001 53.017 0 28.104 9.715 45.586 15.001 53.017 1.863 2.62 4.896 4.15 8.111 4.15H20.84C7.949 42.402 0 22.232 0 0" style="fill-opacity:1;fill-rule:nonzero;stroke:none" transform="translate(427.62 104.245)" fill="#2470a9" data-original="#fe3581" class="" opacity="1"></path><path d="m0 0-88.58-95.95c-3.87 9.31-7.25 22.19-7.25 38.78 0 28.11 9.71 45.59 15 53.02C-78.97-1.53-75.94 0-72.72 0z" style="fill-opacity:1;fill-rule:nonzero;stroke:none" transform="translate(207.06 161.41)" fill="#2470a9" data-original="#fe0364" class="" opacity="1"></path><path d="M0 0h-19.92c-3.214 0-6.247 1.53-8.111 4.15-4.048 5.692-10.695 17.279-13.584 35.019" style="stroke-width:15;stroke-linecap:round;stroke-linejoin:round;stroke-miterlimit:10;stroke-dasharray:none;stroke-opacity:1" transform="translate(154.257 47.078)" fill="none" stroke="#000000" stroke-width="15" stroke-linecap="round" stroke-linejoin="round" stroke-miterlimit="10" stroke-dasharray="none" stroke-opacity="" data-original="#000000" class=""></path><path d="M0 0c0-22.232 7.949-42.402 20.839-57.167h-318.901S-316.394-38.606-316.394 0s18.332 57.167 18.332 57.167H20.839C7.949 42.402 0 22.232 0 0" style="fill-opacity:1;fill-rule:nonzero;stroke:none" transform="translate(462.185 104.245)" fill="#edeff0" data-original="#e0d3ce" class="" opacity="1"></path><path d="m0 0-60.94-66.01c-.21 2.82-.33 5.77-.33 8.84C-61.27-18.56-42.94 0-42.94 0z" style="fill-opacity:1;fill-rule:nonzero;stroke:none" transform="translate(207.06 161.41)" fill="#edeff0" data-original="#cdc0bb" class="" opacity="1"></path><path d="M0 0c0-22.234 7.95-42.397 20.84-57.164h-37.787C-29.838-42.397-37.787-22.234-37.787 0c0 22.233 7.949 42.411 20.84 57.164H20.84C7.95 42.411 0 22.233 0 0" style="fill-opacity:1;fill-rule:nonzero;stroke:none" transform="translate(462.185 104.24)" fill="#edeff0" data-original="#cdc0bb" class="" opacity="1"></path><path d="M0 0c.093 22.076 8.017 42.097 20.83 56.774h-318.901s-18.331-18.561-18.331-57.167 18.331-57.166 18.331-57.166H20.83c-5.789 6.631-10.57 14.36-14.094 22.869" style="stroke-width:15;stroke-linecap:round;stroke-linejoin:round;stroke-miterlimit:10;stroke-dasharray:none;stroke-opacity:1" transform="translate(462.193 104.637)" fill="none" stroke="#000000" stroke-width="15" stroke-linecap="round" stroke-linejoin="round" stroke-miterlimit="10" stroke-dasharray="none" stroke-opacity="" data-original="#000000" class=""></path><path d="M0 0c0-4.58-1.86-8.73-4.86-11.73s-7.15-4.86-11.73-4.86h-317.05c-9.16 0-16.59 7.43-16.59 16.59 0 4.58 1.86 8.74 4.86 11.74s7.15 4.86 11.73 4.86h317.05C-7.43 16.6 0 9.17 0 0" style="fill-opacity:1;fill-rule:nonzero;stroke:none" transform="translate(504.49 172.08)" fill="#2470a9" data-original="#fe3581" class="" opacity="1"></path><path d="m0 0-30.63-33.19h-30.75c-9.16 0-16.59 7.43-16.59 16.59 0 4.58 1.86 8.74 4.86 11.74S-65.96 0-61.38 0z" style="fill-opacity:1;fill-rule:nonzero;stroke:none" transform="translate(232.23 188.68)" fill="#2470a9" data-original="#fe0364" class="" opacity="1"></path><path d="M0 0c0-4.582-1.863-8.736-4.858-11.731a16.569 16.569 0 0 0-11.745-4.872h-32.184c4.582 0 8.736 1.864 11.731 4.872A16.557 16.557 0 0 1-32.198 0c0 9.164-7.425 16.589-16.589 16.589h32.184C-7.439 16.589 0 9.164 0 0" style="fill-opacity:1;fill-rule:nonzero;stroke:none" transform="translate(504.5 172.086)" fill="#2470a9" data-original="#fe0364" class="" opacity="1"></path><path d="M0 0h-317.049c-9.164 0-16.594 7.429-16.594 16.594 0 9.164 7.43 16.594 16.594 16.594H0c9.165 0 16.594-7.43 16.594-16.594C16.594 7.429 9.165 0 0 0Z" style="stroke-width:15;stroke-linecap:round;stroke-linejoin:round;stroke-miterlimit:10;stroke-dasharray:none;stroke-opacity:1" transform="translate(487.9 155.488)" fill="none" stroke="#000000" stroke-width="15" stroke-linecap="round" stroke-linejoin="round" stroke-miterlimit="10" stroke-dasharray="none" stroke-opacity="" data-original="#000000" class=""></path><path d="M0 0h-317.049c-9.164 0-16.594 7.429-16.594 16.594 0 9.164 7.43 16.594 16.594 16.594H0c9.165 0 16.594-7.43 16.594-16.594C16.594 7.429 9.165 0 0 0" style="fill-opacity:1;fill-rule:nonzero;stroke:none" transform="translate(487.9 19.814)" fill="#2470a9" data-original="#fe3581" class="" opacity="1"></path><path d="M0 0c0-4.582-1.863-8.736-4.858-11.731a16.611 16.611 0 0 0-11.745-4.858h-32.184c4.582 0 8.736 1.863 11.731 4.858A16.557 16.557 0 0 1-32.198 0c0 9.164-7.425 16.589-16.589 16.589h32.184C-7.439 16.589 0 9.164 0 0" style="fill-opacity:1;fill-rule:nonzero;stroke:none" transform="translate(504.5 36.408)" fill="#2470a9" data-original="#fe0364" class="" opacity="1"></path><path d="M0 0h-317.049c-9.164 0-16.594 7.429-16.594 16.594 0 9.164 7.43 16.594 16.594 16.594H0c9.165 0 16.594-7.43 16.594-16.594C16.594 7.429 9.165 0 0 0Z" style="stroke-width:15;stroke-linecap:round;stroke-linejoin:round;stroke-miterlimit:10;stroke-dasharray:none;stroke-opacity:1" transform="translate(487.9 19.814)" fill="none" stroke="#000000" stroke-width="15" stroke-linecap="round" stroke-linejoin="round" stroke-miterlimit="10" stroke-dasharray="none" stroke-opacity="" data-original="#000000" class=""></path><path d="M0 0h147.162" style="stroke-width:15;stroke-linecap:round;stroke-linejoin:round;stroke-miterlimit:10;stroke-dasharray:none;stroke-opacity:1" transform="translate(150.251 121.398)" fill="none" stroke="#000000" stroke-width="15" stroke-linecap="round" stroke-linejoin="round" stroke-miterlimit="10" stroke-dasharray="none" stroke-opacity="" data-original="#000000" class=""></path><path d="M0 0h101.813" style="stroke-width:15;stroke-linecap:round;stroke-linejoin:round;stroke-miterlimit:10;stroke-dasharray:none;stroke-opacity:1" transform="translate(359.212 121.398)" fill="none" stroke="#000000" stroke-width="15" stroke-linecap="round" stroke-linejoin="round" stroke-miterlimit="10" stroke-dasharray="none" stroke-opacity="" data-original="#000000" class=""></path><path d="M0 0h-174.727" style="stroke-width:15;stroke-linecap:round;stroke-linejoin:round;stroke-miterlimit:10;stroke-dasharray:none;stroke-opacity:1" transform="translate(384.554 87.33)" fill="none" stroke="#000000" stroke-width="15" stroke-linecap="round" stroke-linejoin="round" stroke-miterlimit="10" stroke-dasharray="none" stroke-opacity="" data-original="#000000" class=""></path><path d="m0 0-26.79 26.79-182.363-168.347c-12.051-11.125-12.429-30.041-.831-41.638 11.597-11.597 30.513-11.219 41.637.832z" style="fill-opacity:1;fill-rule:nonzero;stroke:none" transform="translate(225.942 211.35)" fill="#883f2d" data-original="#883f2d" class=""></path><path d="M0 0c-11.213-11.213-29.512-11.309-40.829.008a28.605 28.605 0 0 0-7.043 11.508c10.002-3.253 21.414-.874 29.305 7.016.276.277.553.572.822.857l168.35 182.367 18.55-18.55L.805.839A38.289 38.289 0 0 0 0 0" style="fill-opacity:1;fill-rule:nonzero;stroke:none" transform="translate(56.79 28.145)" fill="#6d3326" data-original="#6d3326" class=""></path><path d="m0 0-109.548-101.128c-12.051-11.124-12.429-30.04-.832-41.638 11.597-11.597 30.513-11.219 41.638.832L99.604 40.429l-26.789 26.79-46.837-43.237" style="stroke-width:15;stroke-linecap:round;stroke-linejoin:round;stroke-miterlimit:10;stroke-dasharray:none;stroke-opacity:1" transform="translate(126.338 170.921)" fill="none" stroke="#000000" stroke-width="15" stroke-linecap="round" stroke-linejoin="round" stroke-miterlimit="10" stroke-dasharray="none" stroke-opacity="" data-original="#000000" class=""></path><path d="m0 0-61.688-73.583 25.2-25.2 73.584 61.687z" style="fill-opacity:1;fill-rule:nonzero;stroke:none" transform="translate(252.323 301.615)" fill="#883f2d" data-original="#883f2d" class=""></path><path d="m0 0-19.933-23.777 5.981-5.981c4.402-4.403 4.402-11.54 0-15.942l-37.809-37.809 15.273-15.274 73.584 61.687z" style="fill-opacity:1;fill-rule:nonzero;stroke:none" transform="translate(252.323 301.615)" fill="#6d3326" data-original="#6d3326" class=""></path><path d="m0 0-61.688-73.583 25.2-25.2 73.584 61.687z" style="stroke-width:15;stroke-linecap:round;stroke-linejoin:round;stroke-miterlimit:10;stroke-dasharray:none;stroke-opacity:1" transform="translate(252.323 301.615)" fill="none" stroke="#000000" stroke-width="15" stroke-linecap="round" stroke-linejoin="round" stroke-miterlimit="10" stroke-dasharray="none" stroke-opacity="" data-original="#000000" class=""></path><path d="m0 0-24.461 24.461c-7.073 7.073-7.073 18.539 0 25.61 7.071 7.072 18.537 7.072 25.609 0L25.61 25.61c7.072-7.072 7.072-18.538 0-25.61C18.538-7.072 7.072-7.072 0 0" style="fill-opacity:1;fill-rule:nonzero;stroke:none" transform="translate(199.988 187.722)" fill="#63d9b6" data-original="#bc5d4c" class="" opacity="1"></path><path d="M0 0a18.049 18.049 0 0 0-12.796-5.304A18.06 18.06 0 0 0-25.61 0l-18.541 18.541a18.007 18.007 0 0 1 12.805-5.295 18.011 18.011 0 0 1 12.805 5.295c7.077 7.078 7.068 18.542 0 25.61L0 25.61C7.077 18.532 7.078 7.077 0 0" style="fill-opacity:1;fill-rule:nonzero;stroke:none" transform="translate(225.59 187.723)" fill="#63d9b6" data-original="#a54f3e" class="" opacity="1"></path><path d="m0 0-24.461 24.461c-7.073 7.073-7.073 18.539 0 25.61 7.071 7.072 18.537 7.072 25.609 0L25.61 25.61c7.072-7.072 7.072-18.538 0-25.61C18.538-7.072 7.072-7.072 0 0Z" style="stroke-width:15;stroke-linecap:round;stroke-linejoin:round;stroke-miterlimit:10;stroke-dasharray:none;stroke-opacity:1" transform="translate(199.988 187.722)" fill="none" stroke="#000000" stroke-width="15" stroke-linecap="round" stroke-linejoin="round" stroke-miterlimit="10" stroke-dasharray="none" stroke-opacity="" data-original="#000000" class=""></path><path d="m0 0-54.323 54.323 85.285 85.286 54.324-54.323Z" style="fill-opacity:1;fill-rule:nonzero;stroke:none" transform="translate(253.341 330.156)" fill="#63d9b6" data-original="#bc5d4c" class="" opacity="1"></path><path d="m0 0-54.323 54.323 85.285 85.286 54.324-54.323Z" style="stroke-width:15;stroke-linecap:round;stroke-linejoin:round;stroke-miterlimit:10;stroke-dasharray:none;stroke-opacity:1" transform="translate(253.341 330.156)" fill="none" stroke="#000000" stroke-width="15" stroke-linecap="round" stroke-linejoin="round" stroke-miterlimit="10" stroke-dasharray="none" stroke-opacity="" data-original="#000000" class=""></path><path d="m0 0 54.323-54.323 85.286 85.285-54.323 54.324Z" style="fill-opacity:1;fill-rule:nonzero;stroke:none" transform="translate(317.96 265.537)" fill="#63d9b6" data-original="#a54f3e" class="" opacity="1"></path><path d="m0 0 54.323-54.323 85.286 85.285-54.323 54.324Z" style="stroke-width:15;stroke-linecap:round;stroke-linejoin:round;stroke-miterlimit:10;stroke-dasharray:none;stroke-opacity:1" transform="translate(317.96 265.537)" fill="none" stroke="#000000" stroke-width="15" stroke-linecap="round" stroke-linejoin="round" stroke-miterlimit="10" stroke-dasharray="none" stroke-opacity="" data-original="#000000" class=""></path><path d="m0 0-1.887 1.887c-7.155 7.154-7.155 18.754 0 25.908l93.336 93.336c7.155 7.155 18.754 7.155 25.909 0l1.886-1.886c7.155-7.155 7.155-18.755 0-25.909L25.909 0C18.754-7.155 7.154-7.155 0 0" style="fill-opacity:1;fill-rule:nonzero;stroke:none" transform="translate(183.733 365.805)" fill="#883f2d" data-original="#883f2d" class=""></path><path d="m0 0-1.887 1.887c-7.155 7.154-7.155 18.754 0 25.908l93.336 93.336c7.155 7.155 18.754 7.155 25.909 0l1.886-1.886c7.155-7.155 7.155-18.755 0-25.909L25.909 0C18.754-7.155 7.154-7.155 0 0Z" style="stroke-width:15;stroke-linecap:round;stroke-linejoin:round;stroke-miterlimit:10;stroke-dasharray:none;stroke-opacity:1" transform="translate(183.733 365.805)" fill="none" stroke="#000000" stroke-width="15" stroke-linecap="round" stroke-linejoin="round" stroke-miterlimit="10" stroke-dasharray="none" stroke-opacity="" data-original="#000000" class=""></path><path d="m0 0 1.887-1.887c7.154-7.154 18.754-7.154 25.908 0l93.336 93.336c7.155 7.155 7.155 18.755 0 25.909l-1.886 1.887c-7.155 7.154-18.755 7.154-25.909 0L0 25.909C-7.154 18.754-7.154 7.154 0 0" style="fill-opacity:1;fill-rule:nonzero;stroke:none" transform="translate(353.61 195.93)" fill="#6d3326" data-original="#6d3326" class=""></path><path d="m0 0 1.887-1.887c7.154-7.154 18.754-7.154 25.908 0l93.336 93.336c7.155 7.155 7.155 18.755 0 25.909l-1.886 1.887c-7.155 7.154-18.755 7.154-25.909 0L0 25.909C-7.154 18.754-7.154 7.154 0 0Z" style="stroke-width:15;stroke-linecap:round;stroke-linejoin:round;stroke-miterlimit:10;stroke-dasharray:none;stroke-opacity:1" transform="translate(353.61 195.93)" fill="none" stroke="#000000" stroke-width="15" stroke-linecap="round" stroke-linejoin="round" stroke-miterlimit="10" stroke-dasharray="none" stroke-opacity="" data-original="#000000" class=""></path><path d="m0 0-61.004 61.005L67.802 189.811l61.005-61.005Z" style="fill-opacity:1;fill-rule:nonzero;stroke:none" transform="translate(294.393 245.584)" fill="#63d9b6" data-original="#fdc266" class="" opacity="1"></path><path d="m0 0-128.806-128.807 30.876-30.876L30.877-30.877Z" style="fill-opacity:1;fill-rule:nonzero;stroke:none" transform="translate(392.322 405.267)" fill="#63d9b6" data-original="#fea714" class="" opacity="1"></path><path d="m0 0-17.724 17.723-128.806-128.806 61.005-61.005L43.281-43.281 25.027-25.028" style="stroke-width:15;stroke-linecap:round;stroke-linejoin:round;stroke-miterlimit:10;stroke-dasharray:none;stroke-opacity:1" transform="translate(379.918 417.672)" fill="none" stroke="#000000" stroke-width="15" stroke-linecap="round" stroke-linejoin="round" stroke-miterlimit="10" stroke-dasharray="none" stroke-opacity="" data-original="#000000" class=""></path><path d="m0 0-14.943 6.109a13.738 13.738 0 0 1-14.916-3.002l-104.934-104.934a13.737 13.737 0 0 1-3.002-14.915l6.109-14.944c2.477-6.06 10.327-7.64 14.956-3.011L3.011-14.956C7.64-10.327 6.06-2.478 0 0" style="fill-opacity:1;fill-rule:nonzero;stroke:none" transform="translate(362.47 438)" fill="#883f2d" data-original="#883f2d" class=""></path><path d="m0 0-14.943 6.109a13.738 13.738 0 0 1-14.916-3.002l-104.934-104.934a13.737 13.737 0 0 1-3.002-14.915l6.109-14.944c2.477-6.06 10.327-7.64 14.956-3.011L3.011-14.956C7.64-10.327 6.06-2.478 0 0Z" style="stroke-width:15;stroke-linecap:round;stroke-linejoin:round;stroke-miterlimit:10;stroke-dasharray:none;stroke-opacity:1" transform="translate(362.47 438)" fill="none" stroke="#000000" stroke-width="15" stroke-linecap="round" stroke-linejoin="round" stroke-miterlimit="10" stroke-dasharray="none" stroke-opacity="" data-original="#000000" class=""></path><path d="m0 0 6.109-14.944a13.736 13.736 0 0 0-3.003-14.915l-104.933-104.934a13.737 13.737 0 0 0-14.915-3.002l-14.945 6.109c-6.059 2.478-7.639 10.327-3.01 14.956L-14.956 3.011C-10.327 7.64-2.478 6.06 0 0" style="fill-opacity:1;fill-rule:nonzero;stroke:none" transform="translate(425.804 374.666)" fill="#6d3326" data-original="#6d3326" class=""></path><path d="m0 0 6.109-14.944a13.736 13.736 0 0 0-3.003-14.915l-104.933-104.934a13.737 13.737 0 0 0-14.915-3.002l-14.945 6.109c-6.059 2.478-7.639 10.327-3.01 14.956L-14.956 3.011C-10.327 7.64-2.478 6.06 0 0Z" style="stroke-width:15;stroke-linecap:round;stroke-linejoin:round;stroke-miterlimit:10;stroke-dasharray:none;stroke-opacity:1" transform="translate(425.804 374.666)" fill="none" stroke="#000000" stroke-width="15" stroke-linecap="round" stroke-linejoin="round" stroke-miterlimit="10" stroke-dasharray="none" stroke-opacity="" data-original="#000000" class=""></path></g></g></svg>