<svg xmlns="http://www.w3.org/2000/svg" version="1.1" xmlns:xlink="http://www.w3.org/1999/xlink" width="512" height="512" x="0" y="0" viewBox="0 0 511.46 511.46" style="enable-background:new 0 0 512 512" xml:space="preserve" class=""><g><path d="M199.382 357.774c5.868-24.858 28.198-43.358 54.849-43.358 26.651 0 48.981 18.5 54.849 43.358v131.457H199.382V357.774z" style="" fill="#23303d" data-original="#537983" class="" opacity="1"></path><path d="M270.492 316.804c-22.67 6.96-38.92 28.51-38.92 53.33v119.1h-32.19v-131.46c5.87-24.86 28.2-43.36 54.85-43.36 5.65 0 11.11.83 16.26 2.39z" style="" fill="#23303d" data-original="#3e5959" class="" opacity="1"></path><path d="M328.113 357.774c5.868-24.858 28.198-43.358 54.849-43.358 26.651 0 48.981 18.5 54.849 43.358v131.457H328.113V357.774z" style="" fill="#e09932" data-original="#ffe177" class="" opacity="1"></path><path d="M399.223 316.804c-22.67 6.96-38.92 28.51-38.92 53.33v119.1h-32.19v-131.46c5.87-24.86 28.2-43.36 54.85-43.36 5.65 0 11.11.83 16.26 2.39z" style="" fill="#e09932" data-original="#fece85" class="" opacity="1"></path><path d="M70.653 357.772c5.868-24.858 28.198-43.358 54.849-43.358 26.651 0 48.981 18.5 54.849 43.358v131.457H70.653V357.772z" style="" fill="#e38082" data-original="#fd8087" class="" opacity="1"></path><path d="M141.763 316.802c-22.67 6.96-38.92 28.51-38.92 53.33v119.1h-32.19v-131.46c5.87-24.86 28.2-43.36 54.85-43.36a55.97 55.97 0 0 1 16.26 2.39z" style="" fill="#e38082" data-original="#fe646f" class="" opacity="1"></path><path d="M125.502 314.414c-26.536 0-48.047-21.511-48.047-48.047v-12.525c0-26.536 21.511-48.047 48.047-48.047 26.536 0 48.047 21.511 48.047 48.047v12.525c0 26.535-21.512 48.047-48.047 48.047z" style="" fill="#e49280" data-original="#e49280" class=""></path><path d="M141.157 311.807a48.187 48.187 0 0 1-15.657 2.605c-26.533 0-48.045-21.513-48.045-48.045v-12.525c0-26.533 21.513-48.045 48.045-48.045 5.474 0 10.745.92 15.657 2.605-18.86 6.49-32.401 24.381-32.401 45.44v12.525c0 21.059 13.541 38.95 32.401 45.44z" style="" fill="#dd7f66" data-original="#dd7f66" class=""></path><path d="M125.502 314.414h0c-26.536 0-48.047-21.511-48.047-48.047v-12.525c0-26.536 21.511-48.047 48.047-48.047h0c26.536 0 48.047 21.511 48.047 48.047v12.525c0 26.535-21.512 48.047-48.047 48.047z" style="stroke-width:15;stroke-linecap:round;stroke-linejoin:round;stroke-miterlimit:10;" fill="none" stroke="#000000" stroke-width="15" stroke-linecap="round" stroke-linejoin="round" stroke-miterlimit="10" data-original="#000000" class=""></path><path d="M86.161 330.409c10.16-9.9 24.04-16 39.34-16 13.33 0 25.57 4.62 35.22 12.36 1.84 1.48 3.59 3.06 5.23 4.76" style="stroke-width:15;stroke-linecap:round;stroke-linejoin:round;stroke-miterlimit:10;" fill="none" stroke="#000000" stroke-width="15" stroke-linecap="round" stroke-linejoin="round" stroke-miterlimit="10" data-original="#000000" class=""></path><path d="M254.233 314.414c-26.536 0-48.047-21.511-48.047-48.047v-12.525c0-26.536 21.511-48.047 48.047-48.047 26.536 0 48.047 21.511 48.047 48.047v12.525c-.001 26.535-21.512 48.047-48.047 48.047z" style="" fill="#eaa998" data-original="#eaa998" class=""></path><path d="M269.888 311.807a48.187 48.187 0 0 1-15.657 2.605c-26.533 0-48.045-21.513-48.045-48.045v-12.525c0-26.533 21.513-48.045 48.045-48.045 5.474 0 10.745.92 15.657 2.605-18.86 6.49-32.401 24.381-32.401 45.44v12.525c0 21.059 13.541 38.95 32.401 45.44z" style="" fill="#e49280" data-original="#e49280" class=""></path><path d="M254.233 314.414h0c-26.536 0-48.047-21.511-48.047-48.047v-12.525c0-26.536 21.511-48.047 48.047-48.047h0c26.536 0 48.047 21.511 48.047 48.047v12.525c-.001 26.535-21.512 48.047-48.047 48.047z" style="stroke-width:15;stroke-linecap:round;stroke-linejoin:round;stroke-miterlimit:10;" fill="none" stroke="#000000" stroke-width="15" stroke-linecap="round" stroke-linejoin="round" stroke-miterlimit="10" data-original="#000000" class=""></path><path d="M214.901 330.419c10.15-9.91 24.03-16.01 39.33-16.01 13.32 0 25.57 4.62 35.22 12.36 1.84 1.48 3.59 3.06 5.23 4.76" style="stroke-width:15;stroke-linecap:round;stroke-linejoin:round;stroke-miterlimit:10;" fill="none" stroke="#000000" stroke-width="15" stroke-linecap="round" stroke-linejoin="round" stroke-miterlimit="10" data-original="#000000" class=""></path><path d="M382.963 314.414c-26.536 0-48.047-21.511-48.047-48.047v-12.525c0-26.536 21.511-48.047 48.047-48.047 26.536 0 48.047 21.511 48.047 48.047v12.525c0 26.535-21.511 48.047-48.047 48.047z" style="" fill="#ffdfcf" data-original="#ffdfcf" class=""></path><path d="M398.619 311.807a48.187 48.187 0 0 1-15.657 2.605c-26.533 0-48.045-21.513-48.045-48.045v-12.525c0-26.533 21.513-48.045 48.045-48.045 5.474 0 10.745.92 15.657 2.605-18.86 6.49-32.401 24.381-32.401 45.44v12.525c0 21.059 13.541 38.95 32.401 45.44z" style="" fill="#ffcebf" data-original="#ffcebf" class=""></path><path d="M382.963 314.414h0c-26.536 0-48.047-21.511-48.047-48.047v-12.525c0-26.536 21.511-48.047 48.047-48.047h0c26.536 0 48.047 21.511 48.047 48.047v12.525c0 26.535-21.511 48.047-48.047 48.047z" style="stroke-width:15;stroke-linecap:round;stroke-linejoin:round;stroke-miterlimit:10;" fill="none" stroke="#000000" stroke-width="15" stroke-linecap="round" stroke-linejoin="round" stroke-miterlimit="10" data-original="#000000" class=""></path><path d="M343.621 330.409c10.16-9.9 24.04-16 39.34-16 13.33 0 25.57 4.62 35.22 12.36 1.84 1.48 3.59 3.06 5.23 4.76" style="stroke-width:15;stroke-linecap:round;stroke-linejoin:round;stroke-miterlimit:10;" fill="none" stroke="#000000" stroke-width="15" stroke-linecap="round" stroke-linejoin="round" stroke-miterlimit="10" data-original="#000000" class=""></path><path d="M62.633 432.874c-26.536 0-48.047-21.511-48.047-48.047v-12.525c0-26.536 21.511-48.047 48.047-48.047 26.536 0 48.047 21.511 48.047 48.047v12.525c0 26.536-21.512 48.047-48.047 48.047z" style="" fill="#eaa998" data-original="#eaa998" class=""></path><path d="M78.288 430.267a48.187 48.187 0 0 1-15.657 2.605c-26.533 0-48.045-21.513-48.045-48.045v-12.525c0-26.533 21.513-48.045 48.045-48.045 5.474 0 10.745.92 15.657 2.605-18.86 6.49-32.401 24.381-32.401 45.44v12.525c0 21.059 13.541 38.95 32.401 45.44z" style="" fill="#e49280" data-original="#e49280" class=""></path><path d="M62.633 432.874h0c-26.536 0-48.047-21.511-48.047-48.047v-12.525c0-26.536 21.511-48.047 48.047-48.047h0c26.536 0 48.047 21.511 48.047 48.047v12.525c0 26.536-21.512 48.047-48.047 48.047z" style="stroke-width:15;stroke-linecap:round;stroke-linejoin:round;stroke-miterlimit:10;" fill="none" stroke="#000000" stroke-width="15" stroke-linecap="round" stroke-linejoin="round" stroke-miterlimit="10" data-original="#000000" class=""></path><path d="M18.182 489.229c-6.828 0-11.966-6.352-10.398-12.997 5.868-24.858 28.198-43.358 54.849-43.358 26.651 0 48.981 18.5 54.849 43.358 1.569 6.645-3.57 12.997-10.398 12.997H18.182z" style="" fill="#e09932" data-original="#ffe177" class="" opacity="1"></path><path d="M40.806 476.226c-1.578 6.645 3.562 13.003 10.398 13.003H18.182c-6.824 0-11.963-6.358-10.398-13.003 5.868-24.859 28.194-43.36 54.846-43.36 5.749 0 11.294.861 16.517 2.462-19.003 5.808-33.74 21.393-38.341 40.898z" style="" fill="#e09932" data-original="#fece85" class="" opacity="1"></path><path d="M18.182 489.229c-6.828 0-11.966-6.352-10.398-12.997 5.868-24.858 28.198-43.358 54.849-43.358h0c26.651 0 48.981 18.5 54.849 43.358 1.569 6.645-3.57 12.997-10.398 12.997H18.182z" style="stroke-width:15;stroke-linecap:round;stroke-linejoin:round;stroke-miterlimit:10;" fill="none" stroke="#000000" stroke-width="15" stroke-linecap="round" stroke-linejoin="round" stroke-miterlimit="10" data-original="#000000" class=""></path><path d="M191.364 432.874c-26.536 0-48.047-21.511-48.047-48.047v-12.525c0-26.536 21.511-48.047 48.047-48.047 26.536 0 48.047 21.511 48.047 48.047v12.525c0 26.536-21.512 48.047-48.047 48.047z" style="" fill="#ffdfcf" data-original="#ffdfcf" class=""></path><path d="M207.019 430.267a48.187 48.187 0 0 1-15.657 2.605c-26.533 0-48.045-21.513-48.045-48.045v-12.525c0-26.533 21.513-48.045 48.045-48.045 5.474 0 10.745.92 15.657 2.605-18.86 6.49-32.401 24.381-32.401 45.44v12.525c0 21.059 13.541 38.95 32.401 45.44z" style="" fill="#ffcebf" data-original="#ffcebf" class=""></path><path d="M146.499 402.03c6.91 18.04 24.39 30.84 44.86 30.84 26.54 0 48.05-21.51 48.05-48.04V372.3c0-13.27-5.38-25.28-14.07-33.97-8.7-8.7-20.71-14.08-33.98-14.08-24.85 0-45.3 18.89-47.78 43.09" style="stroke-width:15;stroke-linecap:round;stroke-linejoin:round;stroke-miterlimit:10;" fill="none" stroke="#000000" stroke-width="15" stroke-linecap="round" stroke-linejoin="round" stroke-miterlimit="10" data-original="#000000" class=""></path><path d="M146.912 489.229c-6.828 0-11.966-6.352-10.398-12.997 5.868-24.858 28.198-43.358 54.849-43.358 26.651 0 48.981 18.5 54.849 43.358 1.569 6.645-3.57 12.997-10.398 12.997h-88.902z" style="" fill="#2470a9" data-original="#01d0fb" class="" opacity="1"></path><path d="M169.537 476.226c-1.578 6.645 3.562 13.003 10.398 13.003h-33.022c-6.824 0-11.963-6.358-10.398-13.003 5.868-24.859 28.194-43.36 54.846-43.36 5.749 0 11.294.861 16.517 2.462-19.003 5.808-33.74 21.393-38.341 40.898z" style="" fill="#2470a9" data-original="#01c0fa" class="" opacity="1"></path><path d="M146.912 489.229c-6.828 0-11.966-6.352-10.398-12.997 5.868-24.858 28.198-43.358 54.849-43.358h0c26.651 0 48.981 18.5 54.849 43.358 1.569 6.645-3.57 12.997-10.398 12.997h-88.902z" style="stroke-width:15;stroke-linecap:round;stroke-linejoin:round;stroke-miterlimit:10;" fill="none" stroke="#000000" stroke-width="15" stroke-linecap="round" stroke-linejoin="round" stroke-miterlimit="10" data-original="#000000" class=""></path><path d="M320.095 432.874c-26.536 0-48.047-21.511-48.047-48.047v-12.525c0-26.536 21.511-48.047 48.047-48.047 26.536 0 48.047 21.511 48.047 48.047v12.525c-.001 26.536-21.512 48.047-48.047 48.047z" style="" fill="#e49280" data-original="#e49280" class=""></path><path d="M335.75 430.267a48.187 48.187 0 0 1-15.657 2.605c-26.533 0-48.045-21.513-48.045-48.045v-12.525c0-26.533 21.513-48.045 48.045-48.045 5.474 0 10.745.92 15.657 2.605-18.86 6.49-32.401 24.381-32.401 45.44v12.525c0 21.059 13.541 38.95 32.401 45.44z" style="" fill="#dd7f66" data-original="#dd7f66" class=""></path><path d="M320.095 432.874h0c-26.536 0-48.047-21.511-48.047-48.047v-12.525c0-26.536 21.511-48.047 48.047-48.047h0c26.536 0 48.047 21.511 48.047 48.047v12.525c-.001 26.536-21.512 48.047-48.047 48.047z" style="stroke-width:15;stroke-linecap:round;stroke-linejoin:round;stroke-miterlimit:10;" fill="none" stroke="#000000" stroke-width="15" stroke-linecap="round" stroke-linejoin="round" stroke-miterlimit="10" data-original="#000000" class=""></path><path d="M275.643 489.229c-6.828 0-11.966-6.352-10.398-12.997 5.868-24.858 28.198-43.358 54.849-43.358 26.651 0 48.981 18.5 54.849 43.358 1.569 6.645-3.57 12.997-10.398 12.997h-88.902z" style="" fill="#63d9b6" data-original="#5de1c4" class="" opacity="1"></path><path d="M298.268 476.226c-1.578 6.645 3.562 13.003 10.398 13.003h-33.022c-6.824 0-11.964-6.358-10.398-13.003 5.868-24.859 28.194-43.36 54.846-43.36 5.749 0 11.294.861 16.517 2.462-19.004 5.808-33.74 21.393-38.341 40.898z" style="" fill="#63d9b6" data-original="#0ed2b3" class="" opacity="1"></path><path d="M275.643 489.229c-6.828 0-11.966-6.352-10.398-12.997 5.868-24.858 28.198-43.358 54.849-43.358h0c26.651 0 48.981 18.5 54.849 43.358 1.569 6.645-3.57 12.997-10.398 12.997h-88.902z" style="stroke-width:15;stroke-linecap:round;stroke-linejoin:round;stroke-miterlimit:10;" fill="none" stroke="#000000" stroke-width="15" stroke-linecap="round" stroke-linejoin="round" stroke-miterlimit="10" data-original="#000000" class=""></path><path d="M448.825 432.874c-26.536 0-48.047-21.511-48.047-48.047v-12.525c0-26.536 21.511-48.047 48.047-48.047 26.536 0 48.047 21.511 48.047 48.047v12.525c0 26.536-21.511 48.047-48.047 48.047z" style="" fill="#eaa998" data-original="#eaa998" class=""></path><path d="M464.481 430.267a48.187 48.187 0 0 1-15.657 2.605c-26.533 0-48.045-21.513-48.045-48.045v-12.525c0-26.533 21.513-48.045 48.045-48.045 5.474 0 10.745.92 15.657 2.605-18.86 6.49-32.401 24.381-32.401 45.44v12.525c0 21.059 13.541 38.95 32.401 45.44z" style="" fill="#e49280" data-original="#e49280" class=""></path><path d="M448.825 432.874h0c-26.536 0-48.047-21.511-48.047-48.047v-12.525c0-26.536 21.511-48.047 48.047-48.047h0c26.536 0 48.047 21.511 48.047 48.047v12.525c0 26.536-21.511 48.047-48.047 48.047z" style="stroke-width:15;stroke-linecap:round;stroke-linejoin:round;stroke-miterlimit:10;" fill="none" stroke="#000000" stroke-width="15" stroke-linecap="round" stroke-linejoin="round" stroke-miterlimit="10" data-original="#000000" class=""></path><path d="M404.374 489.229c-6.828 0-11.967-6.352-10.398-12.997 5.868-24.858 28.198-43.358 54.849-43.358 26.651 0 48.981 18.5 54.849 43.358 1.569 6.645-3.57 12.997-10.398 12.997h-88.902z" style="" fill="#2470a9" data-original="#01d0fb" class="" opacity="1"></path><path d="M426.999 476.226c-1.578 6.645 3.562 13.003 10.398 13.003h-33.022c-6.824 0-11.964-6.358-10.398-13.003 5.868-24.859 28.194-43.36 54.846-43.36 5.749 0 11.294.861 16.517 2.462-19.004 5.808-33.74 21.393-38.341 40.898z" style="" fill="#2470a9" data-original="#01c0fa" class="" opacity="1"></path><path d="M472.809 489.23h20.47c6.83 0 11.96-6.35 10.4-13-2.93-12.43-9.99-23.27-19.63-31-9.65-7.74-21.9-12.36-35.22-12.36-26.65 0-48.98 18.5-54.85 43.36-1.57 6.65 3.57 13 10.39 13h33.44" style="stroke-width:15;stroke-linecap:round;stroke-linejoin:round;stroke-miterlimit:10;" fill="none" stroke="#000000" stroke-width="15" stroke-linecap="round" stroke-linejoin="round" stroke-miterlimit="10" data-original="#000000" class=""></path><path d="M330.053 66.369c.01 11.3-4.3 22.59-12.91 31.21l-51.83 51.83c-6.18 6.18-16.19 6.18-22.36 0l-51.21-51.2c-17.09-17.09-18-44.96-1.26-62.39 8.69-9.05 20.26-13.58 31.84-13.59 11.3.01 22.59 4.32 31.21 12.94l.6.59.59-.59c17.24-17.24 45.17-17.25 62.42 0 8.61 8.61 12.92 19.9 12.91 31.2z" style="" fill="#e38082" data-original="#fd8087" class="" opacity="1"></path><path d="m242.952 149.409-51.21-51.2c-17.09-17.09-18-44.96-1.26-62.39 8.69-9.05 20.26-13.58 31.84-13.59 11.3.01 22.59 4.32 31.21 12.94l.6.59c.001 0-87.45-3.99-11.18 113.65z" style="" fill="#e38082" data-original="#fe646f" class="" opacity="1"></path><path d="m310.949 103.77 6.19-6.19c8.62-8.62 12.93-19.91 12.91-31.21.02-11.3-4.29-22.59-12.91-31.21-17.24-17.24-45.18-17.23-62.41 0l-.6.6-.6-.6c-8.61-8.61-19.9-12.92-31.2-12.93-11.59.01-23.16 4.53-31.85 13.58-16.74 17.44-15.83 45.31 1.26 62.39l51.21 51.21c6.17 6.17 16.19 6.17 22.36 0l22.93-22.93M107.084 489.229h39.828M235.815 489.229h39.828M364.546 489.229h39.828" style="stroke-width:15;stroke-linecap:round;stroke-linejoin:round;stroke-miterlimit:10;" fill="none" stroke="#000000" stroke-width="15" stroke-linecap="round" stroke-linejoin="round" stroke-miterlimit="10" data-original="#000000" class=""></path></g></svg>