<?xml version="1.0" encoding="UTF-8" standalone="no"?>
<svg
   version="1.1"
   width="376.65475"
   height="394.23999"
   x="0"
   y="0"
   viewBox="0 0 376.65475 394.23999"
   xml:space="preserve"
   class=""
   id="svg16"
   sodipodi:docname="Was-wird-erledigt.svg"
   xmlns:inkscape="http://www.inkscape.org/namespaces/inkscape"
   xmlns:sodipodi="http://sodipodi.sourceforge.net/DTD/sodipodi-0.dtd"
   xmlns="http://www.w3.org/2000/svg"
   xmlns:svg="http://www.w3.org/2000/svg"><defs
     id="defs16" /><sodipodi:namedview
     id="namedview16"
     pagecolor="#ffffff"
     bordercolor="#000000"
     borderopacity="0.25"
     inkscape:showpageshadow="2"
     inkscape:pageopacity="0.0"
     inkscape:pagecheckerboard="0"
     inkscape:deskcolor="#d1d1d1" /><g
     transform="matrix(0.77,0,0,0.77,-8.7926338,-1.0681152e-6)"
     id="g16"><path
       d="M 184.136,91.152 V 49.914 h -73.652 c -5.523,0 -10,4.477 -10,10 v 31.238 z"
       fill="#edeff0"
       data-original="#8ac9fe"
       class=""
       opacity="1"
       id="path1" /><path
       d="m 150.652,49.914 h 33.484 v 41.238 h -33.484 z"
       fill="#63d9b6"
       data-original="#60b7ff"
       class=""
       opacity="1"
       id="path2" /><path
       d="m 327.864,420.848 v 43.413 h 72.565 c 5.523,0 10,-4.477 10,-10 v -33.413 z"
       fill="#edeff0"
       data-original="#8ac9fe"
       class=""
       opacity="1"
       id="path3" /><path
       d="m 376.565,420.848 v 33.413 c 0,5.523 -4.477,10 -10,10 h 33.864 c 5.523,0 10,-4.477 10,-10 v -33.413 z"
       fill="#63d9b6"
       data-original="#60b7ff"
       class=""
       opacity="1"
       id="path4" /><path
       d="M 184.136,91.152 V 49.914 h -73.652 c -5.523,0 -10,4.477 -10,10 v 31.238 z m 143.728,329.696 v 43.413 h 72.565 c 5.523,0 10,-4.477 10,-10 v -33.413 z"
       style="stroke-width:15;stroke-linecap:round;stroke-linejoin:round;stroke-miterlimit:10"
       fill="none"
       stroke="#23303d"
       stroke-width="15"
       stroke-linecap="round"
       stroke-linejoin="round"
       stroke-miterlimit="10"
       data-original="#000000"
       class=""
       opacity="1"
       id="path5" /><path
       d="M 483.081,7.5 H 193.136 c -5.523,0 -10,4.477 -10,10 v 73.652 h 135.729 c 4.963,0 9,4.038 9,9 v 321.696 h 155.217 c 5.523,0 10,-4.477 10,-10 V 17.5 c -10e-4,-5.523 -4.478,-10 -10.001,-10 z"
       fill="#edeff0"
       data-original="#f2fbff"
       class=""
       opacity="1"
       id="path6" /><path
       d="M 483.081,7.5 H 441 c 5.523,0 10,4.477 10,10 v 394.348 c 0,5.523 -4.477,10 -10,10 h 42.081 c 5.523,0 10,-4.477 10,-10 V 17.5 c 0,-5.523 -4.477,-10 -10,-10 z"
       fill="#2470a9"
       data-original="#dff6fd"
       class=""
       opacity="1"
       id="path7" /><path
       d="m 327.864,421.848 h 155.217 c 5.523,0 10,-4.477 10,-10 V 17.5 c 0,-5.523 -4.477,-10 -10,-10 H 193.136 c -5.523,0 -10,4.477 -10,10 v 73.652"
       style="stroke-width:15;stroke-linecap:round;stroke-linejoin:round;stroke-miterlimit:10"
       fill="none"
       stroke="#23303d"
       stroke-width="15"
       stroke-linecap="round"
       stroke-linejoin="round"
       stroke-miterlimit="10"
       data-original="#000000"
       class=""
       opacity="1"
       id="path8" /><path
       d="M 318.864,504.5 H 28.919 c -5.523,0 -10,-4.477 -10,-10 V 100.152 c 0,-5.523 4.477,-10 10,-10 h 289.945 c 5.523,0 10,4.477 10,10 V 494.5 c 0,5.523 -4.477,10 -10,10 z"
       fill="#edeff0"
       data-original="#fef0ae"
       class=""
       opacity="1"
       id="path9" /><path
       d="M 318.864,90.152 H 274 c 5.523,0 10,4.477 10,10 V 494.5 c 0,5.523 -4.477,10 -10,10 h 44.864 c 5.523,0 10,-4.477 10,-10 V 100.152 c 0,-5.523 -4.477,-10 -10,-10 z"
       fill="#e09932"
       data-original="#fee97d"
       class=""
       opacity="1"
       id="path10" /><path
       d="m 18.919,431 v 63.5 c 0,5.523 4.477,10 10,10 h 289.945 c 5.523,0 10,-4.477 10,-10 V 100.152 c 0,-5.523 -4.477,-10 -10,-10 H 260 m -35,0 H 28.919 c -5.523,0 -10,4.477 -10,10 V 396"
       style="stroke-width:15;stroke-linecap:round;stroke-linejoin:round;stroke-miterlimit:10"
       fill="none"
       stroke="#23303d"
       stroke-width="15"
       stroke-linecap="round"
       stroke-linejoin="round"
       stroke-miterlimit="10"
       data-original="#000000"
       class=""
       opacity="1"
       id="path11" /><path
       d="m 139.363,186.003 h 139.203 m -139.203,31.538 h 86.73 m 27.188,0 h 25.285 M 104.281,297.202 H 72.217 a 3,3 0 0 1 -3,-3 v -32.064 a 3,3 0 0 1 3,-3 h 32.063 a 3,3 0 0 1 3,3 v 32.064 a 2.998,2.998 0 0 1 -2.999,3 z m 35.082,-34.801 H 278.566 M 139.363,293.94 h 25.828 m 27.189,0 h 86.186 M 104.281,373.601 H 72.217 a 3,3 0 0 1 -3,-3 v -32.064 a 3,3 0 0 1 3,-3 h 32.063 a 3,3 0 0 1 3,3 v 32.064 a 2.998,2.998 0 0 1 -2.999,3 z M 139.363,338.8 H 278.566 M 139.363,370.339 H 278.566 M 104.281,450 H 72.217 a 3,3 0 0 1 -3,-3 v -32.064 a 3,3 0 0 1 3,-3 h 32.063 a 3,3 0 0 1 3,3 V 447 a 2.998,2.998 0 0 1 -2.999,3 z m 35.082,-34.801 h 139.203 m -139.203,31.538 h 51.929 m 87.274,0 H 218.48"
       style="stroke:#000000;stroke-width:15;stroke-linecap:round;stroke-linejoin:round;stroke-miterlimit:10"
       data-original="#000000"
       id="path12" /><path
       d="m 66.227,193.887 18.488,18.488 29.363,-39.151 m 252.181,18.068 h 41.995 m -41.995,34.801 h 87.002 m -87.002,34.801 h 87.002 m -87.002,34.801 h 87.002 m -87.002,34.801 H 383 m 25.013,0 h 45.248 m -87.002,34.801 h 87.002"
       style="stroke-width:15;stroke-linecap:round;stroke-linejoin:round;stroke-miterlimit:10"
       fill="none"
       stroke="#23303d"
       stroke-width="15"
       stroke-linecap="round"
       stroke-linejoin="round"
       stroke-miterlimit="10"
       data-original="#000000"
       class=""
       opacity="1"
       id="path13" /><circle
       cx="409.76001"
       cy="100.777"
       r="50.276001"
       fill="#edeff0"
       data-original="#ffd15b"
       class=""
       opacity="1"
       id="circle13" /><path
       d="m 361.253,114 c 5.807,21.35 25.318,37.054 48.507,37.054 27.767,0 50.276,-22.509 50.276,-50.276 0,-27.767 -22.509,-50.276 -50.276,-50.276 -19.965,0 -37.212,11.638 -45.327,28.499"
       style="stroke-width:15;stroke-linecap:round;stroke-linejoin:round;stroke-miterlimit:10"
       fill="none"
       stroke="#23303d"
       stroke-width="15"
       stroke-linecap="round"
       stroke-linejoin="round"
       stroke-miterlimit="10"
       data-original="#000000"
       class=""
       opacity="1"
       id="path14" /><path
       d="m 409.76,100.777 v 50.276 c 27.767,0 50.276,-22.51 50.276,-50.276 z"
       fill="#e38082"
       data-original="#fd6930"
       class=""
       opacity="1"
       id="path15" /><path
       d="m 409.76,100.777 v 50.276 c 27.767,0 50.276,-22.51 50.276,-50.276 z M 328.864,50.501 h -105.49 m 209.893,140.791 h 19.994 M 69.217,139 H 210 m 61,0 h 7.566 m -41.132,0 H 245"
       style="stroke-width:15;stroke-linecap:round;stroke-linejoin:round;stroke-miterlimit:10"
       fill="none"
       stroke="#23303d"
       stroke-width="15"
       stroke-linecap="round"
       stroke-linejoin="round"
       stroke-miterlimit="10"
       data-original="#000000"
       class=""
       opacity="1"
       id="path16" /></g></svg>
