<svg id="Layer_1" data-name="Layer 1" xmlns="http://www.w3.org/2000/svg" viewBox="0 0 251 251"><defs><style>.cls-1,.cls-3,.cls-4,.cls-5,.cls-6,.cls-7{fill:none;stroke-width:2px;}.cls-1{stroke:#97a2a6;}.cls-1,.cls-3,.cls-6,.cls-7{stroke-linecap:round;stroke-linejoin:round;}.cls-2{fill:#edeff0;}.cls-3{stroke:#ff7680;}.cls-4,.cls-7{stroke:#2470a9;}.cls-4,.cls-5{stroke-miterlimit:10;}.cls-5{stroke:#f7931e;}.cls-6{stroke:#63d9b6;}</style></defs><polygon class="cls-1" points="204.79 203.89 46.21 203.89 46.21 116.11 125.5 54.95 204.79 116.11 204.79 203.89"/><rect class="cls-1" x="35.77" y="203.89" width="179.45" height="8.3"/><line class="cls-1" x1="125.5" y1="54.95" x2="46.21" y2="116.11"/><polygon class="cls-2" points="29.57 121.45 33.23 126.03 125.5 54.95 217.76 126.03 221.43 121.45 125.5 47.45 29.57 121.45"/><polygon class="cls-3" points="125.5 38.81 25.29 116.11 33.23 126.03 125.5 54.95 217.76 126.03 225.71 116.11 125.5 38.81"/><polygon class="cls-3" points="176.22 54.95 204.79 54.95 204.79 99.97 176.22 77.94 176.22 54.95"/><rect class="cls-4" x="93.97" y="118.77" width="63.06" height="42.08" rx="2.98"/><rect class="cls-4" x="119.83" y="160.85" width="11.33" height="9.12"/><rect class="cls-5" x="77.89" y="169.98" width="95.23" height="5.83"/><line class="cls-5" x1="85.85" y1="175.81" x2="75.85" y2="203.89"/><line class="cls-5" x1="165.15" y1="175.81" x2="175.15" y2="203.89"/><path class="cls-6" d="M109.56,90.72a22.57,22.57,0,0,1,31.88,0"/><path class="cls-6" d="M113.1,94.25a17.55,17.55,0,0,1,24.8,0"/><path class="cls-6" d="M116.63,97.79a12.56,12.56,0,0,1,17.74,0"/><path class="cls-6" d="M120.17,101.32a7.54,7.54,0,0,1,10.66,0"/><circle class="cls-6" cx="125.5" cy="106.66" r="2.54"/><line class="cls-4" x1="93.97" y1="153.57" x2="157.03" y2="153.57"/><path class="cls-7" d="M160.67,156.61h12.45a0,0,0,0,1,0,0v6.22a6.22,6.22,0,0,1-6.22,6.22h0a6.22,6.22,0,0,1-6.22-6.22v-6.22a0,0,0,0,1,0,0Z"/><path class="cls-7" d="M173.11,156.61a3.74,3.74,0,0,1,0,7.48"/></svg>