<svg id="Layer_1" data-name="Layer 1" xmlns="http://www.w3.org/2000/svg" viewBox="0 0 251 251"><defs><style>.cls-1,.cls-5,.cls-6{fill:#fff;}.cls-2,.cls-4{fill:#edeff0;}.cls-3{fill:none;}.cls-3,.cls-4,.cls-5{stroke:#f7931e;stroke-linecap:round;stroke-linejoin:round;}.cls-3,.cls-4,.cls-5,.cls-6{stroke-width:2px;}.cls-6{stroke:#97a2a6;stroke-miterlimit:10;}</style></defs><rect class="cls-1" x="93.73" y="95.81" width="98.85" height="98.02"/><path class="cls-2" d="M192.59,193.83V108.68s-24.43,57.64-98.86,60v25.13Z"/><rect class="cls-3" x="93.73" y="95.81" width="98.85" height="98.02"/><rect class="cls-4" x="87.9" y="193.83" width="110.52" height="15.63" rx="7.81"/><rect class="cls-5" x="105.41" y="106.93" width="16.44" height="75.78" rx="8.22"/><rect class="cls-5" x="134.94" y="106.93" width="16.44" height="75.78" rx="8.22"/><rect class="cls-5" x="164.48" y="106.93" width="16.44" height="75.78" rx="8.22"/><path class="cls-5" d="M206.94,114.45H192.59v11.84h7.89a12.17,12.17,0,0,1,12.17,12.18v16.34A12.17,12.17,0,0,1,200.48,167h-7.89v11.84h14.35a17.5,17.5,0,0,0,17.51-17.5V132A17.51,17.51,0,0,0,206.94,114.45Z"/><path class="cls-6" d="M191.48,70.38a20.78,20.78,0,0,0-34.89-2.45,17.72,17.72,0,0,0-9.11-2.52,17.91,17.91,0,0,0-4.42.57,22.82,22.82,0,0,0-37.39-1.43,18.37,18.37,0,0,0-4.41-.55A18.56,18.56,0,0,0,87.9,95.46v23.47a6.2,6.2,0,1,0,12.39,0V101.11c.32,0,.64,0,1,0a18.49,18.49,0,0,0,10.66-3.38,22.79,22.79,0,0,0,24.56-.43,17.81,17.81,0,0,0,23.32-1.13,20.68,20.68,0,0,0,19.89,3.9,16,16,0,0,0,11.79-29.74Z"/><circle class="cls-6" cx="149.92" cy="44.18" r="7.91"/><path class="cls-5" d="M48.08,160v12H60V160a9.57,9.57,0,0,1,9.57-9.57A16.43,16.43,0,0,1,86,166.89V178H98V166.89a28.39,28.39,0,0,0-28.39-28.38A21.53,21.53,0,0,0,48.08,160Zm0,0"/><path class="cls-5" d="M48.08,160a21.53,21.53,0,0,0-21.53,21.52A28.39,28.39,0,0,0,54.94,210H66V198H54.94a16.43,16.43,0,0,1-16.43-16.43A9.57,9.57,0,0,1,48.08,172H60v6H72v-6a12,12,0,0,0-12-12Zm0,0"/><path class="cls-5" d="M86,191a7,7,0,0,1-7,7H66v12H79a19,19,0,0,0,19-19V178H86Zm0,0"/><path class="cls-5" d="M60,178v30.77a6,6,0,0,0,12,0V178Zm0,0"/><path class="cls-5" d="M48.08,172a12,12,0,0,0,12,12H96.8a6,6,0,1,0,0-12Zm0,0"/></svg>