<svg xmlns="http://www.w3.org/2000/svg" version="1.1" xmlns:xlink="http://www.w3.org/1999/xlink" width="512" height="512" x="0" y="0" viewBox="0 0 682.667 682.667" style="enable-background:new 0 0 512 512" xml:space="preserve" class=""><g><defs><clipPath id="a" clipPathUnits="userSpaceOnUse"><path d="M0 512h512V0H0Z" fill="#63d9b6" opacity="1" data-original="#000000"></path></clipPath></defs><g clip-path="url(#a)" transform="matrix(1.33333 0 0 -1.33333 0 682.667)"><path d="M0 0c0 135.31-109.69 245-245 245S-490 135.31-490 0s109.69-245 245-245S0-135.31 0 0" style="fill-opacity:1;fill-rule:nonzero;stroke:none" transform="translate(501.997 257.269)" fill="#1a94ba" data-original="#1a94ba"></path><path d="M0 0c42.96 37.21 99 59.72 160.3 59.72 135.309 0 245-109.69 245-245s-109.691-245-245-245c-135.31 0-245 109.69-245 245 0 63.22 23.95 120.86 63.269 164.31" style="stroke-width:15;stroke-linecap:round;stroke-linejoin:round;stroke-miterlimit:10;stroke-dasharray:none;stroke-opacity:1" transform="translate(96.7 442.55)" fill="none" stroke="#63d9b6" stroke-width="15" stroke-linecap="round" stroke-linejoin="round" stroke-miterlimit="10" stroke-dasharray="none" stroke-opacity="" data-original="#000000" opacity="1" class=""></path><path d="M0 0c-61.169 0-118.675 23.82-161.928 67.072C-205.18 110.325-229 167.832-229 229c0 61.168 23.82 118.675 67.072 161.927C-118.675 434.18-61.169 458 0 458c61.168 0 118.675-23.82 161.927-67.073C205.18 347.675 229 290.168 229 229c0-61.168-23.82-118.675-67.073-161.928C118.675 23.82 61.168 0 0 0" style="fill-opacity:1;fill-rule:nonzero;stroke:none" transform="translate(256.997 28.269)" fill="#2470a9" data-original="#6dccf2" class="" opacity="1"></path><path d="M0 0c0-18.614-15.436-34.958-34.957-34.958-19.522 0-34.504 16.344-34.504 34.958 0 19.067 15.436 34.957 34.504 34.957C-15.891 34.957 0 19.067 0 0m16.797 141.644c-24.97-19.522-25.423-33.142-25.423-56.749 0-8.626-4.54-18.614-26.786-18.614-18.613 0-24.969 6.811-24.969 30.418 0 39.043 17.251 57.656 30.417 69.006 14.982 12.712 40.404 26.785 40.404 51.3 0 20.884-18.158 30.871-40.858 30.871-46.307 0-36.318-34.957-60.833-34.957-12.259 0-27.24 8.172-27.24 25.878 0 24.515 28.146 60.833 89.435 60.833 58.111 0 96.7-32.232 96.7-74.907s-38.589-73.546-50.847-83.079" style="fill-opacity:1;fill-rule:nonzero;stroke:none" transform="translate(282.42 124.933)" fill="#e6e6e6" data-original="#e6e6e6" class=""></path><path d="M0 0c12.98 14.87 25.39 35.28 25.39 59.49 0 42.67-38.579 74.9-96.69 74.9-61.29 0-89.44-36.32-89.44-60.83 0-17.71 14.98-25.88 27.24-25.88 24.51 0 14.53 34.96 60.83 34.96 22.7 0 40.86-9.99 40.86-30.87 0-24.52-25.419-38.59-40.4-51.3-13.17-11.35-30.42-29.97-30.42-69.01 0-23.61 6.36-30.42 24.97-30.42 22.24 0 26.78 9.99 26.78 18.62 0 23.61.46 37.22 25.43 56.75 1.05.82 2.3 1.79 3.7 2.92m-20.499-144.567c0-18.614-15.436-34.958-34.957-34.958-19.523 0-34.504 16.344-34.504 34.958 0 19.067 15.436 34.956 34.504 34.956 19.066 0 34.957-15.889 34.957-34.956z" style="stroke-width:15;stroke-linecap:round;stroke-linejoin:round;stroke-miterlimit:10;stroke-dasharray:none;stroke-opacity:1" transform="translate(324.67 290.17)" fill="none" stroke="#63d9b6" stroke-width="15" stroke-linecap="round" stroke-linejoin="round" stroke-miterlimit="10" stroke-dasharray="none" stroke-opacity="" data-original="#000000" opacity="1" class=""></path></g></g></svg>