<svg xmlns="http://www.w3.org/2000/svg" version="1.1" xmlns:xlink="http://www.w3.org/1999/xlink" width="512" height="512" x="0" y="0" viewBox="0 0 682.667 682.667" style="enable-background:new 0 0 512 512" xml:space="preserve" class=""><g><defs><clipPath id="a" clipPathUnits="userSpaceOnUse"><path d="M0 512h512V0H0Z" fill="#000000" opacity="1" data-original="#000000" class=""></path></clipPath></defs><g clip-path="url(#a)" transform="matrix(1.33333 0 0 -1.33333 0 682.667)"><path d="M0 0c15.884 0 28.881-12.996 28.881-28.88v-59.54c0-15.885-12.997-28.881-28.881-28.881s-28.88 12.996-28.88 28.881v59.54C-28.88-12.996-15.884 0 0 0" style="fill-opacity:1;fill-rule:nonzero;stroke:none" transform="translate(264.669 471.652)" fill="#e1ac9a" data-original="#e1ac9a" class=""></path><path d="m0 0-155.734-155.734c28.089-28.09 65.376-41.797 102.278-40.86 10.126.258 19.929-3.568 27.092-10.73l33.761-33.762 116.821 116.82z" style="fill-opacity:1;fill-rule:nonzero;stroke:none" transform="translate(340.505 322.769)" fill="#e7beaf" data-original="#e7beaf" class=""></path><path d="M0 0c-33.536 1.568-66.671 15.218-92.206 40.752l-38.94-38.94c28.071-28.071 65.328-41.779 102.207-40.861 10.151.253 19.982-3.548 27.163-10.729L31.985-83.54 70.926-44.6 47.71-21.384C34.97-8.644 17.999-.841 0 0" style="fill-opacity:1;fill-rule:nonzero;stroke:none" transform="translate(315.917 165.223)" fill="#e1ac9a" data-original="#e1ac9a" class=""></path><path d="m0 0 32.45-32.45c5.376-5.376 14.093-5.376 19.47 0l136.29 136.29c5.376 5.377 5.376 14.094 0 19.471l-32.45 32.449c-5.377 5.377-14.094 5.377-19.47 0L0 19.47C-5.377 14.094-5.377 5.377 0 0" style="fill-opacity:1;fill-rule:nonzero;stroke:none" transform="translate(312.258 78.488)" fill="#63d9b6" data-original="#a4e7ff" class="" opacity="1"></path><path d="m0 0 32.45-32.45c5.376-5.377 14.094-5.377 19.47 0L3.245-81.125c-5.377-5.376-14.094-5.376-19.47 0l-32.45 32.45c-5.377 5.377-5.377 14.093 0 19.47L0 19.47C-5.377 14.093-5.377 5.376 0 0" style="fill-opacity:1;fill-rule:nonzero;stroke:none" transform="translate(360.933 127.163)" fill="#63d9b6" data-original="#5ad6ff" class="" opacity="1"></path><path d="M0 0c10.753-10.753 10.753-28.187 0-38.94l77.475 77.475c10.608 10.609 27.895 11.258 38.79.944C127.57 28.778 127.754 10.935 116.82 0l19.065 19.065c10.609 10.609 27.895 11.259 38.79.944 11.305-10.701 11.49-28.544.555-39.479l-25.96-25.96c10.935 10.935 28.778 10.75 39.48-.555 10.314-10.896 9.664-28.182-.945-38.79l-25.96-25.96c10.61 10.609 27.895 11.259 38.791.944 11.304-10.701 11.489-28.544.554-39.479L100.229-250.231C72.158-278.303 34.9-292.011-1.978-291.093c-10.151.253-19.983-3.548-27.163-10.729l-33.762-33.761-116.82 116.82 33.341 33.341c7.244 7.244 11.031 17.182 10.721 27.422-1.108 36.616 12.31 73.589 40.258 101.537L-38.94 0C-28.187 10.753-10.753 10.753 0 0" style="fill-opacity:1;fill-rule:nonzero;stroke:none" transform="translate(227 415.609)" fill="#ffeee5" data-original="#ffeee5" class=""></path><path d="M0 0c-11.232-11.232-29.611-11.232-40.843 0l-30.428 30.428c-11.232 11.232-11.232 29.611 0 40.843 11.231 11.232 29.611 11.232 40.843 0L0 40.843C11.232 29.611 11.232 11.231 0 0" style="fill-opacity:1;fill-rule:nonzero;stroke:none" transform="translate(134.811 258.293)" fill="#e7beaf" data-original="#e7beaf" class=""></path><path d="M0 0c-11.232-11.232-29.611-11.232-40.843 0l-51.703 51.703c-11.232 11.232-11.232 29.611 0 40.843 11.232 11.232 29.611 11.232 40.843 0L0 40.843C11.232 29.611 11.232 11.232 0 0" style="fill-opacity:1;fill-rule:nonzero;stroke:none" transform="translate(194.973 279.817)" fill="#e7beaf" data-original="#e7beaf" class=""></path><path d="M0 0c-11.232-11.232-29.611-11.232-40.843 0l-68.397 68.396c-11.232 11.232-11.232 29.612 0 40.844 11.232 11.232 29.612 11.232 40.844 0L0 40.843C11.231 29.611 11.231 11.232 0 0" style="fill-opacity:1;fill-rule:nonzero;stroke:none" transform="translate(252.51 303.967)" fill="#e7beaf" data-original="#e7beaf" class=""></path><path d="M0 0c-11.232-11.232-29.612-11.232-40.843 0l-42.101 42.101c-11.232 11.232-11.232 29.611 0 40.843 11.232 11.232 29.611 11.232 40.842 0L0 40.843C11.231 29.611 11.231 11.232 0 0" style="fill-opacity:1;fill-rule:nonzero;stroke:none" transform="translate(267.058 371.106)" fill="#e7beaf" data-original="#e7beaf" class=""></path><path d="m0 0-100.557-100.556c-25.534-25.535-58.669-39.185-92.206-40.752-17.999-.841-34.969-8.644-47.71-21.384l-23.215-23.216 38.94-38.94 33.762 33.762c7.18 7.18 17.011 10.981 27.163 10.729 36.878-.918 74.135 12.79 102.207 40.861L39.345-38.535C50.279-27.6 50.095-9.757 38.79.944 27.895 11.259 10.608 10.609 0 0" style="fill-opacity:1;fill-rule:nonzero;stroke:none" transform="translate(388.846 304.873)" fill="#ffdecf" data-original="#ffdecf" class=""></path><path d="m0 0-32.45-32.45c-5.377-5.377-14.094-5.377-19.47 0l-136.29 136.29c-5.377 5.376-5.377 14.094 0 19.47l32.45 32.45c5.376 5.377 14.093 5.377 19.47 0L0 19.47C5.376 14.093 5.376 5.376 0 0" style="fill-opacity:1;fill-rule:nonzero;stroke:none" transform="translate(199.743 76.83)" fill="#2470a9" data-original="#ff938a" class="" opacity="1"></path><path d="m0 0-32.45-32.45c-5.377-5.376-14.093-5.376-19.47 0l48.675-48.675c5.376-5.376 14.094-5.376 19.47 0l32.45 32.45c5.377 5.377 5.377 14.093 0 19.47L0 19.47C5.376 14.094 5.376 5.377 0 0" style="fill-opacity:1;fill-rule:nonzero;stroke:none" transform="translate(151.067 125.505)" fill="#2470a9" data-original="#fb695b" class="" opacity="1"></path><path d="M0 0c.623 15.344 13.367 27.703 28.857 27.703 15.451 0 28.17-12.298 28.851-27.589" style="stroke-width:15;stroke-linecap:round;stroke-linejoin:round;stroke-miterlimit:10;stroke-dasharray:none;stroke-opacity:1" transform="translate(235.812 443.949)" fill="none" stroke="#000000" stroke-width="15" stroke-linecap="round" stroke-linejoin="round" stroke-miterlimit="10" stroke-dasharray="none" stroke-opacity="" data-original="#000000" class=""></path><path d="m0 0-24.761 24.771" style="stroke-width:15;stroke-linecap:round;stroke-linejoin:round;stroke-miterlimit:10;stroke-dasharray:none;stroke-opacity:1" transform="translate(438.17 225.065)" fill="none" stroke="#000000" stroke-width="15" stroke-linecap="round" stroke-linejoin="round" stroke-miterlimit="10" stroke-dasharray="none" stroke-opacity="" data-original="#000000" class=""></path><path d="M0 0a139.962 139.962 0 0 1 25.459-1.682c10.126.257 19.929-3.568 27.092-10.731l7.503-7.503" style="stroke-width:15;stroke-linecap:round;stroke-linejoin:round;stroke-miterlimit:10;stroke-dasharray:none;stroke-opacity:1" transform="translate(261.59 127.857)" fill="none" stroke="#000000" stroke-width="15" stroke-linecap="round" stroke-linejoin="round" stroke-miterlimit="10" stroke-dasharray="none" stroke-opacity="" data-original="#000000" class=""></path><path d="m0 0-79.826-79.827c-5.377-5.376-5.377-14.093 0-19.47l32.45-32.45c5.376-5.376 14.093-5.376 19.47 0l136.29 136.29c5.376 5.377 5.376 14.094 0 19.471l-32.45 32.449c-5.377 5.377-14.094 5.377-19.47 0l-35.251-35.25" style="stroke-width:15;stroke-linecap:round;stroke-linejoin:round;stroke-miterlimit:10;stroke-dasharray:none;stroke-opacity:1" transform="translate(392.084 177.785)" fill="none" stroke="#000000" stroke-width="15" stroke-linecap="round" stroke-linejoin="round" stroke-miterlimit="10" stroke-dasharray="none" stroke-opacity="" data-original="#000000" class=""></path><path d="m0 0 6.849 6.849c7.244 7.244 11.031 17.182 10.721 27.422-.02.663-.035 1.325-.046 1.988" style="stroke-width:15;stroke-linecap:round;stroke-linejoin:round;stroke-miterlimit:10;stroke-dasharray:none;stroke-opacity:1" transform="translate(73.769 223.337)" fill="none" stroke="#000000" stroke-width="15" stroke-linecap="round" stroke-linejoin="round" stroke-miterlimit="10" stroke-dasharray="none" stroke-opacity="" data-original="#000000" class=""></path><path d="m0 0 38.82 38.82c10.609 10.609 27.895 11.259 38.79.945C88.915 29.064 89.1 11.22 78.165.286L97.23 19.351c10.609 10.608 27.895 11.258 38.791.944 11.304-10.701 11.489-28.545.554-39.48l-25.96-25.96c10.935 10.936 28.779 10.75 39.48-.554 10.314-10.896 9.664-28.182-.945-38.791l-25.96-25.96c10.61 10.61 27.895 11.26 38.791.945 11.304-10.702 11.489-28.545.554-39.479L61.574-249.946c-28.071-28.071-65.329-41.779-102.207-40.861-10.151.252-19.983-3.548-27.163-10.729l-6.568-6.568" style="stroke-width:15;stroke-linecap:round;stroke-linejoin:round;stroke-miterlimit:10;stroke-dasharray:none;stroke-opacity:1" transform="translate(265.655 415.323)" fill="none" stroke="#000000" stroke-width="15" stroke-linecap="round" stroke-linejoin="round" stroke-miterlimit="10" stroke-dasharray="none" stroke-opacity="" data-original="#000000" class=""></path><path d="m0 0-42.101 42.101c-11.232 11.232-29.611 11.232-40.843 0-11.232-11.232-11.232-29.611 0-40.843-11.232 11.232-29.612 11.232-40.844 0-11.232-11.232-11.232-29.612 0-40.843-11.232 11.231-29.611 11.231-40.843 0-11.232-11.232-11.232-29.612 0-40.844l1.957-1.956c-11.232 11.232-29.612 11.232-40.844 0-11.232-11.232-11.232-29.612 0-40.843l30.429-30.428c11.232-11.232 29.611-11.232 40.843 0 11.232 11.231 11.232 29.611 0 40.843l19.318-19.318c11.232-11.232 29.612-11.232 40.843 0 11.232 11.232 11.232 29.611 0 40.843l16.694-16.694c11.232-11.232 29.611-11.232 40.843 0 11.232 11.232 11.232 29.611 0 40.843l-26.295 26.296c11.232-11.232 29.611-11.232 40.843 0C11.231-29.611 11.231-11.232 0 0Z" style="stroke-width:15;stroke-linecap:round;stroke-linejoin:round;stroke-miterlimit:10;stroke-dasharray:none;stroke-opacity:1" transform="translate(267.058 411.949)" fill="none" stroke="#000000" stroke-width="15" stroke-linecap="round" stroke-linejoin="round" stroke-miterlimit="10" stroke-dasharray="none" stroke-opacity="" data-original="#000000" class=""></path><path d="m0 0-32.45-32.45c-5.377-5.377-14.094-5.377-19.47 0l-136.29 136.29c-5.377 5.376-5.377 14.094 0 19.47l32.45 32.45c5.376 5.377 14.093 5.377 19.47 0L0 19.47C5.376 14.093 5.376 5.376 0 0Z" style="stroke-width:15;stroke-linecap:round;stroke-linejoin:round;stroke-miterlimit:10;stroke-dasharray:none;stroke-opacity:1" transform="translate(199.743 76.83)" fill="none" stroke="#000000" stroke-width="15" stroke-linecap="round" stroke-linejoin="round" stroke-miterlimit="10" stroke-dasharray="none" stroke-opacity="" data-original="#000000" class=""></path><path d="m0 0 42.101-42.101" style="stroke-width:15;stroke-linecap:round;stroke-linejoin:round;stroke-miterlimit:10;stroke-dasharray:none;stroke-opacity:1" transform="translate(184.113 413.207)" fill="none" stroke="#000000" stroke-width="15" stroke-linecap="round" stroke-linejoin="round" stroke-miterlimit="10" stroke-dasharray="none" stroke-opacity="" data-original="#000000" class=""></path><path d="m0 0 23.925-23.925" style="stroke-width:15;stroke-linecap:round;stroke-linejoin:round;stroke-miterlimit:10;stroke-dasharray:none;stroke-opacity:1" transform="translate(171.047 344.586)" fill="none" stroke="#000000" stroke-width="15" stroke-linecap="round" stroke-linejoin="round" stroke-miterlimit="10" stroke-dasharray="none" stroke-opacity="" data-original="#000000" class=""></path><path d="m0 0 6.564-6.564" style="stroke-width:15;stroke-linecap:round;stroke-linejoin:round;stroke-miterlimit:10;stroke-dasharray:none;stroke-opacity:1" transform="translate(143.27 372.363)" fill="none" stroke="#000000" stroke-width="15" stroke-linecap="round" stroke-linejoin="round" stroke-miterlimit="10" stroke-dasharray="none" stroke-opacity="" data-original="#000000" class=""></path><path d="m0 0 30.428-30.428" style="stroke-width:15;stroke-linecap:round;stroke-linejoin:round;stroke-miterlimit:10;stroke-dasharray:none;stroke-opacity:1" transform="translate(104.383 329.563)" fill="none" stroke="#000000" stroke-width="15" stroke-linecap="round" stroke-linejoin="round" stroke-miterlimit="10" stroke-dasharray="none" stroke-opacity="" data-original="#000000" class=""></path><path d="m0 0-32.854-32.855" style="stroke-width:15;stroke-linecap:round;stroke-linejoin:round;stroke-miterlimit:10;stroke-dasharray:none;stroke-opacity:1" transform="translate(343.82 415.609)" fill="none" stroke="#000000" stroke-width="15" stroke-linecap="round" stroke-linejoin="round" stroke-miterlimit="10" stroke-dasharray="none" stroke-opacity="" data-original="#000000" class=""></path><path d="m0 0-26.365-26.365" style="stroke-width:15;stroke-linecap:round;stroke-linejoin:round;stroke-miterlimit:10;stroke-dasharray:none;stroke-opacity:1" transform="translate(376.27 370.179)" fill="none" stroke="#000000" stroke-width="15" stroke-linecap="round" stroke-linejoin="round" stroke-miterlimit="10" stroke-dasharray="none" stroke-opacity="" data-original="#000000" class=""></path></g></g></svg>