<svg xmlns="http://www.w3.org/2000/svg" version="1.1" xmlns:xlink="http://www.w3.org/1999/xlink" width="512" height="512" x="0" y="0" viewBox="0 0 682.667 682.667" style="enable-background:new 0 0 512 512" xml:space="preserve" class=""><g><defs><clipPath id="a" clipPathUnits="userSpaceOnUse"><path d="M0 512h512V0H0Z" fill="#000000" opacity="1" data-original="#000000" class=""></path></clipPath></defs><g clip-path="url(#a)" transform="matrix(1.33333 0 0 -1.33333 0 682.667)"><path d="m0 0 19.599 13.855-5.329 44.468-20.598 11.261-22.631-14.498 4.956-41.345C-23.23 13.798 0 0 0 0" style="fill-opacity:1;fill-rule:evenodd;stroke:none" transform="translate(322.5 46.25)" fill="#2470a9" data-original="#9d9696" class="" opacity="1"></path><path d="m0 0 4.813 40.084-20.77 16.16-22.116-10.057L-43.602.115l26.356-8.997z" style="fill-opacity:1;fill-rule:evenodd;stroke:none" transform="translate(211.006 59.99)" fill="#2470a9" data-original="#9d9696" class="" opacity="1"></path><path d="M0 0c10.829 6.447 17.733 18.624 16.816 32.062a34.964 34.964 0 0 1-3.065 12.148l-31.398 19.914-31.398-19.914a34.55 34.55 0 0 1-3.094-16.819c.544-8.28 3.982-15.672 9.253-21.288 6.847-7.307 16.788-11.604 27.559-10.859A34.272 34.272 0 0 1 0 0" style="fill-opacity:1;fill-rule:evenodd;stroke:none" transform="translate(215.82 100.075)" fill="#63d9b6" data-original="#fdb440" class="" opacity="1"></path><path d="M0 0a34.344 34.344 0 0 1 21.314 9.254c7.305 6.849 11.574 16.791 10.857 27.564a34.372 34.372 0 0 1-3.093 12.148L-2.435 68.278l-31.283-19.312a34.56 34.56 0 0 1-3.095-16.819 34.457 34.457 0 0 1 14.897-26.13A34.089 34.089 0 0 1 0 0" style="fill-opacity:1;fill-rule:evenodd;stroke:none" transform="translate(315.456 95.319)" fill="#63d9b6" data-original="#fdb440" class="" opacity="1"></path><path d="M0 0c10.829 6.447 17.733 18.624 16.816 32.062a34.964 34.964 0 0 1-3.065 12.148h-62.796a34.23 34.23 0 0 1-3.065-11.575h35.523c9.11 0 13.293-1.405 14.037-12.149A34.749 34.749 0 0 0-5.415 4.212a34.297 34.297 0 0 0-5.213-8.338C-6.818-3.353-3.237-1.92 0 0" style="fill-opacity:1;fill-rule:evenodd;stroke:none" transform="translate(215.82 100.075)" fill="#63d9b6" data-original="#fe9737" class="" opacity="1"></path><path d="M0 0c10.857 6.447 17.761 18.624 16.845 32.062a34.384 34.384 0 0 1-3.094 12.148h-62.796a33.563 33.563 0 0 1-3.037-11.575h35.495c9.138 0 13.321-1.405 14.037-12.149A34.051 34.051 0 0 0-5.415 4.212C-6.732 1.175-8.508-1.633-10.6-4.126A33.742 33.742 0 0 1 0 0" style="fill-opacity:1;fill-rule:evenodd;stroke:none" transform="translate(330.783 100.075)" fill="#63d9b6" data-original="#fe9737" class="" opacity="1"></path><path d="m0 0 104.221-25.579L207.639 0c0 72.031-51.91 108.019-103.819 108.019C51.91 108.019 0 72.031 0 0" style="fill-opacity:1;fill-rule:evenodd;stroke:none" transform="translate(152.192 319.58)" fill="#edeff0" data-original="#eee1dc" class="" opacity="1"></path><path d="M0 0c9.511 0 17.217 7.707 17.217 17.191 0 9.513-7.706 17.22-17.217 17.22-9.482 0-17.188-7.707-17.188-17.22C-17.188 7.707-9.482 0 0 0" style="fill-opacity:1;fill-rule:evenodd;stroke:none" transform="translate(221.061 347.343)" fill="#e09932" data-original="#8ac9fe" class="" opacity="1"></path><path d="M0 0c9.511 0 17.217 7.707 17.217 17.191 0 9.513-7.706 17.22-17.217 17.22s-17.217-7.707-17.217-17.22C-17.217 7.707-9.511 0 0 0" style="fill-opacity:1;fill-rule:evenodd;stroke:none" transform="translate(291.02 347.343)" fill="#e09932" data-original="#60b7ff" class="" opacity="1"></path><path d="m0 0-52.569 52.577 2.149 23.236 23.405 2.321 47.813-47.82-5.672-20.2z" style="fill-opacity:1;fill-rule:evenodd;stroke:none" transform="translate(106.414 260.413)" fill="#2470a9" data-original="#9d9696" class="" opacity="1"></path><path d="M0 0c-17.905 1.204-31.713 15.874-32.229 33.437a33.47 33.47 0 0 0 .086 3.381c.86 12.693 8.451 23.323 19.051 28.624a34.4 34.4 0 0 0 17.761 3.553A34.374 34.374 0 0 0 16.816 65.9l21.686-32.463L16.816 3.095A34.528 34.528 0 0 0 0 0" style="fill-opacity:1;fill-rule:evenodd;stroke:none" transform="translate(135.376 230.213)" fill="#63d9b6" data-original="#fdb440" class="" opacity="1"></path><path d="M0 0h114.963c8.423 0 15.298 6.876 15.298 15.272v160.022H-77.378V14.556C-77.378 6.562-70.817 0-62.796 0Z" style="fill-opacity:1;fill-rule:evenodd;stroke:none" transform="translate(229.57 144.285)" fill="#edeff0" data-original="#cdbeb9" class="" opacity="1"></path><path d="M0 0c-16.959 0-30.71 13.753-30.71 30.715 0 10.143 4.927 19.139 12.49 24.727A30.65 30.65 0 0 0 0 61.43a30.65 30.65 0 0 0 18.22-5.988c7.563-5.588 12.49-14.584 12.49-24.727 0-1.633-.114-3.237-.372-4.785C28.275 12.808 17.905 2.407 4.784.373A29.13 29.13 0 0 0 0 0" style="fill-opacity:1;fill-rule:evenodd;stroke:none" transform="translate(49.06 312.617)" fill="#63d9b6" data-original="#fdb440" class="" opacity="1"></path><path d="M0 0c5.472 0 9.97 4.499 9.97 10v17.936c0 12.779-9.826 23.351-22.288 24.555-.774.057-1.576.114-2.349.114H-66.778c-13.55 0-24.637-11.117-24.637-24.669V10c0-5.501 4.498-10 9.97-10z" style="fill-opacity:1;fill-rule:evenodd;stroke:none" transform="translate(223.325 7.5)" fill="#63d9b6" data-original="#fdb440" class="" opacity="1"></path><path d="M0 0h81.445c5.472 0 9.97 4.499 9.97 10v17.936c0 13.552-11.087 24.669-24.637 24.669H14.667c-.802 0-1.575-.057-2.349-.114C-.144 51.287-9.97 40.715-9.97 27.936V10C-9.97 4.499-5.5 0 0 0" style="fill-opacity:1;fill-rule:evenodd;stroke:none" transform="translate(286.178 7.5)" fill="#63d9b6" data-original="#fdb440" class="" opacity="1"></path><path d="m0 0 52.569 52.577-2.177 23.236-23.406 2.321-47.784-47.82 5.644-20.2z" style="fill-opacity:1;fill-rule:evenodd;stroke:none" transform="translate(405.61 260.413)" fill="#2470a9" data-original="#9d9696" class="" opacity="1"></path><path d="M0 0c17.933 1.204 31.713 15.874 32.229 33.437.028 1.118 0 2.264-.058 3.381-.859 12.693-8.451 23.323-19.079 28.624-5.3 2.664-11.373 3.982-17.762 3.553A34.224 34.224 0 0 1-16.788 65.9l-21.715-32.463 21.715-30.342A34.355 34.355 0 0 1 0 0" style="fill-opacity:1;fill-rule:evenodd;stroke:none" transform="translate(376.62 230.213)" fill="#63d9b6" data-original="#fdb440" class="" opacity="1"></path><path d="M0 0c16.959 0 30.682 13.753 30.682 30.715 0 10.143-4.899 19.139-12.491 24.727C13.092 59.195 6.79 61.43 0 61.43a30.65 30.65 0 0 1-18.22-5.988c-7.592-5.588-12.49-14.584-12.49-24.727 0-1.633.114-3.237.343-4.785C-28.304 12.808-17.934 2.407-4.784.373A29.13 29.13 0 0 1 0 0" style="fill-opacity:1;fill-rule:evenodd;stroke:none" transform="translate(462.963 312.617)" fill="#63d9b6" data-original="#fdb440" class="" opacity="1"></path><path d="M0 0c17.933 1.204 31.713 15.874 32.229 33.437.028 1.118 0 2.264-.058 3.381-.859 12.693-8.451 23.323-19.079 28.624-5.3 2.664-11.373 3.982-17.762 3.553a35.186 35.186 0 0 1-10.485-2.379 36.249 36.249 0 0 0 7.162-2.636 35.19 35.19 0 0 0 11.001-8.652 34.475 34.475 0 0 0 8.05-19.971c.086-1.118.114-2.264.057-3.381 0-.287 0-.573-.029-.86C10.37 17.535 1.69 5.816-10.6.917A34.284 34.284 0 0 1 0 0" style="fill-opacity:1;fill-rule:evenodd;stroke:none" transform="translate(376.62 230.213)" fill="#63d9b6" data-original="#fe9737" class="" opacity="1"></path><path d="M0 0c.258 1.547.372 3.152.372 4.785 0 10.143-4.927 19.139-12.49 24.727a30.65 30.65 0 0 1-18.22 5.988c-3.581 0-7.019-.63-10.227-1.748 9.167-3.237 16.329-10.687 19.165-20.028a30.829 30.829 0 0 0 1.318-8.939c0-2.349-.258-4.642-.745-6.848a30.806 30.806 0 0 0-3.323-8.481 30.774 30.774 0 0 0-7.621-8.796 30.254 30.254 0 0 0-8.794-4.843c3.208-1.146 6.646-1.747 10.227-1.747 1.633 0 3.237.115 4.784.372C-12.433-23.523-2.063-13.123 0 0" style="fill-opacity:1;fill-rule:evenodd;stroke:none" transform="translate(79.399 338.547)" fill="#63d9b6" data-original="#fe9737" class="" opacity="1"></path><path d="M0 0c.229 1.576.344 3.152.344 4.785 0 10.143-4.899 19.14-12.491 24.756-5.099 3.753-11.401 5.959-18.22 5.959-3.581 0-7.018-.602-10.198-1.748 9.138-3.209 16.329-10.687 19.165-20.027a30.549 30.549 0 0 0 1.318-8.94c0-2.349-.258-4.641-.773-6.848a30.265 30.265 0 0 0-3.324-8.481 30.74 30.74 0 0 0-7.62-8.796 30.781 30.781 0 0 0-8.766-4.842 30.721 30.721 0 0 1 10.198-1.748c1.633 0 3.238.143 4.784.372C-12.433-23.495-2.063-13.123 0 0" style="fill-opacity:1;fill-rule:evenodd;stroke:none" transform="translate(493.301 338.403)" fill="#63d9b6" data-original="#fe9737" class="" opacity="1"></path><path d="M0 0c4.354 0 7.936 3.582 7.936 7.937v36.847c0 4.355-3.582 7.936-7.936 7.936h-95.282c-4.355 0-7.936-3.581-7.936-7.936V7.937c0-4.355 3.581-7.937 7.936-7.937z" style="fill-opacity:1;fill-rule:evenodd;stroke:none" transform="translate(304.054 188.725)" fill="#e09932" data-original="#8ac9fe" class="" opacity="1"></path><path d="M0 0v32.176a34.353 34.353 0 0 1-12.146 3.095c-2.665.172-5.3.057-7.85-.373v-68.249a38.551 38.551 0 0 1 3.18-.373A34.528 34.528 0 0 1 0-30.629z" style="fill-opacity:1;fill-rule:evenodd;stroke:none" transform="translate(152.192 263.937)" fill="#63d9b6" data-original="#fe9737" class="" opacity="1"></path><path d="M0 0v17.937c0 13.552-11.086 24.669-24.637 24.669h-26.069c13.579 0 24.665-11.117 24.665-24.669V0c0-5.501-4.497-10-9.998-10h26.07C-4.498-10 0-5.501 0 0" style="fill-opacity:1;fill-rule:evenodd;stroke:none" transform="translate(377.593 17.5)" fill="#63d9b6" data-original="#fe9737" class="" opacity="1"></path><path d="M0 0v17.937c0 13.552-11.087 24.669-24.637 24.669h-26.07c13.58 0 24.666-11.117 24.666-24.669V0c0-5.501-4.498-10-9.998-10H-9.97C-4.498-10 0-5.501 0 0" style="fill-opacity:1;fill-rule:evenodd;stroke:none" transform="translate(233.294 17.5)" fill="#63d9b6" data-original="#fe9737" class="" opacity="1"></path><path d="M0 0c0 72.031-51.91 108.019-103.819 108.019-5.157 0-10.285-.344-15.385-1.061C-72.88 100.541-30.739 64.897-30.739 0Z" style="fill-opacity:1;fill-rule:evenodd;stroke:none" transform="translate(359.832 319.58)" fill="#edeff0" data-original="#cdbeb9" class="" opacity="1"></path><path d="M0 0v160.022h-30.739V-15.272h15.441C-6.875-15.272 0-8.396 0 0" style="fill-opacity:1;fill-rule:evenodd;stroke:none" transform="translate(359.832 159.557)" fill="#2470a9" data-original="#9d9696" class="" opacity="1"></path><path d="M0 0c12.461 0 22.545 10.114 22.545 22.578 0 12.464-10.084 22.549-22.545 22.549-12.462 0-22.575-10.085-22.575-22.549C-22.575 10.114-12.462 0 0 0" style="fill-opacity:1;fill-rule:evenodd;stroke:none" transform="translate(256.012 459.373)" fill="#e38082" data-original="#fd8087" class="" opacity="1"></path><path d="M0 0c12.461 0 22.545 10.114 22.545 22.578 0 12.464-10.084 22.549-22.545 22.549-2.808 0-5.472-.487-7.964-1.433C-1.29 39.769 3.208 32.52 3.208 24.24c0-9.685-6.073-17.937-14.61-21.146A22.566 22.566 0 0 1 0 0" style="fill-opacity:1;fill-rule:evenodd;stroke:none" transform="translate(256.012 459.373)" fill="#e38082" data-original="#fd4755" class="" opacity="1"></path><path d="m0 0 4.813 40.084c-3.237-1.919-6.818-3.352-10.628-4.126a31.471 31.471 0 0 0-4.699-.63 31.849 31.849 0 0 0-7.591.315L-22.976.115H-2.349C-1.576.115-.773.057 0 0" style="fill-opacity:1;fill-rule:evenodd;stroke:none" transform="translate(211.006 59.99)" fill="#2470a9" data-original="#746e6e" class="" opacity="1"></path><path d="m0 0-5.329 44.468a34.063 34.063 0 0 0-5.987-4.498 33.733 33.733 0 0 0-14.009-4.642L-20.455 0h5.243z" style="fill-opacity:1;fill-rule:evenodd;stroke:none" transform="translate(342.099 60.105)" fill="#2470a9" data-original="#746e6e" class="" opacity="1"></path><path d="M0 0h-95.282c-4.355 0-7.936-3.582-7.936-7.937V-26.36c0 4.384 3.581 7.937 7.936 7.937H0c4.354 0 7.936-3.553 7.936-7.937v18.423C7.936-3.582 4.354 0 0 0" style="fill-opacity:1;fill-rule:evenodd;stroke:none" transform="translate(304.054 241.445)" fill="#e09932" data-original="#22a6fe" class="" opacity="1"></path><path d="M0 0v31.775" style="stroke-width:15.118;stroke-linecap:round;stroke-linejoin:round;stroke-miterlimit:10;stroke-dasharray:none;stroke-opacity:1" transform="translate(256.012 427.598)" fill="none" stroke="#000000" stroke-width="15.118" stroke-linecap="round" stroke-linejoin="round" stroke-miterlimit="10" stroke-dasharray="none" stroke-opacity="" data-original="#000000" class=""></path><path d="M0 0a34.374 34.374 0 0 1-12.146 3.095c-19.051 1.289-35.523-13.123-36.813-32.177C-50.248-48.107-35.867-64.61-16.816-65.9A34.528 34.528 0 0 1 0-62.805z" style="stroke-width:15.118;stroke-linecap:round;stroke-linejoin:round;stroke-miterlimit:10;stroke-dasharray:none;stroke-opacity:1" transform="translate(152.192 296.113)" fill="none" stroke="#000000" stroke-width="15.118" stroke-linecap="round" stroke-linejoin="round" stroke-miterlimit="10" stroke-dasharray="none" stroke-opacity="" data-original="#000000" class=""></path><path d="M0 0c16.902 0 30.71 13.782 30.71 30.715C30.71 47.62 16.902 61.43 0 61.43s-30.71-13.81-30.71-30.715C-30.71 13.782-16.902 0 0 0Z" style="stroke-width:15.118;stroke-linecap:round;stroke-linejoin:round;stroke-miterlimit:10;stroke-dasharray:none;stroke-opacity:1" transform="translate(49.06 312.617)" fill="none" stroke="#000000" stroke-width="15.118" stroke-linecap="round" stroke-linejoin="round" stroke-miterlimit="10" stroke-dasharray="none" stroke-opacity="" data-original="#000000" class=""></path><path d="m0 0-42.885 42.892m-25.554-25.558 49.331-49.339" style="stroke-width:15.118;stroke-linecap:round;stroke-linejoin:round;stroke-miterlimit:10;stroke-dasharray:none;stroke-opacity:1" transform="translate(122.284 295.655)" fill="none" stroke="#000000" stroke-width="15.118" stroke-linecap="round" stroke-linejoin="round" stroke-miterlimit="10" stroke-dasharray="none" stroke-opacity="" data-original="#000000" class=""></path><path d="m0 0-20.541 29.941c-2.807 4.126-2.292 7.078-2.292 12.092v18.939c0 6.332 1.863 5.959 7.735 5.959h5.931" style="stroke-width:15.118;stroke-linecap:round;stroke-linejoin:round;stroke-miterlimit:10;stroke-dasharray:none;stroke-opacity:1" transform="translate(30.87 368.059)" fill="none" stroke="#000000" stroke-width="15.118" stroke-linecap="round" stroke-linejoin="round" stroke-miterlimit="10" stroke-dasharray="none" stroke-opacity="" data-original="#000000" class=""></path><path d="m0 0 20.512 29.941c2.807 4.126 2.292 7.078 2.292 12.092v18.939c0 6.332-1.863 5.959-7.735 5.959h-5.93" style="stroke-width:15.118;stroke-linecap:round;stroke-linejoin:round;stroke-miterlimit:10;stroke-dasharray:none;stroke-opacity:1" transform="translate(67.28 368.059)" fill="none" stroke="#000000" stroke-width="15.118" stroke-linecap="round" stroke-linejoin="round" stroke-miterlimit="10" stroke-dasharray="none" stroke-opacity="" data-original="#000000" class=""></path><path d="M0 0h207.639v-160.022c0-8.395-6.904-15.272-15.298-15.272H14.582C6.561-175.294 0-168.732 0-160.738Z" style="stroke-width:15.118;stroke-linecap:round;stroke-linejoin:round;stroke-miterlimit:10;stroke-dasharray:none;stroke-opacity:1" transform="translate(152.192 319.58)" fill="none" stroke="#000000" stroke-width="15.118" stroke-linecap="round" stroke-linejoin="round" stroke-miterlimit="10" stroke-dasharray="none" stroke-opacity="" data-original="#000000" class=""></path><path d="M0 0c-10.256-16.303-16.473-36.904-16.473-61.832h207.64c0 103.091-106.37 132.402-166.845 87.934" style="stroke-width:15.118;stroke-linecap:round;stroke-linejoin:round;stroke-miterlimit:10;stroke-dasharray:none;stroke-opacity:1" transform="translate(168.665 381.41)" fill="none" stroke="#000000" stroke-width="15.118" stroke-linecap="round" stroke-linejoin="round" stroke-miterlimit="10" stroke-dasharray="none" stroke-opacity="" data-original="#000000" class=""></path><path d="M0 0c9.482 0 17.217 7.707 17.217 17.191 0 9.484-7.735 17.22-17.217 17.22s-17.188-7.736-17.188-17.22C-17.188 7.707-9.482 0 0 0Z" style="stroke-width:15.118;stroke-linecap:round;stroke-linejoin:round;stroke-miterlimit:10;stroke-dasharray:none;stroke-opacity:1" transform="translate(221.061 347.343)" fill="none" stroke="#000000" stroke-width="15.118" stroke-linecap="round" stroke-linejoin="round" stroke-miterlimit="10" stroke-dasharray="none" stroke-opacity="" data-original="#000000" class=""></path><path d="M0 0a34.219 34.219 0 0 0 12.118 3.095c19.05 1.289 35.551-13.123 36.841-32.177C50.248-48.107 35.838-64.61 16.788-65.9A34.353 34.353 0 0 0 0-62.805Z" style="stroke-width:15.118;stroke-linecap:round;stroke-linejoin:round;stroke-miterlimit:10;stroke-dasharray:none;stroke-opacity:1" transform="translate(359.832 296.113)" fill="none" stroke="#000000" stroke-width="15.118" stroke-linecap="round" stroke-linejoin="round" stroke-miterlimit="10" stroke-dasharray="none" stroke-opacity="" data-original="#000000" class=""></path><path d="M0 0c16.902 0 30.682 13.782 30.682 30.715C30.682 47.62 16.902 61.43 0 61.43c-16.931 0-30.71-13.81-30.71-30.715C-30.71 13.782-16.931 0 0 0Z" style="stroke-width:15.118;stroke-linecap:round;stroke-linejoin:round;stroke-miterlimit:10;stroke-dasharray:none;stroke-opacity:1" transform="translate(462.963 312.617)" fill="none" stroke="#000000" stroke-width="15.118" stroke-linecap="round" stroke-linejoin="round" stroke-miterlimit="10" stroke-dasharray="none" stroke-opacity="" data-original="#000000" class=""></path><path d="m0 0 42.915 42.892m25.553-25.558L19.137-32.005" style="stroke-width:15.118;stroke-linecap:round;stroke-linejoin:round;stroke-miterlimit:10;stroke-dasharray:none;stroke-opacity:1" transform="translate(389.71 295.655)" fill="none" stroke="#000000" stroke-width="15.118" stroke-linecap="round" stroke-linejoin="round" stroke-miterlimit="10" stroke-dasharray="none" stroke-opacity="" data-original="#000000" class=""></path><path d="m0 0 20.512 29.941c2.836 4.126 2.292 7.078 2.292 12.092v18.939c0 6.332-1.862 5.959-7.735 5.959H9.167" style="stroke-width:15.118;stroke-linecap:round;stroke-linejoin:round;stroke-miterlimit:10;stroke-dasharray:none;stroke-opacity:1" transform="translate(481.154 368.059)" fill="none" stroke="#000000" stroke-width="15.118" stroke-linecap="round" stroke-linejoin="round" stroke-miterlimit="10" stroke-dasharray="none" stroke-opacity="" data-original="#000000" class=""></path><path d="m0 0-20.512 29.941c-2.836 4.126-2.292 7.078-2.292 12.092v18.939c0 6.332 1.863 5.959 7.735 5.959h5.902" style="stroke-width:15.118;stroke-linecap:round;stroke-linejoin:round;stroke-miterlimit:10;stroke-dasharray:none;stroke-opacity:1" transform="translate(444.743 368.059)" fill="none" stroke="#000000" stroke-width="15.118" stroke-linecap="round" stroke-linejoin="round" stroke-miterlimit="10" stroke-dasharray="none" stroke-opacity="" data-original="#000000" class=""></path><path d="M0 0a34.964 34.964 0 0 0 3.065-12.148c1.289-19.054-13.092-35.529-32.143-36.818-19.05-1.29-35.523 13.093-36.812 32.147A34.55 34.55 0 0 0-62.796 0" style="stroke-width:15.118;stroke-linecap:round;stroke-linejoin:round;stroke-miterlimit:10;stroke-dasharray:none;stroke-opacity:1" transform="translate(229.57 144.285)" fill="none" stroke="#000000" stroke-width="15.118" stroke-linecap="round" stroke-linejoin="round" stroke-miterlimit="10" stroke-dasharray="none" stroke-opacity="" data-original="#000000" class=""></path><path d="M0 0a34.384 34.384 0 0 0 3.094-12.148c1.289-19.054-13.121-35.529-32.172-36.818-19.022-1.29-35.523 13.093-36.812 32.147A34.55 34.55 0 0 0-62.796 0" style="stroke-width:15.118;stroke-linecap:round;stroke-linejoin:round;stroke-miterlimit:10;stroke-dasharray:none;stroke-opacity:1" transform="translate(344.534 144.285)" fill="none" stroke="#000000" stroke-width="15.118" stroke-linecap="round" stroke-linejoin="round" stroke-miterlimit="10" stroke-dasharray="none" stroke-opacity="" data-original="#000000" class=""></path><path d="M0 0h-81.445c-5.501 0-9.97 4.499-9.97 10v17.936c0 13.552 11.087 24.669 24.637 24.669h52.111c13.55 0 24.636-11.117 24.636-24.669V10C9.969 4.499 5.472 0 0 0Z" style="stroke-width:15.118;stroke-linecap:round;stroke-linejoin:round;stroke-miterlimit:10;stroke-dasharray:none;stroke-opacity:1" transform="translate(367.623 7.5)" fill="none" stroke="#000000" stroke-width="15.118" stroke-linecap="round" stroke-linejoin="round" stroke-miterlimit="10" stroke-dasharray="none" stroke-opacity="" data-original="#000000" class=""></path><path d="M0 0h-81.445c-5.472 0-9.97 4.499-9.97 10v17.936c0 13.552 11.087 24.669 24.637 24.669h52.111c13.55 0 24.637-11.117 24.637-24.669V10C9.97 4.499 5.472 0 0 0Z" style="stroke-width:15.118;stroke-linecap:round;stroke-linejoin:round;stroke-miterlimit:10;stroke-dasharray:none;stroke-opacity:1" transform="translate(223.325 7.5)" fill="none" stroke="#000000" stroke-width="15.118" stroke-linecap="round" stroke-linejoin="round" stroke-miterlimit="10" stroke-dasharray="none" stroke-opacity="" data-original="#000000" class=""></path><path d="m0 0 5.529 46.072m42.886-6.102L43.602-.115" style="stroke-width:15.118;stroke-linecap:round;stroke-linejoin:round;stroke-miterlimit:10;stroke-dasharray:none;stroke-opacity:1" transform="translate(167.405 60.105)" fill="none" stroke="#000000" stroke-width="15.118" stroke-linecap="round" stroke-linejoin="round" stroke-miterlimit="10" stroke-dasharray="none" stroke-opacity="" data-original="#000000" class=""></path><path d="m0 0 4.956-41.345m43.602.115L43.229 3.237" style="stroke-width:15.118;stroke-linecap:round;stroke-linejoin:round;stroke-miterlimit:10;stroke-dasharray:none;stroke-opacity:1" transform="translate(293.54 101.336)" fill="none" stroke="#000000" stroke-width="15.118" stroke-linecap="round" stroke-linejoin="round" stroke-miterlimit="10" stroke-dasharray="none" stroke-opacity="" data-original="#000000" class=""></path><path d="M0 0c9.482 0 17.217 7.707 17.217 17.191 0 9.484-7.735 17.22-17.217 17.22s-17.217-7.736-17.217-17.22C-17.217 7.707-9.482 0 0 0Z" style="stroke-width:15.118;stroke-linecap:round;stroke-linejoin:round;stroke-miterlimit:10;stroke-dasharray:none;stroke-opacity:1" transform="translate(291.02 347.343)" fill="none" stroke="#000000" stroke-width="15.118" stroke-linecap="round" stroke-linejoin="round" stroke-miterlimit="10" stroke-dasharray="none" stroke-opacity="" data-original="#000000" class=""></path><path d="M0 0h29.221c4.354 0 7.935 3.582 7.935 7.937v36.847c0 4.355-3.581 7.936-7.935 7.936h-95.283c-4.354 0-7.935-3.581-7.935-7.936V7.937c0-4.355 3.581-7.937 7.935-7.937h30.052" style="stroke-width:15.118;stroke-linecap:round;stroke-linejoin:round;stroke-miterlimit:10;stroke-dasharray:none;stroke-opacity:1" transform="translate(274.834 188.725)" fill="none" stroke="#000000" stroke-width="15.118" stroke-linecap="round" stroke-linejoin="round" stroke-miterlimit="10" stroke-dasharray="none" stroke-opacity="" data-original="#000000" class=""></path><path d="M0 0h-19.939" style="stroke-width:15.118;stroke-linecap:round;stroke-linejoin:round;stroke-miterlimit:10;stroke-dasharray:none;stroke-opacity:1" transform="translate(220.775 282.36)" fill="none" stroke="#000000" stroke-width="15.118" stroke-linecap="round" stroke-linejoin="round" stroke-miterlimit="10" stroke-dasharray="none" stroke-opacity="" data-original="#000000" class=""></path><path d="M0 0h-19.939" style="stroke-width:15.118;stroke-linecap:round;stroke-linejoin:round;stroke-miterlimit:10;stroke-dasharray:none;stroke-opacity:1" transform="translate(311.99 282.36)" fill="none" stroke="#000000" stroke-width="15.118" stroke-linecap="round" stroke-linejoin="round" stroke-miterlimit="10" stroke-dasharray="none" stroke-opacity="" data-original="#000000" class=""></path><path d="M0 0c12.404 0 22.545 10.143 22.545 22.578 0 12.435-10.141 22.549-22.545 22.549-12.433 0-22.575-10.114-22.575-22.549C-22.575 10.143-12.433 0 0 0Z" style="stroke-width:15.118;stroke-linecap:round;stroke-linejoin:round;stroke-miterlimit:10;stroke-dasharray:none;stroke-opacity:1" transform="translate(256.012 459.373)" fill="none" stroke="#000000" stroke-width="15.118" stroke-linecap="round" stroke-linejoin="round" stroke-miterlimit="10" stroke-dasharray="none" stroke-opacity="" data-original="#000000" class=""></path></g></g></svg>