<svg xmlns="http://www.w3.org/2000/svg" version="1.1" xmlns:xlink="http://www.w3.org/1999/xlink" width="512" height="512" x="0" y="0" viewBox="0 0 512 512" style="enable-background:new 0 0 512 512" xml:space="preserve" class=""><g><path fill="#63d9b6" d="M406.88 92.011v133.42c0 11.8-9.3 21.399-20.72 21.399H125.83c-11.42 0-20.71-9.6-20.71-21.399V92.011z" opacity="1" data-original="#ddf2f7" class=""></path><path fill="#000000" d="M95.12 329.65v20h231.29v-20zm277.64 0v20h44.12v-20zm-187.18-37.139v20h231.3v-20zm-90.46 0v20h44.12v-20zm277.64 37.139v20h44.12v-20zm-187.18-37.139v20h231.3v-20zM95.12 329.65v20h231.29v-20zm0-37.139v20h44.12v-20zm236.62-162.87v79.56h20v-79.56zm-36.07-2.67h-48.39V209.2h20v-26.12h28.39c13.98 0 25.35-11.529 25.35-25.699v-4.71c0-14.171-11.37-25.7-25.35-25.7zm5.35 30.41c0 3.09-2.45 5.699-5.35 5.699h-28.39v-16.109h28.39c2.9 0 5.35 2.609 5.35 5.7zm-83.28-30.41h-41.22l-16.07 80.27 19.61 3.92 5.97-29.8h22.2l5.97 29.8 19.61-3.92zm-27.71 34.389 2.88-14.39h8.44l2.88 14.39zM95.12 292.511v20h44.12v-20zm122.62-165.54h-41.22l-16.07 80.27 19.61 3.92 5.97-29.8h22.2l5.97 29.8 19.61-3.92zm-27.71 34.389 2.88-14.39h8.44l2.88 14.39zm105.64-34.389h-48.39V209.2h20v-26.12h28.39c13.98 0 25.35-11.529 25.35-25.699v-4.71c0-14.171-11.37-25.7-25.35-25.7zm5.35 30.41c0 3.09-2.45 5.699-5.35 5.699h-28.39v-16.109h28.39c2.9 0 5.35 2.609 5.35 5.7zM95.12 329.65v20h231.29v-20zm236.62-200.009v79.56h20v-79.56zm-146.16 162.87v20h231.3v-20zm187.18 37.139v20h44.12v-20zm0 0v20h44.12v-20zm-187.18-37.139v20h231.3v-20zM95.12 329.65v20h231.29v-20zm0-37.139v20h44.12v-20zm236.62-162.87v79.56h20v-79.56zm-36.07-2.67h-48.39V209.2h20v-26.12h28.39c13.98 0 25.35-11.529 25.35-25.699v-4.71c0-14.171-11.37-25.7-25.35-25.7zm5.35 30.41c0 3.09-2.45 5.699-5.35 5.699h-28.39v-16.109h28.39c2.9 0 5.35 2.609 5.35 5.7zm-83.28-30.41h-41.22l-16.07 80.27 19.61 3.92 5.97-29.8h22.2l5.97 29.8 19.61-3.92zm-27.71 34.389 2.88-14.39h8.44l2.88 14.39zM95.12 292.511v20h44.12v-20zm122.62-165.54h-41.22l-16.07 80.27 19.61 3.92 5.97-29.8h22.2l5.97 29.8 19.61-3.92zm-27.71 34.389 2.88-14.39h8.44l2.88 14.39zm105.64-34.389h-48.39V209.2h20v-26.12h28.39c13.98 0 25.35-11.529 25.35-25.699v-4.71c0-14.171-11.37-25.7-25.35-25.7zm5.35 30.41c0 3.09-2.45 5.699-5.35 5.699h-28.39v-16.109h28.39c2.9 0 5.35 2.609 5.35 5.7zM95.12 329.65v20h231.29v-20zm236.62-200.009v79.56h20v-79.56zm-146.16 162.87v20h231.3v-20zm187.18 37.139v20h44.12v-20zm0 20h44.12v-20h-44.12zm-187.18-57.139v20h231.3v-20zM95.12 349.65h231.29v-20H95.12zm44.12-57.139H95.12v20h44.12zm192.5-162.87v79.56h20v-79.56zm-36.07-2.67h-48.39V209.2h20v-26.12h28.39c13.98 0 25.35-11.529 25.35-25.699v-4.71c0-14.171-11.37-25.7-25.35-25.7zm5.35 30.41c0 3.09-2.45 5.699-5.35 5.699h-28.39v-16.109h28.39c2.9 0 5.35 2.609 5.35 5.7zm-124.5-30.41-16.07 80.27 19.61 3.92 5.97-29.8h22.2l5.97 29.8 19.61-3.92-16.07-80.27zm13.51 34.389 2.88-14.39h8.44l2.88 14.39zm240.71-50.809h-3.86V57.4c0-22.83-18.27-41.4-40.72-41.4H125.83c-22.45 0-40.71 18.57-40.71 41.4v53.15h-3.86c-22.2 0-40.26 18.06-40.26 40.26v204.25c0 22.2 18.06 40.26 40.26 40.26h111.03v41.44h-55.58V496h238.57v-59.239H319.7v-41.44h111.04c22.2 0 40.26-18.06 40.26-40.26V150.81c0-22.2-18.06-40.259-40.26-40.259zM105.12 57.4c0-11.8 9.29-21.4 20.71-21.4h260.33c11.42 0 20.72 9.601 20.72 21.4v14.61H105.12zm0 34.611h301.76v133.42c0 11.8-9.3 21.399-20.72 21.399H125.83c-11.42 0-20.71-9.6-20.71-21.399zm250.16 364.75V476H156.71v-19.239zm-142.99-20v-41.44h87.41v41.44zM451 355.06c0 11.17-9.09 20.26-20.26 20.26H81.26c-11.18 0-20.26-9.09-20.26-20.26V150.81c0-11.17 9.08-20.26 20.26-20.26h3.86v94.88c0 22.83 18.26 41.399 40.71 41.399h260.33c22.45 0 40.72-18.569 40.72-41.399v-94.88h3.86c11.17 0 20.26 9.09 20.26 20.26zm-78.24-5.41h44.12v-20h-44.12zm-187.18-37.139h231.3v-20h-231.3zm166.16-182.87h-20v79.56h20zM95.12 349.65h231.29v-20H95.12zm172.16-166.57h28.39c13.98 0 25.35-11.529 25.35-25.699v-4.71c0-14.171-11.37-25.7-25.35-25.7h-48.39V209.2h20zm0-36.109h28.39c2.9 0 5.35 2.609 5.35 5.7v4.71c0 3.09-2.45 5.699-5.35 5.699h-28.39zm-81.25 34.389h22.2l5.97 29.8 19.61-3.92-16.07-80.27h-41.22l-16.07 80.27 19.61 3.92zm6.88-34.389h8.44l2.88 14.39h-14.2zm-53.67 145.54H95.12v20h44.12zm78.5-165.54h-41.22l-16.07 80.27 19.61 3.92 5.97-29.8h22.2l5.97 29.8 19.61-3.92zm-27.71 34.389 2.88-14.39h8.44l2.88 14.39zm105.64-34.389h-48.39V209.2h20v-26.12h28.39c13.98 0 25.35-11.529 25.35-25.699v-4.71c0-14.171-11.37-25.7-25.35-25.7zm5.35 30.41c0 3.09-2.45 5.699-5.35 5.699h-28.39v-16.109h28.39c2.9 0 5.35 2.609 5.35 5.7zm30.72-27.74v79.56h20v-79.56zM95.12 292.511v20h44.12v-20zm0 37.139v20h231.29v-20zm90.46-37.139v20h231.3v-20zm187.18 37.139v20h44.12v-20zm0 0v20h44.12v-20zm-187.18-37.139v20h231.3v-20zm146.16-162.87v79.56h20v-79.56zM95.12 329.65v20h231.29v-20zm200.55-202.679h-48.39V209.2h20v-26.12h28.39c13.98 0 25.35-11.529 25.35-25.699v-4.71c0-14.171-11.37-25.7-25.35-25.7zm5.35 30.41c0 3.09-2.45 5.699-5.35 5.699h-28.39v-16.109h28.39c2.9 0 5.35 2.609 5.35 5.7zm-83.28-30.41h-41.22l-16.07 80.27 19.61 3.92 5.97-29.8h22.2l5.97 29.8 19.61-3.92zm-27.71 34.389 2.88-14.39h8.44l2.88 14.39zM95.12 292.511v20h44.12v-20zm122.62-165.54h-41.22l-16.07 80.27 19.61 3.92 5.97-29.8h22.2l5.97 29.8 19.61-3.92zm-27.71 34.389 2.88-14.39h8.44l2.88 14.39zm105.64-34.389h-48.39V209.2h20v-26.12h28.39c13.98 0 25.35-11.529 25.35-25.699v-4.71c0-14.171-11.37-25.7-25.35-25.7zm5.35 30.41c0 3.09-2.45 5.699-5.35 5.699h-28.39v-16.109h28.39c2.9 0 5.35 2.609 5.35 5.7zm30.72-27.74v79.56h20v-79.56zM95.12 292.511v20h44.12v-20zm0 37.139v20h231.29v-20zm90.46-37.139v20h231.3v-20zm187.18 37.139v20h44.12v-20zm0 0v20h44.12v-20zm-187.18-37.139v20h231.3v-20zm146.16-162.87v79.56h20v-79.56zM95.12 329.65v20h231.29v-20zm200.55-202.679h-48.39V209.2h20v-26.12h28.39c13.98 0 25.35-11.529 25.35-25.699v-4.71c0-14.171-11.37-25.7-25.35-25.7zm5.35 30.41c0 3.09-2.45 5.699-5.35 5.699h-28.39v-16.109h28.39c2.9 0 5.35 2.609 5.35 5.7zm-83.28-30.41h-41.22l-16.07 80.27 19.61 3.92 5.97-29.8h22.2l5.97 29.8 19.61-3.92zm-27.71 34.389 2.88-14.39h8.44l2.88 14.39zM95.12 292.511v20h44.12v-20zm236.62-162.87v79.56h20v-79.56zm-36.07-2.67h-48.39V209.2h20v-26.12h28.39c13.98 0 25.35-11.529 25.35-25.699v-4.71c0-14.171-11.37-25.7-25.35-25.7zm5.35 30.41c0 3.09-2.45 5.699-5.35 5.699h-28.39v-16.109h28.39c2.9 0 5.35 2.609 5.35 5.7zm-83.28-30.41h-41.22l-16.07 80.27 19.61 3.92 5.97-29.8h22.2l5.97 29.8 19.61-3.92zm-27.71 34.389 2.88-14.39h8.44l2.88 14.39z" opacity="1" data-original="#3d3f99" class=""></path><path fill="#63d9b6" d="M156.71 456.761h198.57V476H156.71zM212.29 395.32h87.41v41.44h-87.41z" opacity="1" data-original="#ddf2f7" class=""></path><g fill="#73b2e1"><path d="M430.74 130.551h-3.86v94.88c0 22.83-18.27 41.399-40.72 41.399H125.83c-22.45 0-40.71-18.569-40.71-41.399v-94.88h-3.86c-11.18 0-20.26 9.09-20.26 20.26v204.25c0 11.17 9.08 20.26 20.26 20.26h349.48c11.17 0 20.26-9.09 20.26-20.26V150.81c0-11.169-9.09-20.259-20.26-20.259zM95.12 292.511h44.12v20H95.12zm231.29 57.139H95.12v-20h231.29zm90.47 0h-44.12v-20h44.12zm0-37.139h-231.3v-20h231.3zM406.88 57.4v14.61H105.12V57.4c0-11.8 9.29-21.4 20.71-21.4h260.33c11.42 0 20.72 9.601 20.72 21.4z" fill="#2470a9" opacity="1" data-original="#73b2e1" class=""></path></g></g></svg>