<svg xmlns="http://www.w3.org/2000/svg" version="1.1" xmlns:xlink="http://www.w3.org/1999/xlink" width="512" height="512" x="0" y="0" viewBox="0 0 512 512" style="enable-background:new 0 0 512 512" xml:space="preserve" class=""><g><path d="M504.5 72.181H7.5V27.734c0-11.158 9.045-20.203 20.203-20.203h456.594c11.158 0 20.203 9.045 20.203 20.203v44.447z" style="" fill="#97a2a6" data-original="#7a6d79" class="" opacity="1"></path><path d="M484.297 7.531h-30.305c11.158 0 20.203 9.045 20.203 20.203v44.447H504.5V27.734c0-11.158-9.045-20.203-20.203-20.203z" style="" fill="#97a2a6" data-original="#685e68" class="" opacity="1"></path><path d="M484.297 504.469H27.703c-11.158 0-20.203-9.045-20.203-20.203V72.181h497v412.085c0 11.158-9.045 20.203-20.203 20.203z" style="" fill="#edeff0" data-original="#eaf6ff" class="" opacity="1"></path><path d="M474.195 72.181v412.085c0 11.158-9.045 20.203-20.203 20.203h30.305c11.158 0 20.203-9.045 20.203-20.203V72.181h-30.305z" style="" fill="#edeff0" data-original="#d8ecfe" class="" opacity="1"></path><path d="M439.819 308.173v-39.696c0-4.418-2.871-8.324-7.089-9.642l-14.589-4.559c-4.289-20.451-12.364-39.523-23.451-56.456l7.129-13.611a10.102 10.102 0 0 0-1.805-11.83l-28.069-28.069a10.1 10.1 0 0 0-11.83-1.805l-13.61 7.129c-16.933-11.087-36.005-19.162-56.456-23.452l-4.559-14.589a10.102 10.102 0 0 0-9.642-7.089h-39.696a10.102 10.102 0 0 0-9.642 7.089l-4.559 14.589c-20.451 4.289-39.523 12.364-56.456 23.451l-13.61-7.129a10.102 10.102 0 0 0-11.83 1.805l-28.069 28.069a10.1 10.1 0 0 0-1.805 11.83l7.129 13.61c-11.087 16.933-19.162 36.005-23.451 56.456l-14.589 4.559a10.103 10.103 0 0 0-7.089 9.642v39.696c0 4.418 2.871 8.324 7.089 9.642l14.589 4.559c4.289 20.451 12.364 39.523 23.451 56.456l-7.129 13.611a10.102 10.102 0 0 0 1.805 11.83l28.069 28.069a10.1 10.1 0 0 0 11.83 1.805l13.611-7.129c16.933 11.087 36.005 19.162 56.456 23.451l4.559 14.589a10.102 10.102 0 0 0 9.642 7.089h39.696c4.418 0 8.324-2.871 9.642-7.089l4.559-14.589c20.451-4.289 39.523-12.364 56.456-23.451l13.611 7.129a10.102 10.102 0 0 0 11.83-1.805l28.069-28.069a10.1 10.1 0 0 0 1.805-11.83l-7.129-13.611c11.087-16.933 19.162-36.005 23.451-56.456l14.589-4.559a10.097 10.097 0 0 0 7.087-9.64z" style="" fill="#2470a9" data-original="#60b7ff" class="" opacity="1"></path><path d="M418.142 254.277a164.203 164.203 0 0 0-12.294-36.552 190.846 190.846 0 0 1 2.986 33.718c-.009 105.072-84.662 189.716-189.734 189.716a190.926 190.926 0 0 1-33.7-2.985 164.26 164.26 0 0 0 36.551 12.293l4.559 14.589a10.102 10.102 0 0 0 9.642 7.089h39.696c4.418 0 8.324-2.871 9.642-7.089l4.559-14.589c20.451-4.289 39.523-12.364 56.456-23.451l13.611 7.129a10.102 10.102 0 0 0 11.83-1.805l28.069-28.069a10.1 10.1 0 0 0 1.805-11.83l-7.129-13.611c11.087-16.933 19.162-36.005 23.451-56.456l14.589-4.559a10.103 10.103 0 0 0 7.089-9.642v-39.696c0-4.418-2.871-8.324-7.089-9.642l-14.589-4.558z" style="" fill="#2470a9" data-original="#26a6fe" class="" opacity="1"></path><circle cx="256" cy="288.325" r="133.341" style="" fill="#e09932" data-original="#ffe177" class="" opacity="1"></circle><path d="M457.32 7.53h26.98c11.15 0 20.2 9.05 20.2 20.2v44.45H7.5V27.73c0-11.15 9.05-20.2 20.2-20.2h394.62M47.906 39.856h0M88.313 39.856h0M128.719 39.856h0M89.5 504.47h394.8c11.15 0 20.2-9.05 20.2-20.2V72.18H7.5v412.09c0 11.15 9.05 20.2 20.2 20.2h26.8" style="stroke-width:15;stroke-linecap:round;stroke-linejoin:round;stroke-miterlimit:10;" fill="none" stroke="#000000" stroke-width="15" stroke-linecap="round" stroke-linejoin="round" stroke-miterlimit="10" data-original="#000000" class=""></path><path d="M439.819 308.173v-39.696c0-4.418-2.871-8.324-7.089-9.642l-14.589-4.559c-4.289-20.451-12.364-39.523-23.451-56.456l7.129-13.611a10.102 10.102 0 0 0-1.805-11.83l-28.069-28.069a10.1 10.1 0 0 0-11.83-1.805l-13.61 7.129c-16.933-11.087-36.005-19.162-56.456-23.452l-4.559-14.589a10.102 10.102 0 0 0-9.642-7.089h-39.696a10.102 10.102 0 0 0-9.642 7.089l-4.559 14.589c-20.451 4.289-39.523 12.364-56.456 23.451l-13.61-7.129a10.102 10.102 0 0 0-11.83 1.805l-28.069 28.069a10.1 10.1 0 0 0-1.805 11.83l7.129 13.61c-11.087 16.933-19.162 36.005-23.451 56.456l-14.589 4.559a10.103 10.103 0 0 0-7.089 9.642v39.696c0 4.418 2.871 8.324 7.089 9.642l14.589 4.559c4.289 20.451 12.364 39.523 23.451 56.456l-7.129 13.611a10.102 10.102 0 0 0 1.805 11.83l28.069 28.069a10.1 10.1 0 0 0 11.83 1.805l13.611-7.129c16.933 11.087 36.005 19.162 56.456 23.451l4.559 14.589a10.102 10.102 0 0 0 9.642 7.089h39.696c4.418 0 8.324-2.871 9.642-7.089l4.559-14.589c20.451-4.289 39.523-12.364 56.456-23.451l13.611 7.129a10.102 10.102 0 0 0 11.83-1.805l28.069-28.069a10.1 10.1 0 0 0 1.805-11.83l-7.129-13.611c11.087-16.933 19.162-36.005 23.451-56.456l14.589-4.559a10.097 10.097 0 0 0 7.087-9.64z" style="stroke-width:15;stroke-linecap:round;stroke-linejoin:round;stroke-miterlimit:10;" fill="none" stroke="#000000" stroke-width="15" stroke-linecap="round" stroke-linejoin="round" stroke-miterlimit="10" data-original="#000000" class=""></path><path d="M168.3 187.88c23.44-20.49 54.12-32.9 87.7-32.9 73.64 0 133.34 59.7 133.34 133.35 0 73.64-59.7 133.34-133.34 133.34s-133.34-59.7-133.34-133.34c0-27.49 8.31-53.02 22.56-74.24" style="stroke-width:15;stroke-linecap:round;stroke-linejoin:round;stroke-miterlimit:10;" fill="none" stroke="#000000" stroke-width="15" stroke-linecap="round" stroke-linejoin="round" stroke-miterlimit="10" data-original="#000000" class=""></path><path d="M259.438 256h-27.241v64.651h27.241M257.429 288.325h-25.232M198.214 262.646s-11.601-9.751-25.281-5.63c-12.561 3.784-14.758 19.004-5.23 24.193 4.456 2.427 8.917 3.978 18.808 7.627 23.809 8.782 13.553 31.816-5.614 31.816-9.598 0-17.654-4.203-22.529-9.583" style="stroke-width:15;stroke-linecap:round;stroke-linejoin:round;stroke-miterlimit:10;" fill="none" stroke="#000000" stroke-width="15" stroke-linecap="round" stroke-linejoin="round" stroke-miterlimit="10" data-original="#000000" class=""></path><circle cx="321.307" cy="288.325" r="32.325" style="stroke-width:15;stroke-linecap:round;stroke-linejoin:round;stroke-miterlimit:10;" fill="none" stroke="#000000" stroke-width="15" stroke-linecap="round" stroke-linejoin="round" stroke-miterlimit="10" data-original="#000000" class=""></circle></g></svg>