<svg xmlns="http://www.w3.org/2000/svg" version="1.1" xmlns:xlink="http://www.w3.org/1999/xlink" width="512" height="512" x="0" y="0" viewBox="0 0 682.667 682.667" style="enable-background:new 0 0 512 512" xml:space="preserve" class=""><g><defs><clipPath id="a" clipPathUnits="userSpaceOnUse"><path d="M0 512h512V0H0Z" fill="#000000" opacity="1" data-original="#000000"></path></clipPath></defs><g clip-path="url(#a)" transform="matrix(1.33333 0 0 -1.33333 0 682.667)"><path d="M0 0h-480.66a8.187 8.187 0 0 1-8.187-8.187v-23.03c0-14.064 11.402-25.467 25.468-25.467h446.098c14.065 0 25.468 11.403 25.468 25.468v23.029A8.187 8.187 0 0 1 0 0" style="fill-opacity:1;fill-rule:nonzero;stroke:none" transform="translate(496.33 89.86)" fill="#acacac" data-original="#acacac" class=""></path><path d="M0 0h-51.863a6.347 6.347 0 0 0-6.346 6.347v20.324H6.346V6.347A6.347 6.347 0 0 0 0 0" style="fill-opacity:1;fill-rule:nonzero;stroke:none" transform="translate(281.932 63.157)" fill="#838383" data-original="#838383"></path><path d="M0 0v-23.031c0-14.07-11.405-25.464-25.465-25.464h-20.026c14.058 0 25.464 11.394 25.464 25.464V0c0 4.517-3.665 8.182-8.192 8.182h20.028C-3.665 8.182 0 4.517 0 0" style="fill-opacity:1;fill-rule:nonzero;stroke:none" transform="translate(504.517 81.677)" fill="#9d9d9d" data-original="#9d9d9d"></path><path d="M0 0h-440.559v272.369c0 7.241 5.871 13.111 13.112 13.111h414.336C-5.87 285.48 0 279.61 0 272.369Z" style="fill-opacity:1;fill-rule:nonzero;stroke:none" transform="translate(476.379 89.828)" fill="#5a5a5a" data-original="#5a5a5a"></path><path d="M0 0v-272.369h-20.027V0c0 7.239-5.869 13.107-13.109 13.107h20.028C-5.868 13.107 0 7.239 0 0" style="fill-opacity:1;fill-rule:nonzero;stroke:none" transform="translate(476.379 362.197)" fill="#444444" data-original="#444444"></path><path d="M0 0h349.018c7.241 0 13.111-5.87 13.111-13.111V-285.48H-78.43v272.369C-78.43-5.87-72.56 0-65.318 0h31.401" style="stroke-width:15;stroke-linecap:round;stroke-linejoin:round;stroke-miterlimit:10;stroke-dasharray:none;stroke-opacity:1" transform="translate(114.25 375.309)" fill="none" stroke="#000000" stroke-width="15" stroke-linecap="round" stroke-linejoin="round" stroke-miterlimit="10" stroke-dasharray="none" stroke-opacity="" data-original="#000000" class=""></path><path d="M0 0h-349.574c-6.636 0-12.016 5.38-12.016 12.017v187.296c0 6.637 5.38 12.017 12.016 12.017H0c6.637 0 12.017-5.38 12.017-12.017V12.017C12.017 5.38 6.637 0 0 0" style="fill-opacity:1;fill-rule:nonzero;stroke:none" transform="translate(430.887 126.903)" fill="#2470a9" data-original="#c4e2ff" class="" opacity="1"></path><path d="M0 0v-187.293c0-6.64-5.378-12.017-12.017-12.017h-19.416c6.629 0 12.016 5.377 12.016 12.017V0c0 6.64-5.387 12.017-12.016 12.017h19.416C-5.378 12.017 0 6.64 0 0" style="fill-opacity:1;fill-rule:nonzero;stroke:none" transform="translate(442.903 326.218)" fill="#2470a9" data-original="#a5d5f9" class="" opacity="1"></path><path d="M0 0h-349.574c-6.636 0-12.016 5.38-12.016 12.017v187.296c0 6.637 5.38 12.017 12.016 12.017H0c6.637 0 12.017-5.38 12.017-12.017V12.017C12.017 5.38 6.637 0 0 0Z" style="stroke-width:15;stroke-linecap:round;stroke-linejoin:round;stroke-miterlimit:10;stroke-dasharray:none;stroke-opacity:1" transform="translate(430.887 126.903)" fill="none" stroke="#000000" stroke-width="15" stroke-linecap="round" stroke-linejoin="round" stroke-miterlimit="10" stroke-dasharray="none" stroke-opacity="" data-original="#000000" class=""></path><path d="M0 0h-208.053v-20.356a6.346 6.346 0 0 0-6.345-6.347h-51.864a6.346 6.346 0 0 0-6.345 6.347V0H-480.66a8.187 8.187 0 0 1-8.187-8.187v-23.03c0-14.064 11.402-25.467 25.468-25.467h446.098c14.065 0 25.468 11.403 25.468 25.468v23.029A8.187 8.187 0 0 1 0 0Z" style="stroke-width:15;stroke-linecap:round;stroke-linejoin:round;stroke-miterlimit:10;stroke-dasharray:none;stroke-opacity:1" transform="translate(496.33 89.86)" fill="none" stroke="#000000" stroke-width="15" stroke-linecap="round" stroke-linejoin="round" stroke-miterlimit="10" stroke-dasharray="none" stroke-opacity="" data-original="#000000" class=""></path><path d="M0 0c-67.457-.049-122.508-55.143-122.505-122.599.001-27.172 8.846-52.277 23.809-72.6 1.659-2.254 2.144-5.162 1.244-7.813l-10.85-31.896c-2.275-6.691 4.068-13.106 10.783-10.906l38.919 12.743a8.583 8.583 0 0 0 6.342-.407c15.604-7.379 33.011-11.566 51.384-11.708 67.846-.522 123.535 54.702 123.558 122.549C122.706-54.88 67.762.049 0 0" style="fill-opacity:1;fill-rule:nonzero;stroke:none" transform="translate(381.664 478.823)" fill="#63d9b6" data-original="#e94444" class="" opacity="1"></path><path d="M0 0c-.023-67.843-55.712-123.065-123.555-122.541-17.49.129-34.119 3.928-49.128 10.663 9.264-2.331 18.959-3.59 28.922-3.671 67.855-.524 123.543 54.698 123.567 122.54.011 49.886-29.75 92.815-72.504 111.972C-39.422 105.62.022 57.413 0 0" style="fill-opacity:1;fill-rule:nonzero;stroke:none" transform="translate(504.347 356.184)" fill="#63d9b6" data-original="#d83131" class="" opacity="1"></path><path d="M0 0a122.343 122.343 0 0 1 2.228 23.244C2.25 91.001-52.694 145.93-120.456 145.881c-67.457-.049-122.508-55.143-122.505-122.599.001-27.173 8.846-52.277 23.809-72.6 1.659-2.254 2.144-5.162 1.244-7.813l-10.85-31.896c-2.275-6.691 4.068-13.106 10.783-10.907l38.919 12.744a8.583 8.583 0 0 0 6.342-.407c15.604-7.38 33.011-11.566 51.384-11.708 47.592-.366 89.203 26.699 109.812 66.31" style="stroke-width:15;stroke-linecap:round;stroke-linejoin:round;stroke-miterlimit:10;stroke-dasharray:none;stroke-opacity:1" transform="translate(502.12 332.942)" fill="none" stroke="#000000" stroke-width="15" stroke-linecap="round" stroke-linejoin="round" stroke-miterlimit="10" stroke-dasharray="none" stroke-opacity="" data-original="#000000" class=""></path><path d="M0 0c0-40.095-32.503-72.597-72.597-72.597-40.093 0-72.596 32.502-72.596 72.597 0 40.094 32.503 72.597 72.596 72.597C-32.503 72.597 0 40.094 0 0" style="fill-opacity:1;fill-rule:nonzero;stroke:none" transform="translate(456.29 356.502)" fill="#e09932" data-original="#f4d902" class="" opacity="1"></path><path d="M0 0c0-40.095-32.504-72.599-72.599-72.599-19.206 0-36.659 7.46-49.647 19.637 9.583-4.666 20.348-7.279 31.724-7.279 40.093 0 72.597 32.504 72.597 72.597 0 20.889-8.821 39.714-22.951 52.962C-16.673 53.542 0 28.719 0 0" style="fill-opacity:1;fill-rule:nonzero;stroke:none" transform="translate(456.294 356.5)" fill="#e09932" data-original="#e2ca00" class="" opacity="1"></path><path d="M0 0c0-40.095-32.503-72.597-72.597-72.597-40.093 0-72.596 32.502-72.596 72.597 0 40.094 32.503 72.597 72.596 72.597C-32.503 72.597 0 40.094 0 0Z" style="stroke-width:15;stroke-linecap:round;stroke-linejoin:round;stroke-miterlimit:10;stroke-dasharray:none;stroke-opacity:1" transform="translate(456.29 356.502)" fill="none" stroke="#000000" stroke-width="15" stroke-linecap="round" stroke-linejoin="round" stroke-miterlimit="10" stroke-dasharray="none" stroke-opacity="" data-original="#000000" class=""></path><path d="M0 0v-11.491" style="stroke-width:15;stroke-linecap:round;stroke-linejoin:round;stroke-miterlimit:10;stroke-dasharray:none;stroke-opacity:1" transform="translate(356.249 371.524)" fill="none" stroke="#000000" stroke-width="15" stroke-linecap="round" stroke-linejoin="round" stroke-miterlimit="10" stroke-dasharray="none" stroke-opacity="" data-original="#000000" class=""></path><path d="M0 0v-11.491" style="stroke-width:15;stroke-linecap:round;stroke-linejoin:round;stroke-miterlimit:10;stroke-dasharray:none;stroke-opacity:1" transform="translate(411.137 371.524)" fill="none" stroke="#000000" stroke-width="15" stroke-linecap="round" stroke-linejoin="round" stroke-miterlimit="10" stroke-dasharray="none" stroke-opacity="" data-original="#000000" class=""></path><path d="M0 0c-3.627-4.313-9.063-7.055-15.14-7.055-6.092 0-11.542 2.755-15.169 7.088" style="stroke-width:15;stroke-linecap:round;stroke-linejoin:round;stroke-miterlimit:10;stroke-dasharray:none;stroke-opacity:1" transform="translate(398.847 331.988)" fill="none" stroke="#000000" stroke-width="15" stroke-linecap="round" stroke-linejoin="round" stroke-miterlimit="10" stroke-dasharray="none" stroke-opacity="" data-original="#000000" class=""></path></g></g></svg>