<svg xmlns="http://www.w3.org/2000/svg" version="1.1" xmlns:xlink="http://www.w3.org/1999/xlink" width="512" height="512" x="0" y="0" viewBox="0 0 682.667 682.667" style="enable-background:new 0 0 512 512" xml:space="preserve" class=""><g><defs><clipPath id="a" clipPathUnits="userSpaceOnUse"><path d="M0 512h512V0H0Z" fill="#000000" opacity="1" data-original="#000000" class=""></path></clipPath></defs><g clip-path="url(#a)" transform="matrix(1.33333 0 0 -1.33333 0 682.667)"><path d="M0 0a17.36 17.36 0 0 1-.866-9.696l-155.537-24.877-157.593 24.877 4.139 11.337c3.783 10.39 3.166 15.856 7.901 49.588 1.795 13.815 11.633 25.253 25.029 29.077l23.072 6.596c15.792 4.506 25.416 20.452 22.062 36.529l-3.304 15.761c-1.967 9.461 5.995 18.025 15.568 16.741l19.054-2.56a16.328 16.328 0 0 0 13.621-12.04 16.306 16.306 0 0 1 13.917-12.071l18.096-2.09c5.744-.663 9.019-6.93 6.198-12.04-3.324-6.005 1.815-13.182 8.574-11.969 4.014 1.341 22.76.646 34.898 18.616l10.296 15.242a12.553 12.553 0 0 0 11.042 5.505l9.512-.5c6.279-.316 11.347-5.24 11.857-11.509l.672-8.32c.652-8.087 8.821-13.235 16.313-10.551a12.258 12.258 0 0 0 11.663-1.908c3.201-3.132 13.82-8.081 17.219-22.051l3.711-15.201a31.381 31.381 0 0 0-4.221-24.611c-4.414-6.759-3.038-15.771 3.201-20.909l8.747-7.188A17.426 17.426 0 0 0 0 0" style="fill-opacity:1;fill-rule:nonzero;stroke:none" transform="translate(418.592 348.44)" fill="#23303d" data-original="#4f4c5f" class="" opacity="1"></path><path d="M0 0c3.783 10.391 3.166 15.855 7.901 49.589C9.695 63.403 19.533 74.842 32.93 78.665l23.071 6.596c15.792 4.507 25.416 20.451 22.062 36.529l-3.303 15.762c-1.968 9.461 5.994 18.024 15.568 16.74l.732-.099a16.332 16.332 0 0 1-11.678 7.539l-19.054 2.56c-9.574 1.284-17.536-7.279-15.568-16.74l3.303-15.762c3.354-16.078-6.27-32.022-22.062-36.529L2.93 88.665c-13.396-3.823-23.235-15.262-25.029-29.076C-26.834 25.855-26.217 20.391-30 10l-4.139-11.337 31.817-5.022z" style="fill-opacity:1;fill-rule:nonzero;stroke:none" transform="translate(138.736 340.08)" fill="#000000" data-original="#423e4f" class="" opacity="1"></path><path d="m0 0-7.218-1.417c-6.826-1.335-9.27-5.119-21.899-14.059-8.921-6.698-10.216-19.585-2.793-27.914.63-1.006 5.998-4.873 4.577-11.918l-1.244-6.239c-1.447-7.268-9.379-11.194-16.036-7.973-1.114.286-15.638 10.09-33.144 1.346-1.75-.622-10.111-6.66-23.102-4.802l-16.608 2.376c-6.434.92-9.139-4.814-10.01-10.099-.971-5.891-4.913-10.731-10.992-11.83l-5.015-.908a13.456 13.456 0 0 0-13.142 5.169c-3.384 3.773-6.502 11.527-16.455 14.569l-36.284 11.143a21.817 21.817 0 0 1-19.605-3.487l-4.893-3.731a17.134 17.134 0 0 0-17.301-2.019l-9.298 4.129A17.099 17.099 0 0 0-270.514-50.2l1.774 16.556a47.885 47.885 0 0 0 11.816 26.681l10.674 12.01c6.941 7.812 2.551 16.653 2.477 17.566-1.753 5.954-6.892 10.297-13.049 11.062l-50.69 6.219c-8.279 1.009-13.223 9.715-9.879 17.341l4.955 11.266c.489 1.111.815 2.283.958 3.477l116.933 27.886 134.16-27.886c3.726-4.105 3.97-3.048 64.718-39.741 7.707-4.612 7.433-12.589 7.972-14.131C13.865 9.717 8.37 1.642 0 0" style="fill-opacity:1;fill-rule:nonzero;stroke:none" transform="translate(398.09 101.148)" fill="#f8d070" data-original="#f8d070" class=""></path><path d="M0 0a12.277 12.277 0 0 0-.958-3.477l-4.955-11.265c-3.344-7.626 1.601-16.333 9.879-17.342l22.688-2.783c-2.092 2.953-2.645 7.049-1.458 11.08 1.186 4.031 1.615 7.399 3.846 20.31.489 1.112.815 2.284.958 3.477Z" style="fill-opacity:1;fill-rule:nonzero;stroke:none" transform="translate(86.612 173.126)" fill="#e09932" data-original="#ffa83f" class="" opacity="1"></path><path d="M0 0c-1.54-8.543-10.756-13.314-18.626-9.634l-5.343 2.498c-4.384 2.059-9.542-.469-10.613-5.2l-1.335-5.943a7.568 7.568 0 0 0-4.537-5.353l-53.687-21.889c-6.931-2.831-8.811-7.586-17.688-17.199a19.807 19.807 0 0 1-3.589-19.778l3.527-9.572a19.767 19.767 0 0 1 3.885-6.444h-251.093a12.39 12.39 0 0 1-.805 6.158c-20.84 53.543-13.869 30.278-20.319 57.5a28.22 28.22 0 0 0 4.883 23.172c6.906 9.267 6.766 20.843 1.907 30.922-4.474 9.183 2.191 19.911 12.438 19.911 5.821 0 11.02 3.64 13.009 9.105l6.871 18.85h313.13c.959-4.879 1.072-3.093 27.801-50.874C3.235 10.213.519 5.221 0 0" style="fill-opacity:1;fill-rule:nonzero;stroke:none" transform="translate(445.711 271.64)" fill="#e38082" data-original="#fd5f7e" class="" opacity="1"></path><path d="M0 0c-20.84 53.543-13.869 30.278-20.319 57.5a28.226 28.226 0 0 0 4.883 23.173c6.907 9.265 6.767 20.843 1.907 30.922-4.473 9.182 2.192 19.911 12.438 19.911 5.821 0 11.021 3.64 13.009 9.103l10.281 18.851H-11.21l-6.872-18.851a13.843 13.843 0 0 0-13.009-9.103c-10.246 0-16.911-10.729-12.438-19.911 4.86-10.079 5-21.657-1.907-30.922A28.226 28.226 0 0 1-50.319 57.5C-43.869 30.278-50.84 53.543-30 0a12.389 12.389 0 0 0 .805-6.157h30A12.389 12.389 0 0 1 0 0" style="fill-opacity:1;fill-rule:nonzero;stroke:none" transform="translate(115.807 179.283)" fill="#e3254c" data-original="#e3254c" class=""></path><path d="M0 0c0-13.796-14.043-24.979-31.366-24.979S-62.732-13.796-62.732 0c0 13.795 14.043 24.979 31.366 24.979S0 13.795 0 0" style="fill-opacity:1;fill-rule:nonzero;stroke:none" transform="translate(158.482 246.506)" fill="#ffb2c1" data-original="#ffb2c1" class=""></path><path d="M0 0c0-13.796 14.043-24.979 31.366-24.979S62.732-13.796 62.732 0c0 13.795-14.043 24.979-31.366 24.979S0 13.795 0 0" style="fill-opacity:1;fill-rule:nonzero;stroke:none" transform="translate(265.767 246.506)" fill="#ffb2c1" data-original="#ffb2c1" class=""></path><path d="M0 0v-12.822" style="stroke-width:15;stroke-linecap:round;stroke-linejoin:round;stroke-miterlimit:10;stroke-dasharray:none;stroke-opacity:1" transform="translate(145.397 283.373)" fill="none" stroke="#000000" stroke-width="15" stroke-linecap="round" stroke-linejoin="round" stroke-miterlimit="10" stroke-dasharray="none" stroke-opacity="" data-original="#000000" opacity="1" class=""></path><path d="M0 0v-12.822" style="stroke-width:15;stroke-linecap:round;stroke-linejoin:round;stroke-miterlimit:10;stroke-dasharray:none;stroke-opacity:1" transform="translate(278.853 283.373)" fill="none" stroke="#000000" stroke-width="15" stroke-linecap="round" stroke-linejoin="round" stroke-miterlimit="10" stroke-dasharray="none" stroke-opacity="" data-original="#000000" opacity="1" class=""></path><path d="M0 0c4.277-4.908 10.57-8.015 17.592-8.015 7.022 0 13.315 3.107 17.593 8.015" style="stroke-width:15;stroke-linecap:round;stroke-linejoin:round;stroke-miterlimit:10;stroke-dasharray:none;stroke-opacity:1" transform="translate(194.532 270.933)" fill="none" stroke="#000000" stroke-width="15" stroke-linecap="round" stroke-linejoin="round" stroke-miterlimit="10" stroke-dasharray="none" stroke-opacity="" data-original="#000000" opacity="1" class=""></path><path d="M0 0h227.847a17.365 17.365 0 0 0 .866 9.695 17.427 17.427 0 0 1-5.158 19.779l-8.747 7.187c-6.24 5.138-7.616 14.151-3.202 20.909a31.383 31.383 0 0 1 4.221 24.612l-3.711 15.2c-3.399 13.971-14.017 18.92-17.219 22.052a12.262 12.262 0 0 1-11.664 1.907c-7.49-2.684-15.659 2.465-16.312 10.552l-.672 8.319c-.51 6.269-5.577 11.193-11.857 11.51l-9.512.5a12.554 12.554 0 0 1-11.041-5.506l-10.297-15.241c-12.137-17.971-30.884-17.276-34.897-18.617-6.76-1.212-11.898 5.964-8.575 11.969 2.821 5.11-.453 11.377-6.198 12.04l-18.096 2.09a16.308 16.308 0 0 0-13.917 12.071 16.324 16.324 0 0 1-13.62 12.04l-19.054 2.56c-9.574 1.284-17.536-7.279-15.568-16.74l3.303-15.762c3.354-16.077-6.27-32.022-22.062-36.528l-23.071-6.597c-13.397-3.823-23.235-15.262-25.029-29.076-4.736-33.733-4.118-39.198-7.902-49.589L-85.283 0H-30" style="stroke-width:15;stroke-linecap:round;stroke-linejoin:round;stroke-miterlimit:10;stroke-dasharray:none;stroke-opacity:1" transform="translate(189.879 338.744)" fill="none" stroke="#000000" stroke-width="15" stroke-linecap="round" stroke-linejoin="round" stroke-miterlimit="10" stroke-dasharray="none" stroke-opacity="" data-original="#000000" opacity="1" class=""></path><path d="M0 0h-177.421a12.246 12.246 0 0 0-.959-3.477l-4.954-11.265c-3.344-7.626 1.6-16.332 9.878-17.342l50.69-6.219c6.158-.764 11.296-5.107 13.05-11.061.074-.913 4.464-9.754-2.478-17.567l-10.674-12.009a47.905 47.905 0 0 1-11.816-26.68l-1.774-16.558a17.102 17.102 0 0 1 10.053-17.464l9.298-4.129a17.135 17.135 0 0 1 17.3 2.019l4.894 3.731a21.82 21.82 0 0 0 19.605 3.488l36.284-11.144c9.953-3.042 13.071-10.796 16.455-14.568a13.453 13.453 0 0 1 13.141-5.169l5.016.907c6.078 1.1 10.021 5.94 10.992 11.83.87 5.285 3.575 11.02 10.01 10.1l16.607-2.376c12.991-1.859 21.353 4.18 23.102 4.802 17.507 8.744 32.03-1.061 33.144-1.346 6.658-3.222 14.589.704 16.037 7.973l1.244 6.239c1.421 7.045-3.948 10.912-4.578 11.918-7.422 8.329-6.127 21.216 2.793 27.914 12.63 8.939 15.074 12.724 21.899 14.058l7.219 1.418c8.37 1.641 13.865 9.716 12.305 18.106-.539 1.542-.266 9.518-7.972 14.131C77.642-3.048 77.397-4.104 73.671 0H30" style="stroke-width:15;stroke-linecap:round;stroke-linejoin:round;stroke-miterlimit:10;stroke-dasharray:none;stroke-opacity:1" transform="translate(264.034 173.126)" fill="none" stroke="#000000" stroke-width="15" stroke-linecap="round" stroke-linejoin="round" stroke-miterlimit="10" stroke-dasharray="none" stroke-opacity="" data-original="#000000" opacity="1" class=""></path><path d="M0 0h-55.283l-6.871-18.851a13.842 13.842 0 0 0-13.009-9.104c-10.246 0-16.911-10.729-12.438-19.911 4.86-10.079 5-21.655-1.906-30.921a28.226 28.226 0 0 1-4.884-23.174c6.45-27.222-.521-3.957 20.319-57.5a12.389 12.389 0 0 0 .805-6.157h177.422" style="stroke-width:15;stroke-linecap:round;stroke-linejoin:round;stroke-miterlimit:10;stroke-dasharray:none;stroke-opacity:1" transform="translate(159.879 338.744)" fill="none" stroke="#000000" stroke-width="15" stroke-linecap="round" stroke-linejoin="round" stroke-miterlimit="10" stroke-dasharray="none" stroke-opacity="" data-original="#000000" opacity="1" class=""></path><path d="M0 0h43.671a19.76 19.76 0 0 0-3.884 6.443l-3.527 9.574a19.801 19.801 0 0 0 3.589 19.777c8.877 9.612 10.756 14.368 17.688 17.199l53.687 21.889a7.564 7.564 0 0 1 4.537 5.352l1.335 5.944c1.071 4.73 6.229 7.259 10.613 5.2l5.342-2.498c7.871-3.681 17.087 1.091 18.627 9.634.518 5.22 3.235 10.213-.184 16.23-26.73 47.78-26.843 45.994-27.802 50.874h-227.847" style="stroke-width:15;stroke-linecap:round;stroke-linejoin:round;stroke-miterlimit:10;stroke-dasharray:none;stroke-opacity:1" transform="translate(294.034 173.126)" fill="none" stroke="#000000" stroke-width="15" stroke-linecap="round" stroke-linejoin="round" stroke-miterlimit="10" stroke-dasharray="none" stroke-opacity="" data-original="#000000" opacity="1" class=""></path></g></g></svg>