<svg xmlns="http://www.w3.org/2000/svg" version="1.1" xmlns:xlink="http://www.w3.org/1999/xlink" width="512" height="512" x="0" y="0" viewBox="0 0 512 512" style="enable-background:new 0 0 512 512" xml:space="preserve" class=""><g><path d="M371.159 179.228H211.553c-8.926 0-16.163 7.236-16.163 16.163v88.894c0 8.926 7.236 16.163 16.163 16.163h10.102v13.06a7.143 7.143 0 0 0 7.143 7.143 7.147 7.147 0 0 0 5.051-2.092l18.111-18.111h119.199c8.926 0 16.163-7.236 16.163-16.163V195.39c-.001-8.926-7.237-16.162-16.163-16.162z" style="" fill="#63d9b6" data-original="#9be69d" opacity="1" class=""></path><path d="M211.553 179.228c-8.926 0-16.163 7.236-16.163 16.163v72.732h52.935l9.826 9.826c6.691 6.691 15.588 10.377 25.051 10.377 15.233 0 28.251-9.663 33.246-23.181 16.626-6.437 28.446-22.598 28.446-41.469v-44.447H211.553z" style="" fill="#6fd7a3" data-original="#6fd7a3" class=""></path><path d="M140.841 118.618h159.606c8.926 0 16.163 7.236 16.163 16.163v88.894c0 8.926-7.236 16.163-16.163 16.163h-10.102v13.06a7.143 7.143 0 0 1-7.143 7.143 7.147 7.147 0 0 1-5.051-2.092l-18.111-18.111H140.841c-8.926 0-16.163-7.236-16.163-16.163V134.78c.001-8.926 7.237-16.162 16.163-16.162z" style="" fill="#edeff0" data-original="#dff6fd" class="" opacity="1"></path><path d="M284.285 134.78v88.894c0 6.695-4.07 12.439-9.871 14.892-3.751 1.586-6.291 5.136-6.291 9.208v.143l9.851 9.851c1.211 1.211 2.777 2.059 4.481 2.233a7.144 7.144 0 0 0 7.891-7.105v-13.06h10.102c8.926 0 16.163-7.236 16.163-16.163V134.78c0-8.926-7.236-16.163-16.163-16.163h-32.325c8.925.001 16.162 7.237 16.162 16.163z" style="" fill="#97a2a6" data-original="#c8effe" class="" opacity="1"></path><circle cx="193.875" cy="398.888" r="37.275" style="" fill="#fed2a4" data-original="#fed2a4" class=""></circle><path d="M209.054 364.845a37.131 37.131 0 0 1 3.232 15.179c0 20.586-16.689 37.275-37.275 37.275a37.128 37.128 0 0 1-15.179-3.232c5.814 13.018 18.864 22.096 34.043 22.096 20.586 0 37.275-16.689 37.275-37.275 0-15.179-9.078-28.229-22.096-34.043z" style="" fill="#ffbd86" data-original="#ffbd86" class=""></path><path d="M131.75 504.5v-37.275c0-17.155 13.907-31.062 31.062-31.062h62.125c17.155 0 31.062 13.907 31.062 31.062V504.5H131.75z" style="" fill="#63d9b6" data-original="#fe93d3" class="" opacity="1"></path><path d="M224.938 436.163h-26.921c17.155 0 31.062 13.907 31.062 31.062V504.5H256v-37.275c0-17.155-13.907-31.062-31.062-31.062z" style="" fill="#ffffff" data-original="#fe73c5" class="" opacity="1"></path><circle cx="442.375" cy="398.888" r="37.275" style="" fill="#fed2a4" data-original="#fed2a4" class=""></circle><path d="M457.554 364.845a37.131 37.131 0 0 1 3.232 15.179c0 20.586-16.689 37.275-37.275 37.275a37.128 37.128 0 0 1-15.179-3.232c5.814 13.018 18.864 22.096 34.043 22.096 20.586 0 37.275-16.689 37.275-37.275 0-15.179-9.078-28.229-22.096-34.043z" style="" fill="#ffbd86" data-original="#ffbd86" class=""></path><path d="M380.25 504.5v-37.275c0-17.155 13.907-31.062 31.062-31.062h62.125c17.155 0 31.062 13.907 31.062 31.062V504.5H380.25z" style="" fill="#ffffff" data-original="#fee97d" class="" opacity="1"></path><path d="M473.438 436.163h-26.921c17.155 0 31.062 13.907 31.062 31.062V504.5H504.5v-37.275c0-17.155-13.907-31.062-31.062-31.062z" style="" fill="#e09932" data-original="#fedf30" class="" opacity="1"></path><circle cx="318.125" cy="398.888" r="37.275" style="" fill="#fed2a4" data-original="#fed2a4" class=""></circle><path d="M333.304 364.845a37.131 37.131 0 0 1 3.232 15.179c0 20.586-16.689 37.275-37.275 37.275a37.128 37.128 0 0 1-15.179-3.232c5.814 13.018 18.864 22.096 34.043 22.096 20.586 0 37.275-16.689 37.275-37.275 0-15.179-9.078-28.229-22.096-34.043z" style="" fill="#ffbd86" data-original="#ffbd86" class=""></path><path d="M256 504.5v-37.275c0-17.155 13.907-31.062 31.062-31.062h62.125c17.155 0 31.062 13.907 31.062 31.062V504.5H256z" style="" fill="#ffffff" data-original="#b3dafe" class="" opacity="1"></path><path d="M349.188 436.163h-26.921c17.155 0 31.062 13.907 31.062 31.062V504.5h26.921v-37.275c0-17.155-13.907-31.062-31.062-31.062z" style="" fill="#2470a9" data-original="#8ac9fe" class="" opacity="1"></path><circle cx="69.625" cy="398.888" r="37.275" style="" fill="#fed2a4" data-original="#fed2a4" class=""></circle><path d="M84.804 364.845a37.131 37.131 0 0 1 3.232 15.179c0 20.586-16.689 37.275-37.275 37.275a37.128 37.128 0 0 1-15.179-3.232c5.814 13.018 18.864 22.096 34.043 22.096 20.586 0 37.275-16.689 37.275-37.275 0-15.179-9.078-28.229-22.096-34.043z" style="" fill="#ffbd86" data-original="#ffbd86" class=""></path><path d="M7.5 504.5v-37.275c0-17.155 13.907-31.062 31.062-31.062h62.125c17.155 0 31.062 13.907 31.062 31.062V504.5H7.5z" style="" fill="#2470a9" data-original="#d9b1ee" class="" opacity="1"></path><path d="M100.688 436.163H73.767c17.155 0 31.062 13.907 31.062 31.062V504.5h26.921v-37.275c0-17.155-13.907-31.062-31.062-31.062z" style="" fill="#ffffff" data-original="#cb97e7" class="" opacity="1"></path><path d="M256 7.5c2.007 0 4.007.029 6 .087" style="stroke-width:15;stroke-linecap:round;stroke-linejoin:round;" fill="none" stroke="#000000" stroke-width="15" stroke-linecap="round" stroke-linejoin="round" data-original="#000000" class="" opacity="1"></path><path d="M294.1 11.087c93.364 17.817 163.93 99.888 163.93 198.443 0 68.358-33.954 128.792-85.912 165.353" style="stroke-width:15;stroke-linecap:round;stroke-linejoin:round;stroke-dasharray:12.1205,32.3213;" fill="none" stroke="#000000" stroke-width="15" stroke-linecap="round" stroke-linejoin="round" stroke-dasharray="12.1205,32.3213" data-original="#000000" class="" opacity="1"></path><path d="M358.541 383.647a202.38 202.38 0 0 1-5.211 2.973M158.67 386.62a202.38 202.38 0 0 1-5.211-2.973" style="stroke-width:15;stroke-linecap:round;stroke-linejoin:round;" fill="none" stroke="#000000" stroke-width="15" stroke-linecap="round" stroke-linejoin="round" data-original="#000000" class="" opacity="1"></path><path d="M127.051 365.068C82.405 328.007 53.97 272.087 53.97 209.53c0-104.104 78.735-189.814 179.906-200.833" style="stroke-width:15;stroke-linecap:round;stroke-linejoin:round;stroke-dasharray:12.1205,32.3213;" fill="none" stroke="#000000" stroke-width="15" stroke-linecap="round" stroke-linejoin="round" stroke-dasharray="12.1205,32.3213" data-original="#000000" class="" opacity="1"></path><path d="M250 7.587a206.25 206.25 0 0 1 6-.087" style="stroke-width:15;stroke-linecap:round;stroke-linejoin:round;" fill="none" stroke="#000000" stroke-width="15" stroke-linecap="round" stroke-linejoin="round" data-original="#000000" class="" opacity="1"></path><path d="M316.61 179.23h54.55c8.92 0 16.16 7.23 16.16 16.16v88.89c0 8.93-7.24 16.17-16.16 16.17h-119.2l-18.11 18.11a7.146 7.146 0 0 1-5.05 2.09c-3.95 0-7.15-3.2-7.15-7.14v-13.06h-10.1c-8.92 0-16.16-7.24-16.16-16.17v-44.44M286.305 148.923h-78.793M231.756 209.533h-76.772M175.187 148.923h-20.203M154.984 179.228h131.321" style="stroke-width:15;stroke-linecap:round;stroke-linejoin:round;stroke-miterlimit:10;" fill="none" stroke="#000000" stroke-width="15" stroke-linecap="round" stroke-linejoin="round" stroke-miterlimit="10" data-original="#000000" class="" opacity="1"></path><path d="M192.69 118.62h107.76c8.92 0 16.16 7.23 16.16 16.16v88.89c0 8.93-7.24 16.17-16.16 16.17h-10.1v13.06c0 3.94-3.2 7.14-7.15 7.14-1.89 0-3.71-.75-5.05-2.09l-18.11-18.11h-119.2c-8.92 0-16.16-7.24-16.16-16.17v-88.89c0-8.93 7.24-16.16 16.16-16.16h16.85" style="stroke-width:15;stroke-linecap:round;stroke-linejoin:round;stroke-miterlimit:10;" fill="none" stroke="#000000" stroke-width="15" stroke-linecap="round" stroke-linejoin="round" stroke-miterlimit="10" data-original="#000000" class="" opacity="1"></path><circle cx="193.875" cy="398.888" r="37.275" style="stroke-width:15;stroke-linecap:round;stroke-linejoin:round;stroke-miterlimit:10;" fill="none" stroke="#000000" stroke-width="15" stroke-linecap="round" stroke-linejoin="round" stroke-miterlimit="10" data-original="#000000" class="" opacity="1"></circle><path d="M131.75 504.5v-37.275c0-17.155 13.907-31.062 31.062-31.062h62.125c17.155 0 31.062 13.907 31.062 31.062V504.5H131.75z" style="stroke-width:15;stroke-linecap:round;stroke-linejoin:round;stroke-miterlimit:10;" fill="none" stroke="#000000" stroke-width="15" stroke-linecap="round" stroke-linejoin="round" stroke-miterlimit="10" data-original="#000000" class="" opacity="1"></path><circle cx="442.375" cy="398.888" r="37.275" style="stroke-width:15;stroke-linecap:round;stroke-linejoin:round;stroke-miterlimit:10;" fill="none" stroke="#000000" stroke-width="15" stroke-linecap="round" stroke-linejoin="round" stroke-miterlimit="10" data-original="#000000" class="" opacity="1"></circle><path d="M471.3 504.5h33.2v-37.27c0-17.16-13.91-31.07-31.06-31.07h-62.13c-17.15 0-31.06 13.91-31.06 31.07v37.27h56.05" style="stroke-width:15;stroke-linecap:round;stroke-linejoin:round;stroke-miterlimit:10;" fill="none" stroke="#000000" stroke-width="15" stroke-linecap="round" stroke-linejoin="round" stroke-miterlimit="10" data-original="#000000" class="" opacity="1"></path><circle cx="318.125" cy="398.888" r="37.275" style="stroke-width:15;stroke-linecap:round;stroke-linejoin:round;stroke-miterlimit:10;" fill="none" stroke="#000000" stroke-width="15" stroke-linecap="round" stroke-linejoin="round" stroke-miterlimit="10" data-original="#000000" class="" opacity="1"></circle><path d="M256 504.5v-37.275c0-17.155 13.907-31.062 31.062-31.062h62.125c17.155 0 31.062 13.907 31.062 31.062V504.5H256z" style="stroke-width:15;stroke-linecap:round;stroke-linejoin:round;stroke-miterlimit:10;" fill="none" stroke="#000000" stroke-width="15" stroke-linecap="round" stroke-linejoin="round" stroke-miterlimit="10" data-original="#000000" class="" opacity="1"></path><circle cx="69.625" cy="398.888" r="37.275" style="stroke-width:15;stroke-linecap:round;stroke-linejoin:round;stroke-miterlimit:10;" fill="none" stroke="#000000" stroke-width="15" stroke-linecap="round" stroke-linejoin="round" stroke-miterlimit="10" data-original="#000000" class="" opacity="1"></circle><path d="M81.06 504.5h50.69v-37.27c0-17.16-13.91-31.07-31.06-31.07H38.56c-17.15 0-31.06 13.91-31.06 31.07v37.27h38.56" style="stroke-width:15;stroke-linecap:round;stroke-linejoin:round;stroke-miterlimit:10;" fill="none" stroke="#000000" stroke-width="15" stroke-linecap="round" stroke-linejoin="round" stroke-miterlimit="10" data-original="#000000" class="" opacity="1"></path></g></svg>