<svg xmlns="http://www.w3.org/2000/svg" version="1.1" xmlns:xlink="http://www.w3.org/1999/xlink" width="512" height="512" x="0" y="0" viewBox="0 0 512 512" style="enable-background:new 0 0 512 512" xml:space="preserve" class=""><g><path d="M382 504.5H58c-8.837 0-16-7.163-16-16v-465c0-8.837 7.163-16 16-16h324c8.837 0 16 7.163 16 16v465c0 8.837-7.163 16-16 16z" style="" fill="#edeff0" data-original="#eaf6ff" class="" opacity="1"></path><path d="M382 7.5h-30c8.837 0 16 7.163 16 16v465c0 8.837-7.163 16-16 16h30c8.837 0 16-7.163 16-16v-465c0-8.837-7.163-16-16-16z" style="" fill="#edeff0" data-original="#d8ecfe" class="" opacity="1"></path><path d="M398 67.5H42v-44c0-8.837 7.163-16 16-16h324c8.837 0 16 7.163 16 16v44z" style="" fill="#63d9b6" data-original="#2abcc8" class="" opacity="1"></path><path d="M382 7.5h-30c8.837 0 16 7.163 16 16v44h30v-44c0-8.837-7.163-16-16-16z" style="" fill="#63d9b6" data-original="#0cacba" class="" opacity="1"></path><path d="M94.333 39.5c-8.284 0-15-6.716-15-15v-17h30v17c0 8.284-6.715 15-15 15z" style="" fill="#e38082" data-original="#fe7ab6" class="" opacity="1"></path><path d="M149.667 39.5c-8.284 0-15-6.716-15-15v-17h30v17c0 8.284-6.716 15-15 15z" style="" fill="#e09932" data-original="#fdb441" class="" opacity="1"></path><path d="M205 39.5c-8.284 0-15-6.716-15-15v-17h30v17c0 8.284-6.716 15-15 15z" style="" fill="#edf9d9" data-original="#edf9d9" class=""></path><path d="M487 170.62v220.401c0 10.106-8.262 18.299-18.454 18.299H268.502c-10.192 0-18.454-8.193-18.454-18.299v-85.173a3.775 3.775 0 0 0-1.689-3.142l-30.519-20.322a1.874 1.874 0 0 1 0-3.126l30.519-20.322a3.775 3.775 0 0 0 1.689-3.142V170.62c0-10.106 8.262-18.299 18.454-18.299h200.045c10.191 0 18.453 8.192 18.453 18.299z" style="" fill="#2470a9" data-original="#3692bc" class="" opacity="1"></path><path d="M468.546 152.321H438.53c10.192 0 18.454 8.193 18.454 18.299v220.401c0 10.106-8.262 18.299-18.454 18.299h30.017c10.192 0 18.454-8.193 18.454-18.299V170.62c-.001-10.107-8.263-18.299-18.455-18.299z" style="" fill="#2470a9" data-original="#0681af" class="" opacity="1"></path><path d="m364.605 228.58-69.093 105.771c-2.8 4.286.275 9.969 5.395 9.969h138.185c5.12 0 8.195-5.683 5.395-9.969L375.395 228.58c-2.543-3.893-8.247-3.893-10.79 0z" style="" fill="#e09932" data-original="#fdb441" class="" opacity="1"></path><path d="M181 461H31a6 6 0 0 1-6-6V327a6 6 0 0 1 6-6h150a6 6 0 0 1 6 6v128a6 6 0 0 1-6 6z" style="" fill="#e38082" data-original="#fe7ab6" class="" opacity="1"></path><path d="M181 321h-30a6 6 0 0 1 6 6v128a6 6 0 0 1-6 6h30a6 6 0 0 0 6-6V327a6 6 0 0 0-6-6z" style="" fill="#e38082" data-original="#fe5ca7" class="" opacity="1"></path><path d="M398 411.667V488.5c0 8.837-7.163 16-16 16H58c-8.837 0-16-7.163-16-16v-25.485M42 108.333V23.5c0-8.837 7.163-16 16-16h324c8.837 0 16 7.163 16 16v125.056M42 319V145.478M396.611 67.5H43.889" style="stroke-width:15;stroke-linecap:round;stroke-linejoin:round;stroke-miterlimit:10;" fill="none" stroke="#000000" stroke-width="15" stroke-linecap="round" stroke-linejoin="round" stroke-miterlimit="10" data-original="#000000" class=""></path><path d="M94.333 39.5h0c-8.284 0-15-6.716-15-15v-17h30v17c0 8.284-6.715 15-15 15zM149.667 39.5h0c-8.284 0-15-6.716-15-15v-17h30v17c0 8.284-6.716 15-15 15zM205 39.5h0c-8.284 0-15-6.716-15-15v-17h30v17c0 8.284-6.716 15-15 15zM417 409.321H268.502c-10.192 0-18.454-8.193-18.454-18.299v-85.173a3.775 3.775 0 0 0-1.689-3.142l-30.519-20.322a1.874 1.874 0 0 1 0-3.126l30.519-20.322a3.775 3.775 0 0 0 1.689-3.142V170.62c0-10.106 8.262-18.299 18.454-18.299h200.045c10.192 0 18.454 8.193 18.454 18.299v220.401c0 10.106-8.262 18.299-18.454 18.299h-16.435" style="stroke-width:15;stroke-linecap:round;stroke-linejoin:round;stroke-miterlimit:10;" fill="none" stroke="#000000" stroke-width="15" stroke-linecap="round" stroke-linejoin="round" stroke-miterlimit="10" data-original="#000000" class=""></path><path d="m364.605 228.58-69.093 105.771c-2.8 4.286.275 9.969 5.395 9.969h138.185c5.12 0 8.195-5.683 5.395-9.969L375.395 228.58c-2.543-3.893-8.247-3.893-10.79 0zM370 266.321v31.444M370 318.321v2.5M91.375 115.594h36.375M91.375 141.816h90M91.375 168.039H169M91.375 218.26h36.375M91.375 244.483h90M91.375 270.705H169M181 461H31a6 6 0 0 1-6-6V327a6 6 0 0 1 6-6h150a6 6 0 0 1 6 6v128a6 6 0 0 1-6 6zM134.051 361.341l-56.102 56.102M134.051 417.443l-56.102-56.102" style="stroke-width:15;stroke-linecap:round;stroke-linejoin:round;stroke-miterlimit:10;" fill="none" stroke="#000000" stroke-width="15" stroke-linecap="round" stroke-linejoin="round" stroke-miterlimit="10" data-original="#000000" class=""></path></g></svg>