<svg xmlns="http://www.w3.org/2000/svg" version="1.1" xmlns:xlink="http://www.w3.org/1999/xlink" width="512" height="512" x="0" y="0" viewBox="0 0 682.667 682.667" style="enable-background:new 0 0 512 512" xml:space="preserve" class=""><g><defs><clipPath id="a" clipPathUnits="userSpaceOnUse"><path d="M0 512h512V0H0Z" fill="#000000" opacity="1" data-original="#000000"></path></clipPath></defs><g clip-path="url(#a)" transform="matrix(1.33333 0 0 -1.33333 0 682.667)"><path d="M0 0h249.503v-22.5l139.096 131.249-139.096 131.249v-22.5H0c-8.241 0-13.698-6.858-15-15V15C-16.302 6.858-8.25 0 0 0" style="fill-opacity:1;fill-rule:evenodd;stroke:none" transform="translate(112.499 147.251)" fill="#63d9b6" data-original="#70e2bd" class="" opacity="1"></path><path d="M0 0h22.5c-8.25 0-16.302 6.858-15 15v187.498c1.302 8.142 6.759 15 15 15H0c-8.241 0-13.698-6.858-15-15V15C-16.302 6.858-8.25 0 0 0" style="fill-opacity:1;fill-rule:evenodd;stroke:none" transform="translate(112.499 147.251)" fill="#2470a9" data-original="#0bcc89" class="" opacity="1"></path><path d="M0 0h15m15 0h15" style="stroke-width:15;stroke-linecap:butt;stroke-linejoin:miter;stroke-miterlimit:2.613;stroke-dasharray:none;stroke-opacity:1" transform="translate(324.501 334.749)" fill="none" stroke="#edeff0" stroke-width="15" stroke-linecap="butt" stroke-linejoin="miter" stroke-miterlimit="2.613" stroke-dasharray="none" stroke-opacity="" data-original="#ffffff" class="" opacity="1"></path><path d="M0 0v-149.999c0-8.244 6.75-15 15-15h174.502m45 0h30v-22.5L403.599-56.25 264.502 74.999v-22.5H15c-8.241 0-15-6.756-15-15v-22.5m204.502-179.998h15" style="stroke-width:15;stroke-linecap:butt;stroke-linejoin:miter;stroke-miterlimit:22.926;stroke-dasharray:none;stroke-opacity:1" transform="translate(97.499 312.25)" fill="none" stroke="#000000" stroke-width="15" stroke-linecap="butt" stroke-linejoin="miter" stroke-miterlimit="22.926" stroke-dasharray="none" stroke-opacity="" data-original="#000000" class=""></path><path d="M0 0h60M22.5-45H60m-73 89.999h73" style="stroke-width:15;stroke-linecap:butt;stroke-linejoin:miter;stroke-miterlimit:2.613;stroke-dasharray:none;stroke-opacity:1" transform="translate(13 304.75)" fill="none" stroke="#000000" stroke-width="15" stroke-linecap="butt" stroke-linejoin="miter" stroke-miterlimit="2.613" stroke-dasharray="none" stroke-opacity="" data-original="#000000" class=""></path><path d="M0 0a36.574 36.574 0 0 1-20.541 6.274c-20.29 0-36.738-16.448-36.738-36.738 0-20.289 16.448-36.738 36.738-36.738s31.714 16.449 31.714 36.738h-21.98" style="stroke-width:15;stroke-linecap:square;stroke-linejoin:miter;stroke-miterlimit:10;stroke-dasharray:none;stroke-opacity:1" transform="translate(208.586 286.464)" fill="none" stroke="#000000" stroke-width="15" stroke-linecap="square" stroke-linejoin="miter" stroke-miterlimit="10" stroke-dasharray="none" stroke-opacity="" data-original="#000000" class=""></path><path d="M0 0c0-20.29-16.448-36.738-36.738-36.738S-73.476-20.29-73.476 0s16.448 36.738 36.738 36.738S0 20.29 0 0Z" style="stroke-width:15;stroke-linecap:round;stroke-linejoin:bevel;stroke-miterlimit:10;stroke-dasharray:none;stroke-opacity:1" transform="translate(323.235 256)" fill="none" stroke="#000000" stroke-width="15" stroke-linecap="round" stroke-linejoin="bevel" stroke-miterlimit="10" stroke-dasharray="none" stroke-opacity="" data-original="#000000" class=""></path><path d="M0 0v-45.591" style="stroke-width:15;stroke-linecap:square;stroke-linejoin:round;stroke-miterlimit:10;stroke-dasharray:none;stroke-opacity:1" transform="translate(353.996 292.738)" fill="none" stroke="#000000" stroke-width="15" stroke-linecap="square" stroke-linejoin="round" stroke-miterlimit="10" stroke-dasharray="none" stroke-opacity="" data-original="#000000" class=""></path><path d="M0 0v13.943" style="stroke-width:15;stroke-linecap:butt;stroke-linejoin:miter;stroke-miterlimit:2.613;stroke-dasharray:none;stroke-opacity:1" transform="translate(353.996 212.29)" fill="none" stroke="#000000" stroke-width="15" stroke-linecap="butt" stroke-linejoin="miter" stroke-miterlimit="2.613" stroke-dasharray="none" stroke-opacity="" data-original="#000000" class=""></path></g></g></svg>