<svg xmlns="http://www.w3.org/2000/svg" version="1.1" xmlns:xlink="http://www.w3.org/1999/xlink" width="512" height="512" x="0" y="0" viewBox="0 0 682.667 682.667" style="enable-background:new 0 0 512 512" xml:space="preserve" class=""><g><defs><clipPath id="a" clipPathUnits="userSpaceOnUse"><path d="M0 512h512V0H0Z" fill="#000000" opacity="1" data-original="#000000" class=""></path></clipPath></defs><g clip-path="url(#a)" transform="matrix(1.33333 0 0 -1.33333 0 682.667)"><path d="M0 0v167.773h-31.629V0h-174.55a5.025 5.025 0 0 1-5.025-5.025v-21.579a5.025 5.025 0 0 1 5.025-5.025H174.55a5.025 5.025 0 0 1 5.025 5.025v21.579A5.025 5.025 0 0 1 174.55 0z" style="fill-opacity:1;fill-rule:nonzero;stroke:none" transform="translate(232.008 47.34)" fill="#97a2a6" data-original="#d8eafb" class="" opacity="1"></path><path d="M381.131 195.431H53.916V439.29h327.215z" style="fill-opacity:1;fill-rule:nonzero;stroke:none" fill="#97a2a6" data-original="#6ea8c8" class="" opacity="1"></path><path d="M0 0h-350.311c-11.174 0-20.234 9.059-20.234 20.234v62.181c0 11.175 9.06 20.234 20.234 20.234H0c11.175 0 20.234-9.059 20.234-20.234V20.234C20.234 9.059 11.175 0 0 0" style="fill-opacity:1;fill-rule:nonzero;stroke:none" transform="translate(391.349 401.851)" fill="#0e80ac" data-original="#0e80ac" class=""></path><path d="M0 0h-350.311c-11.174 0-20.234 9.06-20.234 20.234v62.181c0 11.175 9.06 20.234 20.234 20.234H0c11.175 0 20.234-9.059 20.234-20.234V20.234C20.234 9.06 11.175 0 0 0" style="fill-opacity:1;fill-rule:nonzero;stroke:none" transform="translate(391.349 266.036)" fill="#63d9b6" data-original="#3590bb" class="" opacity="1"></path><path d="M0 0h-38.012c11.176 0 20.235-9.059 20.235-20.234v-62.181c0-11.175-9.059-20.234-20.235-20.234H0c11.175 0 20.234 9.059 20.234 20.234v62.181C20.234-9.059 11.175 0 0 0" style="fill-opacity:1;fill-rule:nonzero;stroke:none" transform="translate(391.349 504.5)" fill="#2470a9" data-original="#057195" class="" opacity="1"></path><path d="M0 0h-350.311c-11.174 0-20.234 9.059-20.234 20.234v62.181c0 11.174 9.06 20.234 20.234 20.234H0c11.175 0 20.234-9.06 20.234-20.234V20.234C20.234 9.059 11.175 0 0 0" style="fill-opacity:1;fill-rule:nonzero;stroke:none" transform="translate(391.349 130.222)" fill="#0e80ac" data-original="#0e80ac" class=""></path><path d="M0 0h184.003" style="stroke-width:15;stroke-linecap:round;stroke-linejoin:round;stroke-miterlimit:10;stroke-dasharray:none;stroke-opacity:1" transform="translate(53.916 469.403)" fill="none" stroke="#000000" stroke-width="15" stroke-linecap="round" stroke-linejoin="round" stroke-miterlimit="10" stroke-dasharray="none" stroke-opacity="" data-original="#000000" class=""></path><path d="M0 0h-184.003" style="stroke-width:15;stroke-linecap:round;stroke-linejoin:round;stroke-miterlimit:10;stroke-dasharray:none;stroke-opacity:1" transform="translate(237.919 436.948)" fill="none" stroke="#000000" stroke-width="15" stroke-linecap="round" stroke-linejoin="round" stroke-miterlimit="10" stroke-dasharray="none" stroke-opacity="" data-original="#000000" class=""></path><path d="M0 0h184.003" style="stroke-width:15;stroke-linecap:round;stroke-linejoin:round;stroke-miterlimit:10;stroke-dasharray:none;stroke-opacity:1" transform="translate(53.916 333.144)" fill="none" stroke="#000000" stroke-width="15" stroke-linecap="round" stroke-linejoin="round" stroke-miterlimit="10" stroke-dasharray="none" stroke-opacity="" data-original="#000000" class=""></path><path d="M0 0h-184.003" style="stroke-width:15;stroke-linecap:round;stroke-linejoin:round;stroke-miterlimit:10;stroke-dasharray:none;stroke-opacity:1" transform="translate(237.919 300.688)" fill="none" stroke="#000000" stroke-width="15" stroke-linecap="round" stroke-linejoin="round" stroke-miterlimit="10" stroke-dasharray="none" stroke-opacity="" data-original="#000000" class=""></path><path d="M0 0h184.003" style="stroke-width:15;stroke-linecap:round;stroke-linejoin:round;stroke-miterlimit:10;stroke-dasharray:none;stroke-opacity:1" transform="translate(53.916 196.885)" fill="none" stroke="#000000" stroke-width="15" stroke-linecap="round" stroke-linejoin="round" stroke-miterlimit="10" stroke-dasharray="none" stroke-opacity="" data-original="#000000" class=""></path><path d="M0 0h-184.003" style="stroke-width:15;stroke-linecap:round;stroke-linejoin:round;stroke-miterlimit:10;stroke-dasharray:none;stroke-opacity:1" transform="translate(237.919 164.43)" fill="none" stroke="#000000" stroke-width="15" stroke-linecap="round" stroke-linejoin="round" stroke-miterlimit="10" stroke-dasharray="none" stroke-opacity="" data-original="#000000" class=""></path><path d="M0 0v36.566a5.742 5.742 0 0 0 5.742 5.743h28.396v17.904a5.742 5.742 0 0 0 5.743 5.742h36.566a5.742 5.742 0 0 0 5.742-5.742V42.309h27.485a5.742 5.742 0 0 0 5.742-5.743V0a5.742 5.742 0 0 0-5.742-5.743H5.742A5.742 5.742 0 0 0 0 0" style="fill-opacity:1;fill-rule:nonzero;stroke:none" transform="translate(158.03 13.243)" fill="#63d9b6" data-original="#b3d8fb" class="" opacity="1"></path><path d="M0 0c-12.691 0-23.018 10.326-23.018 23.017 0 12.692 10.327 23.018 23.018 23.018 12.692 0 23.018-10.326 23.018-23.018C23.018 10.326 12.692 0 0 0" style="fill-opacity:1;fill-rule:nonzero;stroke:none" transform="translate(350.64 430.158)" fill="#69d8e4" data-original="#69d8e4" class=""></path><path d="m0 0-37.648 16.732a5.518 5.518 0 0 1-4.485 0L-79.781 0c-3.651-1.623-7.763 1.05-7.763 5.044v121.328H7.763V5.044C7.763 1.05 3.65-1.623 0 0" style="fill-opacity:1;fill-rule:nonzero;stroke:none" transform="translate(425.38 88.741)" fill="#fce25c" data-original="#fce25c" class=""></path><path d="M0 0v-51.797" style="fill-opacity:1;fill-rule:nonzero;stroke:#000000;stroke-width:15;stroke-linecap:round;stroke-linejoin:round;stroke-miterlimit:10;stroke-dasharray:none;stroke-opacity:1" transform="translate(385.49 157.271)" data-original="#000000"></path><path d="M0 0c0 58.38-47.327 105.707-105.707 105.707-58.381 0-105.707-47.327-105.707-105.707 0-58.38 47.326-105.707 105.707-105.707C-47.327-105.707 0-58.38 0 0" style="fill-opacity:1;fill-rule:nonzero;stroke:none" transform="translate(491.196 262.978)" fill="#e09932" data-original="#fd7e42" class="" opacity="1"></path><path d="M0 0c-6.488 0-12.84-.588-19.006-1.707 49.31-8.953 86.701-52.108 86.701-104s-37.391-95.047-86.701-104A106.372 106.372 0 0 1 0-211.414c58.381 0 105.707 47.327 105.707 105.707C105.707-47.327 58.381 0 0 0" style="fill-opacity:1;fill-rule:nonzero;stroke:none" transform="translate(385.49 368.685)" fill="#e09932" data-original="#fa6931" class="" opacity="1"></path><path d="m0 0 9.038-26.433a6.912 6.912 0 0 1 6.437-4.676l27.931-.427c6.591-.101 9.317-8.49 4.044-12.445L25.104-60.744a6.915 6.915 0 0 1-2.459-7.567l8.225-26.697c1.942-6.299-5.195-11.483-10.586-7.691L-2.563-86.626a6.92 6.92 0 0 1-7.958 0l-22.847-16.073c-5.392-3.792-12.528 1.392-10.587 7.691l8.226 26.697a6.915 6.915 0 0 1-2.459 7.567l-22.346 16.763c-5.273 3.955-2.547 12.344 4.043 12.445l27.932.427a6.913 6.913 0 0 1 6.437 4.676L-13.085 0C-10.952 6.237-2.132 6.237 0 0" style="fill-opacity:1;fill-rule:nonzero;stroke:none" transform="translate(392.031 311.886)" fill="#97a2a6" data-original="#d8eafb" class="" opacity="1"></path><path d="M0 0v13.554c0 11.175 9.06 20.234 20.234 20.234h350.311c11.175 0 20.234-9.059 20.234-20.234v-62.18c0-11.176-9.059-20.235-20.234-20.235H20.234C9.06-68.861 0-59.802 0-48.626v13.553" style="stroke-width:15;stroke-linecap:round;stroke-linejoin:round;stroke-miterlimit:10;stroke-dasharray:none;stroke-opacity:1" transform="translate(20.804 470.712)" fill="none" stroke="#000000" stroke-width="15" stroke-linecap="round" stroke-linejoin="round" stroke-miterlimit="10" stroke-dasharray="none" stroke-opacity="" data-original="#000000" class=""></path><path d="M0 0c-12.691 0-23.018 10.326-23.018 23.017 0 12.692 10.327 23.018 23.018 23.018 12.692 0 23.018-10.326 23.018-23.018C23.018 10.326 12.692 0 0 0Z" style="stroke-width:15;stroke-linecap:round;stroke-linejoin:round;stroke-miterlimit:10;stroke-dasharray:none;stroke-opacity:1" transform="translate(350.64 430.158)" fill="none" stroke="#000000" stroke-width="15" stroke-linecap="round" stroke-linejoin="round" stroke-miterlimit="10" stroke-dasharray="none" stroke-opacity="" data-original="#000000" class=""></path><path d="M0 0h-344.451c-11.175 0-20.235-9.059-20.235-20.234v-62.181c0-11.174 9.06-20.234 20.235-20.234h238.791" style="stroke-width:15;stroke-linecap:round;stroke-linejoin:round;stroke-miterlimit:10;stroke-dasharray:none;stroke-opacity:1" transform="translate(385.49 368.685)" fill="none" stroke="#000000" stroke-width="15" stroke-linecap="round" stroke-linejoin="round" stroke-miterlimit="10" stroke-dasharray="none" stroke-opacity="" data-original="#000000" class=""></path><path d="M0 0h-243.101c-11.174 0-20.234-9.06-20.234-20.234v-62.181c0-11.175 9.06-20.234 20.234-20.234H53.697" style="stroke-width:15;stroke-linecap:round;stroke-linejoin:round;stroke-miterlimit:10;stroke-dasharray:none;stroke-opacity:1" transform="translate(284.139 232.87)" fill="none" stroke="#000000" stroke-width="15" stroke-linecap="round" stroke-linejoin="round" stroke-miterlimit="10" stroke-dasharray="none" stroke-opacity="" data-original="#000000" class=""></path><path d="M0 0c6.116 13.374 9.524 28.245 9.524 43.912 0 58.38-47.327 105.707-105.707 105.707-58.38 0-105.707-47.327-105.707-105.707 0-58.38 47.327-105.707 105.707-105.707 29.825 0 56.764 12.351 75.983 32.218" style="stroke-width:15;stroke-linecap:round;stroke-linejoin:round;stroke-miterlimit:10;stroke-dasharray:none;stroke-opacity:1" transform="translate(481.672 219.066)" fill="none" stroke="#000000" stroke-width="15" stroke-linecap="round" stroke-linejoin="round" stroke-miterlimit="10" stroke-dasharray="none" stroke-opacity="" data-original="#000000" class=""></path><path d="m0 0 9.038-26.433a6.912 6.912 0 0 1 6.437-4.676l27.931-.427c6.591-.101 9.317-8.49 4.044-12.445L25.104-60.744a6.915 6.915 0 0 1-2.459-7.567l8.225-26.697c1.942-6.299-5.195-11.483-10.586-7.691L-2.563-86.626a6.92 6.92 0 0 1-7.958 0l-22.847-16.073c-5.392-3.792-12.528 1.392-10.587 7.691l8.226 26.697a6.915 6.915 0 0 1-2.459 7.567l-22.346 16.763c-5.273 3.955-2.547 12.344 4.043 12.445l27.932.427a6.913 6.913 0 0 1 6.437 4.676L-13.085 0C-10.952 6.237-2.132 6.237 0 0Z" style="stroke-width:15;stroke-linecap:round;stroke-linejoin:round;stroke-miterlimit:10;stroke-dasharray:none;stroke-opacity:1" transform="translate(392.031 311.886)" fill="none" stroke="#000000" stroke-width="15" stroke-linecap="round" stroke-linejoin="round" stroke-miterlimit="10" stroke-dasharray="none" stroke-opacity="" data-original="#000000" class=""></path><path d="M0 0v-74.815c0-3.996 4.112-6.668 7.763-5.045l37.648 16.732a5.526 5.526 0 0 0 4.485 0L87.544-79.86c3.65-1.623 7.763 1.049 7.763 5.045V0" style="stroke-width:15;stroke-linecap:round;stroke-linejoin:round;stroke-miterlimit:10;stroke-dasharray:none;stroke-opacity:1" transform="translate(337.836 168.602)" fill="none" stroke="#000000" stroke-width="15" stroke-linecap="round" stroke-linejoin="round" stroke-miterlimit="10" stroke-dasharray="none" stroke-opacity="" data-original="#000000" class=""></path><path d="M0 0v-33.166" style="stroke-width:15;stroke-linecap:round;stroke-linejoin:round;stroke-miterlimit:10;stroke-dasharray:none;stroke-opacity:1" transform="translate(53.916 266.036)" fill="none" stroke="#000000" stroke-width="15" stroke-linecap="round" stroke-linejoin="round" stroke-miterlimit="10" stroke-dasharray="none" stroke-opacity="" data-original="#000000" class=""></path><path d="M0 0v33.166" style="stroke-width:15;stroke-linecap:round;stroke-linejoin:round;stroke-miterlimit:10;stroke-dasharray:none;stroke-opacity:1" transform="translate(381.13 368.685)" fill="none" stroke="#000000" stroke-width="15" stroke-linecap="round" stroke-linejoin="round" stroke-miterlimit="10" stroke-dasharray="none" stroke-opacity="" data-original="#000000" class=""></path><path d="M0 0v-33.166" style="stroke-width:15;stroke-linecap:round;stroke-linejoin:round;stroke-miterlimit:10;stroke-dasharray:none;stroke-opacity:1" transform="translate(53.916 401.851)" fill="none" stroke="#000000" stroke-width="15" stroke-linecap="round" stroke-linejoin="round" stroke-miterlimit="10" stroke-dasharray="none" stroke-opacity="" data-original="#000000" class=""></path><path d="M0 0v36.566a5.742 5.742 0 0 0 5.742 5.743h28.396v17.904a5.742 5.742 0 0 0 5.743 5.742h36.566a5.742 5.742 0 0 0 5.742-5.742V42.309h27.485a5.742 5.742 0 0 0 5.742-5.743V0a5.742 5.742 0 0 0-5.742-5.743H5.742A5.742 5.742 0 0 0 0 0Z" style="stroke-width:15;stroke-linecap:round;stroke-linejoin:round;stroke-miterlimit:10;stroke-dasharray:none;stroke-opacity:1" transform="translate(158.03 13.243)" fill="none" stroke="#000000" stroke-width="15" stroke-linecap="round" stroke-linejoin="round" stroke-miterlimit="10" stroke-dasharray="none" stroke-opacity="" data-original="#000000" class=""></path><path d="M0 0h-132.199a5.026 5.026 0 0 1-5.026-5.025v-21.579a5.026 5.026 0 0 1 5.026-5.025H0" style="stroke-width:15;stroke-linecap:round;stroke-linejoin:round;stroke-miterlimit:10;stroke-dasharray:none;stroke-opacity:1" transform="translate(158.028 47.34)" fill="none" stroke="#000000" stroke-width="15" stroke-linecap="round" stroke-linejoin="round" stroke-miterlimit="10" stroke-dasharray="none" stroke-opacity="" data-original="#000000" class=""></path><path d="M0 0v-51.024" style="stroke-width:15;stroke-linecap:round;stroke-linejoin:round;stroke-miterlimit:10;stroke-dasharray:none;stroke-opacity:1" transform="translate(200.379 130.222)" fill="none" stroke="#000000" stroke-width="15" stroke-linecap="round" stroke-linejoin="round" stroke-miterlimit="10" stroke-dasharray="none" stroke-opacity="" data-original="#000000" class=""></path><path d="M0 0v51.024" style="stroke-width:15;stroke-linecap:round;stroke-linejoin:round;stroke-miterlimit:10;stroke-dasharray:none;stroke-opacity:1" transform="translate(232.008 79.198)" fill="none" stroke="#000000" stroke-width="15" stroke-linecap="round" stroke-linejoin="round" stroke-miterlimit="10" stroke-dasharray="none" stroke-opacity="" data-original="#000000" class=""></path><path d="M0 0h133.112a5.026 5.026 0 0 1 5.026 5.025v21.579a5.026 5.026 0 0 1-5.026 5.025H0" style="stroke-width:15;stroke-linecap:round;stroke-linejoin:round;stroke-miterlimit:10;stroke-dasharray:none;stroke-opacity:1" transform="translate(273.445 15.711)" fill="none" stroke="#000000" stroke-width="15" stroke-linecap="round" stroke-linejoin="round" stroke-miterlimit="10" stroke-dasharray="none" stroke-opacity="" data-original="#000000" class=""></path></g></g></svg>