<svg xmlns="http://www.w3.org/2000/svg" version="1.1" xmlns:xlink="http://www.w3.org/1999/xlink" width="512" height="512" x="0" y="0" viewBox="0 0 512 512" style="enable-background:new 0 0 512 512" xml:space="preserve" class=""><g><path d="M126.802 74.487h340.246v197.946H126.802z" style="" fill="#edeff0" data-original="#f2fbff" class="" opacity="1"></path><path d="M425 74.487h42.047v197.947H425z" style="" fill="#edeff0" data-original="#dff6fd" class="" opacity="1"></path><path d="M126.802 74.487h340.246v197.946H126.802z" style="stroke-width:15;stroke-linecap:round;stroke-linejoin:round;stroke-miterlimit:10;" fill="none" stroke="#000000" stroke-width="15" stroke-linecap="round" stroke-linejoin="round" stroke-miterlimit="10" data-original="#000000" class=""></path><path d="M452.047 33.293H141.802c-8.284 0-15 6.716-15 15V75.62h340.246V48.293c-.001-8.284-6.716-15-15.001-15z" style="" fill="#2470a9" data-original="#26a6fe" class="" opacity="1"></path><path d="M452.047 33.293H410c8.284 0 15 6.716 15 15V75.62h42.047V48.293c0-8.284-6.715-15-15-15z" style="" fill="#2470a9" data-original="#0593fc" class="" opacity="1"></path><path d="M181 33.293h-39.198c-8.284 0-15 6.716-15 15V75.62h340.246V48.293c0-8.284-6.716-15-15-15H216" style="stroke-width:15;stroke-linecap:round;stroke-linejoin:round;stroke-miterlimit:10;" fill="none" stroke="#000000" stroke-width="15" stroke-linecap="round" stroke-linejoin="round" stroke-miterlimit="10" data-original="#000000" class=""></path><path d="M489.5 478.707H343.592c-8.284 0-15-6.716-15-15V280.76H504.5v182.946c0 8.285-6.716 15.001-15 15.001z" style="" fill="#edeff0" data-original="#f2fbff" class="" opacity="1"></path><path d="M462 280.76v182.946c0 8.284-6.716 15-15 15h42.5c8.284 0 15-6.716 15-15V280.76H462z" style="" fill="#edeff0" data-original="#dff6fd" class="" opacity="1"></path><path d="M489.5 478.707H343.592c-8.284 0-15-6.716-15-15V280.76H504.5v182.946c0 8.285-6.716 15.001-15 15.001z" style="stroke-width:15;stroke-linecap:round;stroke-linejoin:round;stroke-miterlimit:10;" fill="none" stroke="#000000" stroke-width="15" stroke-linecap="round" stroke-linejoin="round" stroke-miterlimit="10" data-original="#000000" class=""></path><path d="M489.5 239.566H343.592c-8.284 0-15 6.716-15 15v27.327H504.5v-27.327c0-8.284-6.716-15-15-15z" style="" fill="#63d9b6" data-original="#fe646f" class="" opacity="1"></path><path d="M489.5 239.566H447c8.284 0 15 6.716 15 15v27.327h42.5v-27.327c0-8.284-6.716-15-15-15z" style="" fill="#63d9b6" data-original="#fd4755" class="" opacity="1"></path><path d="M363 239.566h-19.407c-8.284 0-15 6.716-15 15v27.327H504.5v-27.327c0-8.284-6.716-15-15-15H398" style="stroke-width:15;stroke-linecap:round;stroke-linejoin:round;stroke-miterlimit:10;" fill="none" stroke="#000000" stroke-width="15" stroke-linecap="round" stroke-linejoin="round" stroke-miterlimit="10" data-original="#000000" class=""></path><path d="M78.413 206.698c39.164 0 70.913 31.749 70.913 70.913v52.884h-36.057v-52.19c0-19.501-15.958-35.876-35.457-35.545-18.943.322-34.254 15.832-34.254 34.85v47.884a5 5 0 0 1-5 5H12.5a5 5 0 0 1-5-5V277.61c0-39.163 31.749-70.912 70.913-70.912z" style="" fill="#c5d3dd" data-original="#c5d3dd" class=""></path><path d="M78.413 206.698c-2.793 0-5.542.179-8.25.493 35.275 4.09 62.663 34.048 62.663 70.419v52.885h16.5V277.61c0-39.163-31.749-70.912-70.913-70.912zM61.312 242.761c-18.943.322-34.254 15.832-34.254 34.85v47.884a5 5 0 0 1-5 5h16.5a5 5 0 0 0 5-5v-47.884c0-16.355 11.327-30.105 26.545-33.843a33.74 33.74 0 0 0-8.791-1.007z" style="" fill="#b6c4cf" data-original="#b6c4cf" class=""></path><path d="M78.413 206.698h0c39.164 0 70.913 31.749 70.913 70.913v52.884h-36.057v-52.19c0-19.501-15.958-35.876-35.457-35.545-18.943.322-34.254 15.832-34.254 34.85v47.884a5 5 0 0 1-5 5H12.5a5 5 0 0 1-5-5V277.61c0-39.163 31.749-70.912 70.913-70.912z" style="stroke-width:15;stroke-linecap:round;stroke-linejoin:round;stroke-miterlimit:10;" fill="none" stroke="#000000" stroke-width="15" stroke-linecap="round" stroke-linejoin="round" stroke-miterlimit="10" data-original="#000000" class=""></path><path d="M267.726 478.707H105.104c-5.523 0-10-4.477-10-10V338.083c0-5.523 4.477-10 10-10h162.622c5.523 0 10 4.477 10 10v130.623c0 5.523-4.477 10.001-10 10.001z" style="" fill="#e09932" data-original="#ffe177" class="" opacity="1"></path><path d="M267.726 328.083h-42.104c5.523 0 10 4.477 10 10v130.623c0 5.523-4.477 10-10 10h42.104c5.523 0 10-4.477 10-10V338.083c0-5.523-4.477-10-10-10z" style="" fill="#e09932" data-original="#ffd15b" class="" opacity="1"></path><path d="M95.104 426v42.707c0 5.523 4.477 10 10 10h162.622c5.523 0 10-4.477 10-10V338.083c0-5.523-4.477-10-10-10H105.104c-5.523 0-10 4.477-10 10V391" style="stroke-width:15;stroke-linecap:round;stroke-linejoin:round;stroke-miterlimit:10;" fill="none" stroke="#000000" stroke-width="15" stroke-linecap="round" stroke-linejoin="round" stroke-miterlimit="10" data-original="#000000" class=""></path><circle cx="186.415" cy="386.129" r="18.545" style="" fill="#596c76" data-original="#596c76" class=""></circle><circle cx="186.415" cy="386.129" r="18.545" style="stroke-width:15;stroke-linecap:round;stroke-linejoin:round;stroke-miterlimit:10;" fill="none" stroke="#000000" stroke-width="15" stroke-linecap="round" stroke-linejoin="round" stroke-miterlimit="10" data-original="#000000" class=""></circle><path d="M186.415 404.674v26.857" style="stroke:#000000;stroke-width:15;stroke-linecap:round;stroke-linejoin:round;stroke-miterlimit:10;" data-original="#000000"></path><path d="m217.608 113.881-53.869 93.304c-4.454 7.714 1.113 17.357 10.021 17.357h107.738c8.908 0 14.475-9.643 10.021-17.357l-53.869-93.304c-4.454-7.714-15.588-7.714-20.042 0z" style="" fill="#e09932" data-original="#ffe177" class="" opacity="1"></path><path d="m291.519 207.185-53.869-93.304c-4.454-7.714-15.588-7.714-20.042 0l-6.565 11.371 47.304 81.933c4.454 7.714-1.113 17.357-10.021 17.357h33.172c8.908 0 14.475-9.643 10.021-17.357z" style="" fill="#e09932" data-original="#ffd15b" class="" opacity="1"></path><path d="m217.608 113.881-53.869 93.304c-4.454 7.714 1.113 17.357 10.021 17.357h107.738c8.908 0 14.475-9.643 10.021-17.357l-53.869-93.304c-4.454-7.714-15.588-7.714-20.042 0zM227.629 146.809v29.375M227.629 197.632v3.189M308.14 117.456h123.537M360.275 148.477h71.402M308.14 148.477h24.934M415.49 179.498h16.187M308.14 179.498h75.936M366.075 323.939h100.943M366.075 357.394h100.943M366.075 390.85h100.943M366.075 424.305h100.943" style="stroke-width:15;stroke-linecap:round;stroke-linejoin:round;stroke-miterlimit:10;" fill="none" stroke="#000000" stroke-width="15" stroke-linecap="round" stroke-linejoin="round" stroke-miterlimit="10" data-original="#000000" class=""></path></g></svg>