<svg xmlns="http://www.w3.org/2000/svg" version="1.1" xmlns:xlink="http://www.w3.org/1999/xlink" width="512" height="512" x="0" y="0" viewBox="0 0 512 512" style="enable-background:new 0 0 512 512" xml:space="preserve" class=""><g><path d="M485.299 400.443H26.701c-10.604 0-19.201-8.597-19.201-19.201V121.638c0-10.604 8.597-19.201 19.201-19.201h458.598c10.604 0 19.201 8.597 19.201 19.201v259.604c0 10.605-8.597 19.201-19.201 19.201z" style="" fill="#97a2a6" data-original="#f5f8f9" class="" opacity="1"></path><path d="M485.299 102.437h-45.042c10.604 0 19.201 8.597 19.201 19.201v259.604c0 10.604-8.597 19.201-19.201 19.201h45.042c10.604 0 19.201-8.597 19.201-19.201V121.638c0-10.604-8.597-19.201-19.201-19.201z" style="" fill="#97a2a6" data-original="#e8edf2" class="" opacity="1"></path><path d="M146.978 16.96h218.045v443H146.978z" style="" transform="rotate(90 256 238.46)" fill="#2470a9" data-original="#fe99a0" class="" opacity="1"></path><path d="M459.458 129.437H477.5v218.045h-18.042z" style="" fill="#e38082" data-original="#fd8087" class="" opacity="1"></path><path d="M205.366 400.443h101.268l18.789 94.102H186.577z" style="" fill="#97a2a6" data-original="#e8edf2" class="" opacity="1"></path><path d="M306.634 400.443h-30.029l18.789 94.102h30.029z" style="" fill="#97a2a6" data-original="#d9e7ec" class="" opacity="1"></path><path d="M487.314 176.982H355.459l-26.123 38.878c-3.803 5.66-12.637 2.968-12.637-3.851V34.642c0-9.492 7.695-17.186 17.186-17.186h153.429c9.492 0 17.186 7.695 17.186 17.186v125.154c0 9.492-7.695 17.186-17.186 17.186z" style="" fill="#e38082" data-original="#fd8087" class="" opacity="1"></path><path d="M504.5 34.64V159.8c0 9.49-7.69 17.18-17.19 17.18h-30c9.49 0 17.18-7.69 17.18-17.18V34.64c0-9.49-7.69-17.18-17.18-17.18h30c9.5 0 17.19 7.69 17.19 17.18z" style="" fill="#e38082" data-original="#fe646f" class="" opacity="1"></path><path d="M440.982 148.38h-53.819c-5.33 0-9.651-4.321-9.651-9.651V99.168c0-5.33 4.321-9.651 9.651-9.651h53.819c5.33 0 9.651 4.321 9.651 9.651v39.561c-.001 5.33-4.322 9.651-9.651 9.651z" style="" fill="#e09932" data-original="#fff0ad" class="" opacity="1"></path><path d="m299.133 268.566 11.509-14.167a26.805 26.805 0 0 0 6-16.903v-16.855a33.696 33.696 0 0 0-10.621-24.554l-32.637-30.668c-9.771-9.182-24.998-9.182-34.77 0l-32.637 30.668a33.693 33.693 0 0 0-10.621 24.554v16.855a26.813 26.813 0 0 0 6 16.903l11.509 14.167-36.62 26.094a37.725 37.725 0 0 0-15.833 30.724v22.097h191.172v-22.097a37.727 37.727 0 0 0-15.833-30.724l-36.618-26.094z" style="" fill="#23303d" data-original="#678d98" class="" opacity="1"></path><path d="M256 262.115c-15.495 0-28.056-12.561-28.056-28.056v-15.132h56.111v15.132c.001 15.495-12.56 28.056-28.055 28.056z" style="" fill="#ffcebf" data-original="#ffcebf" class=""></path><path d="M154.303 259.181H23.92c-13.121 0-20.924-14.649-13.603-25.538l65.192-96.96c6.496-9.661 20.71-9.661 27.206 0l65.192 96.96c7.321 10.888-.482 25.538-13.604 25.538z" style="" fill="#e09932" data-original="#ffd15b" class="" opacity="1"></path><path d="m167.906 233.643-65.192-96.96c-6.496-9.661-20.71-9.661-27.206 0l-1.401 2.084 63.791 94.876c7.321 10.889-.482 25.538-13.603 25.538h30.008c13.122 0 20.925-14.65 13.603-25.538z" style="" fill="#e09932" data-original="#ffc344" class="" opacity="1"></path><path d="M504.5 121.64v259.6c0 10.61-8.6 19.2-19.2 19.2H26.7c-10.6 0-19.2-8.59-19.2-19.2v-259.6c0-10.61 8.6-19.2 19.2-19.2h254.881" style="stroke-width:15;stroke-linecap:round;stroke-linejoin:round;stroke-miterlimit:10;" fill="none" stroke="#000000" stroke-width="15" stroke-linecap="round" stroke-linejoin="round" stroke-miterlimit="10" data-original="#000000" class=""></path><path d="M351.586 347.48H34.5v-88.3M477.5 176.98v170.5h-90.838M34.5 197.68v-68.24h282.2M241.394 373.443h29.212M205.366 400.443h101.268l18.789 94.102H186.577zM361.1 494.545H150.9" style="stroke-width:15;stroke-linecap:round;stroke-linejoin:round;stroke-miterlimit:10;" fill="none" stroke="#000000" stroke-width="15" stroke-linecap="round" stroke-linejoin="round" stroke-miterlimit="10" data-original="#000000" class=""></path><path d="M487.314 176.982H355.459l-26.123 38.878c-3.803 5.66-12.637 2.968-12.637-3.851V34.642c0-9.492 7.695-17.186 17.186-17.186h153.429c9.492 0 17.186 7.695 17.186 17.186v125.154c0 9.492-7.695 17.186-17.186 17.186z" style="stroke-width:15;stroke-linecap:round;stroke-linejoin:round;stroke-miterlimit:10;" fill="none" stroke="#000000" stroke-width="15" stroke-linecap="round" stroke-linejoin="round" stroke-miterlimit="10" data-original="#000000" class=""></path><path d="M440.982 148.38h-53.819c-5.33 0-9.651-4.321-9.651-9.651V99.168c0-5.33 4.321-9.651 9.651-9.651h53.819c5.33 0 9.651 4.321 9.651 9.651v39.561c-.001 5.33-4.322 9.651-9.651 9.651zM437.509 89.517V69.08c0-12.944-10.493-23.437-23.437-23.437h0c-8.757 0-16.392 4.803-20.415 11.918M413.4 118.948h0M299.133 268.566l11.509-14.167a26.805 26.805 0 0 0 6-16.903v-16.855a33.696 33.696 0 0 0-10.621-24.554l-32.637-30.668c-9.771-9.182-24.998-9.182-34.77 0l-32.637 30.668a33.693 33.693 0 0 0-10.621 24.554v16.855a26.813 26.813 0 0 0 6 16.903l11.509 14.167-36.62 26.094a37.725 37.725 0 0 0-15.833 30.724v22.097h191.172v-22.097a37.727 37.727 0 0 0-15.833-30.724l-36.618-26.094z" style="stroke-width:15;stroke-linecap:round;stroke-linejoin:round;stroke-miterlimit:10;" fill="none" stroke="#000000" stroke-width="15" stroke-linecap="round" stroke-linejoin="round" stroke-miterlimit="10" data-original="#000000" class=""></path><path d="M256 262.115h0c-15.495 0-28.056-12.561-28.056-28.056v-15.132h56.111v15.132c.001 15.495-12.56 28.056-28.055 28.056zM195.357 237.496l32.587-18.568M284.056 218.928l32.587 18.568M212.867 268.566l31.993 29.71c6.281 5.833 15.999 5.833 22.281 0l31.993-29.71M154.303 259.181H23.92c-13.121 0-20.924-14.649-13.603-25.538l65.192-96.96c6.496-9.661 20.71-9.661 27.206 0l65.192 96.96c7.321 10.888-.482 25.538-13.604 25.538zM89.111 174.864V208M89.111 233.215h0" style="stroke-width:15;stroke-linecap:round;stroke-linejoin:round;stroke-miterlimit:10;" fill="none" stroke="#000000" stroke-width="15" stroke-linecap="round" stroke-linejoin="round" stroke-miterlimit="10" data-original="#000000" class=""></path></g></svg>