<svg xmlns="http://www.w3.org/2000/svg" version="1.1" xmlns:xlink="http://www.w3.org/1999/xlink" width="512" height="512" x="0" y="0" viewBox="0 0 682.667 682.667" style="enable-background:new 0 0 512 512" xml:space="preserve" class=""><g><defs><clipPath id="a" clipPathUnits="userSpaceOnUse"><path d="M0 512h512V0H0Z" fill="#000000" opacity="1" data-original="#000000" class=""></path></clipPath></defs><g clip-path="url(#a)" transform="matrix(1.33333 0 0 -1.33333 0 682.667)"><path d="m0 0 70.73.849a8.402 8.402 0 0 0 7.165-3.854l22.12-34.362 31.892-46.702-27.829-44.401L-2.851-6.223C-4.909-3.776-3.197-.038 0 0" style="fill-opacity:1;fill-rule:nonzero;stroke:none" transform="translate(15.56 503.495)" fill="#2470a9" data-original="#fe646f" class="" opacity="1"></path><path d="m0 0 147.413-157.932-22.78-21.384c-4.783-4.491-2.874-12.479 3.423-14.322l112.449-32.9c6.507-1.904 12.506 4.22 10.47 10.685l-36.26 115.132c-1.918 6.09-9.623 7.956-14.114 3.418l-18.221-18.405L-8.223 77.115-42.026 39.71Z" style="fill-opacity:1;fill-rule:nonzero;stroke:none" transform="translate(244.667 379.716)" fill="#2470a9" data-original="#fe646f" class="" opacity="1"></path><path d="m0 0 15.509 42.675c2.911 8.009-4.467 15.949-12.668 13.633l-31.717-8.958-12.663 9.386a11.588 11.588 0 0 1-13.805 0l-12.662-9.386-31.718 8.958c-8.2 2.316-15.578-5.624-12.668-13.633L-96.882 0l11.344-32.086h71.54z" style="fill-opacity:1;fill-rule:nonzero;stroke:none" transform="translate(223.923 407.111)" fill="#edeff0" data-original="#f9f3f1" class="" opacity="1"></path><path d="m0 0 95.144-154.737c46.959-76.372-7.989-174.662-97.643-174.662h-102.852c-89.653 0-144.601 98.29-97.642 174.662L-107.849 0l26.061 35.711h59.939z" style="fill-opacity:1;fill-rule:nonzero;stroke:none" transform="translate(229.668 337.038)" fill="#edeff0" data-original="#f9f3f1" class="" opacity="1"></path><path d="m0 0 73.907 120.198a20.286 20.286 0 0 0 17.28 9.66 41.916 41.916 0 0 1 18.013 4.049l-12.267 19.951-1.108 1.811-20.742 33.9H15.145l-26.062-35.711L-106.061-.879c-46.959-76.372 7.989-174.662 97.643-174.662H94.434c4.902 0 9.642.287 14.325.855l-11.116.024C7.989-174.662-46.958-76.372 0 0" style="fill-opacity:1;fill-rule:nonzero;stroke:none" transform="translate(132.736 183.18)" fill="#edeff0" data-original="#f3eae6" class="" opacity="1"></path><path d="M0 0h-96.882c-9.49 0-17.182-7.692-17.182-17.181v-.001c0-9.488 7.692-17.18 17.182-17.18H0c9.489 0 17.181 7.692 17.181 17.18v.001C17.181-7.692 9.489 0 0 0" style="fill-opacity:1;fill-rule:nonzero;stroke:none" transform="translate(223.923 372.4)" fill="#63d9b6" data-original="#fef0ae" class="" opacity="1"></path><path d="M0 0c-2.72.553-5.534.845-8.415.845H-53.92a14.77 14.77 0 0 0-13.892 9.742c-2.581 7.128-5.642 15.59-5.689 15.771l-2.92-2.164-31.718 8.958c-8.2 2.317-15.578-5.624-12.668-13.632l15.51-42.675 11.344-32.086H-22.413l2.57 5.89 11.428 26.196z" style="fill-opacity:1;fill-rule:nonzero;stroke:none" transform="translate(232.338 430.267)" fill="#edeff0" data-original="#f3eae6" class="" opacity="1"></path><path d="M0 0h-96.882c-9.49 0-17.182-7.692-17.182-17.181s7.692-17.181 17.182-17.181H0c9.489 0 17.181 7.692 17.181 17.181S9.489 0 0 0" style="fill-opacity:1;fill-rule:nonzero;stroke:none" transform="translate(223.923 406.111)" fill="#63d9b6" data-original="#fef0ae" class="" opacity="1"></path><path d="M0 0c0 9.489 7.692 17.182 17.182 17.182h-47.93c-9.489 0-17.181-7.693-17.181-17.182 0-9.488 7.692-17.181 17.181-17.181h47.93C7.692-17.181 0-9.488 0 0" style="fill-opacity:1;fill-rule:nonzero;stroke:none" transform="translate(157.788 355.219)" fill="#63d9b6" data-original="#fee97d" class="" opacity="1"></path><path d="M0 0v.001C0 9.49 7.692 17.182 17.182 17.182h-47.93c-9.489 0-17.181-7.692-17.181-17.181V0c0-9.488 7.692-17.181 17.181-17.181h47.93C7.692-17.181 0-9.488 0 0" style="fill-opacity:1;fill-rule:nonzero;stroke:none" transform="translate(157.788 388.93)" fill="#63d9b6" data-original="#fee97d" class="" opacity="1"></path><path d="M0 0h-85.586v29.544H8.997a2.877 2.877 0 0 1 2.877 2.877v24.246a2.877 2.877 0 0 1-2.877 2.877h-47.78v15.038a5.6 5.6 0 0 1-5.599 5.599h-18.802a5.6 5.6 0 0 1-5.599-5.599V59.544h-31.803c-8.284 0-15-6.716-15-15V-15c0-8.284 6.716-15 15-15H-15v-29.544h-93.12a5.722 5.722 0 0 1-5.722-5.723v-18.554a5.723 5.723 0 0 1 5.722-5.723h39.337v-16.453a4.183 4.183 0 0 1 4.183-4.184h21.633a4.184 4.184 0 0 1 4.184 4.184v16.453H0c8.284 0 15 6.716 15 15V-15C15-6.716 8.284 0 0 0" style="fill-opacity:1;fill-rule:nonzero;stroke:none" transform="translate(227.103 170.216)" fill="#e09932" data-original="#fddf30" class="" opacity="1"></path><path d="M0 0h-175.763c-9.318 0-16.872 7.555-16.872 16.873v27.181c0 9.318 7.554 16.873 16.872 16.873H0c9.318 0 16.872-7.555 16.872-16.873V16.873C16.872 7.555 9.318 0 0 0" style="fill-opacity:1;fill-rule:nonzero;stroke:none" transform="translate(487.686 7.639)" fill="#e09932" data-original="#fee45a" class="" opacity="1"></path><path d="M0 0h-175.763c-9.318 0-16.872 7.554-16.872 16.872v27.182c0 9.318 7.554 16.872 16.872 16.872H0c9.318 0 16.872-7.554 16.872-16.872V16.872C16.872 7.554 9.318 0 0 0" style="fill-opacity:1;fill-rule:nonzero;stroke:none" transform="translate(487.686 68.565)" fill="#e09932" data-original="#fee45a" class="" opacity="1"></path><path d="M0 0v27.182C0 36.5 7.554 44.053 16.873 44.053h-73.688c-9.319 0-16.873-7.553-16.873-16.871V0c0-9.318 7.554-16.873 16.873-16.873h73.688C7.554-16.873 0-9.318 0 0" style="fill-opacity:1;fill-rule:nonzero;stroke:none" transform="translate(368.739 24.512)" fill="#e09932" data-original="#fddf30" class="" opacity="1"></path><path d="M0 0v27.182C0 36.5 7.554 44.054 16.873 44.054h-73.688c-9.319 0-16.873-7.554-16.873-16.872V0c0-9.318 7.554-16.873 16.873-16.873h73.688C7.554-16.873 0-9.318 0 0" style="fill-opacity:1;fill-rule:nonzero;stroke:none" transform="translate(368.739 85.438)" fill="#e09932" data-original="#fddf30" class="" opacity="1"></path><path d="M0 0a7.5 7.5 0 0 1 6.505 1.193l12.662 9.387a4.067 4.067 0 0 0 4.873-.001l12.662-9.387A7.496 7.496 0 0 1 43.207 0l31.718 8.958c1.509.428 2.507-.338 2.967-.832.46-.494 1.15-1.544.613-3.022L64.791-32.632h-86.375L-35.298 5.104c-.537 1.478.153 2.528.612 3.022.46.494 1.457 1.26 2.968.832zm70.044-83.343c5.339 0 9.682-4.343 9.682-9.681 0-5.338-4.343-9.681-9.682-9.681h-96.882c-5.338 0-9.682 4.343-9.682 9.682 0 5.337 4.344 9.68 9.682 9.68zm-96.208 35.711H69.37c5.71 0 10.356-4.645 10.356-10.355 0-5.71-4.646-10.356-10.356-10.356h-95.534c-5.71 0-10.356 4.646-10.356 10.356s4.646 10.355 10.356 10.355m135.943-378.243c-11.555-4.134-23.831-6.229-36.487-6.229H-29.561c-39.349 0-74.303 20.504-93.504 54.85-19.201 34.347-18.359 74.863 2.251 108.383L-27.85-117.68c.336-.012 98.912-.005 99.415.027l92.98-151.217a110.277 110.277 0 0 0 10.172-21.355 7.503 7.503 0 0 1 9.554-4.608 7.5 7.5 0 0 1 4.607 9.554 125.338 125.338 0 0 1-11.555 24.265L85.736-112.062c5.487 4.532 8.99 11.383 8.99 19.039 0 6.774-2.746 12.919-7.18 17.383.095.097.188.196.282.295l66.726-71.488a7.477 7.477 0 0 1 5.484-2.383c1.833 0 3.67.668 5.116 2.018a7.499 7.499 0 0 1 .366 10.599L94.59-60.608c.089.862.136 1.736.136 2.621 0 10.22-6.082 19.041-14.813 23.05l9.71 26.718 178.212-180.289a7.503 7.503 0 0 1 5.332-2.227h.002a7.5 7.5 0 0 1 5.331 2.223l18.22 18.407c.095.096.386.393.926.262a.912.912 0 0 0 .705-.658l36.259-115.132c.048-.153.177-.56-.235-.979-.411-.421-.819-.3-.975-.255l-112.448 32.9c-.15.044-.546.159-.679.713-.132.554.17.837.283.943l22.779 21.384a7.5 7.5 0 0 1 .35 10.585l-56.35 60.37a7.5 7.5 0 1 1-10.966-10.234l51.247-54.903-17.327-16.266c-4.233-3.975-5.955-9.719-4.605-15.366 1.35-5.647 5.483-9.991 11.055-11.622l112.448-32.901a15.948 15.948 0 0 1 15.903 4.154 15.95 15.95 0 0 1 3.827 15.983l-36.259 115.132c-1.698 5.39-5.989 9.4-11.48 10.73-5.492 1.334-11.143-.272-15.118-4.288l-12.887-13.017L93.402 9.295a17.911 17.911 0 0 1-4.522 9.042 17.882 17.882 0 0 1-18.033 5.057l-28.172-7.957-9.702 7.192c-6.8 5.042-15.939 5.043-22.74.001L.532 15.437l-28.172 7.957a18.055 18.055 0 0 1-5.085.679l-23.91 37.143a7.5 7.5 0 0 1-12.612-8.119l22.886-35.553A17.871 17.871 0 0 1-49.396-.019l12.69-34.918a25.502 25.502 0 0 1-12.173-11.802l-91.738 107.758a7.5 7.5 0 0 1-11.422-9.724S-45.951-73.981-44.34-75.641c-4.434-4.463-7.18-10.609-7.18-17.383 0-7.817 3.657-14.79 9.344-19.316l-91.416-148.674c-23.496-38.214-24.455-84.404-2.566-123.559 21.889-39.156 61.739-62.531 106.597-62.531H73.292c14.383 0 28.359 2.39 41.54 7.106a7.5 7.5 0 0 1-5.053 14.123" style="fill-opacity:1;fill-rule:nonzero;stroke:none" transform="translate(153.878 447.243)" fill="#000000" data-original="#000000" class=""></path><path d="M0 0h21.633c6.442 0 11.683 5.241 11.683 11.684v8.953H64.6c12.406 0 22.5 10.093 22.5 22.5v59.544c0 12.406-10.094 22.5-22.5 22.5h-78.086v14.544h87.083c5.721 0 10.377 4.655 10.377 10.377v24.246c0 5.721-4.656 10.377-10.377 10.377H33.316v7.537c0 7.223-5.876 13.099-13.099 13.099H1.416c-7.223 0-13.1-5.876-13.1-13.099v-7.537h-24.302c-12.407 0-22.5-10.094-22.5-22.5v-59.544c0-12.407 10.093-22.5 22.5-22.5H42.1V65.637H3.402a7.5 7.5 0 0 1 0-15H49.6a7.5 7.5 0 0 1 7.5 7.5v29.544a7.5 7.5 0 0 1-7.5 7.5h-85.586c-4.136 0-7.5 3.364-7.5 7.5v59.544c0 4.135 3.364 7.5 7.5 7.5h31.802a7.5 7.5 0 0 1 7.5 7.5v13.136h15v-13.136a7.5 7.5 0 0 1 7.5-7.5h43.158v-15h-89.96a7.5 7.5 0 0 1-7.5-7.5v-29.544a7.5 7.5 0 0 1 7.5-7.5H64.6c4.135 0 7.5-3.365 7.5-7.5V43.137c0-4.136-3.365-7.5-7.5-7.5H25.816a7.5 7.5 0 0 1-7.5-7.5V15h-15v13.137a7.5 7.5 0 0 1-7.5 7.5h-37.559v15h13.183a7.5 7.5 0 0 1 0 15h-14.96c-7.291 0-13.223-5.932-13.223-13.223V33.859c0-7.291 5.932-13.222 13.223-13.222h31.836v-8.953C-11.684 5.241-6.442 0 0 0" style="fill-opacity:1;fill-rule:nonzero;stroke:none" transform="translate(162.504 52.535)" fill="#000000" data-original="#000000" class=""></path><path d="M0 0c0-5.168-4.204-9.373-9.372-9.373h-175.763c-5.168 0-9.372 4.205-9.372 9.373v27.181c0 5.163 4.197 9.365 9.36 9.372H-9.359C-4.197 36.546 0 32.344 0 27.181Zm15 88.107c0 13.439-10.933 24.372-24.373 24.372h-37.606a7.5 7.5 0 0 1 0-15h37.606c5.169 0 9.373-4.204 9.373-9.372V60.926c0-5.164-4.197-9.365-9.359-9.373l-.013.001h-175.763l-.012-.001c-5.162.008-9.36 4.209-9.36 9.373v27.181c0 5.168 4.204 9.372 9.372 9.372h106.194a7.5 7.5 0 0 1 0 15h-106.194c-13.439 0-24.372-10.933-24.372-24.372V60.926c0-6.545 2.597-12.49 6.809-16.873-4.212-4.383-6.809-10.328-6.809-16.872V0c0-13.439 10.933-24.373 24.372-24.373H-9.372C4.067-24.373 15-13.439 15 0v27.181c0 6.544-2.597 12.489-6.809 16.872C12.403 48.436 15 54.381 15 60.926Z" style="fill-opacity:1;fill-rule:nonzero;stroke:none" transform="translate(497.058 24.512)" fill="#000000" data-original="#000000" class=""></path></g></g></svg>