<svg xmlns="http://www.w3.org/2000/svg" version="1.1" xmlns:xlink="http://www.w3.org/1999/xlink" width="512" height="512" x="0" y="0" viewBox="0 0 511.995 511.995" style="enable-background:new 0 0 512 512" xml:space="preserve" class=""><g><path d="m194.99 330.951-15.888 14.496v159.048h65.833l10.261-19.497V318.779z" style="" fill="#2470a9" data-original="#00abf2" class="" opacity="1"></path><path d="m257.962 315.498-13.027 15.453v173.544h65.833l8.375-12.997V285.26z" style="" fill="#2470a9" data-original="#00c2fb" class="" opacity="1"></path><path d="m332.99 259.998-22.222 40.541v203.956h61.384l10.251-18.997V229.793z" style="" fill="#2470a9" data-original="#00d2fc" class="" opacity="1"></path><path d="M420.24 208.248h-28l-20.088 43.995v252.252h61.385V229.944z" style="" fill="#2470a9" data-original="#62ddfc" class="" opacity="1"></path><path d="M204.366 232.377a114.828 114.828 0 0 1-33 4.821c-63.429 0-114.849-51.42-114.849-114.849S107.937 7.5 171.366 7.5c11.472 0 22.547 1.69 33 4.821l-12.71 23.677v172.25l12.71 24.129z" style="" fill="#e09932" data-original="#ffe02f" class="" opacity="1"></path><path d="M286.215 122.349c0-51.968-34.528-95.847-81.887-110.016-47.323 14.192-81.811 58.073-81.811 110.016 0 51.944 34.488 95.824 81.811 110.016 47.359-14.169 81.887-58.048 81.887-110.016z" style="" fill="#e09932" data-original="#fff1af" class="" opacity="1"></path><path d="M149.051 195.747c-31.478-9.558-54.391-38.798-54.391-73.398s22.913-63.84 54.391-73.398l15.439 15.546v118l-15.439 13.25z" style="" fill="#e09932" data-original="#fbc700" class="" opacity="1"></path><path d="M171.366 45.643a76.692 76.692 0 0 0-22.315 3.308c-16.562 19.902-26.534 45.481-26.534 73.398 0 27.917 9.972 53.496 26.534 73.398a76.659 76.659 0 0 0 22.315 3.308c42.364 0 76.706-34.342 76.706-76.706s-34.342-76.706-76.706-76.706z" style="" fill="#e09932" data-original="#ffe02f" class="" opacity="1"></path><path d="m452.229 149.71-1.431 64.669c-.289 13.04-15.261 20.234-25.622 12.311l-13.365-10.221c-3.1-2.37-7.563-1.762-9.902 1.362-54.95 73.397-135.986 117.479-221.707 127.517-13.238 1.55-25.042-8.348-25.6-21.665l-.029-.689c-.504-12.02 8.433-22.246 20.385-23.62 75.28-8.654 143.981-47.754 190.166-109.81a7.062 7.062 0 0 0 1.349-5.063l19.016-26.003 43.25-15.5 23.49 6.712z" style="" fill="#63d9b6" data-original="#4d66d2" class="" opacity="1"></path><path d="m452.229 149.71.428-19.326c.239-10.795-10.099-18.701-20.455-15.642l-80.572 23.803c-12.509 3.695-15.528 20.03-5.167 27.952l17.3 13.23a7.02 7.02 0 0 1 2.711 4.773c48.44 15.947 73.592-11.465 85.755-34.79z" style="" fill="#63d9b6" data-original="#6b7ed9" class="" opacity="1"></path><path d="M158.061 504.495h297.416M452.657 130.384l-1.859 83.995c-.289 13.04-15.261 20.234-25.622 12.311l-13.365-10.221c-3.1-2.37-7.563-1.762-9.902 1.362-54.951 73.397-135.986 117.479-221.707 127.517-13.238 1.55-25.042-8.348-25.6-21.664l-.029-.689c-.504-12.02 8.433-22.246 20.385-23.621 75.28-8.654 143.982-47.754 190.166-109.81 2.309-3.102 1.709-7.486-1.363-9.836l-17.3-13.23c-10.361-7.922-7.341-24.257 5.167-27.952l80.572-23.803c10.359-3.06 20.696 4.846 20.457 15.641z" style="stroke-width:15;stroke-linecap:round;stroke-linejoin:round;stroke-miterlimit:10;" fill="none" stroke="#000000" stroke-width="15" stroke-linecap="round" stroke-linejoin="round" stroke-miterlimit="10" data-original="#000000" class=""></path><path d="M372.153 252.243a322.306 322.306 0 0 1-61.384 48.296v203.956h61.384V252.243zM244.936 504.495h65.833V300.539a324.2 324.2 0 0 1-65.833 30.412v173.544zM244.936 330.951a325.182 325.182 0 0 1-64.734 14.396c-.368.043-.734.074-1.1.1v159.048h65.833V330.951zM189.875 98.844s-7.441-7.728-17.459-7.728c-10.017 0-17.316 7.298-17.316 14.811s9.445 13.523 21.394 16.672 14.477 9.326 14.477 15.908c0 6.583-5.82 15.074-19.462 15.074-9.406 0-15.229-4.716-17.939-7.646M171.367 79.524v8.395M171.367 156.779v8.395" style="stroke-width:15;stroke-linecap:round;stroke-linejoin:round;stroke-miterlimit:10;" fill="none" stroke="#000000" stroke-width="15" stroke-linecap="round" stroke-linejoin="round" stroke-miterlimit="10" data-original="#000000" class=""></path><circle cx="171.367" cy="122.349" r="114.849" style="stroke-width:15;stroke-linecap:round;stroke-linejoin:round;stroke-miterlimit:10;" fill="none" stroke="#000000" stroke-width="15" stroke-linecap="round" stroke-linejoin="round" stroke-miterlimit="10" data-original="#000000" class=""></circle><path d="M188.867 197.025c33.927-7.921 59.206-38.336 59.206-74.676 0-42.364-34.342-76.706-76.706-76.706s-76.706 34.343-76.706 76.706c0 36.34 25.279 66.755 59.206 74.676M433.537 367.517V229.944c-2.874-.232-5.763-1.267-8.361-3.254l-13.365-10.221c-3.1-2.37-7.563-1.762-9.902 1.362a324.538 324.538 0 0 1-29.756 34.413v252.252h61.384V402.517" style="stroke-width:15;stroke-linecap:round;stroke-linejoin:round;stroke-miterlimit:10;" fill="none" stroke="#000000" stroke-width="15" stroke-linecap="round" stroke-linejoin="round" stroke-miterlimit="10" data-original="#000000" class=""></path></g></svg>