<svg xmlns="http://www.w3.org/2000/svg" version="1.1" xmlns:xlink="http://www.w3.org/1999/xlink" width="512" height="512" x="0" y="0" viewBox="0 0 510 510" style="enable-background:new 0 0 512 512" xml:space="preserve" class=""><g><path d="M256.349 148.413v69.003c0 40.523-32.851 73.374-73.374 73.374-40.523 0-73.374-32.851-73.374-73.374v-69.003h146.748z" style="" fill="#ffffff" data-original="#fdbeb9" class="" opacity="1"></path><path d="M101.855 178.573h37.16c16.657 0 30.16-13.503 30.16-30.16 0 16.657 13.503 30.16 30.16 30.16h64.761v-16.607c0-44.801-36.319-81.12-81.12-81.12s-81.12 36.319-81.12 81.12v16.607z" style="" fill="#2470a9" data-original="#fd7da0" class="" opacity="1"></path><path d="M284.394 255.33H81.557c-25.316 0-45.838 20.522-45.838 45.838V456h294.513V301.168c0-25.316-20.522-45.838-45.838-45.838z" style="" fill="#63d9b6" data-original="#67ccd1" class="" opacity="1"></path><path d="M155.665 355.665c0-38.247 13.824-73.26 36.736-100.335H81.557c-25.316 0-45.838 20.522-45.838 45.838V456h156.683c-22.913-27.075-36.737-62.088-36.737-100.335zM10 456h345.951v44H10z" style="" fill="#97a2a6" data-original="#27a2cc" class="" opacity="1"></path><path d="M487.054 108.09c0-6.006-.628-11.864-1.809-17.519L500 82.052l-26.566-46.014-14.774 8.53a85.195 85.195 0 0 0-30.325-17.522V10h-53.132v17.046a85.165 85.165 0 0 0-30.325 17.522l-14.774-8.53-26.566 46.014 14.755 8.519c-1.181 5.655-1.809 11.513-1.809 17.519s.628 11.864 1.809 17.519l-14.755 8.519 26.566 46.013 14.774-8.53a85.178 85.178 0 0 0 30.325 17.521v17.046h53.132v-17.046a85.178 85.178 0 0 0 30.325-17.521l14.774 8.53L500 134.128l-14.755-8.519a85.613 85.613 0 0 0 1.809-17.519z" style="fill-rule:evenodd;clip-rule:evenodd;" fill="#e09932" data-original="#fdcb50" class="" opacity="1"></path><circle cx="401.769" cy="108.09" r="37.679" style="fill-rule:evenodd;clip-rule:evenodd;" transform="rotate(-45.001 401.77 108.095)" fill="#ffffff" data-original="#ffffff"></circle><path d="M101.855 178.573h37.16c16.657 0 30.16-13.503 30.16-30.16v0c0 16.657 13.503 30.16 30.16 30.16h64.761v-16.607c0-44.801-36.319-81.12-81.12-81.12h0c-44.801 0-81.12 36.319-81.12 81.12v16.607z" style="stroke-width:20;stroke-linecap:round;stroke-linejoin:round;stroke-miterlimit:10;" fill="none" stroke="#052a75" stroke-width="20" stroke-linecap="round" stroke-linejoin="round" stroke-miterlimit="10" data-original="#052a75" class=""></path><path d="M284.394 255.33H81.557c-25.316 0-45.838 20.522-45.838 45.838V456h294.513V301.168c0-25.316-20.522-45.838-45.838-45.838zM109.601 178.573v38.844c0 13.739 3.785 26.59 10.356 37.584M245.993 255c6.571-10.994 10.356-23.845 10.356-37.584v-38.844M10 456h345.951v44H10z" style="stroke-width:20;stroke-linejoin:round;stroke-miterlimit:10;" fill="none" stroke="#052a75" stroke-width="20" stroke-linejoin="round" stroke-miterlimit="10" data-original="#052a75" class=""></path><path d="m232.16 331.502 22.815 24.163-22.815 24.163M133.791 379.828l-22.815-24.163 22.815-24.163M188.16 327.532l-10.369 56.266" style="stroke-width:20;stroke-linecap:round;stroke-linejoin:round;stroke-miterlimit:10;" fill="none" stroke="#ffffff" stroke-width="20" stroke-linecap="round" stroke-linejoin="round" stroke-miterlimit="10" data-original="#ffffff" class=""></path><path d="M487.054 108.09c0-6.006-.628-11.864-1.809-17.519L500 82.052l-26.566-46.014-14.774 8.53a85.195 85.195 0 0 0-30.325-17.522V10h-53.132v17.046a85.165 85.165 0 0 0-30.325 17.522l-14.774-8.53-26.566 46.014 14.755 8.519c-1.181 5.655-1.809 11.513-1.809 17.519s.628 11.864 1.809 17.519l-14.755 8.519 26.566 46.013 14.774-8.53a85.178 85.178 0 0 0 30.325 17.521v17.046h53.132v-17.046a85.178 85.178 0 0 0 30.325-17.521l14.774 8.53L500 134.128l-14.755-8.519a85.613 85.613 0 0 0 1.809-17.519z" style="fill-rule:evenodd;clip-rule:evenodd;stroke-width:20;stroke-linecap:round;stroke-linejoin:round;stroke-miterlimit:10;" fill-rule="evenodd" clip-rule="evenodd" fill="none" stroke="#052a75" stroke-width="20" stroke-linecap="round" stroke-linejoin="round" stroke-miterlimit="10" data-original="#052a75" class=""></path></g></svg>