<?xml version="1.0" encoding="UTF-8" standalone="no"?>
<!-- Created with Inkscape (http://www.inkscape.org/) -->

<svg
   width="71.615829mm"
   height="102.63387mm"
   viewBox="0 0 71.615829 102.63387"
   version="1.1"
   id="svg1"
   xmlns:inkscape="http://www.inkscape.org/namespaces/inkscape"
   xmlns:sodipodi="http://sodipodi.sourceforge.net/DTD/sodipodi-0.dtd"
   xmlns:xlink="http://www.w3.org/1999/xlink"
   xmlns="http://www.w3.org/2000/svg"
   xmlns:svg="http://www.w3.org/2000/svg">
  <sodipodi:namedview
     id="namedview1"
     pagecolor="#ffffff"
     bordercolor="#000000"
     borderopacity="0.25"
     inkscape:showpageshadow="2"
     inkscape:pageopacity="0.0"
     inkscape:pagecheckerboard="0"
     inkscape:deskcolor="#d1d1d1"
     inkscape:document-units="mm" />
  <defs
     id="defs1">
    <linearGradient
       inkscape:collect="always"
       xlink:href="#swatch46"
       id="linearGradient46"
       x1="147.40433"
       y1="87.140823"
       x2="224.28902"
       y2="87.140823"
       gradientUnits="userSpaceOnUse"
       gradientTransform="matrix(0.8812945,0,0,0.92880088,-59.381739,67.298139)" />
    <linearGradient
       id="swatch46"
       inkscape:swatch="solid">
      <stop
         style="stop-color:#2470a9;stop-opacity:1;"
         offset="0"
         id="stop46" />
    </linearGradient>
    <clipPath
       id="a-2"
       clipPathUnits="userSpaceOnUse">
      <path
         d="M 0,512 H 512 V 0 H 0 Z"
         fill="#000000"
         opacity="1"
         data-original="#000000"
         id="path1-97" />
    </clipPath>
  </defs>
  <g
     inkscape:label="Ebene 1"
     inkscape:groupmode="layer"
     id="layer1"
     transform="translate(-69.320833,-97.102086)">
    <path
       id="rect12-3-6"
       style="fill:#2470a9;fill-opacity:1;stroke:url(#linearGradient46);stroke-width:0.963546;stroke-dasharray:none;stroke-opacity:0.992157"
       d="m 69.96007,97.58782 56.173,0.347503 14.30296,50.505047 -14.32493,50.81169 -56.10707,-0.32434 14.33619,-50.83942 z"
       sodipodi:nodetypes="ccccccc" />
    <g
       id="g11"
       transform="matrix(0.0836132,0,0,0.0836132,81.55847,119.96035)">
      <defs
         id="defs1-3" />
      <g
         clip-path="url(#a-2)"
         transform="matrix(1.33333,0,0,-1.33333,0,682.667)"
         id="g10">
        <path
           d="M 0,0 H 249.503 V -22.5 L 388.599,108.749 249.503,239.998 v -22.5 H 0 c -8.241,0 -13.698,-6.858 -15,-15 V 15 C -16.302,6.858 -8.25,0 0,0"
           style="fill-opacity:1;fill-rule:evenodd;stroke:none"
           transform="translate(112.499,147.251)"
           fill="#63d9b6"
           data-original="#70e2bd"
           class=""
           opacity="1"
           id="path2-5" />
        <path
           d="M 0,0 H 22.5 C 14.25,0 6.198,6.858 7.5,15 v 187.498 c 1.302,8.142 6.759,15 15,15 H 0 c -8.241,0 -13.698,-6.858 -15,-15 V 15 C -16.302,6.858 -8.25,0 0,0"
           style="fill-opacity:1;fill-rule:evenodd;stroke:none"
           transform="translate(112.499,147.251)"
           fill="#2470a9"
           data-original="#0bcc89"
           class=""
           opacity="1"
           id="path3-2" />
        <path
           d="M 0,0 H 15 M 30,0 H 45"
           style="stroke-width:15;stroke-linecap:butt;stroke-linejoin:miter;stroke-miterlimit:2.613;stroke-dasharray:none;stroke-opacity:1"
           transform="translate(324.501,334.749)"
           fill="none"
           stroke="#edeff0"
           stroke-width="15"
           stroke-linecap="butt"
           stroke-linejoin="miter"
           stroke-miterlimit="2.613"
           stroke-dasharray="none"
           stroke-opacity=""
           data-original="#ffffff"
           class=""
           opacity="1"
           id="path4-9" />
        <path
           d="m 0,0 v -149.999 c 0,-8.244 6.75,-15 15,-15 h 174.502 m 45,0 h 30 v -22.5 L 403.599,-56.25 264.502,74.999 v -22.5 H 15 c -8.241,0 -15,-6.756 -15,-15 v -22.5 m 204.502,-179.998 h 15"
           style="stroke-width:15;stroke-linecap:butt;stroke-linejoin:miter;stroke-miterlimit:22.926;stroke-dasharray:none;stroke-opacity:1"
           transform="translate(97.499,312.25)"
           fill="none"
           stroke="#000000"
           stroke-width="15"
           stroke-linecap="butt"
           stroke-linejoin="miter"
           stroke-miterlimit="22.926"
           stroke-dasharray="none"
           stroke-opacity=""
           data-original="#000000"
           class=""
           id="path5-0" />
        <path
           d="M 0,0 H 60 M 22.5,-45 H 60 m -73,89.999 h 73"
           style="stroke-width:15;stroke-linecap:butt;stroke-linejoin:miter;stroke-miterlimit:2.613;stroke-dasharray:none;stroke-opacity:1"
           transform="translate(13,304.75)"
           fill="none"
           stroke="#000000"
           stroke-width="15"
           stroke-linecap="butt"
           stroke-linejoin="miter"
           stroke-miterlimit="2.613"
           stroke-dasharray="none"
           stroke-opacity=""
           data-original="#000000"
           class=""
           id="path6-7" />
        <path
           d="m 0,0 a 36.574,36.574 0 0 1 -20.541,6.274 c -20.29,0 -36.738,-16.448 -36.738,-36.738 0,-20.289 16.448,-36.738 36.738,-36.738 20.29,0 31.714,16.449 31.714,36.738 h -21.98"
           style="stroke-width:15;stroke-linecap:square;stroke-linejoin:miter;stroke-miterlimit:10;stroke-dasharray:none;stroke-opacity:1"
           transform="translate(208.586,286.464)"
           fill="none"
           stroke="#000000"
           stroke-width="15"
           stroke-linecap="square"
           stroke-linejoin="miter"
           stroke-miterlimit="10"
           stroke-dasharray="none"
           stroke-opacity=""
           data-original="#000000"
           class=""
           id="path7-6" />
        <path
           d="m 0,0 c 0,-20.29 -16.448,-36.738 -36.738,-36.738 -20.29,0 -36.738,16.448 -36.738,36.738 0,20.29 16.448,36.738 36.738,36.738 C -16.448,36.738 0,20.29 0,0 Z"
           style="stroke-width:15;stroke-linecap:round;stroke-linejoin:bevel;stroke-miterlimit:10;stroke-dasharray:none;stroke-opacity:1"
           transform="translate(323.235,256)"
           fill="none"
           stroke="#000000"
           stroke-width="15"
           stroke-linecap="round"
           stroke-linejoin="bevel"
           stroke-miterlimit="10"
           stroke-dasharray="none"
           stroke-opacity=""
           data-original="#000000"
           class=""
           id="path8-7" />
        <path
           d="M 0,0 V -45.591"
           style="stroke-width:15;stroke-linecap:square;stroke-linejoin:round;stroke-miterlimit:10;stroke-dasharray:none;stroke-opacity:1"
           transform="translate(353.996,292.738)"
           fill="none"
           stroke="#000000"
           stroke-width="15"
           stroke-linecap="square"
           stroke-linejoin="round"
           stroke-miterlimit="10"
           stroke-dasharray="none"
           stroke-opacity=""
           data-original="#000000"
           class=""
           id="path9-51" />
        <path
           d="M 0,0 V 13.943"
           style="stroke-width:15;stroke-linecap:butt;stroke-linejoin:miter;stroke-miterlimit:2.613;stroke-dasharray:none;stroke-opacity:1"
           transform="translate(353.996,212.29)"
           fill="none"
           stroke="#000000"
           stroke-width="15"
           stroke-linecap="butt"
           stroke-linejoin="miter"
           stroke-miterlimit="2.613"
           stroke-dasharray="none"
           stroke-opacity=""
           data-original="#000000"
           class=""
           id="path10-8" />
      </g>
    </g>
  </g>
</svg>
