<svg xmlns="http://www.w3.org/2000/svg" version="1.1" xmlns:xlink="http://www.w3.org/1999/xlink" width="512" height="512" x="0" y="0" viewBox="0 0 682.667 682.667" style="enable-background:new 0 0 512 512" xml:space="preserve" class=""><g><defs><clipPath id="a" clipPathUnits="userSpaceOnUse"><path d="M0 512h512V0H0Z" fill="#000000" opacity="1" data-original="#000000"></path></clipPath></defs><g clip-path="url(#a)" transform="matrix(1.33333 0 0 -1.33333 0 682.667)"><path d="M0 0v-33.49c0-4.69-3.31-8.73-7.91-9.65l-19.14-3.85C-44.28-50.459-58.5-62.41-65.2-78.67c-.08-.17-.15-.35-.22-.529-6.79-16.291-5.26-34.851 4.51-49.551L-50.1-145c2.6-3.899 2.079-9.1-1.24-12.42l-23.681-23.68a9.84 9.84 0 0 0-12.409-1.23l-16.26 10.801c-14.69 9.769-33.26 11.3-49.549 4.519-.171-.07-.351-.15-.532-.219-16.249-6.701-28.199-20.92-31.669-38.161l-3.85-19.13a9.86 9.86 0 0 0-9.66-7.91h-33.49a9.842 9.842 0 0 0-9.65 7.91l-3.85 19.13c-3.47 17.241-15.42 31.46-31.68 38.161-.17.069-.35.139-.529.219-16.291 6.781-34.851 5.25-49.551-4.519l-16.25-10.801c-3.9-2.6-9.1-2.08-12.42 1.23l-23.68 23.68c-3.31 3.32-3.83 8.521-1.23 12.42l10.801 16.25c9.779 14.7 11.299 33.26 4.519 49.551-.07.179-.15.359-.22.529-6.7 16.26-20.92 28.211-38.16 31.68l-19.13 3.85a9.842 9.842 0 0 0-7.91 9.65V0a9.86 9.86 0 0 0 7.91 9.66l19.13 3.85c17.24 3.47 31.46 15.421 38.16 31.671.07.179.15.349.22.53 6.78 16.289 5.26 34.859-4.519 49.549l-10.801 16.25a9.856 9.856 0 0 0 1.23 12.421l23.68 23.679a9.846 9.846 0 0 0 12.42 1.241l16.25-10.81c14.7-9.77 33.26-11.301 49.551-4.511.179.071.359.14.529.22 16.26 6.7 28.21 20.92 31.68 38.15l3.85 19.141a9.84 9.84 0 0 0 9.65 7.909h33.49c4.69 0 8.73-3.309 9.66-7.909l3.85-19.141a51.773 51.773 0 0 1 6.09-15.969c5.77-9.861 14.71-17.701 25.579-22.181.181-.08.361-.149.532-.22 16.289-6.79 34.859-5.259 49.549 4.511l16.26 10.81a9.83 9.83 0 0 0 12.409-1.241l23.681-23.679a9.846 9.846 0 0 0 1.24-12.421l-10.81-16.25c-9.77-14.69-11.3-33.26-4.51-49.549.07-.181.14-.351.22-.53 6.7-16.25 20.92-28.201 38.15-31.671l19.14-3.85A9.86 9.86 0 0 0 0 0" style="fill-opacity:1;fill-rule:nonzero;stroke:none" transform="translate(438.88 276.075)" fill="#2470a9" data-original="#4c94c3" class="" opacity="1"></path><path d="M0 0v-33.49c0-4.69-3.31-8.73-7.91-9.65l-19.14-3.85C-44.28-50.459-58.5-62.41-65.2-78.67c-.08-.17-.15-.35-.22-.529-6.79-16.291-5.26-34.851 4.51-49.551L-50.1-145c2.6-3.899 2.079-9.1-1.24-12.42l-23.681-23.68a9.84 9.84 0 0 0-12.409-1.23l-16.26 10.801c-14.69 9.769-33.26 11.3-49.549 4.519-.171-.07-.351-.15-.532-.219-16.249-6.701-28.199-20.92-31.669-38.161l-3.85-19.13a9.86 9.86 0 0 0-9.66-7.91h-2.23v107.8c0 37.64 21.05 70.46 52 87.3a98.843 98.843 0 0 0-13.68 29.631 34.348 34.348 0 0 0-7.08-.74c-18.99 0-34.43 15.449-34.43 34.429 0 13.551 7.87 25.301 19.27 30.91-10.969 6.321-19.75 16.281-24.629 28.72a28.78 28.78 0 0 0 3.019 26.731 28.758 28.758 0 0 0 23.77 12.559h1v9.771c0 7.319.9 14.439 2.59 21.25 5.77-9.861 14.71-17.701 25.579-22.181.181-.08.361-.149.532-.22 16.289-6.79 34.859-5.259 49.549 4.511l16.26 10.81a9.83 9.83 0 0 0 12.409-1.241l23.681-23.679a9.846 9.846 0 0 0 1.24-12.421l-10.81-16.25c-9.77-14.69-11.3-33.26-4.51-49.549.07-.181.14-.351.22-.53 6.7-16.25 20.92-28.201 38.15-31.671l19.14-3.85A9.86 9.86 0 0 0 0 0" style="fill-opacity:1;fill-rule:nonzero;stroke:none" transform="translate(438.88 276.075)" fill="#3b7ca8" data-original="#3b7ca8"></path><path d="M0 0c-7.363-7.992-17.095-13.638-28.057-15.844l-19.138-3.851a9.85 9.85 0 0 1-7.906-9.656V-62.84c0-4.69 3.308-8.73 7.906-9.655l19.138-3.852c17.236-3.469 31.456-15.417 38.156-31.673l.219-.529c6.784-16.293 5.256-34.853-4.515-49.55l-10.808-16.253a9.85 9.85 0 0 1 1.237-12.418l23.681-23.68a9.849 9.849 0 0 1 12.418-1.237l16.253 10.807c14.696 9.772 33.258 11.298 49.55 4.515.177-.073.353-.147.53-.219 16.255-6.7 28.203-20.92 31.672-38.156l3.851-19.138a9.848 9.848 0 0 1 9.656-7.905h33.489c4.69 0 8.73 3.306 9.655 7.905l3.852 19.139c3.469 17.235 15.418 31.455 31.672 38.155.177.072.353.147.53.219 16.292 6.783 34.855 5.257 49.55-4.515l16.254-10.807a9.848 9.848 0 0 1 12.417 1.237l23.68 23.68a9.85 9.85 0 0 1 1.238 12.418l-10.808 16.253c-9.771 14.697-11.299 33.258-4.516 49.55.075.177.148.354.22.529 6.7 16.256 20.92 28.204 38.155 31.673l19.139 3.852a9.849 9.849 0 0 1 7.906 9.655v33.489a9.85 9.85 0 0 1-7.906 9.656l-19.139 3.851c-17.235 3.469-31.455 15.418-38.155 31.672-.072.177-.145.354-.22.53-6.783 16.292-5.255 34.855 4.516 49.55l10.808 16.254a9.849 9.849 0 0 1-1.238 12.417l-23.68 23.681a9.849 9.849 0 0 1-12.417 1.237l-16.254-10.808c-14.695-9.771-33.258-11.298-49.55-4.515l-.53.22c-16.254 6.7-28.203 20.919-31.672 38.155l-3.852 19.138a9.849 9.849 0 0 1-9.655 7.906h-33.489a9.85 9.85 0 0 1-9.656-7.906l-3.851-19.138c-3.469-17.236-15.417-31.455-31.672-38.155l-.53-.22c-16.292-6.783-34.854-5.256-49.55 4.515l-16.253 10.808a9.85 9.85 0 0 1-12.418-1.237L-3.768 94.579a9.849 9.849 0 0 1-1.237-12.417L5.803 65.908c7.106-10.687 9.83-23.42 8.189-35.837" style="stroke-width:15;stroke-linecap:round;stroke-linejoin:round;stroke-miterlimit:10;stroke-dasharray:none;stroke-opacity:1" transform="translate(62.6 305.428)" fill="none" stroke="#000000" stroke-width="15" stroke-linecap="round" stroke-linejoin="round" stroke-miterlimit="10" stroke-dasharray="none" stroke-opacity="" data-original="#000000" class="" opacity="1"></path><path d="M0 0c0-49.73-36.56-90.93-84.28-98.159-4.89-.74-9.9-1.12-14.991-1.12-54.829 0-99.279 44.45-99.279 99.279 0 54.83 44.45 99.271 99.279 99.271 2.491 0 4.961-.09 7.401-.271C-40.5 95.211 0 52.341 0 0" style="fill-opacity:1;fill-rule:nonzero;stroke:none" transform="translate(322.46 259.334)" fill="#e09932" data-original="#ffbf00" class="" opacity="1"></path><path d="M0 0c0-49.73-36.56-90.93-84.28-98.159 3.27 33.51 23.27 62.2 51.52 77.569A98.83 98.83 0 0 0-46.44 9.041a34.42 34.42 0 0 0-7.081-.74C-72.51 8.301-87.95 23.75-87.95 42.73c0 13.551 7.87 25.301 19.27 30.911-9.96 5.74-18.12 14.48-23.19 25.359C-40.5 95.211 0 52.341 0 0" style="fill-opacity:1;fill-rule:nonzero;stroke:none" transform="translate(322.46 259.334)" fill="#f79800" data-original="#f79800" class=""></path><path d="M0 0c0-54.828-44.446-99.274-99.274-99.274-54.829 0-99.276 44.446-99.276 99.274s44.447 99.275 99.276 99.275C-44.446 99.275 0 54.828 0 0Z" style="stroke-width:15;stroke-linecap:round;stroke-linejoin:round;stroke-miterlimit:10;stroke-dasharray:none;stroke-opacity:1" transform="translate(322.463 259.332)" fill="none" stroke="#000000" stroke-width="15" stroke-linecap="round" stroke-linejoin="round" stroke-miterlimit="10" stroke-dasharray="none" stroke-opacity="" data-original="#000000" class="" opacity="1"></path><path d="M158.539 193.657h-32.921v202.035h32.921z" style="fill-opacity:1;fill-rule:nonzero;stroke:none" fill="#97a2a6" data-original="#bcdde2" class="" opacity="1"></path><path d="M158.539 193.657h-16.46v202.035h16.46z" style="fill-opacity:1;fill-rule:nonzero;stroke:none" fill="#8bc1c6" data-original="#8bc1c6" class=""></path><path d="M0 0v98.854c0 16.373 13.272 29.645 29.646 29.645 16.372 0 29.644-13.272 29.644-29.645V0c0-16.373-13.272-29.646-29.644-29.646C13.272-29.646 0-16.373 0 0" style="fill-opacity:1;fill-rule:nonzero;stroke:none" transform="translate(112.434 56.567)" fill="#e09932" data-original="#ffbf00" class="" opacity="1"></path><path d="M0 0v-98.857c0-16.372-13.269-29.641-29.64-29.641-2.853 0-5.617.408-8.231 1.167 12.371 3.561 21.42 14.955 21.42 28.474V0c0 8.19-3.322 15.594-8.69 20.961a29.601 29.601 0 0 1-12.73 7.522 29.522 29.522 0 0 0 8.231 1.158c8.181 0 15.593-3.313 20.961-8.68C-3.322 15.594 0 8.19 0 0" style="fill-opacity:1;fill-rule:nonzero;stroke:none" transform="translate(171.719 155.422)" fill="#f79800" data-original="#f79800" class=""></path><path d="M158.539 193.657h-32.921v202.035h32.921z" style="stroke-width:15;stroke-linecap:round;stroke-linejoin:round;stroke-miterlimit:10;stroke-dasharray:none;stroke-opacity:1" fill="none" stroke="#000000" stroke-width="15" stroke-linecap="round" stroke-linejoin="round" stroke-miterlimit="10" stroke-dasharray="none" stroke-opacity="" data-original="#000000" class="" opacity="1"></path><path d="M0 0h32.921l9.401-51.725H-9.401Z" style="fill-opacity:1;fill-rule:nonzero;stroke:none" transform="translate(125.618 441.405)" fill="#edeff0" data-original="#dceeef" class="" opacity="1"></path><path d="M0 0h32.921l9.401-51.725H-9.401Z" style="stroke-width:15;stroke-linecap:round;stroke-linejoin:round;stroke-miterlimit:10;stroke-dasharray:none;stroke-opacity:1" transform="translate(125.618 441.405)" fill="none" stroke="#000000" stroke-width="15" stroke-linecap="round" stroke-linejoin="round" stroke-miterlimit="10" stroke-dasharray="none" stroke-opacity="" data-original="#000000" class="" opacity="1"></path><path d="M0 0v98.854c0 16.373 13.272 29.645 29.646 29.645 16.372 0 29.644-13.272 29.644-29.645V0c0-16.373-13.272-29.646-29.644-29.646C13.272-29.646 0-16.373 0 0Z" style="stroke-width:15;stroke-linecap:round;stroke-linejoin:round;stroke-miterlimit:10;stroke-dasharray:none;stroke-opacity:1" transform="translate(112.434 56.567)" fill="none" stroke="#000000" stroke-width="15" stroke-linecap="round" stroke-linejoin="round" stroke-miterlimit="10" stroke-dasharray="none" stroke-opacity="" data-original="#000000" class="" opacity="1"></path><path d="M0 0h-55.386c-7.847 0-14.209 6.361-14.209 14.209 0 7.847 6.362 14.208 14.209 14.208H0c7.848 0 14.209-6.361 14.209-14.208C14.209 6.361 7.848 0 0 0" style="fill-opacity:1;fill-rule:nonzero;stroke:none" transform="translate(169.772 176.124)" fill="#ffd96e" data-original="#ffd96e"></path><path d="M0 0h-55.386c-7.847 0-14.209 6.361-14.209 14.209 0 7.847 6.362 14.208 14.209 14.208H0c7.848 0 14.209-6.361 14.209-14.208C14.209 6.361 7.848 0 0 0Z" style="stroke-width:15;stroke-linecap:round;stroke-linejoin:round;stroke-miterlimit:10;stroke-dasharray:none;stroke-opacity:1" transform="translate(169.772 176.124)" fill="none" stroke="#000000" stroke-width="15" stroke-linecap="round" stroke-linejoin="round" stroke-miterlimit="10" stroke-dasharray="none" stroke-opacity="" data-original="#000000" class="" opacity="1"></path><path d="M0 0v-83.803" style="stroke-width:15;stroke-linecap:round;stroke-linejoin:round;stroke-miterlimit:10;stroke-dasharray:none;stroke-opacity:1" transform="translate(142.08 149.286)" fill="none" stroke="#000000" stroke-width="15" stroke-linecap="round" stroke-linejoin="round" stroke-miterlimit="10" stroke-dasharray="none" stroke-opacity="" data-original="#000000" class="" opacity="1"></path><path d="M0 0c0-12.389-10.043-22.433-22.433-22.433-12.389 0-22.432 10.044-22.432 22.433 0 12.39 10.043 22.433 22.432 22.433C-10.043 22.433 0 12.39 0 0" style="fill-opacity:1;fill-rule:nonzero;stroke:none" transform="translate(497.144 302.069)" fill="#ff9e5c" data-original="#ff9e5c"></path><path d="M0 0c0-12.389-10.043-22.433-22.433-22.433-12.389 0-22.432 10.044-22.432 22.433 0 12.39 10.043 22.433 22.432 22.433C-10.043 22.433 0 12.39 0 0Z" style="stroke-width:15;stroke-linecap:round;stroke-linejoin:round;stroke-miterlimit:10;stroke-dasharray:none;stroke-opacity:1" transform="translate(497.144 302.069)" fill="none" stroke="#000000" stroke-width="15" stroke-linecap="round" stroke-linejoin="round" stroke-miterlimit="10" stroke-dasharray="none" stroke-opacity="" data-original="#000000" class="" opacity="1"></path><path d="M0 0c0-12.389-10.044-22.433-22.433-22.433S-44.865-12.389-44.865 0c0 12.39 10.043 22.433 22.432 22.433S0 12.39 0 0" style="fill-opacity:1;fill-rule:nonzero;stroke:none" transform="translate(291.371 302.069)" fill="#ff9e5c" data-original="#ff9e5c"></path><path d="M0 0c0-12.389-10.044-22.433-22.433-22.433S-44.865-12.389-44.865 0c0 12.39 10.043 22.433 22.432 22.433S0 12.39 0 0Z" style="stroke-width:15;stroke-linecap:round;stroke-linejoin:round;stroke-miterlimit:10;stroke-dasharray:none;stroke-opacity:1" transform="translate(291.371 302.069)" fill="none" stroke="#000000" stroke-width="15" stroke-linecap="round" stroke-linejoin="round" stroke-miterlimit="10" stroke-dasharray="none" stroke-opacity="" data-original="#000000" class="" opacity="1"></path><path d="M0 0h-244.256v126.461c0 48.217 39.088 87.305 87.305 87.305h69.645C-39.088 213.766 0 174.678 0 126.461Z" style="fill-opacity:1;fill-rule:nonzero;stroke:none" transform="translate(493.953 24.983)" fill="#97a2a6" data-original="#009af2" class="" opacity="1"></path><path d="M0 0c-18.236-20.837-45.023-34.013-74.827-34.013-29.794 0-56.571 13.176-74.818 34.003 11.983 6.203 25.583 9.696 40.004 9.696h69.637C-25.583 9.686-11.982 6.193 0 0" style="fill-opacity:1;fill-rule:nonzero;stroke:none" transform="translate(446.647 229.063)" fill="#006fd3" data-original="#006fd3"></path><path d="M493.953 24.983H249.697v76.833h244.256z" style="fill-opacity:1;fill-rule:nonzero;stroke:none" fill="#63d9b6" data-original="#8df4ff" class="" opacity="1"></path><path d="M0 0h240.484" style="stroke-width:15;stroke-linecap:round;stroke-linejoin:round;stroke-miterlimit:10;stroke-dasharray:none;stroke-opacity:1" transform="translate(251.583 101.816)" fill="none" stroke="#000000" stroke-width="15" stroke-linecap="round" stroke-linejoin="round" stroke-miterlimit="10" stroke-dasharray="none" stroke-opacity="" data-original="#000000" class="" opacity="1"></path><path d="M0 0c-17.48 0-31.651 14.171-31.651 31.651V68.65H31.65V31.651C31.65 14.171 17.48 0 0 0" style="fill-opacity:1;fill-rule:nonzero;stroke:none" transform="translate(371.825 166.06)" fill="#e09932" data-original="#ef7d30" class="" opacity="1"></path><path d="M0 0v126.461c0 13.677-3.148 26.617-8.754 38.142" style="stroke-width:15;stroke-linecap:round;stroke-linejoin:round;stroke-miterlimit:10;stroke-dasharray:none;stroke-opacity:1" transform="translate(493.953 24.983)" fill="none" stroke="#000000" stroke-width="15" stroke-linecap="round" stroke-linejoin="round" stroke-miterlimit="10" stroke-dasharray="none" stroke-opacity="" data-original="#000000" class="" opacity="1"></path><path d="M0 0c-15.513 14.132-36.138 22.749-58.776 22.749h-69.646c-48.217 0-87.305-39.088-87.305-87.305v-126.461" style="stroke-width:15;stroke-linecap:round;stroke-linejoin:round;stroke-miterlimit:10;stroke-dasharray:none;stroke-opacity:1" transform="translate(465.424 216)" fill="none" stroke="#000000" stroke-width="15" stroke-linecap="round" stroke-linejoin="round" stroke-miterlimit="10" stroke-dasharray="none" stroke-opacity="" data-original="#000000" class="" opacity="1"></path><path d="M0 0v127.317" style="stroke-width:15;stroke-linecap:round;stroke-linejoin:round;stroke-miterlimit:10;stroke-dasharray:none;stroke-opacity:1" transform="translate(445.951 24.983)" fill="none" stroke="#000000" stroke-width="15" stroke-linecap="round" stroke-linejoin="round" stroke-miterlimit="10" stroke-dasharray="none" stroke-opacity="" data-original="#000000" class="" opacity="1"></path><path d="M0 0v127.317" style="stroke-width:15;stroke-linecap:round;stroke-linejoin:round;stroke-miterlimit:10;stroke-dasharray:none;stroke-opacity:1" transform="translate(297.702 24.983)" fill="none" stroke="#000000" stroke-width="15" stroke-linecap="round" stroke-linejoin="round" stroke-miterlimit="10" stroke-dasharray="none" stroke-opacity="" data-original="#000000" class="" opacity="1"></path><path d="M0 0v0c-17.48 0-31.651 14.171-31.651 31.651V68.65H31.65V31.651C31.65 14.171 17.48 0 0 0Z" style="stroke-width:15;stroke-linecap:round;stroke-linejoin:round;stroke-miterlimit:10;stroke-dasharray:none;stroke-opacity:1" transform="translate(371.825 166.06)" fill="none" stroke="#000000" stroke-width="15" stroke-linecap="round" stroke-linejoin="round" stroke-miterlimit="10" stroke-dasharray="none" stroke-opacity="" data-original="#000000" class="" opacity="1"></path><path d="M0 0v-87.431c0-48.213-39.083-87.296-87.308-87.296-48.213 0-87.296 39.083-87.296 87.296V0Z" style="fill-opacity:1;fill-rule:nonzero;stroke:none" transform="translate(459.129 381.925)" fill="#edeff0" data-original="#ffc197" class="" opacity="1"></path><path d="M0 0v0c-48.216 0-87.303 39.087-87.303 87.303v87.43H87.302v-87.43C87.302 39.087 48.216 0 0 0Z" style="stroke-width:15;stroke-linecap:round;stroke-linejoin:round;stroke-miterlimit:10;stroke-dasharray:none;stroke-opacity:1" transform="translate(371.825 207.196)" fill="none" stroke="#000000" stroke-width="15" stroke-linecap="round" stroke-linejoin="round" stroke-miterlimit="10" stroke-dasharray="none" stroke-opacity="" data-original="#000000" class="" opacity="1"></path><path d="M0 0v1.824" style="stroke-width:15;stroke-linecap:round;stroke-linejoin:round;stroke-miterlimit:10;stroke-dasharray:none;stroke-opacity:1" transform="translate(330.23 300.245)" fill="none" stroke="#000000" stroke-width="15" stroke-linecap="round" stroke-linejoin="round" stroke-miterlimit="10" stroke-dasharray="none" stroke-opacity="" data-original="#000000" class="" opacity="1"></path><path d="M0 0v1.824" style="stroke-width:15;stroke-linecap:round;stroke-linejoin:round;stroke-miterlimit:10;stroke-dasharray:none;stroke-opacity:1" transform="translate(413.42 300.245)" fill="none" stroke="#000000" stroke-width="15" stroke-linecap="round" stroke-linejoin="round" stroke-miterlimit="10" stroke-dasharray="none" stroke-opacity="" data-original="#000000" class="" opacity="1"></path><path d="M0 0c0-10.072-8.165-18.237-18.237-18.237-10.073 0-18.239 8.165-18.239 18.237" style="stroke-width:15;stroke-linecap:round;stroke-linejoin:round;stroke-miterlimit:10;stroke-dasharray:none;stroke-opacity:1" transform="translate(390.063 287.683)" fill="none" stroke="#000000" stroke-width="15" stroke-linecap="round" stroke-linejoin="round" stroke-miterlimit="10" stroke-dasharray="none" stroke-opacity="" data-original="#000000" class="" opacity="1"></path><path d="M0 0h-205.773v51.586c0 42.118 34.143 76.263 76.262 76.263h53.247C-34.145 127.849 0 93.704 0 51.586Z" style="fill-opacity:1;fill-rule:nonzero;stroke:none" transform="translate(474.712 359.168)" fill="#63d9b6" data-original="#8df4ff" class="" opacity="1"></path><path d="M0 0c-12.193 8.268-26.905 13.101-42.746 13.101h-53.248c-42.119 0-76.263-34.144-76.263-76.263v-51.586H33.517v51.586c0 14.447-4.02 27.955-10.998 39.47" style="stroke-width:15;stroke-linecap:round;stroke-linejoin:round;stroke-miterlimit:10;stroke-dasharray:none;stroke-opacity:1" transform="translate(441.195 473.916)" fill="none" stroke="#000000" stroke-width="15" stroke-linecap="round" stroke-linejoin="round" stroke-miterlimit="10" stroke-dasharray="none" stroke-opacity="" data-original="#000000" class="" opacity="1"></path><path d="M0 0h-178.81a45.217 45.217 0 0 0-42.095 28.709c-4.316 11.005 3.799 22.903 15.62 22.903H26.477c11.821 0 19.935-11.898 15.62-22.903A45.22 45.22 0 0 0 0 0" style="fill-opacity:1;fill-rule:nonzero;stroke:none" transform="translate(461.23 337.372)" fill="#97a2a6" data-original="#009af2" class="" opacity="1"></path><path d="M0 0h-178.81a45.217 45.217 0 0 0-42.095 28.709c-4.316 11.005 3.799 22.903 15.62 22.903H26.477c11.821 0 19.935-11.898 15.62-22.903A45.22 45.22 0 0 0 0 0Z" style="stroke-width:15;stroke-linecap:round;stroke-linejoin:round;stroke-miterlimit:10;stroke-dasharray:none;stroke-opacity:1" transform="translate(461.23 337.372)" fill="none" stroke="#000000" stroke-width="15" stroke-linecap="round" stroke-linejoin="round" stroke-miterlimit="10" stroke-dasharray="none" stroke-opacity="" data-original="#000000" class="" opacity="1"></path><path d="M0 0h-25.491c-7.544 0-13.66 6.115-13.66 13.659V31.88c0 7.544 6.116 13.66 13.66 13.66h18.22c7.544 0 13.66-6.116 13.66-13.66V20.811h-22.77v6.544" style="stroke-width:15;stroke-linecap:round;stroke-linejoin:round;stroke-miterlimit:10;stroke-dasharray:none;stroke-opacity:1" transform="translate(388.206 411.623)" fill="none" stroke="#000000" stroke-width="15" stroke-linecap="round" stroke-linejoin="round" stroke-miterlimit="10" stroke-dasharray="none" stroke-opacity="" data-original="#000000" class="" opacity="1"></path></g></g></svg>