<?xml version="1.0" encoding="UTF-8" standalone="no"?>
<!-- Created with Inkscape (http://www.inkscape.org/) -->

<svg
   width="76.89296mm"
   height="102.26061mm"
   viewBox="0 0 76.89296 102.26061"
   version="1.1"
   id="svg1"
   xmlns:inkscape="http://www.inkscape.org/namespaces/inkscape"
   xmlns:sodipodi="http://sodipodi.sourceforge.net/DTD/sodipodi-0.dtd"
   xmlns="http://www.w3.org/2000/svg"
   xmlns:svg="http://www.w3.org/2000/svg">
  <sodipodi:namedview
     id="namedview1"
     pagecolor="#ffffff"
     bordercolor="#000000"
     borderopacity="0.25"
     inkscape:showpageshadow="2"
     inkscape:pageopacity="0.0"
     inkscape:pagecheckerboard="0"
     inkscape:deskcolor="#d1d1d1"
     inkscape:document-units="mm" />
  <defs
     id="defs1">
    <clipPath
       id="a-6"
       clipPathUnits="userSpaceOnUse">
      <path
         d="M 0,512 H 512 V 0 H 0 Z"
         fill="#000000"
         opacity="1"
         data-original="#000000"
         id="path1-9" />
    </clipPath>
  </defs>
  <g
     inkscape:label="Ebene 1"
     inkscape:groupmode="layer"
     id="layer1"
     transform="translate(-254.26456,-65.881247)">
    <path
       id="rect12-3-6-8-2"
       style="fill:#2470a9;fill-opacity:1;stroke:#2470a9;stroke-width:1.122;stroke-dasharray:none;stroke-dashoffset:0;stroke-opacity:1"
       d="m 255.5955,66.484211 62.03465,-0.04167 12.94827,50.407079 -12.94827,50.73124 h -62.61798 l 14.82795,-50.93684 z"
       sodipodi:nodetypes="ccccccc" />
    <g
       id="g43"
       transform="matrix(0.07195764,0,0,0.07195764,272.85166,92.33331)">
      <defs
         id="defs1-7" />
      <g
         clip-path="url(#a-6)"
         transform="matrix(1.33333,0,0,-1.33333,0,682.667)"
         id="g42">
        <path
           d="m 0,0 v -33.49 c 0,-4.69 -3.31,-8.73 -7.91,-9.65 l -19.14,-3.85 c -17.23,-3.469 -31.45,-15.42 -38.15,-31.68 -0.08,-0.17 -0.15,-0.35 -0.22,-0.529 -6.79,-16.291 -5.26,-34.851 4.51,-49.551 L -50.1,-145 c 2.6,-3.899 2.079,-9.1 -1.24,-12.42 l -23.681,-23.68 a 9.84,9.84 0 0 0 -12.409,-1.23 l -16.26,10.801 c -14.69,9.769 -33.26,11.3 -49.549,4.519 -0.171,-0.07 -0.351,-0.15 -0.532,-0.219 -16.249,-6.701 -28.199,-20.92 -31.669,-38.161 l -3.85,-19.13 a 9.86,9.86 0 0 0 -9.66,-7.91 h -33.49 a 9.842,9.842 0 0 0 -9.65,7.91 l -3.85,19.13 c -3.47,17.241 -15.42,31.46 -31.68,38.161 -0.17,0.069 -0.35,0.139 -0.529,0.219 -16.291,6.781 -34.851,5.25 -49.551,-4.519 l -16.25,-10.801 c -3.9,-2.6 -9.1,-2.08 -12.42,1.23 l -23.68,23.68 c -3.31,3.32 -3.83,8.521 -1.23,12.42 l 10.801,16.25 c 9.779,14.7 11.299,33.26 4.519,49.551 -0.07,0.179 -0.15,0.359 -0.22,0.529 -6.7,16.26 -20.92,28.211 -38.16,31.68 l -19.13,3.85 a 9.842,9.842 0 0 0 -7.91,9.65 V 0 a 9.86,9.86 0 0 0 7.91,9.66 l 19.13,3.85 c 17.24,3.47 31.46,15.421 38.16,31.671 0.07,0.179 0.15,0.349 0.22,0.53 6.78,16.289 5.26,34.859 -4.519,49.549 l -10.801,16.25 a 9.856,9.856 0 0 0 1.23,12.421 l 23.68,23.679 a 9.846,9.846 0 0 0 12.42,1.241 l 16.25,-10.81 c 14.7,-9.77 33.26,-11.301 49.551,-4.511 0.179,0.071 0.359,0.14 0.529,0.22 16.26,6.7 28.21,20.92 31.68,38.15 l 3.85,19.141 a 9.84,9.84 0 0 0 9.65,7.909 h 33.49 c 4.69,0 8.73,-3.309 9.66,-7.909 l 3.85,-19.141 a 51.773,51.773 0 0 1 6.09,-15.969 c 5.77,-9.861 14.71,-17.701 25.579,-22.181 0.181,-0.08 0.361,-0.149 0.532,-0.22 16.289,-6.79 34.859,-5.259 49.549,4.511 l 16.26,10.81 a 9.83,9.83 0 0 0 12.409,-1.241 L -51.34,123.931 A 9.846,9.846 0 0 0 -50.1,111.51 L -60.91,95.26 C -70.68,80.57 -72.21,62 -65.42,45.711 c 0.07,-0.181 0.14,-0.351 0.22,-0.53 6.7,-16.25 20.92,-28.201 38.15,-31.671 L -7.91,9.66 A 9.86,9.86 0 0 0 0,0"
           style="fill-opacity:1;fill-rule:nonzero;stroke:none"
           transform="translate(438.88,276.075)"
           fill="#2470a9"
           data-original="#4c94c3"
           class=""
           opacity="1"
           id="path2-2" />
        <path
           d="m 0,0 v -33.49 c 0,-4.69 -3.31,-8.73 -7.91,-9.65 l -19.14,-3.85 c -17.23,-3.469 -31.45,-15.42 -38.15,-31.68 -0.08,-0.17 -0.15,-0.35 -0.22,-0.529 -6.79,-16.291 -5.26,-34.851 4.51,-49.551 L -50.1,-145 c 2.6,-3.899 2.079,-9.1 -1.24,-12.42 l -23.681,-23.68 a 9.84,9.84 0 0 0 -12.409,-1.23 l -16.26,10.801 c -14.69,9.769 -33.26,11.3 -49.549,4.519 -0.171,-0.07 -0.351,-0.15 -0.532,-0.219 -16.249,-6.701 -28.199,-20.92 -31.669,-38.161 l -3.85,-19.13 a 9.86,9.86 0 0 0 -9.66,-7.91 h -2.23 v 107.8 c 0,37.64 21.05,70.46 52,87.3 a 98.843,98.843 0 0 0 -13.68,29.631 34.348,34.348 0 0 0 -7.08,-0.74 c -18.99,0 -34.43,15.449 -34.43,34.429 0,13.551 7.87,25.301 19.27,30.91 -10.969,6.321 -19.75,16.281 -24.629,28.72 a 28.78,28.78 0 0 0 3.019,26.731 28.758,28.758 0 0 0 23.77,12.559 h 1 v 9.771 c 0,7.319 0.9,14.439 2.59,21.25 5.77,-9.861 14.71,-17.701 25.579,-22.181 0.181,-0.08 0.361,-0.149 0.532,-0.22 16.289,-6.79 34.859,-5.259 49.549,4.511 l 16.26,10.81 a 9.83,9.83 0 0 0 12.409,-1.241 L -51.34,123.931 A 9.846,9.846 0 0 0 -50.1,111.51 L -60.91,95.26 C -70.68,80.57 -72.21,62 -65.42,45.711 c 0.07,-0.181 0.14,-0.351 0.22,-0.53 6.7,-16.25 20.92,-28.201 38.15,-31.671 L -7.91,9.66 A 9.86,9.86 0 0 0 0,0"
           style="fill-opacity:1;fill-rule:nonzero;stroke:none"
           transform="translate(438.88,276.075)"
           fill="#3b7ca8"
           data-original="#3b7ca8"
           id="path3-5" />
        <path
           d="m 0,0 c -7.363,-7.992 -17.095,-13.638 -28.057,-15.844 l -19.138,-3.851 a 9.85,9.85 0 0 1 -7.906,-9.656 V -62.84 c 0,-4.69 3.308,-8.73 7.906,-9.655 l 19.138,-3.852 c 17.236,-3.469 31.456,-15.417 38.156,-31.673 l 0.219,-0.529 c 6.784,-16.293 5.256,-34.853 -4.515,-49.55 l -10.808,-16.253 a 9.85,9.85 0 0 1 1.237,-12.418 l 23.681,-23.68 a 9.849,9.849 0 0 1 12.418,-1.237 l 16.253,10.807 c 14.696,9.772 33.258,11.298 49.55,4.515 0.177,-0.073 0.353,-0.147 0.53,-0.219 16.255,-6.7 28.203,-20.92 31.672,-38.156 l 3.851,-19.138 a 9.848,9.848 0 0 1 9.656,-7.905 h 33.489 c 4.69,0 8.73,3.306 9.655,7.905 l 3.852,19.139 c 3.469,17.235 15.418,31.455 31.672,38.155 0.177,0.072 0.353,0.147 0.53,0.219 16.292,6.783 34.855,5.257 49.55,-4.515 l 16.254,-10.807 a 9.848,9.848 0 0 1 12.417,1.237 l 23.68,23.68 a 9.85,9.85 0 0 1 1.238,12.418 l -10.808,16.253 c -9.771,14.697 -11.299,33.258 -4.516,49.55 0.075,0.177 0.148,0.354 0.22,0.529 6.7,16.256 20.92,28.204 38.155,31.673 l 19.139,3.852 a 9.849,9.849 0 0 1 7.906,9.655 v 33.489 a 9.85,9.85 0 0 1 -7.906,9.656 l -19.139,3.851 c -17.235,3.469 -31.455,15.418 -38.155,31.672 -0.072,0.177 -0.145,0.354 -0.22,0.53 -6.783,16.292 -5.255,34.855 4.516,49.55 l 10.808,16.254 a 9.849,9.849 0 0 1 -1.238,12.417 l -23.68,23.681 a 9.849,9.849 0 0 1 -12.417,1.237 l -16.254,-10.808 c -14.695,-9.771 -33.258,-11.298 -49.55,-4.515 l -0.53,0.22 c -16.254,6.7 -28.203,20.919 -31.672,38.155 l -3.852,19.138 a 9.849,9.849 0 0 1 -9.655,7.906 h -33.489 a 9.85,9.85 0 0 1 -9.656,-7.906 l -3.851,-19.138 c -3.469,-17.236 -15.417,-31.455 -31.672,-38.155 l -0.53,-0.22 C 81.842,97.391 63.28,98.918 48.584,108.689 L 32.331,119.497 A 9.85,9.85 0 0 1 19.913,118.26 L -3.768,94.579 A 9.849,9.849 0 0 1 -5.005,82.162 L 5.803,65.908 c 7.106,-10.687 9.83,-23.42 8.189,-35.837"
           style="stroke-width:15;stroke-linecap:round;stroke-linejoin:round;stroke-miterlimit:10;stroke-dasharray:none;stroke-opacity:1"
           transform="translate(62.6,305.428)"
           fill="none"
           stroke="#000000"
           stroke-width="15"
           stroke-linecap="round"
           stroke-linejoin="round"
           stroke-miterlimit="10"
           stroke-dasharray="none"
           stroke-opacity=""
           data-original="#000000"
           class=""
           opacity="1"
           id="path4-6" />
        <path
           d="m 0,0 c 0,-49.73 -36.56,-90.93 -84.28,-98.159 -4.89,-0.74 -9.9,-1.12 -14.991,-1.12 -54.829,0 -99.279,44.45 -99.279,99.279 0,54.83 44.45,99.271 99.279,99.271 2.491,0 4.961,-0.09 7.401,-0.271 C -40.5,95.211 0,52.341 0,0"
           style="fill-opacity:1;fill-rule:nonzero;stroke:none"
           transform="translate(322.46,259.334)"
           fill="#e09932"
           data-original="#ffbf00"
           class=""
           opacity="1"
           id="path5-4" />
        <path
           d="m 0,0 c 0,-49.73 -36.56,-90.93 -84.28,-98.159 3.27,33.51 23.27,62.2 51.52,77.569 a 98.83,98.83 0 0 0 -13.68,29.631 34.42,34.42 0 0 0 -7.081,-0.74 c -18.989,0 -34.429,15.449 -34.429,34.429 0,13.551 7.87,25.301 19.27,30.911 C -78.64,79.381 -86.8,88.121 -91.87,99 -40.5,95.211 0,52.341 0,0"
           style="fill-opacity:1;fill-rule:nonzero;stroke:none"
           transform="translate(322.46,259.334)"
           fill="#f79800"
           data-original="#f79800"
           class=""
           id="path6-3" />
        <path
           d="m 0,0 c 0,-54.828 -44.446,-99.274 -99.274,-99.274 -54.829,0 -99.276,44.446 -99.276,99.274 0,54.828 44.447,99.275 99.276,99.275 C -44.446,99.275 0,54.828 0,0 Z"
           style="stroke-width:15;stroke-linecap:round;stroke-linejoin:round;stroke-miterlimit:10;stroke-dasharray:none;stroke-opacity:1"
           transform="translate(322.463,259.332)"
           fill="none"
           stroke="#000000"
           stroke-width="15"
           stroke-linecap="round"
           stroke-linejoin="round"
           stroke-miterlimit="10"
           stroke-dasharray="none"
           stroke-opacity=""
           data-original="#000000"
           class=""
           opacity="1"
           id="path7-2" />
        <path
           d="m 158.539,193.657 h -32.921 v 202.035 h 32.921 z"
           style="fill-opacity:1;fill-rule:nonzero;stroke:none"
           fill="#97a2a6"
           data-original="#bcdde2"
           class=""
           opacity="1"
           id="path8-5" />
        <path
           d="m 158.539,193.657 h -16.46 v 202.035 h 16.46 z"
           style="fill-opacity:1;fill-rule:nonzero;stroke:none"
           fill="#8bc1c6"
           data-original="#8bc1c6"
           class=""
           id="path9-0" />
        <path
           d="m 0,0 v 98.854 c 0,16.373 13.272,29.645 29.646,29.645 16.372,0 29.644,-13.272 29.644,-29.645 V 0 C 59.29,-16.373 46.018,-29.646 29.646,-29.646 13.272,-29.646 0,-16.373 0,0"
           style="fill-opacity:1;fill-rule:nonzero;stroke:none"
           transform="translate(112.434,56.567)"
           fill="#e09932"
           data-original="#ffbf00"
           class=""
           opacity="1"
           id="path10-0" />
        <path
           d="m 0,0 v -98.857 c 0,-16.372 -13.269,-29.641 -29.64,-29.641 -2.853,0 -5.617,0.408 -8.231,1.167 12.371,3.561 21.42,14.955 21.42,28.474 V 0 c 0,8.19 -3.322,15.594 -8.69,20.961 a 29.601,29.601 0 0 1 -12.73,7.522 29.522,29.522 0 0 0 8.231,1.158 c 8.181,0 15.593,-3.313 20.961,-8.68 C -3.322,15.594 0,8.19 0,0"
           style="fill-opacity:1;fill-rule:nonzero;stroke:none"
           transform="translate(171.719,155.422)"
           fill="#f79800"
           data-original="#f79800"
           class=""
           id="path11-4" />
        <path
           d="m 158.539,193.657 h -32.921 v 202.035 h 32.921 z"
           style="stroke-width:15;stroke-linecap:round;stroke-linejoin:round;stroke-miterlimit:10;stroke-dasharray:none;stroke-opacity:1"
           fill="none"
           stroke="#000000"
           stroke-width="15"
           stroke-linecap="round"
           stroke-linejoin="round"
           stroke-miterlimit="10"
           stroke-dasharray="none"
           stroke-opacity=""
           data-original="#000000"
           class=""
           opacity="1"
           id="path12-7" />
        <path
           d="m 0,0 h 32.921 l 9.401,-51.725 H -9.401 Z"
           style="fill-opacity:1;fill-rule:nonzero;stroke:none"
           transform="translate(125.618,441.405)"
           fill="#edeff0"
           data-original="#dceeef"
           class=""
           opacity="1"
           id="path13-4" />
        <path
           d="m 0,0 h 32.921 l 9.401,-51.725 H -9.401 Z"
           style="stroke-width:15;stroke-linecap:round;stroke-linejoin:round;stroke-miterlimit:10;stroke-dasharray:none;stroke-opacity:1"
           transform="translate(125.618,441.405)"
           fill="none"
           stroke="#000000"
           stroke-width="15"
           stroke-linecap="round"
           stroke-linejoin="round"
           stroke-miterlimit="10"
           stroke-dasharray="none"
           stroke-opacity=""
           data-original="#000000"
           class=""
           opacity="1"
           id="path14-1" />
        <path
           d="m 0,0 v 98.854 c 0,16.373 13.272,29.645 29.646,29.645 16.372,0 29.644,-13.272 29.644,-29.645 V 0 C 59.29,-16.373 46.018,-29.646 29.646,-29.646 13.272,-29.646 0,-16.373 0,0 Z"
           style="stroke-width:15;stroke-linecap:round;stroke-linejoin:round;stroke-miterlimit:10;stroke-dasharray:none;stroke-opacity:1"
           transform="translate(112.434,56.567)"
           fill="none"
           stroke="#000000"
           stroke-width="15"
           stroke-linecap="round"
           stroke-linejoin="round"
           stroke-miterlimit="10"
           stroke-dasharray="none"
           stroke-opacity=""
           data-original="#000000"
           class=""
           opacity="1"
           id="path15-9" />
        <path
           d="m 0,0 h -55.386 c -7.847,0 -14.209,6.361 -14.209,14.209 0,7.847 6.362,14.208 14.209,14.208 H 0 c 7.848,0 14.209,-6.361 14.209,-14.208 C 14.209,6.361 7.848,0 0,0"
           style="fill-opacity:1;fill-rule:nonzero;stroke:none"
           transform="translate(169.772,176.124)"
           fill="#ffd96e"
           data-original="#ffd96e"
           id="path16-0" />
        <path
           d="m 0,0 h -55.386 c -7.847,0 -14.209,6.361 -14.209,14.209 0,7.847 6.362,14.208 14.209,14.208 H 0 c 7.848,0 14.209,-6.361 14.209,-14.208 C 14.209,6.361 7.848,0 0,0 Z"
           style="stroke-width:15;stroke-linecap:round;stroke-linejoin:round;stroke-miterlimit:10;stroke-dasharray:none;stroke-opacity:1"
           transform="translate(169.772,176.124)"
           fill="none"
           stroke="#000000"
           stroke-width="15"
           stroke-linecap="round"
           stroke-linejoin="round"
           stroke-miterlimit="10"
           stroke-dasharray="none"
           stroke-opacity=""
           data-original="#000000"
           class=""
           opacity="1"
           id="path17-3" />
        <path
           d="M 0,0 V -83.803"
           style="stroke-width:15;stroke-linecap:round;stroke-linejoin:round;stroke-miterlimit:10;stroke-dasharray:none;stroke-opacity:1"
           transform="translate(142.08,149.286)"
           fill="none"
           stroke="#000000"
           stroke-width="15"
           stroke-linecap="round"
           stroke-linejoin="round"
           stroke-miterlimit="10"
           stroke-dasharray="none"
           stroke-opacity=""
           data-original="#000000"
           class=""
           opacity="1"
           id="path18-7" />
        <path
           d="m 0,0 c 0,-12.389 -10.043,-22.433 -22.433,-22.433 -12.389,0 -22.432,10.044 -22.432,22.433 0,12.39 10.043,22.433 22.432,22.433 C -10.043,22.433 0,12.39 0,0"
           style="fill-opacity:1;fill-rule:nonzero;stroke:none"
           transform="translate(497.144,302.069)"
           fill="#ff9e5c"
           data-original="#ff9e5c"
           id="path19-1" />
        <path
           d="m 0,0 c 0,-12.389 -10.043,-22.433 -22.433,-22.433 -12.389,0 -22.432,10.044 -22.432,22.433 0,12.39 10.043,22.433 22.432,22.433 C -10.043,22.433 0,12.39 0,0 Z"
           style="stroke-width:15;stroke-linecap:round;stroke-linejoin:round;stroke-miterlimit:10;stroke-dasharray:none;stroke-opacity:1"
           transform="translate(497.144,302.069)"
           fill="none"
           stroke="#000000"
           stroke-width="15"
           stroke-linecap="round"
           stroke-linejoin="round"
           stroke-miterlimit="10"
           stroke-dasharray="none"
           stroke-opacity=""
           data-original="#000000"
           class=""
           opacity="1"
           id="path20-2" />
        <path
           d="m 0,0 c 0,-12.389 -10.044,-22.433 -22.433,-22.433 -12.389,0 -22.432,10.044 -22.432,22.433 0,12.39 10.043,22.433 22.432,22.433 C -10.044,22.433 0,12.39 0,0"
           style="fill-opacity:1;fill-rule:nonzero;stroke:none"
           transform="translate(291.371,302.069)"
           fill="#ff9e5c"
           data-original="#ff9e5c"
           id="path21-0" />
        <path
           d="m 0,0 c 0,-12.389 -10.044,-22.433 -22.433,-22.433 -12.389,0 -22.432,10.044 -22.432,22.433 0,12.39 10.043,22.433 22.432,22.433 C -10.044,22.433 0,12.39 0,0 Z"
           style="stroke-width:15;stroke-linecap:round;stroke-linejoin:round;stroke-miterlimit:10;stroke-dasharray:none;stroke-opacity:1"
           transform="translate(291.371,302.069)"
           fill="none"
           stroke="#000000"
           stroke-width="15"
           stroke-linecap="round"
           stroke-linejoin="round"
           stroke-miterlimit="10"
           stroke-dasharray="none"
           stroke-opacity=""
           data-original="#000000"
           class=""
           opacity="1"
           id="path22-3" />
        <path
           d="m 0,0 h -244.256 v 126.461 c 0,48.217 39.088,87.305 87.305,87.305 h 69.645 C -39.088,213.766 0,174.678 0,126.461 Z"
           style="fill-opacity:1;fill-rule:nonzero;stroke:none"
           transform="translate(493.953,24.983)"
           fill="#97a2a6"
           data-original="#009af2"
           class=""
           opacity="1"
           id="path23-4" />
        <path
           d="m 0,0 c -18.236,-20.837 -45.023,-34.013 -74.827,-34.013 -29.794,0 -56.571,13.176 -74.818,34.003 11.983,6.203 25.583,9.696 40.004,9.696 h 69.637 C -25.583,9.686 -11.982,6.193 0,0"
           style="fill-opacity:1;fill-rule:nonzero;stroke:none"
           transform="translate(446.647,229.063)"
           fill="#006fd3"
           data-original="#006fd3"
           id="path24-1" />
        <path
           d="M 493.953,24.983 H 249.697 v 76.833 h 244.256 z"
           style="fill-opacity:1;fill-rule:nonzero;stroke:none"
           fill="#63d9b6"
           data-original="#8df4ff"
           class=""
           opacity="1"
           id="path25-1" />
        <path
           d="M 0,0 H 240.484"
           style="stroke-width:15;stroke-linecap:round;stroke-linejoin:round;stroke-miterlimit:10;stroke-dasharray:none;stroke-opacity:1"
           transform="translate(251.583,101.816)"
           fill="none"
           stroke="#000000"
           stroke-width="15"
           stroke-linecap="round"
           stroke-linejoin="round"
           stroke-miterlimit="10"
           stroke-dasharray="none"
           stroke-opacity=""
           data-original="#000000"
           class=""
           opacity="1"
           id="path26-8" />
        <path
           d="M 0,0 C -17.48,0 -31.651,14.171 -31.651,31.651 V 68.65 H 31.65 V 31.651 C 31.65,14.171 17.48,0 0,0"
           style="fill-opacity:1;fill-rule:nonzero;stroke:none"
           transform="translate(371.825,166.06)"
           fill="#e09932"
           data-original="#ef7d30"
           class=""
           opacity="1"
           id="path27-1" />
        <path
           d="m 0,0 v 126.461 c 0,13.677 -3.148,26.617 -8.754,38.142"
           style="stroke-width:15;stroke-linecap:round;stroke-linejoin:round;stroke-miterlimit:10;stroke-dasharray:none;stroke-opacity:1"
           transform="translate(493.953,24.983)"
           fill="none"
           stroke="#000000"
           stroke-width="15"
           stroke-linecap="round"
           stroke-linejoin="round"
           stroke-miterlimit="10"
           stroke-dasharray="none"
           stroke-opacity=""
           data-original="#000000"
           class=""
           opacity="1"
           id="path29" />
        <path
           d="m 0,0 c -15.513,14.132 -36.138,22.749 -58.776,22.749 h -69.646 c -48.217,0 -87.305,-39.088 -87.305,-87.305 v -126.461"
           style="stroke-width:15;stroke-linecap:round;stroke-linejoin:round;stroke-miterlimit:10;stroke-dasharray:none;stroke-opacity:1"
           transform="translate(465.424,216)"
           fill="none"
           stroke="#000000"
           stroke-width="15"
           stroke-linecap="round"
           stroke-linejoin="round"
           stroke-miterlimit="10"
           stroke-dasharray="none"
           stroke-opacity=""
           data-original="#000000"
           class=""
           opacity="1"
           id="path30" />
        <path
           d="M 0,0 V 127.317"
           style="stroke-width:15;stroke-linecap:round;stroke-linejoin:round;stroke-miterlimit:10;stroke-dasharray:none;stroke-opacity:1"
           transform="translate(445.951,24.983)"
           fill="none"
           stroke="#000000"
           stroke-width="15"
           stroke-linecap="round"
           stroke-linejoin="round"
           stroke-miterlimit="10"
           stroke-dasharray="none"
           stroke-opacity=""
           data-original="#000000"
           class=""
           opacity="1"
           id="path31" />
        <path
           d="M 0,0 V 127.317"
           style="stroke-width:15;stroke-linecap:round;stroke-linejoin:round;stroke-miterlimit:10;stroke-dasharray:none;stroke-opacity:1"
           transform="translate(297.702,24.983)"
           fill="none"
           stroke="#000000"
           stroke-width="15"
           stroke-linecap="round"
           stroke-linejoin="round"
           stroke-miterlimit="10"
           stroke-dasharray="none"
           stroke-opacity=""
           data-original="#000000"
           class=""
           opacity="1"
           id="path32" />
        <path
           d="M 0,0 V 0 C -17.48,0 -31.651,14.171 -31.651,31.651 V 68.65 H 31.65 V 31.651 C 31.65,14.171 17.48,0 0,0 Z"
           style="stroke-width:15;stroke-linecap:round;stroke-linejoin:round;stroke-miterlimit:10;stroke-dasharray:none;stroke-opacity:1"
           transform="translate(371.825,166.06)"
           fill="none"
           stroke="#000000"
           stroke-width="15"
           stroke-linecap="round"
           stroke-linejoin="round"
           stroke-miterlimit="10"
           stroke-dasharray="none"
           stroke-opacity=""
           data-original="#000000"
           class=""
           opacity="1"
           id="path33" />
        <path
           d="m 0,0 v -87.431 c 0,-48.213 -39.083,-87.296 -87.308,-87.296 -48.213,0 -87.296,39.083 -87.296,87.296 V 0 Z"
           style="fill-opacity:1;fill-rule:nonzero;stroke:none"
           transform="translate(459.129,381.925)"
           fill="#edeff0"
           data-original="#ffc197"
           class=""
           opacity="1"
           id="path34" />
        <path
           d="m 0,0 v 0 c -48.216,0 -87.303,39.087 -87.303,87.303 v 87.43 H 87.302 V 87.303 C 87.302,39.087 48.216,0 0,0 Z"
           style="stroke-width:15;stroke-linecap:round;stroke-linejoin:round;stroke-miterlimit:10;stroke-dasharray:none;stroke-opacity:1"
           transform="translate(371.825,207.196)"
           fill="none"
           stroke="#000000"
           stroke-width="15"
           stroke-linecap="round"
           stroke-linejoin="round"
           stroke-miterlimit="10"
           stroke-dasharray="none"
           stroke-opacity=""
           data-original="#000000"
           class=""
           opacity="1"
           id="path35" />
        <path
           d="M 0,0 V 1.824"
           style="stroke-width:15;stroke-linecap:round;stroke-linejoin:round;stroke-miterlimit:10;stroke-dasharray:none;stroke-opacity:1"
           transform="translate(330.23,300.245)"
           fill="none"
           stroke="#000000"
           stroke-width="15"
           stroke-linecap="round"
           stroke-linejoin="round"
           stroke-miterlimit="10"
           stroke-dasharray="none"
           stroke-opacity=""
           data-original="#000000"
           class=""
           opacity="1"
           id="path36" />
        <path
           d="M 0,0 V 1.824"
           style="stroke-width:15;stroke-linecap:round;stroke-linejoin:round;stroke-miterlimit:10;stroke-dasharray:none;stroke-opacity:1"
           transform="translate(413.42,300.245)"
           fill="none"
           stroke="#000000"
           stroke-width="15"
           stroke-linecap="round"
           stroke-linejoin="round"
           stroke-miterlimit="10"
           stroke-dasharray="none"
           stroke-opacity=""
           data-original="#000000"
           class=""
           opacity="1"
           id="path37" />
        <path
           d="m 0,0 c 0,-10.072 -8.165,-18.237 -18.237,-18.237 -10.073,0 -18.239,8.165 -18.239,18.237"
           style="stroke-width:15;stroke-linecap:round;stroke-linejoin:round;stroke-miterlimit:10;stroke-dasharray:none;stroke-opacity:1"
           transform="translate(390.063,287.683)"
           fill="none"
           stroke="#000000"
           stroke-width="15"
           stroke-linecap="round"
           stroke-linejoin="round"
           stroke-miterlimit="10"
           stroke-dasharray="none"
           stroke-opacity=""
           data-original="#000000"
           class=""
           opacity="1"
           id="path38" />
        <path
           d="m 0,0 h -205.773 v 51.586 c 0,42.118 34.143,76.263 76.262,76.263 h 53.247 C -34.145,127.849 0,93.704 0,51.586 Z"
           style="fill-opacity:1;fill-rule:nonzero;stroke:none"
           transform="translate(474.712,359.168)"
           fill="#63d9b6"
           data-original="#8df4ff"
           class=""
           opacity="1"
           id="path39" />
        <path
           d="m 0,0 c -12.193,8.268 -26.905,13.101 -42.746,13.101 h -53.248 c -42.119,0 -76.263,-34.144 -76.263,-76.263 v -51.586 H 33.517 v 51.586 c 0,14.447 -4.02,27.955 -10.998,39.47"
           style="stroke-width:15;stroke-linecap:round;stroke-linejoin:round;stroke-miterlimit:10;stroke-dasharray:none;stroke-opacity:1"
           transform="translate(441.195,473.916)"
           fill="none"
           stroke="#000000"
           stroke-width="15"
           stroke-linecap="round"
           stroke-linejoin="round"
           stroke-miterlimit="10"
           stroke-dasharray="none"
           stroke-opacity=""
           data-original="#000000"
           class=""
           opacity="1"
           id="path40" />
        <path
           d="m 0,0 h -178.81 a 45.217,45.217 0 0 0 -42.095,28.709 c -4.316,11.005 3.799,22.903 15.62,22.903 H 26.477 c 11.821,0 19.935,-11.898 15.62,-22.903 A 45.22,45.22 0 0 0 0,0"
           style="fill-opacity:1;fill-rule:nonzero;stroke:none"
           transform="translate(461.23,337.372)"
           fill="#97a2a6"
           data-original="#009af2"
           class=""
           opacity="1"
           id="path41" />
        <path
           d="m 0,0 h -178.81 a 45.217,45.217 0 0 0 -42.095,28.709 c -4.316,11.005 3.799,22.903 15.62,22.903 H 26.477 c 11.821,0 19.935,-11.898 15.62,-22.903 A 45.22,45.22 0 0 0 0,0 Z"
           style="stroke-width:15;stroke-linecap:round;stroke-linejoin:round;stroke-miterlimit:10;stroke-dasharray:none;stroke-opacity:1"
           transform="translate(461.23,337.372)"
           fill="none"
           stroke="#000000"
           stroke-width="15"
           stroke-linecap="round"
           stroke-linejoin="round"
           stroke-miterlimit="10"
           stroke-dasharray="none"
           stroke-opacity=""
           data-original="#000000"
           class=""
           opacity="1"
           id="path42" />
        <path
           d="m 0,0 h -25.491 c -7.544,0 -13.66,6.115 -13.66,13.659 V 31.88 c 0,7.544 6.116,13.66 13.66,13.66 h 18.22 c 7.544,0 13.66,-6.116 13.66,-13.66 V 20.811 h -22.77 v 6.544"
           style="stroke-width:15;stroke-linecap:round;stroke-linejoin:round;stroke-miterlimit:10;stroke-dasharray:none;stroke-opacity:1"
           transform="translate(388.206,411.623)"
           fill="none"
           stroke="#000000"
           stroke-width="15"
           stroke-linecap="round"
           stroke-linejoin="round"
           stroke-miterlimit="10"
           stroke-dasharray="none"
           stroke-opacity=""
           data-original="#000000"
           class=""
           opacity="1"
           id="path45" />
      </g>
    </g>
  </g>
</svg>
