<svg xmlns="http://www.w3.org/2000/svg" version="1.1" xmlns:xlink="http://www.w3.org/1999/xlink" width="512" height="512" x="0" y="0" viewBox="0 0 512 512" style="enable-background:new 0 0 512 512" xml:space="preserve" class=""><g><path d="M413.381 353.329v-81.185H41.923l-30 30c-9.449 9.449-2.757 25.607 10.607 25.607h335.244v44.969c0 13.364 16.157 20.057 25.607 10.607l30-29.998z" style="" fill="#ffffff" data-original="#67d461" class="" opacity="1"></path><path d="m413.381 353.329 86.726-86.722c5.858-5.858 5.858-15.356 0-21.214l-116.725-116.72c-9.45-9.45-25.607-2.757-25.607 10.607v44.969H22.53c-13.364 0-20.056 16.157-10.607 25.607L58.067 256l-16.143 16.143c-9.449 9.449-2.757 25.607 10.607 25.607h320.244c8.284 0 15 6.716 15 15v29.972c-.001 13.363 16.156 20.056 25.606 10.607z" style="" fill="#63d9b6" data-original="#94e368" class="" opacity="1"></path><path d="M297.774 327.75h60v44.969c0 13.364 16.157 20.057 25.607 10.607l116.725-116.72c5.858-5.858 5.858-15.356 0-21.214l-116.725-116.72c-9.45-9.449-25.607-2.757-25.607 10.607v44.969H118.067M88.067 184.25H22.53c-13.364 0-20.056 16.157-10.607 25.607L58.067 256l-46.143 46.144c-9.449 9.449-2.757 25.606 10.607 25.606h245.244" style="stroke-width:15;stroke-linecap:round;stroke-linejoin:round;stroke-miterlimit:10;" fill="none" stroke="#000000" stroke-width="15" stroke-linecap="round" stroke-linejoin="round" stroke-miterlimit="10" data-original="#000000" class=""></path></g></svg>