<svg xmlns="http://www.w3.org/2000/svg" version="1.1" xmlns:xlink="http://www.w3.org/1999/xlink" width="512" height="512" x="0" y="0" viewBox="0 0 682.667 682.667" style="enable-background:new 0 0 512 512" xml:space="preserve" class=""><g><defs><clipPath id="a" clipPathUnits="userSpaceOnUse"><path d="M0 512h512V0H0Z" fill="#000000" opacity="1" data-original="#000000"></path></clipPath></defs><g clip-path="url(#a)" transform="matrix(1.33333 0 0 -1.33333 0 682.667)"><path d="M0 0s-39.281-29.905-56.303-63.88c-17.022-33.974-8.293-62.287 2.182-62.287 10.039 0 16.615 22.214 73.118 43.47z" style="fill-opacity:1;fill-rule:nonzero;stroke:none" transform="translate(160.908 202.66)" fill="#2470a9" data-original="#f75632" class="" opacity="1"></path><path d="M0 0s39.281-29.905 56.303-63.88c17.022-33.974 8.293-62.287-2.182-62.287-10.039 0-16.615 22.214-73.118 43.47z" style="fill-opacity:1;fill-rule:nonzero;stroke:none" transform="translate(351.092 202.66)" fill="#2470a9" data-original="#f75632" class="" opacity="1"></path><path d="M0 0c-17.021 33.975-56.303 63.88-56.303 63.88l-5.122-22.301C-50.218 30.215-37.783 15.534-30 0c9.692-19.345 11.03-36.845 8.456-48.337 10.124-8.312 14.305-13.95 19.362-13.95C8.293-62.287 17.022-33.975 0 0" style="fill-opacity:1;fill-rule:nonzero;stroke:none" transform="translate(407.394 138.78)" fill="#2470a9" data-original="#e33629" class="" opacity="1"></path><path d="M0 0c0-68.41-31.74-185.36-31.74-185.36h-167.7S-231.18-68.41-231.18 0c0 161.25 92.279 226.09 115.59 226.09C-92.279 226.09 0 161.25 0 0" style="fill-opacity:1;fill-rule:nonzero;stroke:none" transform="translate(370.532 278.41)" fill="#63d9b6" data-original="#a9dbf5" class="" opacity="1"></path><path d="M0 0c-3.572 0-8.769-1.531-15-4.689C19.431-22.144 85.59-89.55 85.59-226.09c0-68.41-31.74-185.36-31.74-185.36h30s31.74 116.95 31.74 185.36C115.59-64.84 23.312 0 0 0" style="fill-opacity:1;fill-rule:nonzero;stroke:none" transform="translate(254.941 504.5)" fill="#63d9b6" data-original="#88c3e0" class="" opacity="1"></path><path d="M0 0c0-42.526-34.474-77-77-77s-77 34.474-77 77 34.474 77 77 77S0 42.526 0 0" style="fill-opacity:1;fill-rule:nonzero;stroke:none" transform="translate(331.941 300)" fill="#e09932" data-original="#ffd54f" class="" opacity="1"></path><path d="M0 0c0-25.958-21.042-47-47-47-25.957 0-47 21.042-47 47s21.043 47 47 47C-21.042 47 0 25.958 0 0" style="fill-opacity:1;fill-rule:nonzero;stroke:none" transform="translate(301.941 300)" fill="#2470a9" data-original="#43809f" class="" opacity="1"></path><path d="M0 0c44.2-.587 120.283-1.48 179.525-1.565-29.104 65.864-74.687 94.244-90.106 94.244C74.123 92.679 29.13 64.759 0 0" style="fill-opacity:1;fill-rule:nonzero;stroke:none" transform="translate(165.522 411.821)" fill="#2470a9" data-original="#f75632" class="" opacity="1"></path><path d="M0 0c-3.568 0-8.768-1.542-14.991-4.694C5.659-15.166 37.71-43.611 60.064-94.143c10.319-.052 20.405-.087 30.042-.101C61.001-28.379 15.418 0 0 0" style="fill-opacity:1;fill-rule:nonzero;stroke:none" transform="translate(254.941 504.5)" fill="#2470a9" data-original="#e33629" class="" opacity="1"></path><path d="M0 0h-113.006c-5.798 0-10.497 4.7-10.497 10.497V50h134V10.497C10.497 4.7 5.797 0 0 0" style="fill-opacity:1;fill-rule:nonzero;stroke:none" transform="translate(311.445 43.053)" fill="#e09932" data-original="#ffd54f" class="" opacity="1"></path><path d="M0 0v-50h19.503C25.301-50 30-45.3 30-39.503V0Z" style="fill-opacity:1;fill-rule:nonzero;stroke:none" transform="translate(291.941 93.053)" fill="#e09932" data-original="#ffc328" class="" opacity="1"></path><path d="M0 0c0-8.284-6.716-15-15-15-8.284 0-15 6.716-15 15 0 8.284 6.716 15 15 15C-6.716 15 0 8.284 0 0" style="fill-opacity:1;fill-rule:nonzero;stroke:none" transform="translate(160.186 22.5)" fill="#2470a9" data-original="#f75632" class="" opacity="1"></path><path d="M0 0c0-8.284-6.716-15-15-15-8.284 0-15 6.716-15 15 0 8.284 6.716 15 15 15C-6.716 15 0 8.284 0 0" style="fill-opacity:1;fill-rule:nonzero;stroke:none" transform="translate(379.697 22.5)" fill="#2470a9" data-original="#f75632" class="" opacity="1"></path><path d="M0 0c-8.285 0-15 6.716-15 15v73.326C-15 103.116-8.242 132 0 132c8.241 0 15-27.015 15-43.674V15C15 6.716 8.284 0 0 0" style="fill-opacity:1;fill-rule:nonzero;stroke:none" transform="translate(254.942 67.063)" fill="#2470a9" data-original="#f75632" class="" opacity="1"></path><path d="M0 0c0-8.284-6.715-15-15-15-8.284 0-15 6.716-15 15 0 8.284 6.716 15 15 15C-6.715 15 0 8.284 0 0Z" style="stroke-width:15;stroke-linecap:round;stroke-linejoin:round;stroke-miterlimit:10;stroke-dasharray:none;stroke-opacity:1" transform="translate(160.187 22.5)" fill="none" stroke="#000000" stroke-width="15" stroke-linecap="round" stroke-linejoin="round" stroke-miterlimit="10" stroke-dasharray="none" stroke-opacity="" data-original="#000000" class=""></path><path d="M0 0c0-8.284-6.715-15-15-15-8.284 0-15 6.716-15 15 0 8.284 6.716 15 15 15C-6.715 15 0 8.284 0 0Z" style="stroke-width:15;stroke-linecap:round;stroke-linejoin:round;stroke-miterlimit:10;stroke-dasharray:none;stroke-opacity:1" transform="translate(379.696 22.5)" fill="none" stroke="#000000" stroke-width="15" stroke-linecap="round" stroke-linejoin="round" stroke-miterlimit="10" stroke-dasharray="none" stroke-opacity="" data-original="#000000" class=""></path><path d="M0 0c-43.51-19.31-49.77-37.67-58.899-37.67-10.48 0-19.21 28.32-2.181 62.29 10.991 21.94 31.28 42.2 44.26 53.78" style="stroke-width:15;stroke-linecap:round;stroke-linejoin:round;stroke-miterlimit:10;stroke-dasharray:none;stroke-opacity:1" transform="translate(165.69 114.16)" fill="none" stroke="#000000" stroke-width="15" stroke-linecap="round" stroke-linejoin="round" stroke-miterlimit="10" stroke-dasharray="none" stroke-opacity="" data-original="#000000" class=""></path><path d="M0 0c12.83-11.24 34.57-32.39 46.1-55.4 17.03-33.97 8.3-62.29-2.18-62.29-9.26 0-15.57 18.9-60.819 38.51" style="stroke-width:15;stroke-linecap:round;stroke-linejoin:round;stroke-miterlimit:10;stroke-dasharray:none;stroke-opacity:1" transform="translate(361.29 194.18)" fill="none" stroke="#000000" stroke-width="15" stroke-linecap="round" stroke-linejoin="round" stroke-miterlimit="10" stroke-dasharray="none" stroke-opacity="" data-original="#000000" class=""></path><path d="M0 0c-11.194 13.37-17.932 30.598-17.932 49.399 0 42.526 34.474 77 76.999 77 42.526 0 76.999-34.474 76.999-77 0-42.525-34.473-77-76.999-77-12.18 0-23.7 2.829-33.938 7.864" style="stroke-width:15;stroke-linecap:round;stroke-linejoin:round;stroke-miterlimit:10;stroke-dasharray:none;stroke-opacity:1" transform="translate(195.875 250.6)" fill="none" stroke="#000000" stroke-width="15" stroke-linecap="round" stroke-linejoin="round" stroke-miterlimit="10" stroke-dasharray="none" stroke-opacity="" data-original="#000000" class=""></path><path d="M0 0c0-25.958-21.042-47-47-47-25.957 0-47 21.042-47 47s21.043 47 47 47C-21.042 47 0 25.958 0 0Z" style="stroke-width:15;stroke-linecap:round;stroke-linejoin:round;stroke-miterlimit:10;stroke-dasharray:none;stroke-opacity:1" transform="translate(301.941 300)" fill="none" stroke="#000000" stroke-width="15" stroke-linecap="round" stroke-linejoin="round" stroke-miterlimit="10" stroke-dasharray="none" stroke-opacity="" data-original="#000000" class=""></path><path d="M0 0c-18.93 18.61-36.49 27.16-44.96 27.16-23.31 0-115.589-64.84-115.589-226.09 0-68.41 31.739-185.36 31.739-185.36h68.85" style="stroke-width:15;stroke-linecap:round;stroke-linejoin:round;stroke-miterlimit:10;stroke-dasharray:none;stroke-opacity:1" transform="translate(299.9 477.34)" fill="none" stroke="#000000" stroke-width="15" stroke-linecap="round" stroke-linejoin="round" stroke-miterlimit="10" stroke-dasharray="none" stroke-opacity="" data-original="#000000" class=""></path><path d="M0 0h68.85s31.739 116.95 31.739 185.36c0 81.47-23.56 138.34-49.869 174.66" style="stroke-width:15;stroke-linecap:round;stroke-linejoin:round;stroke-miterlimit:10;stroke-dasharray:none;stroke-opacity:1" transform="translate(269.94 93.05)" fill="none" stroke="#000000" stroke-width="15" stroke-linecap="round" stroke-linejoin="round" stroke-miterlimit="10" stroke-dasharray="none" stroke-opacity="" data-original="#000000" class=""></path><path d="M0 0c44.01-.582 118.147-1.446 176.508-1.544" style="stroke-width:15;stroke-linecap:round;stroke-linejoin:round;stroke-miterlimit:10;stroke-dasharray:none;stroke-opacity:1" transform="translate(166.989 411.802)" fill="none" stroke="#000000" stroke-width="15" stroke-linecap="round" stroke-linejoin="round" stroke-miterlimit="10" stroke-dasharray="none" stroke-opacity="" data-original="#000000" class=""></path><path d="M0 0h-57.56c-5.799 0-10.5 4.7-10.5 10.5V50h52" style="stroke-width:15;stroke-linecap:round;stroke-linejoin:round;stroke-miterlimit:10;stroke-dasharray:none;stroke-opacity:1" transform="translate(256 43.05)" fill="none" stroke="#000000" stroke-width="15" stroke-linecap="round" stroke-linejoin="round" stroke-miterlimit="10" stroke-dasharray="none" stroke-opacity="" data-original="#000000" class=""></path><path d="M0 0h52v-39.5C52-45.3 47.3-50 41.5-50H18.301" style="stroke-width:15;stroke-linecap:round;stroke-linejoin:round;stroke-miterlimit:10;stroke-dasharray:none;stroke-opacity:1" transform="translate(269.94 93.05)" fill="none" stroke="#000000" stroke-width="15" stroke-linecap="round" stroke-linejoin="round" stroke-miterlimit="10" stroke-dasharray="none" stroke-opacity="" data-original="#000000" class=""></path><path d="m0 0-21.52-56.21" style="stroke-width:15;stroke-linecap:round;stroke-linejoin:round;stroke-miterlimit:10;stroke-dasharray:none;stroke-opacity:1" transform="translate(171.09 93.05)" fill="none" stroke="#000000" stroke-width="15" stroke-linecap="round" stroke-linejoin="round" stroke-miterlimit="10" stroke-dasharray="none" stroke-opacity="" data-original="#000000" class=""></path><path d="m0 0-21.52 56.21" style="stroke-width:15;stroke-linecap:round;stroke-linejoin:round;stroke-miterlimit:10;stroke-dasharray:none;stroke-opacity:1" transform="translate(360.3 36.84)" fill="none" stroke="#000000" stroke-width="15" stroke-linecap="round" stroke-linejoin="round" stroke-miterlimit="10" stroke-dasharray="none" stroke-opacity="" data-original="#000000" class=""></path><path d="M0 0v0c-8.285 0-15 6.716-15 15v73.326C-15 103.116-8.242 132 0 132c8.241 0 15-27.015 15-43.674V15C15 6.716 8.284 0 0 0Z" style="stroke-width:15;stroke-linecap:round;stroke-linejoin:round;stroke-miterlimit:10;stroke-dasharray:none;stroke-opacity:1" transform="translate(254.942 67.063)" fill="none" stroke="#000000" stroke-width="15" stroke-linecap="round" stroke-linejoin="round" stroke-miterlimit="10" stroke-dasharray="none" stroke-opacity="" data-original="#000000" class=""></path></g></g></svg>