<svg xmlns="http://www.w3.org/2000/svg" version="1.1" xmlns:xlink="http://www.w3.org/1999/xlink" width="512" height="512" x="0" y="0" viewBox="0 0 682.667 682.667" style="enable-background:new 0 0 512 512" xml:space="preserve" class=""><g><defs><clipPath id="a" clipPathUnits="userSpaceOnUse"><path d="M0 512h512V0H0Z" fill="#000000" opacity="1" data-original="#000000" class=""></path></clipPath></defs><path d="M0 0v-83.736" style="stroke-width:15;stroke-linecap:butt;stroke-linejoin:miter;stroke-miterlimit:10;stroke-dasharray:none;stroke-opacity:1" transform="matrix(1.33333 0 0 -1.33333 341.333 209.923)" fill="none" stroke="#000000" stroke-width="15" stroke-linecap="butt" stroke-linejoin="miter" stroke-miterlimit="10" stroke-dasharray="none" stroke-opacity="" data-original="#000000" class=""></path><path d="M0 0h288" style="stroke-width:15;stroke-linecap:butt;stroke-linejoin:miter;stroke-miterlimit:10;stroke-dasharray:none;stroke-opacity:1" transform="matrix(1.33333 0 0 -1.33333 149.333 179.501)" fill="none" stroke="#000000" stroke-width="15" stroke-linecap="butt" stroke-linejoin="miter" stroke-miterlimit="10" stroke-dasharray="none" stroke-opacity="" data-original="#000000" class=""></path><g clip-path="url(#a)" transform="matrix(1.33333 0 0 -1.33333 0 682.667)"><path d="M0 0v-209.462c0-13.807 11.193-25 25-25h298.777c13.807 0 25 11.193 25 25V0" style="stroke-width:15;stroke-linecap:butt;stroke-linejoin:miter;stroke-miterlimit:10;stroke-dasharray:none;stroke-opacity:1" transform="translate(81.611 282.169)" fill="none" stroke="#000000" stroke-width="15" stroke-linecap="butt" stroke-linejoin="miter" stroke-miterlimit="10" stroke-dasharray="none" stroke-opacity="" data-original="#000000" class=""></path><path d="M239.5 203.524h33V129.89h-33z" style="fill-opacity:1;fill-rule:nonzero;stroke:none" fill="#4c5152" data-original="#596c76" class="" opacity="1"></path><path d="M239.5 129.891H255v73.634h-15.5z" style="fill-opacity:1;fill-rule:nonzero;stroke:none" fill="#4c5152" data-original="#465a61" class="" opacity="1"></path><path d="M239.5 203.524h33V129.89h-33z" style="stroke-width:15;stroke-linecap:butt;stroke-linejoin:miter;stroke-miterlimit:10;stroke-dasharray:none;stroke-opacity:1" fill="none" stroke="#000000" stroke-width="15" stroke-linecap="butt" stroke-linejoin="miter" stroke-miterlimit="10" stroke-dasharray="none" stroke-opacity="" data-original="#000000" class=""></path><path d="M0 0h-138.223a5 5 0 0 0-5 5v94.234a5 5 0 0 0 5 5H0a5 5 0 0 0 5-5V5a5 5 0 0 0-5-5" style="fill-opacity:1;fill-rule:nonzero;stroke:none" transform="translate(325.111 176.748)" fill="#63d9b6" data-original="#00c27a" class="" opacity="1"></path><path d="M0 0v94.234a5 5 0 0 0 5 5h-46.111a5 5 0 0 1-5-5V0a5 5 0 0 1 5-5H5a5 5 0 0 0-5 5" style="fill-opacity:1;fill-rule:nonzero;stroke:none" transform="translate(228 181.748)" fill="#63d9b6" data-original="#09a755" class="" opacity="1"></path><path d="M0 0v24.982a5 5 0 0 1-5 5h-138.223a5 5 0 0 1-5-5v-94.234a5 5 0 0 1 5-5H-5a5 5 0 0 1 5 5V-35" style="stroke-width:15;stroke-linecap:round;stroke-linejoin:miter;stroke-miterlimit:10;stroke-dasharray:none;stroke-opacity:1" transform="translate(330.111 251)" fill="none" stroke="#000000" stroke-width="15" stroke-linecap="round" stroke-linejoin="miter" stroke-miterlimit="10" stroke-dasharray="none" stroke-opacity="" data-original="#000000" class=""></path><path d="M0 0v-83.736" style="stroke-width:15;stroke-linecap:butt;stroke-linejoin:miter;stroke-miterlimit:10;stroke-dasharray:none;stroke-opacity:1" transform="translate(256 128.488)" fill="none" stroke="#000000" stroke-width="15" stroke-linecap="butt" stroke-linejoin="miter" stroke-miterlimit="10" stroke-dasharray="none" stroke-opacity="" data-original="#000000" class=""></path><path d="M0 0h-92.321a5 5 0 0 0-5 5v15a5 5 0 0 0 5 5H0a5 5 0 0 0 5-5V5a5 5 0 0 0-5-5" style="fill-opacity:1;fill-rule:nonzero;stroke:none" transform="translate(302.16 120.738)" fill="#97a2a6" data-original="#8d9ca8" class="" opacity="1"></path><path d="M0 0v15a5 5 0 0 0 5 5h-30.839a5 5 0 0 1-5-5V0a5 5 0 0 1 5-5H5a5 5 0 0 0-5 5" style="fill-opacity:1;fill-rule:nonzero;stroke:none" transform="translate(235.679 125.738)" fill="#97a2a6" data-original="#7a8d98" class="" opacity="1"></path><path d="M0 0h-92.321a5 5 0 0 0-5 5v15a5 5 0 0 0 5 5H0a5 5 0 0 0 5-5V5a5 5 0 0 0-5-5Z" style="stroke-width:15;stroke-linecap:butt;stroke-linejoin:miter;stroke-miterlimit:10;stroke-dasharray:none;stroke-opacity:1" transform="translate(302.16 120.738)" fill="none" stroke="#000000" stroke-width="15" stroke-linecap="butt" stroke-linejoin="miter" stroke-miterlimit="10" stroke-dasharray="none" stroke-opacity="" data-original="#000000" class=""></path><path d="M0 0c0-11.322-9.178-20.5-20.5-20.5S-41-11.322-41 0s9.178 20.5 20.5 20.5S0 11.322 0 0" style="fill-opacity:1;fill-rule:nonzero;stroke:none" transform="translate(276.5 48)" fill="#63d9b6" data-original="#00c27a" class="" opacity="1"></path><path d="M0 0c0 8.578 5.273 15.915 12.75 18.973A20.428 20.428 0 0 1 5 20.5c-11.322 0-20.5-9.178-20.5-20.5S-6.322-20.5 5-20.5c2.744 0 5.358.549 7.75 1.527C5.273-15.915 0-8.578 0 0" style="fill-opacity:1;fill-rule:nonzero;stroke:none" transform="translate(251 48)" fill="#63d9b6" data-original="#09a755" class="" opacity="1"></path><path d="M0 0c0-11.322-9.178-20.5-20.5-20.5S-41-11.322-41 0s9.178 20.5 20.5 20.5S0 11.322 0 0Z" style="stroke-width:15;stroke-linecap:butt;stroke-linejoin:miter;stroke-miterlimit:10;stroke-dasharray:none;stroke-opacity:1" transform="translate(276.5 48)" fill="none" stroke="#000000" stroke-width="15" stroke-linecap="butt" stroke-linejoin="miter" stroke-miterlimit="10" stroke-dasharray="none" stroke-opacity="" data-original="#000000" class=""></path><path d="M413.889 350.79h33v-73.633h-33z" style="fill-opacity:1;fill-rule:nonzero;stroke:none" fill="#4c5152" data-original="#596c76" class="" opacity="1"></path><path d="M413.889 277.157H429v73.633h-15.111z" style="fill-opacity:1;fill-rule:nonzero;stroke:none" fill="#4c5152" data-original="#465a61" class="" opacity="1"></path><path d="M413.889 350.79h33v-73.633h-33z" style="stroke-width:15;stroke-linecap:butt;stroke-linejoin:miter;stroke-miterlimit:10;stroke-dasharray:none;stroke-opacity:1" fill="none" stroke="#000000" stroke-width="15" stroke-linecap="butt" stroke-linejoin="miter" stroke-miterlimit="10" stroke-dasharray="none" stroke-opacity="" data-original="#000000" class=""></path><path d="M0 0h-138.222a5 5 0 0 0-5 5v94.233a5 5 0 0 0 5 5H0a5 5 0 0 0 5-5V5a5 5 0 0 0-5-5" style="fill-opacity:1;fill-rule:nonzero;stroke:none" transform="translate(499.5 324.015)" fill="#2470a9" data-original="#01d0fb" class="" opacity="1"></path><path d="M0 0v94.233a5 5 0 0 0 5 5h-46.5a5 5 0 0 1-5-5V0a5 5 0 0 1 5-5H5a5 5 0 0 0-5 5" style="fill-opacity:1;fill-rule:nonzero;stroke:none" transform="translate(402.778 329.015)" fill="#2470a9" data-original="#01c1fa" class="" opacity="1"></path><path d="M0 0h-77.722a5 5 0 0 1-5-5v-94.233a5 5 0 0 1 5-5H60.5a5 5 0 0 1 5 5V-5a5 5 0 0 1-5 5H35" style="stroke-width:15;stroke-linecap:round;stroke-linejoin:round;stroke-miterlimit:10;stroke-dasharray:none;stroke-opacity:1" transform="translate(439 428.248)" fill="none" stroke="#000000" stroke-width="15" stroke-linecap="round" stroke-linejoin="round" stroke-miterlimit="10" stroke-dasharray="none" stroke-opacity="" data-original="#000000" class=""></path><path d="M0 0c0-11.322-9.178-20.5-20.5-20.5S-41-11.322-41 0s9.178 20.5 20.5 20.5S0 11.322 0 0" style="fill-opacity:1;fill-rule:nonzero;stroke:none" transform="translate(450.889 199)" fill="#2470a9" data-original="#01d0fb" class="" opacity="1"></path><path d="M0 0c0 8.65 5.366 16.034 12.944 19.044A20.4 20.4 0 0 1 5.389 20.5c-11.322 0-20.5-9.178-20.5-20.5s9.178-20.5 20.5-20.5a20.4 20.4 0 0 1 7.555 1.456C5.366-16.034 0-8.65 0 0" style="fill-opacity:1;fill-rule:nonzero;stroke:none" transform="translate(425 199)" fill="#2470a9" data-original="#01c1fa" class="" opacity="1"></path><path d="M0 0c0-11.322-9.178-20.5-20.5-20.5S-41-11.322-41 0s9.178 20.5 20.5 20.5S0 11.322 0 0Z" style="stroke-width:15;stroke-linecap:butt;stroke-linejoin:miter;stroke-miterlimit:10;stroke-dasharray:none;stroke-opacity:1" transform="translate(450.889 199)" fill="none" stroke="#000000" stroke-width="15" stroke-linecap="butt" stroke-linejoin="miter" stroke-miterlimit="10" stroke-dasharray="none" stroke-opacity="" data-original="#000000" class=""></path><path d="M0 0h-92.321a5 5 0 0 0-5 5v15a5 5 0 0 0 5 5H0a5 5 0 0 0 5-5V5a5 5 0 0 0-5-5" style="fill-opacity:1;fill-rule:nonzero;stroke:none" transform="translate(476.55 268.004)" fill="#97a2a6" data-original="#8d9ca8" class="" opacity="1"></path><path d="M0 0v15a5 5 0 0 0 5 5h-30.771a5 5 0 0 1-5-5V0a5 5 0 0 1 5-5H5a5 5 0 0 0-5 5" style="fill-opacity:1;fill-rule:nonzero;stroke:none" transform="translate(410 273.004)" fill="#97a2a6" data-original="#7a8d98" class="" opacity="1"></path><path d="M0 0h-92.321a5 5 0 0 0-5 5v15a5 5 0 0 0 5 5H0a5 5 0 0 0 5-5V5a5 5 0 0 0-5-5Z" style="stroke-width:15;stroke-linecap:butt;stroke-linejoin:miter;stroke-miterlimit:10;stroke-dasharray:none;stroke-opacity:1" transform="translate(476.55 268.004)" fill="none" stroke="#000000" stroke-width="15" stroke-linecap="butt" stroke-linejoin="miter" stroke-miterlimit="10" stroke-dasharray="none" stroke-opacity="" data-original="#000000" class=""></path><path d="M65.111 350.79h33v-73.633h-33z" style="fill-opacity:1;fill-rule:nonzero;stroke:none" fill="#4c5152" data-original="#596c76" class="" opacity="1"></path><path d="M65.111 277.157H81v73.633H65.111Z" style="fill-opacity:1;fill-rule:nonzero;stroke:none" fill="#4c5152" data-original="#465a61" class="" opacity="1"></path><path d="M65.111 350.79h33v-73.633h-33z" style="stroke-width:15;stroke-linecap:butt;stroke-linejoin:miter;stroke-miterlimit:10;stroke-dasharray:none;stroke-opacity:1" fill="none" stroke="#000000" stroke-width="15" stroke-linecap="butt" stroke-linejoin="miter" stroke-miterlimit="10" stroke-dasharray="none" stroke-opacity="" data-original="#000000" class=""></path><path d="M0 0h-138.222a5 5 0 0 0-5 5v94.233a5 5 0 0 0 5 5H0a5 5 0 0 0 5-5V5a5 5 0 0 0-5-5" style="fill-opacity:1;fill-rule:nonzero;stroke:none" transform="translate(150.722 324.015)" fill="#e09932" data-original="#fac600" class="" opacity="1"></path><path d="M0 0v94.233a5 5 0 0 0 5 5h-46.278a5 5 0 0 1-5-5V0a5 5 0 0 1 5-5H5a5 5 0 0 0-5 5" style="fill-opacity:1;fill-rule:nonzero;stroke:none" transform="translate(53.778 329.015)" fill="#e09932" data-original="#e8b801" class="" opacity="1"></path><path d="M0 0h-77.5a5 5 0 0 1-5-5v-94.233a5 5 0 0 1 5-5H60.722a5 5 0 0 1 5 5V-5a5 5 0 0 1-5 5H35" style="stroke-width:15;stroke-linecap:round;stroke-linejoin:round;stroke-miterlimit:10;stroke-dasharray:none;stroke-opacity:1" transform="translate(90 428.248)" fill="none" stroke="#000000" stroke-width="15" stroke-linecap="round" stroke-linejoin="round" stroke-miterlimit="10" stroke-dasharray="none" stroke-opacity="" data-original="#000000" class=""></path><path d="M0 0c0-11.322-9.178-20.5-20.5-20.5S-41-11.322-41 0s9.178 20.5 20.5 20.5S0 11.322 0 0" style="fill-opacity:1;fill-rule:nonzero;stroke:none" transform="translate(102.111 199)" fill="#e09932" data-original="#fac600" class="" opacity="1"></path><path d="M0 0c0 8.505 5.18 15.798 12.556 18.902A20.443 20.443 0 0 1 4.611 20.5c-11.322 0-20.5-9.178-20.5-20.5s9.178-20.5 20.5-20.5c2.817 0 5.501.57 7.945 1.598C5.18-15.798 0-8.505 0 0" style="fill-opacity:1;fill-rule:nonzero;stroke:none" transform="translate(77 199)" fill="#e09932" data-original="#e8b801" class="" opacity="1"></path><path d="M0 0c0-11.322-9.178-20.5-20.5-20.5S-41-11.322-41 0s9.178 20.5 20.5 20.5S0 11.322 0 0Z" style="stroke-width:15;stroke-linecap:butt;stroke-linejoin:miter;stroke-miterlimit:10;stroke-dasharray:none;stroke-opacity:1" transform="translate(102.111 199)" fill="none" stroke="#000000" stroke-width="15" stroke-linecap="butt" stroke-linejoin="miter" stroke-miterlimit="10" stroke-dasharray="none" stroke-opacity="" data-original="#000000" class=""></path><path d="M0 0h-92.321a5 5 0 0 0-5 5v15a5 5 0 0 0 5 5H0a5 5 0 0 0 5-5V5a5 5 0 0 0-5-5" style="fill-opacity:1;fill-rule:nonzero;stroke:none" transform="translate(127.772 268.004)" fill="#97a2a6" data-original="#8d9ca8" class="" opacity="1"></path><path d="M0 0v15a5 5 0 0 0 5 5h-30.549a5 5 0 0 1-5-5V0a5 5 0 0 1 5-5H5a5 5 0 0 0-5 5" style="fill-opacity:1;fill-rule:nonzero;stroke:none" transform="translate(61 273.004)" fill="#97a2a6" data-original="#7a8d98" class="" opacity="1"></path><path d="M0 0h-92.321a5 5 0 0 0-5 5v15a5 5 0 0 0 5 5H0a5 5 0 0 0 5-5V5a5 5 0 0 0-5-5Z" style="stroke-width:15;stroke-linecap:butt;stroke-linejoin:miter;stroke-miterlimit:10;stroke-dasharray:none;stroke-opacity:1" transform="translate(127.772 268.004)" fill="none" stroke="#000000" stroke-width="15" stroke-linecap="butt" stroke-linejoin="miter" stroke-miterlimit="10" stroke-dasharray="none" stroke-opacity="" data-original="#000000" class=""></path><path d="M0 0h-86a5 5 0 0 0-5 5v30a5 5 0 0 0 5 5H0a5 5 0 0 0 5-5V5a5 5 0 0 0-5-5" style="fill-opacity:1;fill-rule:nonzero;stroke:none" transform="translate(299 357.374)" fill="#4c5152" data-original="#596c76" class="" opacity="1"></path><path d="M0 0v30a5 5 0 0 0 5 5h-30a5 5 0 0 1-5-5V0a5 5 0 0 1 5-5H5a5 5 0 0 0-5 5" style="fill-opacity:1;fill-rule:nonzero;stroke:none" transform="translate(238 362.374)" fill="#4c5152" data-original="#465a61" class="" opacity="1"></path><path d="M0 0h-86a5 5 0 0 0-5 5v30a5 5 0 0 0 5 5H0a5 5 0 0 0 5-5V5a5 5 0 0 0-5-5Z" style="stroke-width:15;stroke-linecap:round;stroke-linejoin:round;stroke-miterlimit:10;stroke-dasharray:none;stroke-opacity:1" transform="translate(299 357.374)" fill="none" stroke="#000000" stroke-width="15" stroke-linecap="round" stroke-linejoin="round" stroke-miterlimit="10" stroke-dasharray="none" stroke-opacity="" data-original="#000000" class=""></path><path d="M0 0c-26.969 26.969-70.85 26.969-97.818 0" style="stroke-width:15;stroke-linecap:round;stroke-linejoin:round;stroke-miterlimit:10;stroke-dasharray:none;stroke-opacity:1" transform="translate(304.91 464.273)" fill="none" stroke="#000000" stroke-width="15" stroke-linecap="round" stroke-linejoin="round" stroke-miterlimit="10" stroke-dasharray="none" stroke-opacity="" data-original="#000000" class=""></path><path d="M0 0c-14.025 14.025-36.765 14.025-50.79 0" style="stroke-width:15;stroke-linecap:round;stroke-linejoin:round;stroke-miterlimit:10;stroke-dasharray:none;stroke-opacity:1" transform="translate(281.395 444.759)" fill="none" stroke="#000000" stroke-width="15" stroke-linecap="round" stroke-linejoin="round" stroke-miterlimit="10" stroke-dasharray="none" stroke-opacity="" data-original="#000000" class=""></path><path d="M0 0a7.5 7.5 0 0 0 0 10.606 7.5 7.5 0 0 0 10.606 0 7.497 7.497 0 0 0 0-10.606A7.5 7.5 0 0 0 0 0" style="fill-opacity:1;fill-rule:nonzero;stroke:none" transform="translate(250.697 418.86)" fill="#000000" data-original="#000000" class=""></path></g></g></svg>