<svg xmlns="http://www.w3.org/2000/svg" version="1.1" xmlns:xlink="http://www.w3.org/1999/xlink" width="512" height="512" x="0" y="0" viewBox="0 0 511.6 511.6" style="enable-background:new 0 0 512 512" xml:space="preserve" class=""><g><path d="M53.48 388.1H7.95V7.5h61.86M84.81 7.5h223.14v38.67M444.55 292.78V180.62M354.06 504.1H144.55V123.5h300v42.12" style="stroke-width: 15; stroke-miterlimit: 10;" fill="none" stroke="#2470a9" stroke-width="15" stroke-miterlimit="10" data-original="#000000" class="" opacity="1"></path><path d="M399.017 123.505V84.838h-300v380.598h45.533" style="stroke-width: 15; stroke-miterlimit: 10;" fill="none" stroke="#2470a9" stroke-width="15" stroke-miterlimit="10" data-original="#000000" class="" opacity="1"></path><path d="M353.48 84.84V46.17h-300v162.6M53.48 223.77v203h45.54M464.917 331.333l2.746-25.188-41.423-23.958-20.59 15.033h-30.998l-20.59-15.033-41.423 23.959 2.746 25.189-15.472 26.775-23.261 10.227v47.821l23.26 10.227 15.474 26.778-2.746 25.188 41.423 23.958 20.667-15.089h30.845l20.667 15.089 41.423-23.959-2.746-25.188 15.472-26.777 23.261-10.229v-47.817l-23.261-10.229c-5.712-9.882-9.765-16.896-15.474-26.777zM183.661 253.471v-61.346c0-16.569 13.431-30 30-30 16.569 0 30 13.431 30 30v61.346M312.574 204.297h-38.913v-42.173h38.913c11.646 0 21.087 9.441 21.087 21.087 0 11.646-9.441 21.086-21.087 21.086zM363.661 253.471v-98.347M273.661 253.471v-98.347M183.661 209.954h60" style="stroke-width: 15; stroke-miterlimit: 10;" fill="none" stroke="#2470a9" stroke-width="15" stroke-miterlimit="10" data-original="#000000" class="" opacity="1"></path><path d="m341.781 358.142-26.631 34.106 26.631 34.105M438.519 358.142l26.631 34.106-26.631 34.105M418.385 370.472l-56.47 43.551M180.81 315.401h15M210.81 315.401h15" style="stroke-width: 15; stroke-miterlimit: 10;" fill="none" stroke="#2470a9" stroke-width="15" stroke-miterlimit="10" data-original="#000000" class="" opacity="1"></path></g></svg>