<svg xmlns="http://www.w3.org/2000/svg" version="1.1" xmlns:xlink="http://www.w3.org/1999/xlink" width="512" height="512" x="0" y="0" viewBox="0 0 510 510" style="enable-background:new 0 0 512 512" xml:space="preserve" fill-rule="evenodd" class=""><g><path fill="#63d9b6" d="M391.644 309.428V162.535c0-16.149-13.176-29.325-29.325-29.325H147.681c-16.149 0-29.325 13.176-29.325 29.325v146.893c0 16.148 13.176 29.28 29.325 29.28h24.8v49.565a4.086 4.086 0 0 0 7.032 2.831l50.332-52.396h132.474c16.149 0 29.325-13.132 29.325-29.28z" opacity="1" data-original="#6cf5c2" class=""></path><path fill="#00e499" d="m172.481 388.014 47.364-49.306h10l-50.332 52.396a4.086 4.086 0 0 1-7.032-2.831zm179.838-49.306c16.149 0 29.325-13.132 29.325-29.28V162.535c0-16.149-13.176-29.325-29.325-29.325h10c16.149 0 29.325 13.176 29.325 29.325v146.893c0 16.148-13.176 29.28-29.325 29.28z" opacity="1" data-original="#00e499"></path><g fill="#ffe177"><path d="m353.799 48.654-.603-1.776c-2.023-5.96 1.174-12.441 7.134-14.464s12.441 1.173 14.464 7.133l9.879 29.108a11.406 11.406 0 0 1-7.338 14.531l-29.288 9.33c-5.997 1.911-12.417-1.407-14.327-7.404-1.911-5.998 1.407-12.417 7.404-14.328l3.671-1.169C268.184 34.53 174.541 48.511 111.5 111.551c-69.526 69.527-79.379 176.277-29.548 256.348 3.325 5.344 1.687 12.382-3.657 15.708s-12.382 1.687-15.708-3.657C7.279 291.078 18.204 172.592 95.373 95.423c69.829-69.829 173.489-85.417 258.426-46.769zM152.969 459.842l.575 1.786c1.931 5.991-1.366 12.422-7.356 14.352-5.991 1.93-12.422-1.366-14.353-7.357l-9.427-29.257a11.406 11.406 0 0 1 7.561-14.416l29.43-8.875c6.026-1.818 12.393 1.599 14.211 7.625 1.817 6.026-1.6 12.394-7.626 14.211l-3.688 1.112c76.059 36.267 169.907 23.736 233.916-38.321 70.593-68.443 82.097-175.028 33.51-255.861-3.242-5.394-1.495-12.407 3.9-15.649 5.394-3.243 12.406-1.495 15.649 3.899 53.927 89.718 41.17 208.02-37.183 283.986-70.901 68.74-174.791 82.723-259.119 42.765z" fill="#e09932" opacity="1" data-original="#ffe177" class=""></path></g><path d="M399.644 309.428c0 20.557-16.767 37.28-37.325 37.28H233.253l-47.971 49.938a12.086 12.086 0 0 1-20.801-8.373v-41.565h-16.8c-20.557 0-37.325-16.723-37.325-37.28V162.535c0-20.554 16.771-37.325 37.325-37.325h214.638c20.554 0 37.325 16.771 37.325 37.325zm-219.163 69.12 43.595-45.382a8 8 0 0 1 5.769-2.458h132.474c11.74 0 21.325-9.54 21.325-21.28V162.535c0-11.743-9.582-21.325-21.325-21.325H147.681c-11.743 0-21.325 9.582-21.325 21.325v146.893c0 11.74 9.585 21.28 21.325 21.28h24.8a8 8 0 0 1 8 8zm-4.983-180.595c-4.415 0-8-3.585-8-8 0-4.416 3.585-8 8-8h156.431c4.415 0 8 3.584 8 8 0 4.415-3.585 8-8 8zm0 93.033c-4.415 0-8-3.585-8-8s3.585-8 8-8h156.431c4.415 0 8 3.585 8 8s-3.585 8-8 8zm0-46.494c-4.415 0-8-3.585-8-8 0-4.416 3.585-8 8-8h156.431c4.415 0 8 3.584 8 8 0 4.415-3.585 8-8 8zM345.769 36.563c1.949-5.328 6.204-9.761 11.99-11.725 10.141-3.442 21.169 1.997 24.61 12.138l9.88 29.108a19.407 19.407 0 0 1-12.485 24.725l-29.289 9.33c-10.204 3.25-21.127-2.395-24.378-12.599-1.798-5.646-.874-11.512 2.04-16.177-70.954-26.439-153.978-11.157-210.98 45.845-66.846 66.846-76.323 169.48-28.413 246.464 5.658 9.093 2.87 21.069-6.222 26.727-9.092 5.659-21.068 2.871-26.727-6.222-57.229-91.96-45.929-214.561 33.921-294.41 69.172-69.173 170.428-86.906 256.053-53.204zm4.717 19.373C268.497 18.63 168.435 33.675 101.029 101.08c-74.488 74.488-85.037 188.858-31.65 274.643a3.405 3.405 0 0 0 5.781-3.597c-51.753-83.158-41.524-194.025 30.683-266.232 65.47-65.469 162.72-79.989 242.283-43.553a8.001 8.001 0 0 1-.903 14.897l-3.671 1.169a3.405 3.405 0 0 0 2.067 6.487l29.288-9.33a3.406 3.406 0 0 0 2.191-4.338l-9.88-29.107a3.405 3.405 0 0 0-6.447 2.188l.603 1.776a7.999 7.999 0 0 1-10.888 9.853zM178.979 437.533c70.536 27.534 153.787 13.538 211.664-42.575 67.872-65.804 78.936-168.279 32.223-245.996-5.517-9.178-2.545-21.11 6.634-26.627s21.11-2.544 26.628 6.635c55.8 92.834 42.604 215.246-38.472 293.851-70.234 68.094-171.752 84.258-256.845 49.235-2.031 5.298-6.354 9.664-12.17 11.538-10.193 3.285-21.135-2.324-24.42-12.517l-9.428-29.257a19.408 19.408 0 0 1 12.866-24.529l29.43-8.876c10.253-3.092 21.088 2.722 24.18 12.975 1.711 5.673.695 11.524-2.29 16.143zm-22.585 15.08c81.402 38.57 181.685 25.075 250.125-41.28 75.632-73.327 87.949-187.519 35.895-274.121a3.405 3.405 0 0 0-5.835 3.508c50.46 83.949 38.517 194.644-34.799 265.725-66.474 64.449-163.937 77.463-242.927 39.8a8.001 8.001 0 0 1 1.133-14.881l3.688-1.112a3.405 3.405 0 0 0-1.965-6.518l-29.43 8.875a3.403 3.403 0 0 0-2.257 4.304l9.428 29.257a3.406 3.406 0 0 0 4.284 2.196 3.406 3.406 0 0 0 2.196-4.284l-.575-1.786a7.998 7.998 0 0 1 11.039-9.683z" fill="#23303d" opacity="1" data-original="#000000" class=""></path></g></svg>