<svg xmlns="http://www.w3.org/2000/svg" version="1.1" xmlns:xlink="http://www.w3.org/1999/xlink" width="512" height="512" x="0" y="0" viewBox="0 0 48 48" style="enable-background:new 0 0 512 512" xml:space="preserve" class=""><g><path d="M29 14.25H7c-.956 0-.975 1.5 0 1.5h22c.944 0 .956-1.5 0-1.5zM25 19.25H7c-.945 0-.978 1.5 0 1.5h18c.894 0 .97-1.5 0-1.5zM7 25.75h9c.937 0 .996-1.5 0-1.5H7c-.97 0-.97 1.5 0 1.5zM16 29.25H7c-.948 0-.974 1.5 0 1.5h9c.962 0 .974-1.5 0-1.5zM7 39.25c-.943 0-.97 1.5 0 1.5h9c.935 0 .977-1.5 0-1.5H7zM16 34.25H7c-.951 0-.975 1.5 0 1.5h9c.953 0 .975-1.5 0-1.5zM43 24.25H23A3.754 3.754 0 0 0 19.25 28v9A3.754 3.754 0 0 0 23 40.75h20A3.754 3.754 0 0 0 46.75 37v-9A3.754 3.754 0 0 0 43 24.25zM45.25 37c0 1.24-1.01 2.25-2.25 2.25H23c-1.24 0-2.25-1.01-2.25-2.25v-9c0-1.24 1.01-2.25 2.25-2.25h20c1.24 0 2.25 1.01 2.25 2.25z" fill="#2470a9" opacity="1" data-original="#000000" class=""></path><path d="M28 28.25A2.753 2.753 0 0 0 25.25 31v5c0 .945 1.5.976 1.5 0v-1.25h2.5V36c0 .96 1.5.976 1.5 0v-5A2.753 2.753 0 0 0 28 28.25zm1.25 5h-2.5V31a1.251 1.251 0 0 1 2.5 0zM35 28.25h-2a.75.75 0 0 0-.75.75v7c0 .97 1.5.97 1.5 0v-2.25H35c1.517 0 2.75-1.233 2.75-2.75s-1.233-2.75-2.75-2.75zm0 4h-1.25v-2.5H35a1.251 1.251 0 0 1 0 2.5zM39.999 28.31c-.375-.007-.749.215-.749.69v7c0 .946 1.5.924 1.5 0v-7c0-.444-.376-.682-.751-.69z" fill="#2470a9" opacity="1" data-original="#000000" class=""></path><path d="M34 42.25a.75.75 0 0 0-.75.75c0 1.24-1.01 2.25-2.25 2.25H5c-1.24 0-2.25-1.01-2.25-2.25V5c0-1.24 1.01-2.25 2.25-2.25h19.25V10c0 .965.785 1.75 1.75 1.75h7.25V22a.75.75 0 0 0 1.5 0V11a.75.75 0 0 0-.22-.53l-9-9a.75.75 0 0 0-.53-.22H5A3.754 3.754 0 0 0 1.25 5v38A3.754 3.754 0 0 0 5 46.75h26A3.754 3.754 0 0 0 34.75 43a.75.75 0 0 0-.75-.75zM25.75 10V3.81l6.44 6.44H26a.25.25 0 0 1-.25-.25z" fill="#2470a9" opacity="1" data-original="#000000" class=""></path></g></svg>