<svg xmlns="http://www.w3.org/2000/svg" version="1.1" xmlns:xlink="http://www.w3.org/1999/xlink" width="512" height="512" x="0" y="0" viewBox="0 0 512 512" style="enable-background:new 0 0 512 512" xml:space="preserve" class=""><g><path d="M256 440c-101.458 0-184-82.542-184-184S154.542 72 256 72s184 82.542 184 184-82.542 184-184 184Zm0-352c-92.636 0-168 75.364-168 168s75.364 168 168 168 168-75.364 168-168S348.636 88 256 88Z" style="" fill="#70d6b1" data-original="#70d6b1"></path><path d="M312.359 120q-.356-3.952-.359-8a87.973 87.973 0 1 1 14.232 48L280 152Z" style="" fill="#edeff0" data-original="#dfdfdf" class="" opacity="1"></path><circle cx="400" cy="112" r="56" style="" fill="#63d9b6" data-original="#00b378" class="" opacity="1"></circle><path d="M198.549 384a88.035 88.035 0 1 1-18.664-40H224ZM313.451 384a88.035 88.035 0 1 0 18.664-40H288ZM199.641 120q.356-3.952.359-8a87.973 87.973 0 1 0-14.232 48L232 152Z" style="" fill="#edeff0" data-original="#dfdfdf" class="" opacity="1"></path><path d="M304 312h-96v-19.204a32 32 0 0 1 19.004-29.242l38.743-17.22A24 24 0 0 0 280 224.404V184h-24a24 24 0 0 0-24 24v16.403a24 24 0 0 0 14.253 21.932l38.743 17.219A32 32 0 0 1 304 292.796Z" style="" fill="#2470a9" data-original="#5ca4cc" class="" opacity="1"></path><path d="M64 376h32v64H64z" style="" fill="#e09932" data-original="#00a16c" class="" opacity="1"></path><path d="M149.552 384H144l3.03-12.12A16 16 0 0 0 131.508 352H128l-16 32H96v32l11.25 16.875A16 16 0 0 0 120.563 440h25.56a16 16 0 0 0 15.84-13.737l3.428-24A16 16 0 0 0 149.551 384Z" style="" fill="#63d9b6" data-original="#31c292" class="" opacity="1"></path><path d="M168 119.36v-14.72l-14.064-3.372-4.688-11.315 7.585-12.377-10.408-10.409-12.378 7.585-11.315-4.688L119.36 56h-14.72l-3.372 14.063-11.315 4.69-12.377-7.586-10.408 10.408 7.584 12.378-4.688 11.315L56 104.64v14.72l14.064 3.372 4.688 11.315-7.585 12.377 10.408 10.409 12.378-7.585 11.315 4.688L104.64 168h14.72l3.372-14.063 11.315-4.69 12.377 7.586 10.408-10.408-7.584-12.378 4.688-11.315ZM112 128a16 16 0 1 1 16-16 16 16 0 0 1-16 16Z" style="" fill="#63d9b6" data-original="#00b378" class="" opacity="1"></path><path d="M278.676 121.88a138.274 138.274 0 0 0-45.352 0l-2.648-15.778a154.333 154.333 0 0 1 50.648 0ZM107.767 289.77a153.273 153.273 0 0 1 0-67.54l15.603 3.54a137.262 137.262 0 0 0 0 60.46ZM256 408a152.878 152.878 0 0 1-33.77-3.767l3.54-15.603a137.89 137.89 0 0 0 60.46 0l3.54 15.603A152.878 152.878 0 0 1 256 408ZM404.233 289.77l-15.603-3.54a137.262 137.262 0 0 0 0-60.46l15.603-3.54a153.273 153.273 0 0 1 0 67.54Z" style="" fill="#7db6d6" data-original="#7db6d6"></path><circle cx="400" cy="384" r="40" style="" fill="#63d9b6" data-original="#31c292" class="" opacity="1"></circle><path d="m419.578 383.155-7.156-14.31L400 375.056l-12.422-6.211-7.156 14.31L392 388.944V424h16v-35.056l11.578-5.789z" style="" fill="#e09932" data-original="#00a16c" class="" opacity="1"></path><path d="M384 416h32v40h-32z" style="" fill="#e09932" data-original="#00a16c" class="" opacity="1"></path><path d="m434.544 80.357-34.668 36.205-10.22-10.22-11.313 11.315 16 16A8 8 0 0 0 400 136h.087a8.003 8.003 0 0 0 5.691-2.467l40.083-41.86Z" style="" fill="#70d6b1" data-original="#70d6b1"></path><path d="M312 312v-19.204a40.036 40.036 0 0 0-23.754-36.553l-13.42-5.964A32.04 32.04 0 0 0 288 224.403V184a8 8 0 0 0-8-8h-24a32.036 32.036 0 0 0-32 32v16.403a32.038 32.038 0 0 0 13.174 25.876l-13.42 5.964A40.036 40.036 0 0 0 200 292.796V312a8 8 0 0 0 8 8h96a8 8 0 0 0 8-8Zm-72-104a16.018 16.018 0 0 1 16-16h16v32.403a16.014 16.014 0 0 1-9.501 14.621L256 241.912l-6.498-2.888a16.014 16.014 0 0 1-9.502-14.62Zm56 96h-80v-11.204a24.022 24.022 0 0 1 14.252-21.932L256 259.422l25.747 11.442A24.022 24.022 0 0 1 296 292.796ZM400 176a64.007 64.007 0 0 0 52.524-100.577 8 8 0 0 0-12.34-.956l-40.308 42.096-10.22-10.22-11.313 11.314 16 16A8 8 0 0 0 400 136h.087a8.003 8.003 0 0 0 5.691-2.467l38.472-40.178a47.973 47.973 0 1 1-23.683-24.74l6.866-14.453A64.006 64.006 0 1 0 400 176ZM154.136 376.441l.655-2.62A24 24 0 0 0 131.508 344H128a8 8 0 0 0-7.155 4.422L107.055 376H104a8 8 0 0 0-8-8H64a8 8 0 0 0-8 8v64a8 8 0 0 0 8 8h32a7.995 7.995 0 0 0 7.892-6.746A23.938 23.938 0 0 0 120.563 448h25.56a24.117 24.117 0 0 0 23.759-20.605l3.429-24a24.001 24.001 0 0 0-19.175-26.954ZM88 432H72v-48h16Zm69.472-30.87-3.429 24.002a8.04 8.04 0 0 1-7.92 6.868h-25.56a7.986 7.986 0 0 1-6.657-3.563L104 413.579V392h8a8 8 0 0 0 7.155-4.422l13.73-27.46a8.004 8.004 0 0 1 6.384 9.822l-3.03 12.12A8 8 0 0 0 144 392h5.552a8 8 0 0 1 7.92 9.13ZM400 336a47.983 47.983 0 0 0-24 89.542V456a8 8 0 0 0 8 8h32a8 8 0 0 0 8-8v-30.458A47.983 47.983 0 0 0 400 336Zm8 96v16h-16v-16Zm0-17.013v-26.043l11.578-5.789-7.156-14.31-12.422 6.21-12.422-6.21-7.156 14.31 11.578 5.79v26.042a32 32 0 1 1 16 0ZM127.14 169.865l2.421-10.098 3.782-1.568 8.901 5.455a8.002 8.002 0 0 0 9.838-1.165l10.407-10.407a8 8 0 0 0 1.165-9.837l-5.455-8.902 1.567-3.782 10.1-2.421a8 8 0 0 0 6.134-7.78v-14.72a8 8 0 0 0-6.135-7.78l-10.099-2.422-1.567-3.782 5.455-8.901a8 8 0 0 0-1.165-9.837l-10.407-10.407a8 8 0 0 0-9.837-1.164l-8.902 5.454-3.781-1.568-2.422-10.098A8 8 0 0 0 119.36 48h-14.72a8 8 0 0 0-7.78 6.135L94.44 64.233l-3.782 1.568-8.901-5.455a7.999 7.999 0 0 0-9.838 1.165L61.511 71.918a8 8 0 0 0-1.165 9.837l5.455 8.902-1.567 3.782-10.1 2.421A8 8 0 0 0 48 104.64v14.72a8 8 0 0 0 6.135 7.78l10.099 2.422 1.567 3.782-5.455 8.901a8 8 0 0 0 1.165 9.837l10.407 10.407a8.002 8.002 0 0 0 9.837 1.164l8.902-5.454 3.781 1.568 2.422 10.098a8 8 0 0 0 7.78 6.135h14.72a8 8 0 0 0 7.78-6.135Zm-12.187-17.794L113.05 160h-2.103l-1.901-7.929a8 8 0 0 0-4.717-5.525l-11.314-4.689a8 8 0 0 0-7.243.57l-7 4.289-1.49-1.488 4.29-7.001a8 8 0 0 0 .57-7.243l-4.689-11.314a7.998 7.998 0 0 0-5.525-4.717L64 113.052v-2.104l7.93-1.901a7.998 7.998 0 0 0 5.525-4.717l4.688-11.314a8 8 0 0 0-.57-7.243l-4.29-7 1.49-1.49 7 4.29a8.004 8.004 0 0 0 7.243.57l11.315-4.689a7.999 7.999 0 0 0 4.716-5.525L110.95 64h2.103l1.901 7.929a8 8 0 0 0 4.717 5.525l11.314 4.689a7.994 7.994 0 0 0 7.243-.57l7-4.289 1.49 1.488-4.29 7.001a8 8 0 0 0-.57 7.243l4.689 11.314a7.998 7.998 0 0 0 5.525 4.717l7.929 1.901v2.104l-7.93 1.901a7.998 7.998 0 0 0-5.525 4.717l-4.688 11.314a8 8 0 0 0 .57 7.243l4.29 7-1.49 1.49-7-4.29a7.996 7.996 0 0 0-7.243-.57l-11.315 4.689a7.999 7.999 0 0 0-4.716 5.525Z" fill="#23303d" opacity="1" data-original="#000000" class=""></path><path d="M136 112a24 24 0 1 0-24 24 24.027 24.027 0 0 0 24-24Zm-24 8a8 8 0 1 1 8-8 8.01 8.01 0 0 1-8 8Z" fill="#23303d" opacity="1" data-original="#000000" class=""></path><path d="M432.084 309.52a184.877 184.877 0 0 0 0-107.04A96 96 0 1 0 309.52 79.915a184.892 184.892 0 0 0-107.042.001A96 96 0 1 0 79.916 202.48a184.877 184.877 0 0 0 0 107.041A96 96 0 1 0 202.48 432.083a184.874 184.874 0 0 0 107.041 0A96 96 0 1 0 432.084 309.52ZM400 32a80 80 0 1 1-67.067 123.63 7.998 7.998 0 0 0-5.337-3.513l-30.926-5.351 21.314-21.078a8 8 0 0 0 2.343-6.406A81.493 81.493 0 0 1 320 112a80.09 80.09 0 0 1 80-80ZM32 112a80 80 0 0 1 160 0c0 2.43-.11 4.88-.327 7.281a8.001 8.001 0 0 0 2.343 6.407l21.314 21.078-30.926 5.351a7.998 7.998 0 0 0-5.337 3.514A80.008 80.008 0 0 1 32 112Zm80 368a80 80 0 1 1 61.717-130.906 7.999 7.999 0 0 0 6.168 2.906h29.543l-17.629 27.705a8 8 0 0 0-1.118 5.74A80.078 80.078 0 0 1 112 480Zm144-56a167.918 167.918 0 0 1-49.44-7.397 96.69 96.69 0 0 0 .382-30.892l23.808-37.416A8 8 0 0 0 224 336h-40.444a96.064 96.064 0 0 0-88.159-30.56 168.918 168.918 0 0 1 0-98.88 96.07 96.07 0 0 0 95.083-39.256l42.884-7.421a8 8 0 0 0 4.261-13.571l-29.748-29.418c.082-1.63.123-3.266.123-4.894a96.207 96.207 0 0 0-1.44-16.602 168.945 168.945 0 0 1 98.881-.003A96.217 96.217 0 0 0 304 112c0 1.626.042 3.263.123 4.894l-29.748 29.418a8 8 0 0 0 4.26 13.57l42.885 7.422a96.07 96.07 0 0 0 95.083 39.255 168.918 168.918 0 0 1 0 98.882A96.064 96.064 0 0 0 328.443 336H288a8 8 0 0 0-6.75 12.295l23.808 37.416a96.69 96.69 0 0 0 .383 30.892A167.918 167.918 0 0 1 256 424Zm144 56a80.078 80.078 0 0 1-78.68-94.555 8 8 0 0 0-1.12-5.74L302.573 352h29.543a7.999 7.999 0 0 0 6.168-2.906A80.001 80.001 0 1 1 400 480Z" fill="#23303d" opacity="1" data-original="#000000" class=""></path><path d="m278.676 121.88 2.648-15.778a154.333 154.333 0 0 0-50.648 0l2.648 15.779a138.274 138.274 0 0 1 45.352 0ZM107.767 222.23a153.273 153.273 0 0 0 0 67.54l15.603-3.54a137.262 137.262 0 0 1 0-60.46ZM225.77 388.63l-3.54 15.603a153.268 153.268 0 0 0 67.54 0l-3.54-15.603a137.89 137.89 0 0 1-60.46 0ZM404.233 289.77a153.273 153.273 0 0 0 0-67.54l-15.603 3.54a137.262 137.262 0 0 1 0 60.46Z" fill="#23303d" opacity="1" data-original="#000000" class=""></path></g></svg>