<svg xmlns="http://www.w3.org/2000/svg" version="1.1" xmlns:xlink="http://www.w3.org/1999/xlink" width="512" height="512" x="0" y="0" viewBox="0 0 512 512" style="enable-background:new 0 0 512 512" xml:space="preserve" class=""><g><g fill-rule="evenodd"><path d="M379.431 53.835h60.6a6.388 6.388 0 0 1 6.388 6.388v429.389A6.388 6.388 0 0 1 440.03 496H108.521a6.388 6.388 0 0 1-6.388-6.388v-31.448H71.97a6.388 6.388 0 0 1-6.388-6.388V22.388A6.388 6.388 0 0 1 71.97 16h266.98a6.368 6.368 0 0 1 4.555 1.91z" fill="#23303d" opacity="1" data-original="#000000" class=""></path><path fill="#edeff0" d="M397.091 93.305H338.95a6.388 6.388 0 0 1-6.388-6.388V28.776H78.358v416.612h318.733zM122.417 414.122a6.388 6.388 0 0 1 0-12.776h230.167a6.388 6.388 0 0 1 0 12.776zm74.118-32.283a6.388 6.388 0 1 1 0-12.775h156.049a6.388 6.388 0 1 1 0 12.775zm-74.118 0a6.388 6.388 0 1 1 0-12.775h38.405a6.388 6.388 0 1 1 0 12.775zm81.759-50.522a6.387 6.387 0 0 1-9.032-9.033l19.676-19.676-19.676-19.676a6.387 6.387 0 0 1 9.032-9.033l24.193 24.192a6.388 6.388 0 0 1 0 9.033zM169.9 341.386a6.38 6.38 0 0 1-12.327-3.294L177.7 263a6.379 6.379 0 0 1 12.326 3.294l-20.121 75.1zm-17.44-19.935a6.387 6.387 0 0 1-9.033 9.033l-24.193-24.192a6.388 6.388 0 0 1 0-9.033l24.193-24.193a6.387 6.387 0 0 1 9.033 9.033l-19.677 19.676zm105.345-83.861H152.318a44.983 44.983 0 1 1 .5-89.964 48.992 48.992 0 0 1 84.431-19.983 34.289 34.289 0 0 1 47.993 19.983h4.376a44.727 44.727 0 0 1 28.152 9.975 45.3 45.3 0 0 1 14.63 21.167 6.375 6.375 0 0 1 3.29 4.327h.013l1.812 8.4 2.712 1.111 6.846-4.662a6.375 6.375 0 0 1 8.219.878L370.03 203.2a6.372 6.372 0 0 1 .92 8.007l-4.677 7.249 1.14 2.714 8.118 1.541a6.371 6.371 0 0 1 5.194 6.521l.256 20.507a6.367 6.367 0 0 1-5.043 6.3v.012l-8.4 1.813-1.111 2.711 4.662 6.847a6.375 6.375 0 0 1-.878 8.218l-14.371 14.735a6.373 6.373 0 0 1-8.008.921l-7.249-4.677-2.714 1.14-1.541 8.118a6.373 6.373 0 0 1-6.521 5.194l-20.507.255a6.365 6.365 0 0 1-6.3-5.043h-.012l-1.812-8.4-2.712-1.11-6.847 4.662a6.376 6.376 0 0 1-8.218-.878l-14.739-14.371a6.373 6.373 0 0 1-.92-8.008l4.677-7.249-1.14-2.715-8.118-1.54a6.375 6.375 0 0 1-5.194-6.522z" opacity="1" data-original="#e6e6e6" class=""></path><path fill="#edeff0" d="M397.091 93.305H338.95a6.388 6.388 0 0 1-6.388-6.388V28.776h-73.108a306.119 306.119 0 0 0-46.61 83.635 49.317 49.317 0 0 1 24.406 15.232 34.289 34.289 0 0 1 47.993 19.983h4.376a44.727 44.727 0 0 1 28.152 9.975 45.3 45.3 0 0 1 14.629 21.167 6.375 6.375 0 0 1 3.29 4.327h.013l1.812 8.4 2.712 1.111 6.846-4.662a6.375 6.375 0 0 1 8.219.878L370.03 203.2a6.372 6.372 0 0 1 .92 8.007l-4.677 7.249 1.14 2.714 8.118 1.541a6.371 6.371 0 0 1 5.194 6.521l.256 20.507a6.367 6.367 0 0 1-5.043 6.3v.012l-8.4 1.813-1.111 2.711 4.662 6.847a6.375 6.375 0 0 1-.878 8.218l-14.371 14.735a6.373 6.373 0 0 1-8.008.921l-7.249-4.677-2.714 1.14-1.541 8.118a6.373 6.373 0 0 1-6.521 5.194l-20.507.255a6.365 6.365 0 0 1-6.3-5.043h-.012l-1.812-8.4-2.712-1.11-6.847 4.662a6.376 6.376 0 0 1-8.218-.878l-14.739-14.371a6.373 6.373 0 0 1-.92-8.008l4.677-7.249-1.14-2.715-8.118-1.54a6.375 6.375 0 0 1-5.194-6.522l-.157-12.56h-62.92a305.811 305.811 0 0 0 4.128 34.471 6.371 6.371 0 0 1 5.163 1.838l24.193 24.192a6.388 6.388 0 0 1 0 9.033l-15.692 15.692a305.518 305.518 0 0 0 21.391 46.248h118.513a6.388 6.388 0 1 1 0 12.775H241.741q6.348 10.023 13.436 19.507h97.407a6.388 6.388 0 0 1 0 12.776H265.29a308.8 308.8 0 0 0 30.039 31.266h101.762zM208.112 309.316q-2.857-9.15-5.13-18.546l11.838 11.838z" opacity="1" data-original="#f7f7f8" class=""></path><path fill="#63d9b6" d="M318.4 178.189a32.276 32.276 0 0 0-28.781-17.789h-9.4a6.386 6.386 0 0 1-6.313-5.436c-2.446-16.183-21.47-23.646-34.32-13.8v-.005a6.38 6.38 0 0 1-9.154-1.517 36.263 36.263 0 0 0-66.006 14.792 6.388 6.388 0 0 1-6.374 5.969h-5.734a32.206 32.206 0 1 0 0 64.412h107.523a6.337 6.337 0 0 1 2.908-1.471v-.013l8.4-1.812 1.111-2.711-4.66-6.848a6.377 6.377 0 0 1 .878-8.219l14.373-14.735a6.373 6.373 0 0 1 8.008-.92l7.248 4.676 2.716-1.141 1.54-8.117a6.374 6.374 0 0 1 6.522-5.194z" opacity="1" data-original="#4c9ec7" class=""></path><path fill="#63d9b6" d="M318.4 178.189a32.276 32.276 0 0 0-28.781-17.789h-9.4a6.386 6.386 0 0 1-6.313-5.436c-2.446-16.183-21.47-23.646-34.32-13.8v-.005a6.38 6.38 0 0 1-9.154-1.517 36.119 36.119 0 0 0-24.293-15.611 108.237 108.237 0 0 0-16.39 11.487A36.207 36.207 0 0 0 177.7 157.5a6.389 6.389 0 0 1-6.374 5.969h-5.734a32.191 32.191 0 0 0-13.665 61.344h107.914a6.337 6.337 0 0 1 2.908-1.471v-.013l8.4-1.812 1.111-2.711-4.66-6.846a6.377 6.377 0 0 1 .878-8.219l14.373-14.735a6.373 6.373 0 0 1 8.008-.92l5.636 3.636a6.351 6.351 0 0 1 4.605-1.564l1.263-6.654a6.374 6.374 0 0 1 6.522-5.194z" opacity="1" data-original="#94d3f2" class=""></path><path fill="#edeff0" d="M114.909 458.164v25.06h318.733V66.611h-41.435L408 82.4a6.368 6.368 0 0 1 1.871 4.516v364.86a6.388 6.388 0 0 1-6.388 6.388z" opacity="1" data-original="#ccc4c4" class=""></path><path fill="#edeff0" d="M347.167 483.224h86.475V66.611h-41.435L408 82.4a6.368 6.368 0 0 1 1.871 4.516v364.86a6.388 6.388 0 0 1-6.388 6.388h-93.067a307.388 307.388 0 0 0 36.751 25.06z" opacity="1" data-original="#e6e6e6" class=""></path><path fill="#97a2a6" d="M345.338 37.808v42.721h42.721z" opacity="1" data-original="#a6a6a6" class=""></path><path fill="#2470a9" d="M334.075 203.824c-3.482-1.432-7.3-1.622-8.267-6.128l-1.478-6.853-10.412.129-1.2 6.343c-.806 4.923-4.606 5.059-8.317 6.61-3.469 1.45-6.317 3.982-10.141 1.521l-5.92-3.818-7.272 7.455 3.749 5.506c2.738 3.943.128 6.817-1.334 10.372-1.432 3.482-1.623 7.3-6.128 8.267l-6.854 1.478.13 10.413 6.344 1.2c4.923.806 5.059 4.607 6.609 8.315 1.45 3.47 3.984 6.316 1.522 10.142l-3.82 5.921 7.455 7.272 5.506-3.748c3.943-2.738 6.816-.129 10.372 1.333 3.48 1.431 7.3 1.622 8.267 6.128l1.478 6.854 10.413-.13 1.2-6.344c.806-4.922 4.606-5.059 8.316-6.61 3.469-1.45 6.315-3.983 10.14-1.521l5.921 3.82 7.272-7.456-3.748-5.5c-2.737-3.943-.129-6.816 1.334-10.373 1.432-3.482 1.622-7.3 6.128-8.266l6.853-1.479-.13-10.412-6.343-1.2c-4.921-.805-5.059-4.6-6.61-8.316-1.45-3.47-3.984-6.314-1.522-10.14l3.82-5.921-7.455-7.272-5.5 3.748c-3.944 2.738-6.817.128-10.373-1.334zM300.1 220.935a26.87 26.87 0 1 1 .485 38 26.881 26.881 0 0 1-.485-38z" opacity="1" data-original="#5897cc" class=""></path><path fill="#edeff0" d="M319.165 225.553c-12.49.155-18.712 15.447-9.693 24.246 9.049 8.826 24.165 2.2 24.011-10.288a14.162 14.162 0 0 0-14.318-13.958z" opacity="1" data-original="#f7f7f8" class=""></path></g></g></svg>